<svg width="716" height="108" viewBox="0 0 716 108" fill="none" xmlns="http://www.w3.org/2000/svg">
<path d="M9.36 29.288H26.688V33.416H9.36V29.288ZM9.84 47H5.04V13.4H28.752V17.576H9.84V47ZM47.7679 47.288C45.0479 47.288 42.6479 46.728 40.5679 45.608C38.5199 44.488 36.9199 42.952 35.7679 41C34.6479 39.048 34.0879 36.808 34.0879 34.28C34.0879 31.752 34.6319 29.512 35.7199 27.56C36.8399 25.608 38.3599 24.088 40.2799 23C42.2319 21.88 44.4239 21.32 46.8559 21.32C49.3199 21.32 51.4959 21.864 53.3839 22.952C55.2719 24.04 56.7439 25.576 57.7999 27.56C58.8879 29.512 59.4319 31.8 59.4319 34.424C59.4319 34.616 59.4159 34.84 59.3839 35.096C59.3839 35.352 59.3679 35.592 59.3359 35.816H37.6879V32.504H56.9359L55.0639 33.656C55.0959 32.024 54.7599 30.568 54.0559 29.288C53.3519 28.008 52.3759 27.016 51.1279 26.312C49.9119 25.576 48.4879 25.208 46.8559 25.208C45.2559 25.208 43.8319 25.576 42.5839 26.312C41.3359 27.016 40.3599 28.024 39.6559 29.336C38.9519 30.616 38.5999 32.088 38.5999 33.752V34.52C38.5999 36.216 38.9839 37.736 39.7519 39.08C40.5519 40.392 41.6559 41.416 43.0639 42.152C44.4719 42.888 46.0879 43.256 47.9119 43.256C49.4159 43.256 50.7759 43 51.9919 42.488C53.2399 41.976 54.3279 41.208 55.2559 40.184L57.7999 43.16C56.6479 44.504 55.2079 45.528 53.4799 46.232C51.7839 46.936 49.8799 47.288 47.7679 47.288ZM83.3194 47V41.624L83.0794 40.616V31.448C83.0794 29.496 82.5034 27.992 81.3514 26.936C80.2314 25.848 78.5354 25.304 76.2634 25.304C74.7594 25.304 73.2874 25.56 71.8474 26.072C70.4074 26.552 69.1914 27.208 68.1994 28.04L66.2794 24.584C67.5914 23.528 69.1594 22.728 70.9834 22.184C72.8394 21.608 74.7754 21.32 76.7914 21.32C80.2794 21.32 82.9674 22.168 84.8554 23.864C86.7434 25.56 87.6874 28.152 87.6874 31.64V47H83.3194ZM74.9674 47.288C73.0794 47.288 71.4154 46.968 69.9754 46.328C68.5674 45.688 67.4794 44.808 66.7114 43.688C65.9434 42.536 65.5594 41.24 65.5594 39.8C65.5594 38.424 65.8794 37.176 66.5194 36.056C67.1914 34.936 68.2634 34.04 69.7354 33.368C71.2394 32.696 73.2554 32.36 75.7834 32.36H83.8474V35.672H75.9754C73.6714 35.672 72.1194 36.056 71.3194 36.824C70.5194 37.592 70.1194 38.52 70.1194 39.608C70.1194 40.856 70.6154 41.864 71.6074 42.632C72.5994 43.368 73.9754 43.736 75.7354 43.736C77.4634 43.736 78.9674 43.352 80.2474 42.584C81.5594 41.816 82.5034 40.696 83.0794 39.224L83.9914 42.392C83.3834 43.896 82.3114 45.096 80.7754 45.992C79.2394 46.856 77.3034 47.288 74.9674 47.288ZM107.351 47.288C104.791 47.288 102.807 46.6 101.399 45.224C99.9909 43.848 99.2869 41.88 99.2869 39.32V15.992H103.895V39.128C103.895 40.504 104.231 41.56 104.903 42.296C105.607 43.032 106.599 43.4 107.879 43.4C109.319 43.4 110.519 43 111.479 42.2L112.919 45.512C112.215 46.12 111.367 46.568 110.375 46.856C109.415 47.144 108.407 47.288 107.351 47.288ZM94.9669 25.352V21.56H111.191V25.352H94.9669ZM131.594 47.288C129.418 47.288 127.498 46.888 125.834 46.088C124.202 45.288 122.922 44.072 121.994 42.44C121.098 40.776 120.65 38.696 120.65 36.2V21.56H125.258V35.672C125.258 38.168 125.85 40.04 127.034 41.288C128.25 42.536 129.946 43.16 132.122 43.16C133.722 43.16 135.114 42.84 136.298 42.2C137.482 41.528 138.394 40.568 139.034 39.32C139.674 38.04 139.994 36.504 139.994 34.712V21.56H144.602V47H140.234V40.136L140.954 41.96C140.122 43.656 138.874 44.968 137.21 45.896C135.546 46.824 133.674 47.288 131.594 47.288ZM155.774 47V21.56H160.19V28.472L159.758 26.744C160.462 24.984 161.646 23.64 163.31 22.712C164.974 21.784 167.022 21.32 169.454 21.32V25.784C169.262 25.752 169.07 25.736 168.878 25.736C168.718 25.736 168.558 25.736 168.398 25.736C165.934 25.736 163.982 26.472 162.542 27.944C161.102 29.416 160.382 31.544 160.382 34.328V47H155.774ZM188.627 47.288C185.907 47.288 183.507 46.728 181.427 45.608C179.379 44.488 177.779 42.952 176.627 41C175.507 39.048 174.947 36.808 174.947 34.28C174.947 31.752 175.491 29.512 176.579 27.56C177.699 25.608 179.219 24.088 181.139 23C183.091 21.88 185.283 21.32 187.715 21.32C190.179 21.32 192.355 21.864 194.243 22.952C196.131 24.04 197.603 25.576 198.659 27.56C199.747 29.512 200.291 31.8 200.291 34.424C200.291 34.616 200.275 34.84 200.243 35.096C200.243 35.352 200.227 35.592 200.195 35.816H178.547V32.504H197.795L195.923 33.656C195.955 32.024 195.619 30.568 194.915 29.288C194.211 28.008 193.235 27.016 191.987 26.312C190.771 25.576 189.347 25.208 187.715 25.208C186.115 25.208 184.691 25.576 183.443 26.312C182.195 27.016 181.219 28.024 180.515 29.336C179.811 30.616 179.459 32.088 179.459 33.752V34.52C179.459 36.216 179.843 37.736 180.611 39.08C181.411 40.392 182.515 41.416 183.923 42.152C185.331 42.888 186.947 43.256 188.771 43.256C190.275 43.256 191.635 43 192.851 42.488C194.099 41.976 195.187 41.208 196.115 40.184L198.659 43.16C197.507 44.504 196.067 45.528 194.339 46.232C192.643 46.936 190.739 47.288 188.627 47.288ZM216.386 47.288C214.274 47.288 212.258 47 210.338 46.424C208.45 45.848 206.962 45.144 205.874 44.312L207.794 40.664C208.882 41.4 210.226 42.024 211.826 42.536C213.426 43.048 215.058 43.304 216.722 43.304C218.866 43.304 220.402 43 221.33 42.392C222.29 41.784 222.77 40.936 222.77 39.848C222.77 39.048 222.482 38.424 221.906 37.976C221.33 37.528 220.562 37.192 219.602 36.968C218.674 36.744 217.634 36.552 216.482 36.392C215.33 36.2 214.178 35.976 213.026 35.72C211.874 35.432 210.818 35.048 209.858 34.568C208.898 34.056 208.13 33.368 207.554 32.504C206.978 31.608 206.69 30.424 206.69 28.952C206.69 27.416 207.122 26.072 207.986 24.92C208.85 23.768 210.066 22.888 211.634 22.28C213.234 21.64 215.122 21.32 217.298 21.32C218.962 21.32 220.642 21.528 222.338 21.944C224.066 22.328 225.474 22.888 226.562 23.624L224.594 27.272C223.442 26.504 222.242 25.976 220.994 25.688C219.746 25.4 218.498 25.256 217.25 25.256C215.234 25.256 213.73 25.592 212.738 26.264C211.746 26.904 211.25 27.736 211.25 28.76C211.25 29.624 211.538 30.296 212.114 30.776C212.722 31.224 213.49 31.576 214.418 31.832C215.378 32.088 216.434 32.312 217.586 32.504C218.738 32.664 219.89 32.888 221.042 33.176C222.194 33.432 223.234 33.8 224.162 34.28C225.122 34.76 225.89 35.432 226.466 36.296C227.074 37.16 227.378 38.312 227.378 39.752C227.378 41.288 226.93 42.616 226.034 43.736C225.138 44.856 223.874 45.736 222.242 46.376C220.61 46.984 218.658 47.288 216.386 47.288ZM266.619 47V41.624L266.379 40.616V31.448C266.379 29.496 265.803 27.992 264.651 26.936C263.531 25.848 261.835 25.304 259.563 25.304C258.059 25.304 256.587 25.56 255.147 26.072C253.707 26.552 252.491 27.208 251.499 28.04L249.579 24.584C250.891 23.528 252.459 22.728 254.283 22.184C256.139 21.608 258.075 21.32 260.091 21.32C263.579 21.32 266.267 22.168 268.155 23.864C270.043 25.56 270.987 28.152 270.987 31.64V47H266.619ZM258.267 47.288C256.379 47.288 254.715 46.968 253.275 46.328C251.867 45.688 250.779 44.808 250.011 43.688C249.243 42.536 248.859 41.24 248.859 39.8C248.859 38.424 249.179 37.176 249.819 36.056C250.491 34.936 251.563 34.04 253.035 33.368C254.539 32.696 256.555 32.36 259.083 32.36H267.147V35.672H259.275C256.971 35.672 255.419 36.056 254.619 36.824C253.819 37.592 253.419 38.52 253.419 39.608C253.419 40.856 253.915 41.864 254.907 42.632C255.899 43.368 257.275 43.736 259.035 43.736C260.763 43.736 262.267 43.352 263.547 42.584C264.859 41.816 265.803 40.696 266.379 39.224L267.291 42.392C266.683 43.896 265.611 45.096 264.075 45.992C262.539 46.856 260.603 47.288 258.267 47.288ZM295.499 21.32C297.579 21.32 299.403 21.72 300.971 22.52C302.571 23.32 303.819 24.536 304.715 26.168C305.611 27.8 306.059 29.864 306.059 32.36V47H301.451V32.888C301.451 30.424 300.843 28.568 299.627 27.32C298.443 26.072 296.763 25.448 294.587 25.448C292.955 25.448 291.531 25.768 290.315 26.408C289.099 27.048 288.155 27.992 287.483 29.24C286.843 30.488 286.523 32.04 286.523 33.896V47H281.915V21.56H286.331V28.424L285.611 26.6C286.443 24.936 287.723 23.64 289.451 22.712C291.179 21.784 293.195 21.32 295.499 21.32ZM327.499 47.288C325.035 47.288 322.827 46.744 320.875 45.656C318.955 44.568 317.435 43.048 316.315 41.096C315.195 39.144 314.635 36.872 314.635 34.28C314.635 31.688 315.195 29.432 316.315 27.512C317.435 25.56 318.955 24.04 320.875 22.952C322.827 21.864 325.035 21.32 327.499 21.32C329.643 21.32 331.579 21.8 333.307 22.76C335.035 23.72 336.411 25.16 337.435 27.08C338.491 29 339.019 31.4 339.019 34.28C339.019 37.16 338.507 39.56 337.483 41.48C336.491 43.4 335.131 44.856 333.403 45.848C331.675 46.808 329.707 47.288 327.499 47.288ZM327.883 43.256C329.483 43.256 330.923 42.888 332.203 42.152C333.515 41.416 334.539 40.376 335.275 39.032C336.043 37.656 336.427 36.072 336.427 34.28C336.427 32.456 336.043 30.888 335.275 29.576C334.539 28.232 333.515 27.192 332.203 26.456C330.923 25.72 329.483 25.352 327.883 25.352C326.251 25.352 324.795 25.72 323.515 26.456C322.235 27.192 321.211 28.232 320.443 29.576C319.675 30.888 319.291 32.456 319.291 34.28C319.291 36.072 319.675 37.656 320.443 39.032C321.211 40.376 322.235 41.416 323.515 42.152C324.795 42.888 326.251 43.256 327.883 43.256ZM336.571 47V40.136L336.859 34.232L336.379 28.328V11.384H340.987V47H336.571ZM368.068 47V13.4H382.228C385.812 13.4 388.964 14.104 391.684 15.512C394.436 16.92 396.564 18.888 398.068 21.416C399.604 23.944 400.372 26.872 400.372 30.2C400.372 33.528 399.604 36.456 398.068 38.984C396.564 41.512 394.436 43.48 391.684 44.888C388.964 46.296 385.812 47 382.228 47H368.068ZM372.868 42.824H381.94C384.724 42.824 387.124 42.296 389.14 41.24C391.188 40.184 392.772 38.712 393.892 36.824C395.012 34.904 395.572 32.696 395.572 30.2C395.572 27.672 395.012 25.464 393.892 23.576C392.772 21.688 391.188 20.216 389.14 19.16C387.124 18.104 384.724 17.576 381.94 17.576H372.868V42.824ZM420.78 47.288C418.06 47.288 415.66 46.728 413.58 45.608C411.532 44.488 409.932 42.952 408.78 41C407.66 39.048 407.1 36.808 407.1 34.28C407.1 31.752 407.644 29.512 408.732 27.56C409.852 25.608 411.372 24.088 413.292 23C415.244 21.88 417.436 21.32 419.868 21.32C422.332 21.32 424.508 21.864 426.396 22.952C428.284 24.04 429.756 25.576 430.812 27.56C431.9 29.512 432.444 31.8 432.444 34.424C432.444 34.616 432.428 34.84 432.396 35.096C432.396 35.352 432.38 35.592 432.348 35.816H410.7V32.504H429.948L428.076 33.656C428.108 32.024 427.772 30.568 427.068 29.288C426.364 28.008 425.388 27.016 424.14 26.312C422.924 25.576 421.5 25.208 419.868 25.208C418.268 25.208 416.844 25.576 415.596 26.312C414.348 27.016 413.372 28.024 412.668 29.336C411.964 30.616 411.612 32.088 411.612 33.752V34.52C411.612 36.216 411.996 37.736 412.764 39.08C413.564 40.392 414.668 41.416 416.076 42.152C417.484 42.888 419.1 43.256 420.924 43.256C422.428 43.256 423.788 43 425.004 42.488C426.252 41.976 427.34 41.208 428.268 40.184L430.812 43.16C429.66 44.504 428.22 45.528 426.492 46.232C424.796 46.936 422.892 47.288 420.78 47.288ZM449.979 47.288C447.419 47.288 445.435 46.6 444.027 45.224C442.619 43.848 441.915 41.88 441.915 39.32V15.992H446.523V39.128C446.523 40.504 446.859 41.56 447.531 42.296C448.235 43.032 449.227 43.4 450.507 43.4C451.947 43.4 453.147 43 454.107 42.2L455.547 45.512C454.843 46.12 453.995 46.568 453.003 46.856C452.043 47.144 451.035 47.288 449.979 47.288ZM437.595 25.352V21.56H453.819V25.352H437.595ZM479.31 47V41.624L479.07 40.616V31.448C479.07 29.496 478.494 27.992 477.342 26.936C476.222 25.848 474.526 25.304 472.254 25.304C470.75 25.304 469.278 25.56 467.838 26.072C466.398 26.552 465.182 27.208 464.19 28.04L462.27 24.584C463.582 23.528 465.15 22.728 466.974 22.184C468.83 21.608 470.766 21.32 472.782 21.32C476.27 21.32 478.958 22.168 480.846 23.864C482.734 25.56 483.678 28.152 483.678 31.64V47H479.31ZM470.958 47.288C469.07 47.288 467.406 46.968 465.966 46.328C464.558 45.688 463.47 44.808 462.702 43.688C461.934 42.536 461.55 41.24 461.55 39.8C461.55 38.424 461.87 37.176 462.51 36.056C463.182 34.936 464.254 34.04 465.726 33.368C467.23 32.696 469.246 32.36 471.774 32.36H479.838V35.672H471.966C469.662 35.672 468.11 36.056 467.31 36.824C466.51 37.592 466.11 38.52 466.11 39.608C466.11 40.856 466.606 41.864 467.598 42.632C468.59 43.368 469.966 43.736 471.726 43.736C473.454 43.736 474.958 43.352 476.238 42.584C477.55 41.816 478.494 40.696 479.07 39.224L479.982 42.392C479.374 43.896 478.302 45.096 476.766 45.992C475.23 46.856 473.294 47.288 470.958 47.288ZM494.605 47V21.56H499.213V47H494.605ZM496.909 16.664C496.013 16.664 495.261 16.376 494.653 15.8C494.077 15.224 493.789 14.52 493.789 13.688C493.789 12.824 494.077 12.104 494.653 11.528C495.261 10.952 496.013 10.664 496.909 10.664C497.805 10.664 498.541 10.952 499.117 11.528C499.725 12.072 500.029 12.76 500.029 13.592C500.029 14.456 499.741 15.192 499.165 15.8C498.589 16.376 497.837 16.664 496.909 16.664ZM510.412 47V11.384H515.02V47H510.412ZM526.218 47V21.56H530.826V47H526.218ZM528.522 16.664C527.626 16.664 526.874 16.376 526.266 15.8C525.69 15.224 525.402 14.52 525.402 13.688C525.402 12.824 525.69 12.104 526.266 11.528C526.874 10.952 527.626 10.664 528.522 10.664C529.418 10.664 530.154 10.952 530.73 11.528C531.338 12.072 531.642 12.76 531.642 13.592C531.642 14.456 531.354 15.192 530.778 15.8C530.202 16.376 529.45 16.664 528.522 16.664ZM555.608 21.32C557.688 21.32 559.512 21.72 561.08 22.52C562.68 23.32 563.928 24.536 564.824 26.168C565.72 27.8 566.168 29.864 566.168 32.36V47H561.56V32.888C561.56 30.424 560.952 28.568 559.736 27.32C558.552 26.072 556.872 25.448 554.696 25.448C553.064 25.448 551.64 25.768 550.424 26.408C549.208 27.048 548.264 27.992 547.592 29.24C546.952 30.488 546.632 32.04 546.632 33.896V47H542.024V21.56H546.44V28.424L545.72 26.6C546.552 24.936 547.832 23.64 549.56 22.712C551.288 21.784 553.304 21.32 555.608 21.32ZM588.232 56.6C585.896 56.6 583.624 56.264 581.416 55.592C579.24 54.952 577.464 54.024 576.088 52.808L578.296 49.256C579.48 50.28 580.936 51.08 582.664 51.656C584.392 52.264 586.2 52.568 588.088 52.568C591.096 52.568 593.304 51.864 594.712 50.456C596.12 49.048 596.824 46.904 596.824 44.024V38.648L597.304 33.608L597.064 28.52V21.56H601.432V43.544C601.432 48.024 600.312 51.32 598.072 53.432C595.832 55.544 592.552 56.6 588.232 56.6ZM587.656 45.944C585.192 45.944 582.984 45.432 581.032 44.408C579.112 43.352 577.576 41.896 576.424 40.04C575.304 38.184 574.744 36.04 574.744 33.608C574.744 31.144 575.304 29 576.424 27.176C577.576 25.32 579.112 23.88 581.032 22.856C582.984 21.832 585.192 21.32 587.656 21.32C589.832 21.32 591.816 21.768 593.608 22.664C595.4 23.528 596.824 24.872 597.88 26.696C598.968 28.52 599.512 30.824 599.512 33.608C599.512 36.36 598.968 38.648 597.88 40.472C596.824 42.296 595.4 43.672 593.608 44.6C591.816 45.496 589.832 45.944 587.656 45.944ZM588.184 41.912C589.88 41.912 591.384 41.56 592.696 40.856C594.008 40.152 595.032 39.176 595.768 37.928C596.536 36.68 596.92 35.24 596.92 33.608C596.92 31.976 596.536 30.536 595.768 29.288C595.032 28.04 594.008 27.08 592.696 26.408C591.384 25.704 589.88 25.352 588.184 25.352C586.488 25.352 584.968 25.704 583.624 26.408C582.312 27.08 581.272 28.04 580.504 29.288C579.768 30.536 579.4 31.976 579.4 33.608C579.4 35.24 579.768 36.68 580.504 37.928C581.272 39.176 582.312 40.152 583.624 40.856C584.968 41.56 586.488 41.912 588.184 41.912Z" fill="#D9D9D9"/>
<path d="M4.2 98V74.92C4.2 72.84 4.8 71.1867 6 69.96C7.22667 68.7067 8.96 68.08 11.2 68.08C12.0267 68.08 12.8133 68.1867 13.56 68.4C14.3333 68.5867 14.9867 68.8933 15.52 69.32L14.36 72.24C13.96 71.92 13.5067 71.68 13 71.52C12.4933 71.3333 11.96 71.24 11.4 71.24C10.28 71.24 9.42667 71.56 8.84 72.2C8.25333 72.8133 7.96 73.7333 7.96 74.96V77.8L8.04 79.56V98H4.2ZM0.6 79.96V76.8H14.12V79.96H0.6ZM28.5091 98.24C26.3757 98.24 24.4824 97.7733 22.8291 96.84C21.1757 95.9067 19.8691 94.6267 18.9091 93C17.9491 91.3467 17.4691 89.48 17.4691 87.4C17.4691 85.2933 17.9491 83.4267 18.9091 81.8C19.8691 80.1733 21.1757 78.9067 22.8291 78C24.4824 77.0667 26.3757 76.6 28.5091 76.6C30.6157 76.6 32.4957 77.0667 34.1491 78C35.8291 78.9067 37.1357 80.1733 38.0691 81.8C39.0291 83.4 39.5091 85.2667 39.5091 87.4C39.5091 89.5067 39.0291 91.3733 38.0691 93C37.1357 94.6267 35.8291 95.9067 34.1491 96.84C32.4957 97.7733 30.6157 98.24 28.5091 98.24ZM28.5091 94.88C29.8691 94.88 31.0824 94.5733 32.1491 93.96C33.2424 93.3467 34.0957 92.48 34.7091 91.36C35.3224 90.2133 35.6291 88.8933 35.6291 87.4C35.6291 85.88 35.3224 84.5733 34.7091 83.48C34.0957 82.36 33.2424 81.4933 32.1491 80.88C31.0824 80.2667 29.8691 79.96 28.5091 79.96C27.1491 79.96 25.9357 80.2667 24.8691 80.88C23.8024 81.4933 22.9491 82.36 22.3091 83.48C21.6691 84.5733 21.3491 85.88 21.3491 87.4C21.3491 88.8933 21.6691 90.2133 22.3091 91.36C22.9491 92.48 23.8024 93.3467 24.8691 93.96C25.9357 94.5733 27.1491 94.88 28.5091 94.88ZM46.8197 98V76.8H50.4997V82.56L50.1397 81.12C50.7264 79.6533 51.713 78.5333 53.0997 77.76C54.4864 76.9867 56.193 76.6 58.2197 76.6V80.32C58.0597 80.2933 57.8997 80.28 57.7397 80.28C57.6064 80.28 57.473 80.28 57.3397 80.28C55.2864 80.28 53.6597 80.8933 52.4597 82.12C51.2597 83.3467 50.6597 85.12 50.6597 87.44V98H46.8197ZM91.1281 98V93.52L90.9281 92.68V85.04C90.9281 83.4133 90.4481 82.16 89.4881 81.28C88.5548 80.3733 87.1415 79.92 85.2481 79.92C83.9948 79.92 82.7681 80.1333 81.5681 80.56C80.3681 80.96 79.3548 81.5067 78.5281 82.2L76.9281 79.32C78.0215 78.44 79.3281 77.7733 80.8481 77.32C82.3948 76.84 84.0081 76.6 85.6881 76.6C88.5948 76.6 90.8348 77.3067 92.4081 78.72C93.9815 80.1333 94.7681 82.2933 94.7681 85.2V98H91.1281ZM84.1681 98.24C82.5948 98.24 81.2081 97.9733 80.0081 97.44C78.8348 96.9067 77.9281 96.1733 77.2881 95.24C76.6481 94.28 76.3281 93.2 76.3281 92C76.3281 90.8533 76.5948 89.8133 77.1281 88.88C77.6881 87.9467 78.5815 87.2 79.8081 86.64C81.0615 86.08 82.7415 85.8 84.8481 85.8H91.5681V88.56H85.0081C83.0881 88.56 81.7948 88.88 81.1281 89.52C80.4615 90.16 80.1281 90.9333 80.1281 91.84C80.1281 92.88 80.5415 93.72 81.3681 94.36C82.1948 94.9733 83.3415 95.28 84.8081 95.28C86.2481 95.28 87.5015 94.96 88.5681 94.32C89.6615 93.68 90.4481 92.7467 90.9281 91.52L91.6881 94.16C91.1815 95.4133 90.2881 96.4133 89.0081 97.16C87.7281 97.88 86.1148 98.24 84.1681 98.24ZM127.857 98.24C126.097 98.24 124.483 97.84 123.017 97.04C121.577 96.2133 120.417 95 119.537 93.4C118.683 91.8 118.257 89.8 118.257 87.4C118.257 85 118.67 83 119.497 81.4C120.35 79.8 121.497 78.6 122.937 77.8C124.403 77 126.043 76.6 127.857 76.6C129.937 76.6 131.777 77.0533 133.377 77.96C134.977 78.8667 136.243 80.1333 137.177 81.76C138.11 83.36 138.577 85.24 138.577 87.4C138.577 89.56 138.11 91.4533 137.177 93.08C136.243 94.7067 134.977 95.9733 133.377 96.88C131.777 97.7867 129.937 98.24 127.857 98.24ZM116.617 105.76V76.8H120.297V82.52L120.057 87.44L120.457 92.36V105.76H116.617ZM127.537 94.88C128.897 94.88 130.11 94.5733 131.177 93.96C132.27 93.3467 133.123 92.48 133.737 91.36C134.377 90.2133 134.697 88.8933 134.697 87.4C134.697 85.88 134.377 84.5733 133.737 83.48C133.123 82.36 132.27 81.4933 131.177 80.88C130.11 80.2667 128.897 79.96 127.537 79.96C126.203 79.96 124.99 80.2667 123.897 80.88C122.83 81.4933 121.977 82.36 121.337 83.48C120.723 84.5733 120.417 85.88 120.417 87.4C120.417 88.8933 120.723 90.2133 121.337 91.36C121.977 92.48 122.83 93.3467 123.897 93.96C124.99 94.5733 126.203 94.88 127.537 94.88ZM145.882 98V76.8H149.562V82.56L149.202 81.12C149.789 79.6533 150.776 78.5333 152.162 77.76C153.549 76.9867 155.256 76.6 157.282 76.6V80.32C157.122 80.2933 156.962 80.28 156.802 80.28C156.669 80.28 156.536 80.28 156.402 80.28C154.349 80.28 152.722 80.8933 151.522 82.12C150.322 83.3467 149.722 85.12 149.722 87.44V98H145.882ZM164.015 98V76.8H167.855V98H164.015ZM165.935 72.72C165.188 72.72 164.562 72.48 164.055 72C163.575 71.52 163.335 70.9333 163.335 70.24C163.335 69.52 163.575 68.92 164.055 68.44C164.562 67.96 165.188 67.72 165.935 67.72C166.682 67.72 167.295 67.96 167.775 68.44C168.282 68.8933 168.535 69.4667 168.535 70.16C168.535 70.88 168.295 71.4933 167.815 72C167.335 72.48 166.708 72.72 165.935 72.72ZM186.427 98.24C184.267 98.24 182.334 97.7733 180.627 96.84C178.947 95.9067 177.627 94.6267 176.667 93C175.707 91.3733 175.227 89.5067 175.227 87.4C175.227 85.2933 175.707 83.4267 176.667 81.8C177.627 80.1733 178.947 78.9067 180.627 78C182.334 77.0667 184.267 76.6 186.427 76.6C188.347 76.6 190.054 76.9867 191.547 77.76C193.067 78.5067 194.24 79.6267 195.067 81.12L192.147 83C191.454 81.96 190.6 81.2 189.587 80.72C188.6 80.2133 187.534 79.96 186.387 79.96C185 79.96 183.76 80.2667 182.667 80.88C181.574 81.4933 180.707 82.36 180.067 83.48C179.427 84.5733 179.107 85.88 179.107 87.4C179.107 88.92 179.427 90.24 180.067 91.36C180.707 92.48 181.574 93.3467 182.667 93.96C183.76 94.5733 185 94.88 186.387 94.88C187.534 94.88 188.6 94.64 189.587 94.16C190.6 93.6533 191.454 92.88 192.147 91.84L195.067 93.68C194.24 95.1467 193.067 96.28 191.547 97.08C190.054 97.8533 188.347 98.24 186.427 98.24ZM211.166 98.24C208.899 98.24 206.899 97.7733 205.166 96.84C203.459 95.9067 202.126 94.6267 201.166 93C200.233 91.3733 199.766 89.5067 199.766 87.4C199.766 85.2933 200.219 83.4267 201.126 81.8C202.059 80.1733 203.326 78.9067 204.926 78C206.553 77.0667 208.379 76.6 210.406 76.6C212.459 76.6 214.273 77.0533 215.846 77.96C217.419 78.8667 218.646 80.1467 219.526 81.8C220.433 83.4267 220.886 85.3333 220.886 87.52C220.886 87.68 220.873 87.8667 220.846 88.08C220.846 88.2933 220.833 88.4933 220.806 88.68H202.766V85.92H218.806L217.246 86.88C217.273 85.52 216.993 84.3067 216.406 83.24C215.819 82.1733 215.006 81.3467 213.966 80.76C212.953 80.1467 211.766 79.84 210.406 79.84C209.073 79.84 207.886 80.1467 206.846 80.76C205.806 81.3467 204.993 82.1867 204.406 83.28C203.819 84.3467 203.526 85.5733 203.526 86.96V87.6C203.526 89.0133 203.846 90.28 204.486 91.4C205.153 92.4933 206.073 93.3467 207.246 93.96C208.419 94.5733 209.766 94.88 211.286 94.88C212.539 94.88 213.673 94.6667 214.686 94.24C215.726 93.8133 216.633 93.1733 217.406 92.32L219.526 94.8C218.566 95.92 217.366 96.7733 215.926 97.36C214.513 97.9467 212.926 98.24 211.166 98.24ZM241.88 106C240.867 106 239.88 105.827 238.92 105.48C237.96 105.16 237.134 104.68 236.44 104.04L238.08 101.16C238.614 101.667 239.2 102.053 239.84 102.32C240.48 102.587 241.16 102.72 241.88 102.72C242.814 102.72 243.587 102.48 244.2 102C244.814 101.52 245.387 100.667 245.92 99.44L247.24 96.52L247.64 96.04L255.96 76.8H259.72L249.44 100.12C248.827 101.613 248.134 102.787 247.36 103.64C246.614 104.493 245.787 105.093 244.88 105.44C243.974 105.813 242.974 106 241.88 106ZM246.92 98.68L237.24 76.8H241.24L249.48 95.68L246.92 98.68ZM273.798 98.24C271.665 98.24 269.771 97.7733 268.118 96.84C266.465 95.9067 265.158 94.6267 264.198 93C263.238 91.3467 262.758 89.48 262.758 87.4C262.758 85.2933 263.238 83.4267 264.198 81.8C265.158 80.1733 266.465 78.9067 268.118 78C269.771 77.0667 271.665 76.6 273.798 76.6C275.905 76.6 277.785 77.0667 279.438 78C281.118 78.9067 282.425 80.1733 283.358 81.8C284.318 83.4 284.798 85.2667 284.798 87.4C284.798 89.5067 284.318 91.3733 283.358 93C282.425 94.6267 281.118 95.9067 279.438 96.84C277.785 97.7733 275.905 98.24 273.798 98.24ZM273.798 94.88C275.158 94.88 276.371 94.5733 277.438 93.96C278.531 93.3467 279.385 92.48 279.998 91.36C280.611 90.2133 280.918 88.8933 280.918 87.4C280.918 85.88 280.611 84.5733 279.998 83.48C279.385 82.36 278.531 81.4933 277.438 80.88C276.371 80.2667 275.158 79.96 273.798 79.96C272.438 79.96 271.225 80.2667 270.158 80.88C269.091 81.4933 268.238 82.36 267.598 83.48C266.958 84.5733 266.638 85.88 266.638 87.4C266.638 88.8933 266.958 90.2133 267.598 91.36C268.238 92.48 269.091 93.3467 270.158 93.96C271.225 94.5733 272.438 94.88 273.798 94.88ZM301.029 98.24C299.215 98.24 297.615 97.9067 296.229 97.24C294.869 96.5733 293.802 95.56 293.029 94.2C292.282 92.8133 291.909 91.08 291.909 89V76.8H295.749V88.56C295.749 90.64 296.242 92.2 297.229 93.24C298.242 94.28 299.655 94.8 301.469 94.8C302.802 94.8 303.962 94.5333 304.949 94C305.935 93.44 306.695 92.64 307.229 91.6C307.762 90.5333 308.029 89.2533 308.029 87.76V76.8H311.869V98H308.229V92.28L308.829 93.8C308.135 95.2133 307.095 96.3067 305.709 97.08C304.322 97.8533 302.762 98.24 301.029 98.24ZM338.401 98L330.521 76.8H334.161L341.161 96H339.441L346.721 76.8H349.961L357.081 96H355.401L362.561 76.8H366.001L358.081 98H354.401L347.721 80.48H348.841L342.081 98H338.401ZM380.392 98.24C378.259 98.24 376.365 97.7733 374.712 96.84C373.059 95.9067 371.752 94.6267 370.792 93C369.832 91.3467 369.352 89.48 369.352 87.4C369.352 85.2933 369.832 83.4267 370.792 81.8C371.752 80.1733 373.059 78.9067 374.712 78C376.365 77.0667 378.259 76.6 380.392 76.6C382.499 76.6 384.379 77.0667 386.032 78C387.712 78.9067 389.019 80.1733 389.952 81.8C390.912 83.4 391.392 85.2667 391.392 87.4C391.392 89.5067 390.912 91.3733 389.952 93C389.019 94.6267 387.712 95.9067 386.032 96.84C384.379 97.7733 382.499 98.24 380.392 98.24ZM380.392 94.88C381.752 94.88 382.965 94.5733 384.032 93.96C385.125 93.3467 385.979 92.48 386.592 91.36C387.205 90.2133 387.512 88.8933 387.512 87.4C387.512 85.88 387.205 84.5733 386.592 83.48C385.979 82.36 385.125 81.4933 384.032 80.88C382.965 80.2667 381.752 79.96 380.392 79.96C379.032 79.96 377.819 80.2667 376.752 80.88C375.685 81.4933 374.832 82.36 374.192 83.48C373.552 84.5733 373.232 85.88 373.232 87.4C373.232 88.8933 373.552 90.2133 374.192 91.36C374.832 92.48 375.685 93.3467 376.752 93.96C377.819 94.5733 379.032 94.88 380.392 94.88ZM407.623 98.24C405.809 98.24 404.209 97.9067 402.823 97.24C401.463 96.5733 400.396 95.56 399.623 94.2C398.876 92.8133 398.503 91.08 398.503 89V76.8H402.343V88.56C402.343 90.64 402.836 92.2 403.823 93.24C404.836 94.28 406.249 94.8 408.063 94.8C409.396 94.8 410.556 94.5333 411.543 94C412.529 93.44 413.289 92.64 413.823 91.6C414.356 90.5333 414.623 89.2533 414.623 87.76V76.8H418.463V98H414.823V92.28L415.423 93.8C414.729 95.2133 413.689 96.3067 412.303 97.08C410.916 97.8533 409.356 98.24 407.623 98.24ZM436.533 98.24C434.479 98.24 432.639 97.7867 431.013 96.88C429.413 95.9733 428.146 94.7067 427.213 93.08C426.279 91.4533 425.813 89.56 425.813 87.4C425.813 85.24 426.279 83.36 427.213 81.76C428.146 80.1333 429.413 78.8667 431.013 77.96C432.639 77.0533 434.479 76.6 436.533 76.6C438.319 76.6 439.933 77 441.373 77.8C442.813 78.6 443.959 79.8 444.813 81.4C445.693 83 446.133 85 446.133 87.4C446.133 89.8 445.706 91.8 444.853 93.4C444.026 95 442.893 96.2133 441.453 97.04C440.013 97.84 438.373 98.24 436.533 98.24ZM436.853 94.88C438.186 94.88 439.386 94.5733 440.453 93.96C441.546 93.3467 442.399 92.48 443.013 91.36C443.653 90.2133 443.973 88.8933 443.973 87.4C443.973 85.88 443.653 84.5733 443.013 83.48C442.399 82.36 441.546 81.4933 440.453 80.88C439.386 80.2667 438.186 79.96 436.853 79.96C435.493 79.96 434.279 80.2667 433.213 80.88C432.146 81.4933 431.293 82.36 430.653 83.48C430.013 84.5733 429.693 85.88 429.693 87.4C429.693 88.8933 430.013 90.2133 430.653 91.36C431.293 92.48 432.146 93.3467 433.213 93.96C434.279 94.5733 435.493 94.88 436.853 94.88ZM444.093 98V92.28L444.333 87.36L443.933 82.44V68.32H447.773V98H444.093ZM468.358 76.6C470.092 76.6 471.612 76.9333 472.918 77.6C474.252 78.2667 475.292 79.28 476.038 80.64C476.785 82 477.158 83.72 477.158 85.8V98H473.318V86.24C473.318 84.1867 472.812 82.64 471.798 81.6C470.812 80.56 469.412 80.04 467.598 80.04C466.238 80.04 465.052 80.3067 464.038 80.84C463.025 81.3733 462.238 82.16 461.678 83.2C461.145 84.24 460.878 85.5333 460.878 87.08V98H457.038V76.8H460.718V82.52L460.118 81C460.812 79.6133 461.878 78.5333 463.318 77.76C464.758 76.9867 466.438 76.6 468.358 76.6ZM484.472 79.24L486.472 71.12L486.992 73.44C486.218 73.44 485.565 73.2 485.032 72.72C484.525 72.24 484.272 71.6 484.272 70.8C484.272 69.9733 484.525 69.32 485.032 68.84C485.565 68.3333 486.205 68.08 486.952 68.08C487.725 68.08 488.352 68.3467 488.832 68.88C489.312 69.3867 489.552 70.0267 489.552 70.8C489.552 71.04 489.538 71.2933 489.512 71.56C489.485 71.8 489.418 72.08 489.312 72.4C489.232 72.72 489.098 73.1333 488.912 73.64L486.992 79.24H484.472ZM504.334 98.24C502.201 98.24 500.547 97.6667 499.374 96.52C498.201 95.3733 497.614 93.7333 497.614 91.6V72.16H501.454V91.44C501.454 92.5867 501.734 93.4667 502.294 94.08C502.881 94.6933 503.707 95 504.774 95C505.974 95 506.974 94.6667 507.774 94L508.974 96.76C508.387 97.2667 507.681 97.64 506.854 97.88C506.054 98.12 505.214 98.24 504.334 98.24ZM494.014 79.96V76.8H507.534V79.96H494.014ZM528.359 98V76.8H532.199V98H528.359ZM530.279 72.72C529.532 72.72 528.905 72.48 528.399 72C527.919 71.52 527.679 70.9333 527.679 70.24C527.679 69.52 527.919 68.92 528.399 68.44C528.905 67.96 529.532 67.72 530.279 67.72C531.025 67.72 531.639 67.96 532.119 68.44C532.625 68.8933 532.879 69.4667 532.879 70.16C532.879 70.88 532.639 71.4933 532.159 72C531.679 72.48 531.052 72.72 530.279 72.72ZM568.051 76.6C569.757 76.6 571.264 76.9333 572.571 77.6C573.877 78.2667 574.891 79.28 575.611 80.64C576.357 82 576.731 83.72 576.731 85.8V98H572.891V86.24C572.891 84.1867 572.411 82.64 571.451 81.6C570.491 80.56 569.144 80.04 567.411 80.04C566.131 80.04 565.011 80.3067 564.051 80.84C563.091 81.3733 562.344 82.16 561.811 83.2C561.304 84.24 561.051 85.5333 561.051 87.08V98H557.211V86.24C557.211 84.1867 556.731 82.64 555.771 81.6C554.837 80.56 553.491 80.04 551.731 80.04C550.477 80.04 549.371 80.3067 548.411 80.84C547.451 81.3733 546.704 82.16 546.171 83.2C545.637 84.24 545.371 85.5333 545.371 87.08V98H541.531V76.8H545.211V82.44L544.611 81C545.277 79.6133 546.304 78.5333 547.691 77.76C549.077 76.9867 550.691 76.6 552.531 76.6C554.557 76.6 556.304 77.1067 557.771 78.12C559.237 79.1067 560.197 80.6133 560.651 82.64L559.091 82C559.731 80.3733 560.851 79.0667 562.451 78.08C564.051 77.0933 565.917 76.6 568.051 76.6ZM598.956 98V93.52L598.756 92.68V85.04C598.756 83.4133 598.276 82.16 597.316 81.28C596.383 80.3733 594.97 79.92 593.076 79.92C591.823 79.92 590.596 80.1333 589.396 80.56C588.196 80.96 587.183 81.5067 586.356 82.2L584.756 79.32C585.85 78.44 587.156 77.7733 588.676 77.32C590.223 76.84 591.836 76.6 593.516 76.6C596.423 76.6 598.663 77.3067 600.236 78.72C601.81 80.1333 602.596 82.2933 602.596 85.2V98H598.956ZM591.996 98.24C590.423 98.24 589.036 97.9733 587.836 97.44C586.663 96.9067 585.756 96.1733 585.116 95.24C584.476 94.28 584.156 93.2 584.156 92C584.156 90.8533 584.423 89.8133 584.956 88.88C585.516 87.9467 586.41 87.2 587.636 86.64C588.89 86.08 590.57 85.8 592.676 85.8H599.396V88.56H592.836C590.916 88.56 589.623 88.88 588.956 89.52C588.29 90.16 587.956 90.9333 587.956 91.84C587.956 92.88 588.37 93.72 589.196 94.36C590.023 94.9733 591.17 95.28 592.636 95.28C594.076 95.28 595.33 94.96 596.396 94.32C597.49 93.68 598.276 92.7467 598.756 91.52L599.516 94.16C599.01 95.4133 598.116 96.4133 596.836 97.16C595.556 97.88 593.943 98.24 591.996 98.24ZM620.983 106C619.036 106 617.143 105.72 615.303 105.16C613.489 104.627 612.009 103.853 610.863 102.84L612.703 99.88C613.689 100.733 614.903 101.4 616.343 101.88C617.783 102.387 619.289 102.64 620.863 102.64C623.369 102.64 625.209 102.053 626.383 100.88C627.556 99.7067 628.143 97.92 628.143 95.52V91.04L628.543 86.84L628.343 82.6V76.8H631.983V95.12C631.983 98.8533 631.049 101.6 629.182 103.36C627.316 105.12 624.583 106 620.983 106ZM620.503 97.12C618.449 97.12 616.609 96.6933 614.983 95.84C613.383 94.96 612.103 93.7467 611.143 92.2C610.209 90.6533 609.743 88.8667 609.743 86.84C609.743 84.7867 610.209 83 611.143 81.48C612.103 79.9333 613.383 78.7333 614.983 77.88C616.609 77.0267 618.449 76.6 620.503 76.6C622.316 76.6 623.969 76.9733 625.463 77.72C626.956 78.44 628.143 79.56 629.023 81.08C629.929 82.6 630.383 84.52 630.383 86.84C630.383 89.1333 629.929 91.04 629.023 92.56C628.143 94.08 626.956 95.2267 625.463 96C623.969 96.7467 622.316 97.12 620.503 97.12ZM620.943 93.76C622.356 93.76 623.609 93.4667 624.703 92.88C625.796 92.2933 626.649 91.48 627.263 90.44C627.903 89.4 628.223 88.2 628.223 86.84C628.223 85.48 627.903 84.28 627.263 83.24C626.649 82.2 625.796 81.4 624.703 80.84C623.609 80.2533 622.356 79.96 620.943 79.96C619.529 79.96 618.263 80.2533 617.143 80.84C616.049 81.4 615.183 82.2 614.543 83.24C613.929 84.28 613.623 85.48 613.623 86.84C613.623 88.2 613.929 89.4 614.543 90.44C615.183 91.48 616.049 92.2933 617.143 92.88C618.263 93.4667 619.529 93.76 620.943 93.76ZM641.32 98V76.8H645.16V98H641.32ZM643.24 72.72C642.493 72.72 641.866 72.48 641.36 72C640.88 71.52 640.64 70.9333 640.64 70.24C640.64 69.52 640.88 68.92 641.36 68.44C641.866 67.96 642.493 67.72 643.24 67.72C643.986 67.72 644.6 67.96 645.08 68.44C645.586 68.8933 645.84 69.4667 645.84 70.16C645.84 70.88 645.6 71.4933 645.12 72C644.64 72.48 644.013 72.72 643.24 72.72ZM665.812 76.6C667.545 76.6 669.065 76.9333 670.372 77.6C671.705 78.2667 672.745 79.28 673.492 80.64C674.238 82 674.612 83.72 674.612 85.8V98H670.772V86.24C670.772 84.1867 670.265 82.64 669.252 81.6C668.265 80.56 666.865 80.04 665.052 80.04C663.692 80.04 662.505 80.3067 661.492 80.84C660.478 81.3733 659.692 82.16 659.132 83.2C658.598 84.24 658.332 85.5333 658.332 87.08V98H654.492V76.8H658.172V82.52L657.572 81C658.265 79.6133 659.332 78.5333 660.772 77.76C662.212 76.9867 663.892 76.6 665.812 76.6ZM693.158 98.24C690.891 98.24 688.891 97.7733 687.158 96.84C685.451 95.9067 684.118 94.6267 683.158 93C682.225 91.3733 681.758 89.5067 681.758 87.4C681.758 85.2933 682.211 83.4267 683.118 81.8C684.051 80.1733 685.318 78.9067 686.918 78C688.545 77.0667 690.371 76.6 692.398 76.6C694.451 76.6 696.265 77.0533 697.838 77.96C699.411 78.8667 700.638 80.1467 701.518 81.8C702.425 83.4267 702.878 85.3333 702.878 87.52C702.878 87.68 702.865 87.8667 702.838 88.08C702.838 88.2933 702.825 88.4933 702.798 88.68H684.758V85.92H700.798L699.238 86.88C699.265 85.52 698.985 84.3067 698.398 83.24C697.811 82.1733 696.998 81.3467 695.958 80.76C694.945 80.1467 693.758 79.84 692.398 79.84C691.065 79.84 689.878 80.1467 688.838 80.76C687.798 81.3467 686.985 82.1867 686.398 83.28C685.811 84.3467 685.518 85.5733 685.518 86.96V87.6C685.518 89.0133 685.838 90.28 686.478 91.4C687.145 92.4933 688.065 93.3467 689.238 93.96C690.411 94.5733 691.758 94.88 693.278 94.88C694.531 94.88 695.665 94.6667 696.678 94.24C697.718 93.8133 698.625 93.1733 699.398 92.32L701.518 94.8C700.558 95.92 699.358 96.7733 697.918 97.36C696.505 97.9467 694.918 98.24 693.158 98.24Z" fill="#888888"/>
</svg>
