<svg width="200" height="77" viewBox="0 0 200 77" fill="none" xmlns="http://www.w3.org/2000/svg">
<rect width="200" height="77" rx="12" fill="#D9D9D9"/>
<path d="M45.701 30L48.803 22.982L49.265 23.752H45.118L45.91 22.916V25.006H44.326V22.3H50.497V23.455L47.637 30H45.701ZM57.8595 30.132C57.2435 30.132 56.6532 30.0513 56.0885 29.89C55.5239 29.7213 55.0692 29.505 54.7245 29.241L55.3295 27.899C55.6595 28.1337 56.0482 28.328 56.4955 28.482C56.9502 28.6287 57.4085 28.702 57.8705 28.702C58.2225 28.702 58.5049 28.669 58.7175 28.603C58.9375 28.5297 59.0989 28.4307 59.2015 28.306C59.3042 28.1813 59.3555 28.0383 59.3555 27.877C59.3555 27.6717 59.2749 27.5103 59.1135 27.393C58.9522 27.2683 58.7395 27.1693 58.4755 27.096C58.2115 27.0153 57.9182 26.942 57.5955 26.876C57.2802 26.8027 56.9612 26.7147 56.6385 26.612C56.3232 26.5093 56.0335 26.3773 55.7695 26.216C55.5055 26.0547 55.2892 25.842 55.1205 25.578C54.9592 25.314 54.8785 24.9767 54.8785 24.566C54.8785 24.126 54.9959 23.7263 55.2305 23.367C55.4725 23.0003 55.8319 22.7107 56.3085 22.498C56.7925 22.278 57.3975 22.168 58.1235 22.168C58.6075 22.168 59.0842 22.2267 59.5535 22.344C60.0229 22.454 60.4372 22.6227 60.7965 22.85L60.2465 24.203C59.8872 23.9977 59.5279 23.8473 59.1685 23.752C58.8092 23.6493 58.4572 23.598 58.1125 23.598C57.7679 23.598 57.4855 23.6383 57.2655 23.719C57.0455 23.7997 56.8879 23.906 56.7925 24.038C56.6972 24.1627 56.6495 24.3093 56.6495 24.478C56.6495 24.676 56.7302 24.8373 56.8915 24.962C57.0529 25.0793 57.2655 25.1747 57.5295 25.248C57.7935 25.3213 58.0832 25.3947 58.3985 25.468C58.7212 25.5413 59.0402 25.6257 59.3555 25.721C59.6782 25.8163 59.9715 25.9447 60.2355 26.106C60.4995 26.2673 60.7122 26.48 60.8735 26.744C61.0422 27.008 61.1265 27.3417 61.1265 27.745C61.1265 28.1777 61.0055 28.5737 60.7635 28.933C60.5215 29.2923 60.1585 29.582 59.6745 29.802C59.1979 30.022 58.5929 30.132 57.8595 30.132ZM65.9412 30.088C65.4425 30.088 65.0062 29.978 64.6322 29.758C64.2582 29.538 63.9648 29.2043 63.7522 28.757C63.5468 28.3023 63.4442 27.7303 63.4442 27.041C63.4442 26.3443 63.5432 25.7723 63.7412 25.325C63.9392 24.8777 64.2252 24.544 64.5992 24.324C64.9732 24.104 65.4205 23.994 65.9412 23.994C66.4985 23.994 66.9972 24.1223 67.4372 24.379C67.8845 24.6283 68.2365 24.9803 68.4932 25.435C68.7572 25.8897 68.8892 26.425 68.8892 27.041C68.8892 27.6643 68.7572 28.2033 68.4932 28.658C68.2365 29.1127 67.8845 29.4647 67.4372 29.714C66.9972 29.9633 66.4985 30.088 65.9412 30.088ZM62.4432 32.134V24.082H64.0822V25.292L64.0492 27.052L64.1592 28.801V32.134H62.4432ZM65.6442 28.68C65.9302 28.68 66.1832 28.614 66.4032 28.482C66.6305 28.35 66.8102 28.163 66.9422 27.921C67.0815 27.6717 67.1512 27.3783 67.1512 27.041C67.1512 26.6963 67.0815 26.403 66.9422 26.161C66.8102 25.919 66.6305 25.732 66.4032 25.6C66.1832 25.468 65.9302 25.402 65.6442 25.402C65.3582 25.402 65.1015 25.468 64.8742 25.6C64.6468 25.732 64.4672 25.919 64.3352 26.161C64.2032 26.403 64.1372 26.6963 64.1372 27.041C64.1372 27.3783 64.2032 27.6717 64.3352 27.921C64.4672 28.163 64.6468 28.35 64.8742 28.482C65.1015 28.614 65.3582 28.68 65.6442 28.68ZM73.1949 30.088C72.5202 30.088 71.9262 29.956 71.4129 29.692C70.9069 29.428 70.5146 29.0687 70.2359 28.614C69.9572 28.152 69.8179 27.6277 69.8179 27.041C69.8179 26.447 69.9536 25.9227 70.2249 25.468C70.5036 25.006 70.8812 24.6467 71.3579 24.39C71.8346 24.126 72.3736 23.994 72.9749 23.994C73.5542 23.994 74.0749 24.1187 74.5369 24.368C75.0062 24.61 75.3766 24.962 75.6479 25.424C75.9192 25.8787 76.0549 26.425 76.0549 27.063C76.0549 27.129 76.0512 27.206 76.0439 27.294C76.0366 27.3747 76.0292 27.4517 76.0219 27.525H71.2149V26.524H75.1199L74.4599 26.821C74.4599 26.513 74.3976 26.2453 74.2729 26.018C74.1482 25.7907 73.9759 25.6147 73.7559 25.49C73.5359 25.358 73.2792 25.292 72.9859 25.292C72.6926 25.292 72.4322 25.358 72.2049 25.49C71.9849 25.6147 71.8126 25.7943 71.6879 26.029C71.5632 26.2563 71.5009 26.5277 71.5009 26.843V27.107C71.5009 27.4297 71.5706 27.7157 71.7099 27.965C71.8566 28.207 72.0582 28.394 72.3149 28.526C72.5789 28.6507 72.8869 28.713 73.2389 28.713C73.5542 28.713 73.8292 28.6653 74.0639 28.57C74.3059 28.4747 74.5259 28.3317 74.7239 28.141L75.6369 29.131C75.3656 29.439 75.0246 29.6773 74.6139 29.846C74.2032 30.0073 73.7302 30.088 73.1949 30.088ZM80.3544 30.088C79.6797 30.088 79.0857 29.956 78.5724 29.692C78.0664 29.428 77.674 29.0687 77.3954 28.614C77.1167 28.152 76.9774 27.6277 76.9774 27.041C76.9774 26.447 77.113 25.9227 77.3844 25.468C77.663 25.006 78.0407 24.6467 78.5174 24.39C78.994 24.126 79.533 23.994 80.1344 23.994C80.7137 23.994 81.2344 24.1187 81.6964 24.368C82.1657 24.61 82.536 24.962 82.8074 25.424C83.0787 25.8787 83.2144 26.425 83.2144 27.063C83.2144 27.129 83.2107 27.206 83.2034 27.294C83.196 27.3747 83.1887 27.4517 83.1814 27.525H78.3744V26.524H82.2794L81.6194 26.821C81.6194 26.513 81.557 26.2453 81.4324 26.018C81.3077 25.7907 81.1354 25.6147 80.9154 25.49C80.6954 25.358 80.4387 25.292 80.1454 25.292C79.852 25.292 79.5917 25.358 79.3644 25.49C79.1444 25.6147 78.972 25.7943 78.8474 26.029C78.7227 26.2563 78.6604 26.5277 78.6604 26.843V27.107C78.6604 27.4297 78.73 27.7157 78.8694 27.965C79.016 28.207 79.2177 28.394 79.4744 28.526C79.7384 28.6507 80.0464 28.713 80.3984 28.713C80.7137 28.713 80.9887 28.6653 81.2234 28.57C81.4654 28.4747 81.6854 28.3317 81.8834 28.141L82.7964 29.131C82.525 29.439 82.184 29.6773 81.7734 29.846C81.3627 30.0073 80.8897 30.088 80.3544 30.088ZM87.1178 30.088C86.5605 30.088 86.0581 29.9633 85.6108 29.714C85.1635 29.4573 84.8078 29.1017 84.5438 28.647C84.2871 28.1923 84.1588 27.657 84.1588 27.041C84.1588 26.4177 84.2871 25.8787 84.5438 25.424C84.8078 24.9693 85.1635 24.6173 85.6108 24.368C86.0581 24.1187 86.5605 23.994 87.1178 23.994C87.6165 23.994 88.0528 24.104 88.4268 24.324C88.8008 24.544 89.0905 24.8777 89.2958 25.325C89.5011 25.7723 89.6038 26.3443 89.6038 27.041C89.6038 27.7303 89.5048 28.3023 89.3068 28.757C89.1088 29.2043 88.8228 29.538 88.4488 29.758C88.0821 29.978 87.6385 30.088 87.1178 30.088ZM87.4148 28.68C87.6935 28.68 87.9465 28.614 88.1738 28.482C88.4011 28.35 88.5808 28.163 88.7128 27.921C88.8521 27.6717 88.9218 27.3783 88.9218 27.041C88.9218 26.6963 88.8521 26.403 88.7128 26.161C88.5808 25.919 88.4011 25.732 88.1738 25.6C87.9465 25.468 87.6935 25.402 87.4148 25.402C87.1288 25.402 86.8721 25.468 86.6448 25.6C86.4175 25.732 86.2341 25.919 86.0948 26.161C85.9628 26.403 85.8968 26.6963 85.8968 27.041C85.8968 27.3783 85.9628 27.6717 86.0948 27.921C86.2341 28.163 86.4175 28.35 86.6448 28.482C86.8721 28.614 87.1288 28.68 87.4148 28.68ZM88.9658 30V28.79L88.9988 27.03L88.8888 25.281V21.838H90.6048V30H88.9658ZM97.5192 25.765H101.215V27.195H97.5192V25.765ZM97.6512 30H95.8692V22.3H101.688V23.73H97.6512V30ZM102.886 30V24.082H104.525V25.754L104.294 25.27C104.47 24.852 104.753 24.5367 105.141 24.324C105.53 24.104 106.003 23.994 106.56 23.994V25.578C106.487 25.5707 106.421 25.567 106.362 25.567C106.304 25.5597 106.241 25.556 106.175 25.556C105.706 25.556 105.325 25.6917 105.031 25.963C104.745 26.227 104.602 26.6413 104.602 27.206V30H102.886ZM110.684 30.088C110.009 30.088 109.415 29.956 108.902 29.692C108.396 29.428 108.004 29.0687 107.725 28.614C107.446 28.152 107.307 27.6277 107.307 27.041C107.307 26.447 107.443 25.9227 107.714 25.468C107.993 25.006 108.37 24.6467 108.847 24.39C109.324 24.126 109.863 23.994 110.464 23.994C111.043 23.994 111.564 24.1187 112.026 24.368C112.495 24.61 112.866 24.962 113.137 25.424C113.408 25.8787 113.544 26.425 113.544 27.063C113.544 27.129 113.54 27.206 113.533 27.294C113.526 27.3747 113.518 27.4517 113.511 27.525H108.704V26.524H112.609L111.949 26.821C111.949 26.513 111.887 26.2453 111.762 26.018C111.637 25.7907 111.465 25.6147 111.245 25.49C111.025 25.358 110.768 25.292 110.475 25.292C110.182 25.292 109.921 25.358 109.694 25.49C109.474 25.6147 109.302 25.7943 109.177 26.029C109.052 26.2563 108.99 26.5277 108.99 26.843V27.107C108.99 27.4297 109.06 27.7157 109.199 27.965C109.346 28.207 109.547 28.394 109.804 28.526C110.068 28.6507 110.376 28.713 110.728 28.713C111.043 28.713 111.318 28.6653 111.553 28.57C111.795 28.4747 112.015 28.3317 112.213 28.141L113.126 29.131C112.855 29.439 112.514 29.6773 112.103 29.846C111.692 30.0073 111.219 30.088 110.684 30.088ZM117.843 30.088C117.169 30.088 116.575 29.956 116.061 29.692C115.555 29.428 115.163 29.0687 114.884 28.614C114.606 28.152 114.466 27.6277 114.466 27.041C114.466 26.447 114.602 25.9227 114.873 25.468C115.152 25.006 115.53 24.6467 116.006 24.39C116.483 24.126 117.022 23.994 117.623 23.994C118.203 23.994 118.723 24.1187 119.185 24.368C119.655 24.61 120.025 24.962 120.296 25.424C120.568 25.8787 120.703 26.425 120.703 27.063C120.703 27.129 120.7 27.206 120.692 27.294C120.685 27.3747 120.678 27.4517 120.67 27.525H115.863V26.524H119.768L119.108 26.821C119.108 26.513 119.046 26.2453 118.921 26.018C118.797 25.7907 118.624 25.6147 118.404 25.49C118.184 25.358 117.928 25.292 117.634 25.292C117.341 25.292 117.081 25.358 116.853 25.49C116.633 25.6147 116.461 25.7943 116.336 26.029C116.212 26.2563 116.149 26.5277 116.149 26.843V27.107C116.149 27.4297 116.219 27.7157 116.358 27.965C116.505 28.207 116.707 28.394 116.963 28.526C117.227 28.6507 117.535 28.713 117.887 28.713C118.203 28.713 118.478 28.6653 118.712 28.57C118.954 28.4747 119.174 28.3317 119.372 28.141L120.285 29.131C120.014 29.439 119.673 29.6773 119.262 29.846C118.852 30.0073 118.379 30.088 117.843 30.088ZM127.37 30L124.851 22.3H126.699L128.888 29.12H127.964L130.252 22.3H131.902L134.102 29.12H133.211L135.455 22.3H137.16L134.641 30H132.727L130.78 24.016H131.286L129.284 30H127.37ZM142.012 23.994C142.481 23.994 142.899 24.0893 143.266 24.28C143.64 24.4633 143.933 24.7493 144.146 25.138C144.359 25.5193 144.465 26.0107 144.465 26.612V30H142.749V26.876C142.749 26.3993 142.643 26.0473 142.43 25.82C142.225 25.5927 141.931 25.479 141.55 25.479C141.279 25.479 141.033 25.5377 140.813 25.655C140.6 25.765 140.432 25.9373 140.307 26.172C140.19 26.4067 140.131 26.7073 140.131 27.074V30H138.415V21.838H140.131V25.721L139.746 25.226C139.959 24.83 140.263 24.5257 140.659 24.313C141.055 24.1003 141.506 23.994 142.012 23.994ZM149.22 30.088C148.546 30.088 147.952 29.956 147.438 29.692C146.932 29.428 146.54 29.0687 146.261 28.614C145.983 28.152 145.843 27.6277 145.843 27.041C145.843 26.447 145.979 25.9227 146.25 25.468C146.529 25.006 146.907 24.6467 147.383 24.39C147.86 24.126 148.399 23.994 149 23.994C149.58 23.994 150.1 24.1187 150.562 24.368C151.032 24.61 151.402 24.962 151.673 25.424C151.945 25.8787 152.08 26.425 152.08 27.063C152.08 27.129 152.077 27.206 152.069 27.294C152.062 27.3747 152.055 27.4517 152.047 27.525H147.24V26.524H151.145L150.485 26.821C150.485 26.513 150.423 26.2453 150.298 26.018C150.174 25.7907 150.001 25.6147 149.781 25.49C149.561 25.358 149.305 25.292 149.011 25.292C148.718 25.292 148.458 25.358 148.23 25.49C148.01 25.6147 147.838 25.7943 147.713 26.029C147.589 26.2563 147.526 26.5277 147.526 26.843V27.107C147.526 27.4297 147.596 27.7157 147.735 27.965C147.882 28.207 148.084 28.394 148.34 28.526C148.604 28.6507 148.912 28.713 149.264 28.713C149.58 28.713 149.855 28.6653 150.089 28.57C150.331 28.4747 150.551 28.3317 150.749 28.141L151.662 29.131C151.391 29.439 151.05 29.6773 150.639 29.846C150.229 30.0073 149.756 30.088 149.22 30.088ZM156.38 30.088C155.705 30.088 155.111 29.956 154.598 29.692C154.092 29.428 153.699 29.0687 153.421 28.614C153.142 28.152 153.003 27.6277 153.003 27.041C153.003 26.447 153.138 25.9227 153.41 25.468C153.688 25.006 154.066 24.6467 154.543 24.39C155.019 24.126 155.558 23.994 156.16 23.994C156.739 23.994 157.26 24.1187 157.722 24.368C158.191 24.61 158.561 24.962 158.833 25.424C159.104 25.8787 159.24 26.425 159.24 27.063C159.24 27.129 159.236 27.206 159.229 27.294C159.221 27.3747 159.214 27.4517 159.207 27.525H154.4V26.524H158.305L157.645 26.821C157.645 26.513 157.582 26.2453 157.458 26.018C157.333 25.7907 157.161 25.6147 156.941 25.49C156.721 25.358 156.464 25.292 156.171 25.292C155.877 25.292 155.617 25.358 155.39 25.49C155.17 25.6147 154.997 25.7943 154.873 26.029C154.748 26.2563 154.686 26.5277 154.686 26.843V27.107C154.686 27.4297 154.755 27.7157 154.895 27.965C155.041 28.207 155.243 28.394 155.5 28.526C155.764 28.6507 156.072 28.713 156.424 28.713C156.739 28.713 157.014 28.6653 157.249 28.57C157.491 28.4747 157.711 28.3317 157.909 28.141L158.822 29.131C158.55 29.439 158.209 29.6773 157.799 29.846C157.388 30.0073 156.915 30.088 156.38 30.088ZM160.602 30V21.838H162.318V30H160.602ZM166.056 30.077C165.565 30.077 165.092 30.0147 164.637 29.89C164.19 29.758 163.834 29.6003 163.57 29.417L164.098 28.372C164.362 28.5407 164.677 28.68 165.044 28.79C165.411 28.9 165.777 28.955 166.144 28.955C166.577 28.955 166.888 28.8963 167.079 28.779C167.277 28.6617 167.376 28.504 167.376 28.306C167.376 28.1447 167.31 28.0237 167.178 27.943C167.046 27.855 166.874 27.789 166.661 27.745C166.448 27.701 166.21 27.6607 165.946 27.624C165.689 27.5873 165.429 27.5397 165.165 27.481C164.908 27.415 164.674 27.3233 164.461 27.206C164.248 27.0813 164.076 26.9163 163.944 26.711C163.812 26.5057 163.746 26.2343 163.746 25.897C163.746 25.523 163.852 25.2003 164.065 24.929C164.278 24.6503 164.575 24.4377 164.956 24.291C165.345 24.137 165.803 24.06 166.331 24.06C166.727 24.06 167.127 24.104 167.53 24.192C167.933 24.28 168.267 24.4047 168.531 24.566L168.003 25.611C167.724 25.4423 167.442 25.3287 167.156 25.27C166.877 25.204 166.599 25.171 166.32 25.171C165.902 25.171 165.59 25.2333 165.385 25.358C165.187 25.4827 165.088 25.6403 165.088 25.831C165.088 26.007 165.154 26.139 165.286 26.227C165.418 26.315 165.59 26.3847 165.803 26.436C166.016 26.4873 166.25 26.5313 166.507 26.568C166.771 26.5973 167.031 26.645 167.288 26.711C167.545 26.777 167.779 26.8687 167.992 26.986C168.212 27.096 168.388 27.2537 168.52 27.459C168.652 27.6643 168.718 27.932 168.718 28.262C168.718 28.6287 168.608 28.9477 168.388 29.219C168.175 29.4903 167.871 29.703 167.475 29.857C167.079 30.0037 166.606 30.077 166.056 30.077Z" fill="#161616"/>
<path opacity="0.9" d="M27.4804 40.1H28.1804V45H27.4804V40.1ZM24.6664 45H23.9664V40.1H24.6664V45ZM27.5434 42.816H24.5964V42.207H27.5434V42.816ZM31.2011 45.042C30.8044 45.042 30.4544 44.9603 30.1511 44.797C29.8524 44.6337 29.6191 44.4097 29.4511 44.125C29.2878 43.8403 29.2061 43.5137 29.2061 43.145C29.2061 42.7763 29.2854 42.4497 29.4441 42.165C29.6074 41.8803 29.8291 41.6587 30.1091 41.5C30.3938 41.3367 30.7134 41.255 31.0681 41.255C31.4274 41.255 31.7448 41.3343 32.0201 41.493C32.2954 41.6517 32.5101 41.8757 32.6641 42.165C32.8228 42.4497 32.9021 42.7833 32.9021 43.166C32.9021 43.194 32.8998 43.2267 32.8951 43.264C32.8951 43.3013 32.8928 43.3363 32.8881 43.369H29.7311V42.886H32.5381L32.2651 43.054C32.2698 42.816 32.2208 42.6037 32.1181 42.417C32.0154 42.2303 31.8731 42.0857 31.6911 41.983C31.5138 41.8757 31.3061 41.822 31.0681 41.822C30.8348 41.822 30.6271 41.8757 30.4451 41.983C30.2631 42.0857 30.1208 42.2327 30.0181 42.424C29.9154 42.6107 29.8641 42.8253 29.8641 43.068V43.18C29.8641 43.4273 29.9201 43.649 30.0321 43.845C30.1488 44.0363 30.3098 44.1857 30.5151 44.293C30.7204 44.4003 30.9561 44.454 31.2221 44.454C31.4414 44.454 31.6398 44.4167 31.8171 44.342C31.9991 44.2673 32.1578 44.1553 32.2931 44.006L32.6641 44.44C32.4961 44.636 32.2861 44.7853 32.0341 44.888C31.7868 44.9907 31.5091 45.042 31.2011 45.042ZM33.8352 45V39.806H34.5072V45H33.8352ZM37.7573 45.042C37.4493 45.042 37.167 44.972 36.9103 44.832C36.6583 44.6873 36.4553 44.475 36.3013 44.195C36.152 43.915 36.0773 43.565 36.0773 43.145C36.0773 42.725 36.1497 42.375 36.2943 42.095C36.4437 41.815 36.6443 41.605 36.8963 41.465C37.153 41.325 37.44 41.255 37.7573 41.255C38.1213 41.255 38.4433 41.3343 38.7233 41.493C39.0033 41.6517 39.225 41.8733 39.3883 42.158C39.5517 42.438 39.6333 42.767 39.6333 43.145C39.6333 43.523 39.5517 43.8543 39.3883 44.139C39.225 44.4237 39.0033 44.6453 38.7233 44.804C38.4433 44.9627 38.1213 45.042 37.7573 45.042ZM35.7903 46.358V41.29H36.4343V42.291L36.3923 43.152L36.4623 44.013V46.358H35.7903ZM37.7013 44.454C37.9393 44.454 38.1517 44.4003 38.3383 44.293C38.5297 44.1857 38.679 44.034 38.7863 43.838C38.8983 43.6373 38.9543 43.4063 38.9543 43.145C38.9543 42.879 38.8983 42.6503 38.7863 42.459C38.679 42.263 38.5297 42.1113 38.3383 42.004C38.1517 41.8967 37.9393 41.843 37.7013 41.843C37.468 41.843 37.2557 41.8967 37.0643 42.004C36.8777 42.1113 36.7283 42.263 36.6163 42.459C36.509 42.6503 36.4553 42.879 36.4553 43.145C36.4553 43.4063 36.509 43.6373 36.6163 43.838C36.7283 44.034 36.8777 44.1857 37.0643 44.293C37.2557 44.4003 37.468 44.454 37.7013 44.454ZM41.6258 45.042C41.3178 45.042 41.0238 45 40.7438 44.916C40.4685 44.832 40.2515 44.7293 40.0928 44.608L40.3728 44.076C40.5315 44.1833 40.7275 44.2743 40.9608 44.349C41.1941 44.4237 41.4321 44.461 41.6748 44.461C41.9875 44.461 42.2115 44.4167 42.3468 44.328C42.4868 44.2393 42.5568 44.1157 42.5568 43.957C42.5568 43.8403 42.5148 43.7493 42.4308 43.684C42.3468 43.6187 42.2348 43.5697 42.0948 43.537C41.9595 43.5043 41.8078 43.4763 41.6398 43.453C41.4718 43.425 41.3038 43.3923 41.1358 43.355C40.9678 43.313 40.8138 43.257 40.6738 43.187C40.5338 43.1123 40.4218 43.012 40.3378 42.886C40.2538 42.7553 40.2118 42.5827 40.2118 42.368C40.2118 42.144 40.2748 41.948 40.4008 41.78C40.5268 41.612 40.7041 41.4837 40.9328 41.395C41.1661 41.3017 41.4415 41.255 41.7588 41.255C42.0015 41.255 42.2465 41.2853 42.4938 41.346C42.7458 41.402 42.9511 41.4837 43.1098 41.591L42.8228 42.123C42.6548 42.011 42.4798 41.934 42.2978 41.892C42.1158 41.85 41.9338 41.829 41.7518 41.829C41.4578 41.829 41.2385 41.878 41.0938 41.976C40.9491 42.0693 40.8768 42.1907 40.8768 42.34C40.8768 42.466 40.9188 42.564 41.0028 42.634C41.0915 42.6993 41.2035 42.7507 41.3388 42.788C41.4788 42.8253 41.6328 42.858 41.8008 42.886C41.9688 42.9093 42.1368 42.942 42.3048 42.984C42.4728 43.0213 42.6245 43.075 42.7598 43.145C42.8998 43.215 43.0118 43.313 43.0958 43.439C43.1845 43.565 43.2288 43.733 43.2288 43.943C43.2288 44.167 43.1635 44.3607 43.0328 44.524C42.9021 44.6873 42.7178 44.8157 42.4798 44.909C42.2418 44.9977 41.9571 45.042 41.6258 45.042ZM47.2225 45.042C46.8492 45.042 46.5599 44.9417 46.3545 44.741C46.1492 44.5403 46.0465 44.2533 46.0465 43.88V40.478H46.7185V43.852C46.7185 44.0527 46.7675 44.2067 46.8655 44.314C46.9682 44.4213 47.1129 44.475 47.2995 44.475C47.5095 44.475 47.6845 44.4167 47.8245 44.3L48.0345 44.783C47.9319 44.8717 47.8082 44.937 47.6635 44.979C47.5235 45.021 47.3765 45.042 47.2225 45.042ZM45.4165 41.843V41.29H47.7825V41.843H45.4165ZM50.3129 45.042C49.9396 45.042 49.6082 44.9603 49.3189 44.797C49.0296 44.6337 48.8009 44.4097 48.6329 44.125C48.4649 43.8357 48.3809 43.509 48.3809 43.145C48.3809 42.7763 48.4649 42.4497 48.6329 42.165C48.8009 41.8803 49.0296 41.6587 49.3189 41.5C49.6082 41.3367 49.9396 41.255 50.3129 41.255C50.6816 41.255 51.0106 41.3367 51.2999 41.5C51.5939 41.6587 51.8226 41.8803 51.9859 42.165C52.1539 42.445 52.2379 42.7717 52.2379 43.145C52.2379 43.5137 52.1539 43.8403 51.9859 44.125C51.8226 44.4097 51.5939 44.6337 51.2999 44.797C51.0106 44.9603 50.6816 45.042 50.3129 45.042ZM50.3129 44.454C50.5509 44.454 50.7632 44.4003 50.9499 44.293C51.1412 44.1857 51.2906 44.034 51.3979 43.838C51.5052 43.6373 51.5589 43.4063 51.5589 43.145C51.5589 42.879 51.5052 42.6503 51.3979 42.459C51.2906 42.263 51.1412 42.1113 50.9499 42.004C50.7632 41.8967 50.5509 41.843 50.3129 41.843C50.0749 41.843 49.8626 41.8967 49.6759 42.004C49.4892 42.1113 49.3399 42.263 49.2279 42.459C49.1159 42.6503 49.0599 42.879 49.0599 43.145C49.0599 43.4063 49.1159 43.6373 49.2279 43.838C49.3399 44.034 49.4892 44.1857 49.6759 44.293C49.8626 44.4003 50.0749 44.454 50.3129 44.454ZM55.0472 45V41.29H55.6912V42.298L55.6282 42.046C55.7308 41.7893 55.9035 41.5933 56.1462 41.458C56.3888 41.3227 56.6875 41.255 57.0422 41.255V41.906C57.0142 41.9013 56.9862 41.899 56.9582 41.899C56.9348 41.899 56.9115 41.899 56.8882 41.899C56.5288 41.899 56.2442 42.0063 56.0342 42.221C55.8242 42.4357 55.7192 42.746 55.7192 43.152V45H55.0472ZM59.4882 45.042C59.0916 45.042 58.7416 44.9603 58.4382 44.797C58.1396 44.6337 57.9062 44.4097 57.7382 44.125C57.5749 43.8403 57.4932 43.5137 57.4932 43.145C57.4932 42.7763 57.5726 42.4497 57.7312 42.165C57.8946 41.8803 58.1162 41.6587 58.3962 41.5C58.6809 41.3367 59.0006 41.255 59.3552 41.255C59.7146 41.255 60.0319 41.3343 60.3072 41.493C60.5826 41.6517 60.7972 41.8757 60.9512 42.165C61.1099 42.4497 61.1892 42.7833 61.1892 43.166C61.1892 43.194 61.1869 43.2267 61.1822 43.264C61.1822 43.3013 61.1799 43.3363 61.1752 43.369H58.0182V42.886H60.8252L60.5522 43.054C60.5569 42.816 60.5079 42.6037 60.4052 42.417C60.3026 42.2303 60.1602 42.0857 59.9782 41.983C59.8009 41.8757 59.5932 41.822 59.3552 41.822C59.1219 41.822 58.9142 41.8757 58.7322 41.983C58.5502 42.0857 58.4079 42.2327 58.3052 42.424C58.2026 42.6107 58.1512 42.8253 58.1512 43.068V43.18C58.1512 43.4273 58.2072 43.649 58.3192 43.845C58.4359 44.0363 58.5969 44.1857 58.8022 44.293C59.0076 44.4003 59.2432 44.454 59.5092 44.454C59.7286 44.454 59.9269 44.4167 60.1042 44.342C60.2862 44.2673 60.4449 44.1553 60.5802 44.006L60.9512 44.44C60.7832 44.636 60.5732 44.7853 60.3212 44.888C60.0739 44.9907 59.7962 45.042 59.4882 45.042ZM63.6554 45.042C63.296 45.042 62.974 44.9627 62.6894 44.804C62.4094 44.6453 62.1877 44.4237 62.0244 44.139C61.861 43.8543 61.7794 43.523 61.7794 43.145C61.7794 42.767 61.861 42.438 62.0244 42.158C62.1877 41.8733 62.4094 41.6517 62.6894 41.493C62.974 41.3343 63.296 41.255 63.6554 41.255C63.968 41.255 64.2504 41.325 64.5024 41.465C64.7544 41.605 64.955 41.815 65.1044 42.095C65.2584 42.375 65.3354 42.725 65.3354 43.145C65.3354 43.565 65.2607 43.915 65.1114 44.195C64.9667 44.475 64.7684 44.6873 64.5164 44.832C64.2644 44.972 63.9774 45.042 63.6554 45.042ZM63.7114 44.454C63.9447 44.454 64.1547 44.4003 64.3414 44.293C64.5327 44.1857 64.682 44.034 64.7894 43.838C64.9014 43.6373 64.9574 43.4063 64.9574 43.145C64.9574 42.879 64.9014 42.6503 64.7894 42.459C64.682 42.263 64.5327 42.1113 64.3414 42.004C64.1547 41.8967 63.9447 41.843 63.7114 41.843C63.4734 41.843 63.261 41.8967 63.0744 42.004C62.8877 42.1113 62.7384 42.263 62.6264 42.459C62.5144 42.6503 62.4584 42.879 62.4584 43.145C62.4584 43.4063 62.5144 43.6373 62.6264 43.838C62.7384 44.034 62.8877 44.1857 63.0744 44.293C63.261 44.4003 63.4734 44.454 63.7114 44.454ZM64.9784 45V43.999L65.0204 43.138L64.9504 42.277V39.806H65.6224V45H64.9784ZM68.4548 45.042C68.1375 45.042 67.8575 44.9837 67.6148 44.867C67.3768 44.7503 67.1902 44.573 67.0548 44.335C66.9242 44.0923 66.8588 43.789 66.8588 43.425V41.29H67.5308V43.348C67.5308 43.712 67.6172 43.985 67.7898 44.167C67.9672 44.349 68.2145 44.44 68.5318 44.44C68.7652 44.44 68.9682 44.3933 69.1408 44.3C69.3135 44.202 69.4465 44.062 69.5398 43.88C69.6332 43.6933 69.6798 43.4693 69.6798 43.208V41.29H70.3518V45H69.7148V43.999L69.8198 44.265C69.6985 44.5123 69.5165 44.7037 69.2738 44.839C69.0312 44.9743 68.7582 45.042 68.4548 45.042ZM73.2481 45.042C72.8701 45.042 72.5318 44.9603 72.2331 44.797C71.9391 44.6337 71.7081 44.4097 71.5401 44.125C71.3721 43.8403 71.2881 43.5137 71.2881 43.145C71.2881 42.7763 71.3721 42.4497 71.5401 42.165C71.7081 41.8803 71.9391 41.6587 72.2331 41.5C72.5318 41.3367 72.8701 41.255 73.2481 41.255C73.5841 41.255 73.8828 41.3227 74.1441 41.458C74.4101 41.5887 74.6155 41.7847 74.7601 42.046L74.2491 42.375C74.1278 42.193 73.9785 42.06 73.8011 41.976C73.6285 41.8873 73.4418 41.843 73.2411 41.843C72.9985 41.843 72.7815 41.8967 72.5901 42.004C72.3988 42.1113 72.2471 42.263 72.1351 42.459C72.0231 42.6503 71.9671 42.879 71.9671 43.145C71.9671 43.411 72.0231 43.642 72.1351 43.838C72.2471 44.034 72.3988 44.1857 72.5901 44.293C72.7815 44.4003 72.9985 44.454 73.2411 44.454C73.4418 44.454 73.6285 44.412 73.8011 44.328C73.9785 44.2393 74.1278 44.104 74.2491 43.922L74.7601 44.244C74.6155 44.5007 74.4101 44.699 74.1441 44.839C73.8828 44.9743 73.5841 45.042 73.2481 45.042ZM77.2275 45.042C76.8308 45.042 76.4808 44.9603 76.1775 44.797C75.8788 44.6337 75.6455 44.4097 75.4775 44.125C75.3141 43.8403 75.2325 43.5137 75.2325 43.145C75.2325 42.7763 75.3118 42.4497 75.4705 42.165C75.6338 41.8803 75.8555 41.6587 76.1355 41.5C76.4201 41.3367 76.7398 41.255 77.0945 41.255C77.4538 41.255 77.7711 41.3343 78.0465 41.493C78.3218 41.6517 78.5365 41.8757 78.6905 42.165C78.8491 42.4497 78.9285 42.7833 78.9285 43.166C78.9285 43.194 78.9261 43.2267 78.9215 43.264C78.9215 43.3013 78.9191 43.3363 78.9145 43.369H75.7575V42.886H78.5645L78.2915 43.054C78.2961 42.816 78.2471 42.6037 78.1445 42.417C78.0418 42.2303 77.8995 42.0857 77.7175 41.983C77.5401 41.8757 77.3325 41.822 77.0945 41.822C76.8611 41.822 76.6535 41.8757 76.4715 41.983C76.2895 42.0857 76.1471 42.2327 76.0445 42.424C75.9418 42.6107 75.8905 42.8253 75.8905 43.068V43.18C75.8905 43.4273 75.9465 43.649 76.0585 43.845C76.1751 44.0363 76.3361 44.1857 76.5415 44.293C76.7468 44.4003 76.9825 44.454 77.2485 44.454C77.4678 44.454 77.6661 44.4167 77.8435 44.342C78.0255 44.2673 78.1841 44.1553 78.3195 44.006L78.6905 44.44C78.5225 44.636 78.3125 44.7853 78.0605 44.888C77.8131 44.9907 77.5355 45.042 77.2275 45.042ZM83.0155 45.042C82.6422 45.042 82.3528 44.9417 82.1475 44.741C81.9422 44.5403 81.8395 44.2533 81.8395 43.88V40.478H82.5115V43.852C82.5115 44.0527 82.5605 44.2067 82.6585 44.314C82.7612 44.4213 82.9058 44.475 83.0925 44.475C83.3025 44.475 83.4775 44.4167 83.6175 44.3L83.8275 44.783C83.7248 44.8717 83.6012 44.937 83.4565 44.979C83.3165 45.021 83.1695 45.042 83.0155 45.042ZM81.2095 41.843V41.29H83.5755V41.843H81.2095ZM86.6209 41.255C86.9243 41.255 87.1903 41.3133 87.4189 41.43C87.6523 41.5467 87.8343 41.724 87.9649 41.962C88.0956 42.2 88.1609 42.501 88.1609 42.865V45H87.4889V42.942C87.4889 42.5827 87.4003 42.312 87.2229 42.13C87.0503 41.948 86.8053 41.857 86.4879 41.857C86.2499 41.857 86.0423 41.9037 85.8649 41.997C85.6876 42.0903 85.5499 42.228 85.4519 42.41C85.3586 42.592 85.3119 42.8183 85.3119 43.089V45H84.6399V39.806H85.3119V42.291L85.1789 42.025C85.3003 41.7823 85.4869 41.5933 85.7389 41.458C85.9909 41.3227 86.2849 41.255 86.6209 41.255ZM91.0566 45.042C90.6599 45.042 90.3099 44.9603 90.0066 44.797C89.7079 44.6337 89.4746 44.4097 89.3066 44.125C89.1432 43.8403 89.0616 43.5137 89.0616 43.145C89.0616 42.7763 89.1409 42.4497 89.2996 42.165C89.4629 41.8803 89.6846 41.6587 89.9646 41.5C90.2492 41.3367 90.5689 41.255 90.9236 41.255C91.2829 41.255 91.6002 41.3343 91.8756 41.493C92.1509 41.6517 92.3656 41.8757 92.5196 42.165C92.6782 42.4497 92.7576 42.7833 92.7576 43.166C92.7576 43.194 92.7552 43.2267 92.7506 43.264C92.7506 43.3013 92.7482 43.3363 92.7436 43.369H89.5866V42.886H92.3936L92.1206 43.054C92.1252 42.816 92.0762 42.6037 91.9736 42.417C91.8709 42.2303 91.7286 42.0857 91.5466 41.983C91.3692 41.8757 91.1616 41.822 90.9236 41.822C90.6902 41.822 90.4826 41.8757 90.3006 41.983C90.1186 42.0857 89.9762 42.2327 89.8736 42.424C89.7709 42.6107 89.7196 42.8253 89.7196 43.068V43.18C89.7196 43.4273 89.7756 43.649 89.8876 43.845C90.0042 44.0363 90.1652 44.1857 90.3706 44.293C90.5759 44.4003 90.8116 44.454 91.0776 44.454C91.2969 44.454 91.4952 44.4167 91.6726 44.342C91.8546 44.2673 92.0132 44.1553 92.1486 44.006L92.5196 44.44C92.3516 44.636 92.1416 44.7853 91.8896 44.888C91.6422 44.9907 91.3646 45.042 91.0566 45.042ZM97.2226 45.042C96.8259 45.042 96.4759 44.9603 96.1726 44.797C95.8739 44.6337 95.6406 44.4097 95.4726 44.125C95.3093 43.8403 95.2276 43.5137 95.2276 43.145C95.2276 42.7763 95.3069 42.4497 95.4656 42.165C95.6289 41.8803 95.8506 41.6587 96.1306 41.5C96.4153 41.3367 96.7349 41.255 97.0896 41.255C97.4489 41.255 97.7663 41.3343 98.0416 41.493C98.3169 41.6517 98.5316 41.8757 98.6856 42.165C98.8443 42.4497 98.9236 42.7833 98.9236 43.166C98.9236 43.194 98.9213 43.2267 98.9166 43.264C98.9166 43.3013 98.9143 43.3363 98.9096 43.369H95.7526V42.886H98.5596L98.2866 43.054C98.2913 42.816 98.2423 42.6037 98.1396 42.417C98.0369 42.2303 97.8946 42.0857 97.7126 41.983C97.5353 41.8757 97.3276 41.822 97.0896 41.822C96.8563 41.822 96.6486 41.8757 96.4666 41.983C96.2846 42.0857 96.1423 42.2327 96.0396 42.424C95.9369 42.6107 95.8856 42.8253 95.8856 43.068V43.18C95.8856 43.4273 95.9416 43.649 96.0536 43.845C96.1703 44.0363 96.3313 44.1857 96.5366 44.293C96.7419 44.4003 96.9776 44.454 97.2436 44.454C97.4629 44.454 97.6613 44.4167 97.8386 44.342C98.0206 44.2673 98.1793 44.1553 98.3146 44.006L98.6856 44.44C98.5176 44.636 98.3076 44.7853 98.0556 44.888C97.8083 44.9907 97.5306 45.042 97.2226 45.042ZM99.9547 45V40.961C99.9547 40.597 100.06 40.3077 100.27 40.093C100.484 39.8737 100.788 39.764 101.18 39.764C101.324 39.764 101.462 39.7827 101.593 39.82C101.728 39.8527 101.842 39.9063 101.936 39.981L101.733 40.492C101.663 40.436 101.583 40.394 101.495 40.366C101.406 40.3333 101.313 40.317 101.215 40.317C101.019 40.317 100.869 40.373 100.767 40.485C100.664 40.5923 100.613 40.7533 100.613 40.968V41.465L100.627 41.773V45H99.9547ZM99.3247 41.843V41.29H101.691V41.843H99.3247ZM102.429 45V40.961C102.429 40.597 102.534 40.3077 102.744 40.093C102.959 39.8737 103.262 39.764 103.654 39.764C103.799 39.764 103.937 39.7827 104.067 39.82C104.203 39.8527 104.317 39.9063 104.41 39.981L104.207 40.492C104.137 40.436 104.058 40.394 103.969 40.366C103.881 40.3333 103.787 40.317 103.689 40.317C103.493 40.317 103.344 40.373 103.241 40.485C103.139 40.5923 103.087 40.7533 103.087 40.968V41.465L103.101 41.773V45H102.429ZM101.799 41.843V41.29H104.165V41.843H101.799ZM106.333 45.042C105.96 45.042 105.629 44.9603 105.339 44.797C105.05 44.6337 104.821 44.4097 104.653 44.125C104.485 43.8357 104.401 43.509 104.401 43.145C104.401 42.7763 104.485 42.4497 104.653 42.165C104.821 41.8803 105.05 41.6587 105.339 41.5C105.629 41.3367 105.96 41.255 106.333 41.255C106.702 41.255 107.031 41.3367 107.32 41.5C107.614 41.6587 107.843 41.8803 108.006 42.165C108.174 42.445 108.258 42.7717 108.258 43.145C108.258 43.5137 108.174 43.8403 108.006 44.125C107.843 44.4097 107.614 44.6337 107.32 44.797C107.031 44.9603 106.702 45.042 106.333 45.042ZM106.333 44.454C106.571 44.454 106.784 44.4003 106.97 44.293C107.162 44.1857 107.311 44.034 107.418 43.838C107.526 43.6373 107.579 43.4063 107.579 43.145C107.579 42.879 107.526 42.6503 107.418 42.459C107.311 42.263 107.162 42.1113 106.97 42.004C106.784 41.8967 106.571 41.843 106.333 41.843C106.095 41.843 105.883 41.8967 105.696 42.004C105.51 42.1113 105.36 42.263 105.248 42.459C105.136 42.6503 105.08 42.879 105.08 43.145C105.08 43.4063 105.136 43.6373 105.248 43.838C105.36 44.034 105.51 44.1857 105.696 44.293C105.883 44.4003 106.095 44.454 106.333 44.454ZM109.188 45V41.29H109.832V42.298L109.769 42.046C109.871 41.7893 110.044 41.5933 110.287 41.458C110.529 41.3227 110.828 41.255 111.183 41.255V41.906C111.155 41.9013 111.127 41.899 111.099 41.899C111.075 41.899 111.052 41.899 111.029 41.899C110.669 41.899 110.385 42.0063 110.175 42.221C109.965 42.4357 109.86 42.746 109.86 43.152V45H109.188ZM113.435 45.042C113.062 45.042 112.773 44.9417 112.567 44.741C112.362 44.5403 112.259 44.2533 112.259 43.88V40.478H112.931V43.852C112.931 44.0527 112.98 44.2067 113.078 44.314C113.181 44.4213 113.326 44.475 113.512 44.475C113.722 44.475 113.897 44.4167 114.037 44.3L114.247 44.783C114.145 44.8717 114.021 44.937 113.876 44.979C113.736 45.021 113.589 45.042 113.435 45.042ZM111.629 41.843V41.29H113.995V41.843H111.629ZM118.529 45.042C118.155 45.042 117.824 44.9603 117.535 44.797C117.245 44.6337 117.017 44.4097 116.849 44.125C116.681 43.8357 116.597 43.509 116.597 43.145C116.597 42.7763 116.681 42.4497 116.849 42.165C117.017 41.8803 117.245 41.6587 117.535 41.5C117.824 41.3367 118.155 41.255 118.529 41.255C118.897 41.255 119.226 41.3367 119.516 41.5C119.81 41.6587 120.038 41.8803 120.202 42.165C120.37 42.445 120.454 42.7717 120.454 43.145C120.454 43.5137 120.37 43.8403 120.202 44.125C120.038 44.4097 119.81 44.6337 119.516 44.797C119.226 44.9603 118.897 45.042 118.529 45.042ZM118.529 44.454C118.767 44.454 118.979 44.4003 119.166 44.293C119.357 44.1857 119.506 44.034 119.614 43.838C119.721 43.6373 119.775 43.4063 119.775 43.145C119.775 42.879 119.721 42.6503 119.614 42.459C119.506 42.263 119.357 42.1113 119.166 42.004C118.979 41.8967 118.767 41.843 118.529 41.843C118.291 41.843 118.078 41.8967 117.892 42.004C117.705 42.1113 117.556 42.263 117.444 42.459C117.332 42.6503 117.276 42.879 117.276 43.145C117.276 43.4063 117.332 43.6373 117.444 43.838C117.556 44.034 117.705 44.1857 117.892 44.293C118.078 44.4003 118.291 44.454 118.529 44.454ZM123.364 41.255C123.667 41.255 123.933 41.3133 124.162 41.43C124.395 41.5467 124.577 41.724 124.708 41.962C124.839 42.2 124.904 42.501 124.904 42.865V45H124.232V42.942C124.232 42.5827 124.143 42.312 123.966 42.13C123.793 41.948 123.548 41.857 123.231 41.857C122.993 41.857 122.785 41.9037 122.608 41.997C122.431 42.0903 122.293 42.228 122.195 42.41C122.102 42.592 122.055 42.8183 122.055 43.089V45H121.383V41.29H122.027V42.291L121.922 42.025C122.043 41.7823 122.23 41.5933 122.482 41.458C122.734 41.3227 123.028 41.255 123.364 41.255ZM129.995 45.042C129.687 45.042 129.404 44.972 129.148 44.832C128.896 44.6873 128.693 44.475 128.539 44.195C128.389 43.915 128.315 43.565 128.315 43.145C128.315 42.725 128.387 42.375 128.532 42.095C128.681 41.815 128.882 41.605 129.134 41.465C129.39 41.325 129.677 41.255 129.995 41.255C130.359 41.255 130.681 41.3343 130.961 41.493C131.241 41.6517 131.462 41.8733 131.626 42.158C131.789 42.438 131.871 42.767 131.871 43.145C131.871 43.523 131.789 43.8543 131.626 44.139C131.462 44.4237 131.241 44.6453 130.961 44.804C130.681 44.9627 130.359 45.042 129.995 45.042ZM128.028 46.358V41.29H128.672V42.291L128.63 43.152L128.7 44.013V46.358H128.028ZM129.939 44.454C130.177 44.454 130.389 44.4003 130.576 44.293C130.767 44.1857 130.916 44.034 131.024 43.838C131.136 43.6373 131.192 43.4063 131.192 43.145C131.192 42.879 131.136 42.6503 131.024 42.459C130.916 42.263 130.767 42.1113 130.576 42.004C130.389 41.8967 130.177 41.843 129.939 41.843C129.705 41.843 129.493 41.8967 129.302 42.004C129.115 42.1113 128.966 42.263 128.854 42.459C128.746 42.6503 128.693 42.879 128.693 43.145C128.693 43.4063 128.746 43.6373 128.854 43.838C128.966 44.034 129.115 44.1857 129.302 44.293C129.493 44.4003 129.705 44.454 129.939 44.454ZM134.451 45.042C134.054 45.042 133.704 44.9603 133.401 44.797C133.102 44.6337 132.869 44.4097 132.701 44.125C132.538 43.8403 132.456 43.5137 132.456 43.145C132.456 42.7763 132.535 42.4497 132.694 42.165C132.857 41.8803 133.079 41.6587 133.359 41.5C133.644 41.3367 133.963 41.255 134.318 41.255C134.677 41.255 134.995 41.3343 135.27 41.493C135.545 41.6517 135.76 41.8757 135.914 42.165C136.073 42.4497 136.152 42.7833 136.152 43.166C136.152 43.194 136.15 43.2267 136.145 43.264C136.145 43.3013 136.143 43.3363 136.138 43.369H132.981V42.886H135.788L135.515 43.054C135.52 42.816 135.471 42.6037 135.368 42.417C135.265 42.2303 135.123 42.0857 134.941 41.983C134.764 41.8757 134.556 41.822 134.318 41.822C134.085 41.822 133.877 41.8757 133.695 41.983C133.513 42.0857 133.371 42.2327 133.268 42.424C133.165 42.6107 133.114 42.8253 133.114 43.068V43.18C133.114 43.4273 133.17 43.649 133.282 43.845C133.399 44.0363 133.56 44.1857 133.765 44.293C133.97 44.4003 134.206 44.454 134.472 44.454C134.691 44.454 134.89 44.4167 135.067 44.342C135.249 44.2673 135.408 44.1553 135.543 44.006L135.914 44.44C135.746 44.636 135.536 44.7853 135.284 44.888C135.037 44.9907 134.759 45.042 134.451 45.042ZM138.618 45.042C138.259 45.042 137.937 44.9627 137.652 44.804C137.372 44.6453 137.151 44.4237 136.987 44.139C136.824 43.8543 136.742 43.523 136.742 43.145C136.742 42.767 136.824 42.438 136.987 42.158C137.151 41.8733 137.372 41.6517 137.652 41.493C137.937 41.3343 138.259 41.255 138.618 41.255C138.931 41.255 139.213 41.325 139.465 41.465C139.717 41.605 139.918 41.815 140.067 42.095C140.221 42.375 140.298 42.725 140.298 43.145C140.298 43.565 140.224 43.915 140.074 44.195C139.93 44.475 139.731 44.6873 139.479 44.832C139.227 44.972 138.94 45.042 138.618 45.042ZM138.674 44.454C138.908 44.454 139.118 44.4003 139.304 44.293C139.496 44.1857 139.645 44.034 139.752 43.838C139.864 43.6373 139.92 43.4063 139.92 43.145C139.92 42.879 139.864 42.6503 139.752 42.459C139.645 42.263 139.496 42.1113 139.304 42.004C139.118 41.8967 138.908 41.843 138.674 41.843C138.436 41.843 138.224 41.8967 138.037 42.004C137.851 42.1113 137.701 42.263 137.589 42.459C137.477 42.6503 137.421 42.879 137.421 43.145C137.421 43.4063 137.477 43.6373 137.589 43.838C137.701 44.034 137.851 44.1857 138.037 44.293C138.224 44.4003 138.436 44.454 138.674 44.454ZM139.941 45V43.999L139.983 43.138L139.913 42.277V39.806H140.585V45H139.941ZM144.16 45V44.216L144.125 44.069V42.732C144.125 42.4473 144.041 42.228 143.873 42.074C143.709 41.9153 143.462 41.836 143.131 41.836C142.911 41.836 142.697 41.8733 142.487 41.948C142.277 42.018 142.099 42.1137 141.955 42.235L141.675 41.731C141.866 41.577 142.095 41.4603 142.361 41.381C142.631 41.297 142.914 41.255 143.208 41.255C143.716 41.255 144.108 41.3787 144.384 41.626C144.659 41.8733 144.797 42.2513 144.797 42.76V45H144.16ZM142.942 45.042C142.666 45.042 142.424 44.9953 142.214 44.902C142.008 44.8087 141.85 44.6803 141.738 44.517C141.626 44.349 141.57 44.16 141.57 43.95C141.57 43.7493 141.616 43.5673 141.71 43.404C141.808 43.2407 141.964 43.11 142.179 43.012C142.398 42.914 142.692 42.865 143.061 42.865H144.237V43.348H143.089C142.753 43.348 142.526 43.404 142.41 43.516C142.293 43.628 142.235 43.7633 142.235 43.922C142.235 44.104 142.307 44.251 142.452 44.363C142.596 44.4703 142.797 44.524 143.054 44.524C143.306 44.524 143.525 44.468 143.712 44.356C143.903 44.244 144.041 44.0807 144.125 43.866L144.258 44.328C144.169 44.5473 144.013 44.7223 143.789 44.853C143.565 44.979 143.282 45.042 142.942 45.042ZM146.04 45V39.806H146.712V45H146.04ZM152.178 45V44.216L152.143 44.069V42.732C152.143 42.4473 152.059 42.228 151.891 42.074C151.728 41.9153 151.481 41.836 151.149 41.836C150.93 41.836 150.715 41.8733 150.505 41.948C150.295 42.018 150.118 42.1137 149.973 42.235L149.693 41.731C149.885 41.577 150.113 41.4603 150.379 41.381C150.65 41.297 150.932 41.255 151.226 41.255C151.735 41.255 152.127 41.3787 152.402 41.626C152.678 41.8733 152.815 42.2513 152.815 42.76V45H152.178ZM150.96 45.042C150.685 45.042 150.442 44.9953 150.232 44.902C150.027 44.8087 149.868 44.6803 149.756 44.517C149.644 44.349 149.588 44.16 149.588 43.95C149.588 43.7493 149.635 43.5673 149.728 43.404C149.826 43.2407 149.983 43.11 150.197 43.012C150.417 42.914 150.711 42.865 151.079 42.865H152.255V43.348H151.107C150.771 43.348 150.545 43.404 150.428 43.516C150.312 43.628 150.253 43.7633 150.253 43.922C150.253 44.104 150.326 44.251 150.47 44.363C150.615 44.4703 150.816 44.524 151.072 44.524C151.324 44.524 151.544 44.468 151.73 44.356C151.922 44.244 152.059 44.0807 152.143 43.866L152.276 44.328C152.188 44.5473 152.031 44.7223 151.807 44.853C151.583 44.979 151.301 45.042 150.96 45.042ZM155.123 45.042C154.815 45.042 154.521 45 154.241 44.916C153.966 44.832 153.749 44.7293 153.59 44.608L153.87 44.076C154.029 44.1833 154.225 44.2743 154.458 44.349C154.691 44.4237 154.929 44.461 155.172 44.461C155.485 44.461 155.709 44.4167 155.844 44.328C155.984 44.2393 156.054 44.1157 156.054 43.957C156.054 43.8403 156.012 43.7493 155.928 43.684C155.844 43.6187 155.732 43.5697 155.592 43.537C155.457 43.5043 155.305 43.4763 155.137 43.453C154.969 43.425 154.801 43.3923 154.633 43.355C154.465 43.313 154.311 43.257 154.171 43.187C154.031 43.1123 153.919 43.012 153.835 42.886C153.751 42.7553 153.709 42.5827 153.709 42.368C153.709 42.144 153.772 41.948 153.898 41.78C154.024 41.612 154.201 41.4837 154.43 41.395C154.663 41.3017 154.939 41.255 155.256 41.255C155.499 41.255 155.744 41.2853 155.991 41.346C156.243 41.402 156.448 41.4837 156.607 41.591L156.32 42.123C156.152 42.011 155.977 41.934 155.795 41.892C155.613 41.85 155.431 41.829 155.249 41.829C154.955 41.829 154.736 41.878 154.591 41.976C154.446 42.0693 154.374 42.1907 154.374 42.34C154.374 42.466 154.416 42.564 154.5 42.634C154.589 42.6993 154.701 42.7507 154.836 42.788C154.976 42.8253 155.13 42.858 155.298 42.886C155.466 42.9093 155.634 42.942 155.802 42.984C155.97 43.0213 156.122 43.075 156.257 43.145C156.397 43.215 156.509 43.313 156.593 43.439C156.682 43.565 156.726 43.733 156.726 43.943C156.726 44.167 156.661 44.3607 156.53 44.524C156.399 44.6873 156.215 44.8157 155.977 44.909C155.739 44.9977 155.454 45.042 155.123 45.042ZM160.23 45L158.851 41.29H159.488L160.713 44.65H160.412L161.686 41.29H162.253L163.499 44.65H163.205L164.458 41.29H165.06L163.674 45H163.03L161.861 41.934H162.057L160.874 45H160.23ZM167.291 45.042C166.894 45.042 166.544 44.9603 166.241 44.797C165.942 44.6337 165.709 44.4097 165.541 44.125C165.378 43.8403 165.296 43.5137 165.296 43.145C165.296 42.7763 165.375 42.4497 165.534 42.165C165.697 41.8803 165.919 41.6587 166.199 41.5C166.484 41.3367 166.803 41.255 167.158 41.255C167.517 41.255 167.835 41.3343 168.11 41.493C168.385 41.6517 168.6 41.8757 168.754 42.165C168.913 42.4497 168.992 42.7833 168.992 43.166C168.992 43.194 168.99 43.2267 168.985 43.264C168.985 43.3013 168.983 43.3363 168.978 43.369H165.821V42.886H168.628L168.355 43.054C168.36 42.816 168.311 42.6037 168.208 42.417C168.105 42.2303 167.963 42.0857 167.781 41.983C167.604 41.8757 167.396 41.822 167.158 41.822C166.925 41.822 166.717 41.8757 166.535 41.983C166.353 42.0857 166.211 42.2327 166.108 42.424C166.005 42.6107 165.954 42.8253 165.954 43.068V43.18C165.954 43.4273 166.01 43.649 166.122 43.845C166.239 44.0363 166.4 44.1857 166.605 44.293C166.81 44.4003 167.046 44.454 167.312 44.454C167.531 44.454 167.73 44.4167 167.907 44.342C168.089 44.2673 168.248 44.1553 168.383 44.006L168.754 44.44C168.586 44.636 168.376 44.7853 168.124 44.888C167.877 44.9907 167.599 45.042 167.291 45.042ZM169.925 45V39.806H170.597V45H169.925ZM171.88 45V39.806H172.552V45H171.88ZM178.018 45V44.216L177.983 44.069V42.732C177.983 42.4473 177.899 42.228 177.731 42.074C177.568 41.9153 177.32 41.836 176.989 41.836C176.77 41.836 176.555 41.8733 176.345 41.948C176.135 42.018 175.958 42.1137 175.813 42.235L175.533 41.731C175.724 41.577 175.953 41.4603 176.219 41.381C176.49 41.297 176.772 41.255 177.066 41.255C177.575 41.255 177.967 41.3787 178.242 41.626C178.517 41.8733 178.655 42.2513 178.655 42.76V45H178.018ZM176.8 45.042C176.525 45.042 176.282 44.9953 176.072 44.902C175.867 44.8087 175.708 44.6803 175.596 44.517C175.484 44.349 175.428 44.16 175.428 43.95C175.428 43.7493 175.475 43.5673 175.568 43.404C175.666 43.2407 175.822 43.11 176.037 43.012C176.256 42.914 176.55 42.865 176.919 42.865H178.095V43.348H176.947C176.611 43.348 176.385 43.404 176.268 43.516C176.151 43.628 176.093 43.7633 176.093 43.922C176.093 44.104 176.165 44.251 176.31 44.363C176.455 44.4703 176.655 44.524 176.912 44.524C177.164 44.524 177.383 44.468 177.57 44.356C177.761 44.244 177.899 44.0807 177.983 43.866L178.116 44.328C178.027 44.5473 177.871 44.7223 177.647 44.853C177.423 44.979 177.141 45.042 176.8 45.042ZM180.963 45.042C180.655 45.042 180.361 45 180.081 44.916C179.805 44.832 179.588 44.7293 179.43 44.608L179.71 44.076C179.868 44.1833 180.064 44.2743 180.298 44.349C180.531 44.4237 180.769 44.461 181.012 44.461C181.324 44.461 181.548 44.4167 181.684 44.328C181.824 44.2393 181.894 44.1157 181.894 43.957C181.894 43.8403 181.852 43.7493 181.768 43.684C181.684 43.6187 181.572 43.5697 181.432 43.537C181.296 43.5043 181.145 43.4763 180.977 43.453C180.809 43.425 180.641 43.3923 180.473 43.355C180.305 43.313 180.151 43.257 180.011 43.187C179.871 43.1123 179.759 43.012 179.675 42.886C179.591 42.7553 179.549 42.5827 179.549 42.368C179.549 42.144 179.612 41.948 179.738 41.78C179.864 41.612 180.041 41.4837 180.27 41.395C180.503 41.3017 180.778 41.255 181.096 41.255C181.338 41.255 181.583 41.2853 181.831 41.346C182.083 41.402 182.288 41.4837 182.447 41.591L182.16 42.123C181.992 42.011 181.817 41.934 181.635 41.892C181.453 41.85 181.271 41.829 181.089 41.829C180.795 41.829 180.575 41.878 180.431 41.976C180.286 42.0693 180.214 42.1907 180.214 42.34C180.214 42.466 180.256 42.564 180.34 42.634C180.428 42.6993 180.54 42.7507 180.676 42.788C180.816 42.8253 180.97 42.858 181.138 42.886C181.306 42.9093 181.474 42.942 181.642 42.984C181.81 43.0213 181.961 43.075 182.097 43.145C182.237 43.215 182.349 43.313 182.433 43.439C182.521 43.565 182.566 43.733 182.566 43.943C182.566 44.167 182.5 44.3607 182.37 44.524C182.239 44.6873 182.055 44.8157 181.817 44.909C181.579 44.9977 181.294 45.042 180.963 45.042ZM49.8074 57V53.29H50.4794V57H49.8074ZM50.1434 52.576C50.0127 52.576 49.9031 52.534 49.8144 52.45C49.7304 52.366 49.6884 52.2633 49.6884 52.142C49.6884 52.016 49.7304 51.911 49.8144 51.827C49.9031 51.743 50.0127 51.701 50.1434 51.701C50.2741 51.701 50.3814 51.743 50.4654 51.827C50.5541 51.9063 50.5984 52.0067 50.5984 52.128C50.5984 52.254 50.5564 52.3613 50.4724 52.45C50.3884 52.534 50.2787 52.576 50.1434 52.576ZM53.7435 53.255C54.0468 53.255 54.3128 53.3133 54.5415 53.43C54.7748 53.5467 54.9568 53.724 55.0875 53.962C55.2182 54.2 55.2835 54.501 55.2835 54.865V57H54.6115V54.942C54.6115 54.5827 54.5228 54.312 54.3455 54.13C54.1728 53.948 53.9278 53.857 53.6105 53.857C53.3725 53.857 53.1648 53.9037 52.9875 53.997C52.8102 54.0903 52.6725 54.228 52.5745 54.41C52.4812 54.592 52.4345 54.8183 52.4345 55.089V57H51.7625V53.29H52.4065V54.291L52.3015 54.025C52.4228 53.7823 52.6095 53.5933 52.8615 53.458C53.1135 53.3227 53.4075 53.255 53.7435 53.255ZM58.1441 57.042C57.7661 57.042 57.4278 56.9603 57.1291 56.797C56.8351 56.6337 56.6041 56.4097 56.4361 56.125C56.2681 55.8403 56.1841 55.5137 56.1841 55.145C56.1841 54.7763 56.2681 54.4497 56.4361 54.165C56.6041 53.8803 56.8351 53.6587 57.1291 53.5C57.4278 53.3367 57.7661 53.255 58.1441 53.255C58.4801 53.255 58.7788 53.3227 59.0401 53.458C59.3061 53.5887 59.5115 53.7847 59.6561 54.046L59.1451 54.375C59.0238 54.193 58.8745 54.06 58.6971 53.976C58.5245 53.8873 58.3378 53.843 58.1371 53.843C57.8945 53.843 57.6775 53.8967 57.4861 54.004C57.2948 54.1113 57.1431 54.263 57.0311 54.459C56.9191 54.6503 56.8631 54.879 56.8631 55.145C56.8631 55.411 56.9191 55.642 57.0311 55.838C57.1431 56.034 57.2948 56.1857 57.4861 56.293C57.6775 56.4003 57.8945 56.454 58.1371 56.454C58.3378 56.454 58.5245 56.412 58.6971 56.328C58.8745 56.2393 59.0238 56.104 59.1451 55.922L59.6561 56.244C59.5115 56.5007 59.3061 56.699 59.0401 56.839C58.7788 56.9743 58.4801 57.042 58.1441 57.042ZM60.5262 57V53.29H61.1702V54.298L61.1072 54.046C61.2098 53.7893 61.3825 53.5933 61.6252 53.458C61.8678 53.3227 62.1665 53.255 62.5212 53.255V53.906C62.4932 53.9013 62.4652 53.899 62.4372 53.899C62.4138 53.899 62.3905 53.899 62.3672 53.899C62.0078 53.899 61.7232 54.0063 61.5132 54.221C61.3032 54.4357 61.1982 54.746 61.1982 55.152V57H60.5262ZM64.9672 57.042C64.5706 57.042 64.2206 56.9603 63.9172 56.797C63.6186 56.6337 63.3852 56.4097 63.2172 56.125C63.0539 55.8403 62.9722 55.5137 62.9722 55.145C62.9722 54.7763 63.0516 54.4497 63.2102 54.165C63.3736 53.8803 63.5952 53.6587 63.8752 53.5C64.1599 53.3367 64.4796 53.255 64.8342 53.255C65.1936 53.255 65.5109 53.3343 65.7862 53.493C66.0616 53.6517 66.2762 53.8757 66.4302 54.165C66.5889 54.4497 66.6682 54.7833 66.6682 55.166C66.6682 55.194 66.6659 55.2267 66.6612 55.264C66.6612 55.3013 66.6589 55.3363 66.6542 55.369H63.4972V54.886H66.3042L66.0312 55.054C66.0359 54.816 65.9869 54.6037 65.8842 54.417C65.7816 54.2303 65.6392 54.0857 65.4572 53.983C65.2799 53.8757 65.0722 53.822 64.8342 53.822C64.6009 53.822 64.3932 53.8757 64.2112 53.983C64.0292 54.0857 63.8869 54.2327 63.7842 54.424C63.6816 54.6107 63.6302 54.8253 63.6302 55.068V55.18C63.6302 55.4273 63.6862 55.649 63.7982 55.845C63.9149 56.0363 64.0759 56.1857 64.2812 56.293C64.4866 56.4003 64.7222 56.454 64.9882 56.454C65.2076 56.454 65.4059 56.4167 65.5832 56.342C65.7652 56.2673 65.9239 56.1553 66.0592 56.006L66.4302 56.44C66.2622 56.636 66.0522 56.7853 65.8002 56.888C65.5529 56.9907 65.2752 57.042 64.9672 57.042ZM69.8018 57V56.216L69.7668 56.069V54.732C69.7668 54.4473 69.6828 54.228 69.5148 54.074C69.3515 53.9153 69.1041 53.836 68.7728 53.836C68.5535 53.836 68.3388 53.8733 68.1288 53.948C67.9188 54.018 67.7415 54.1137 67.5968 54.235L67.3168 53.731C67.5081 53.577 67.7368 53.4603 68.0028 53.381C68.2735 53.297 68.5558 53.255 68.8498 53.255C69.3585 53.255 69.7505 53.3787 70.0258 53.626C70.3011 53.8733 70.4388 54.2513 70.4388 54.76V57H69.8018ZM68.5838 57.042C68.3085 57.042 68.0658 56.9953 67.8558 56.902C67.6505 56.8087 67.4918 56.6803 67.3798 56.517C67.2678 56.349 67.2118 56.16 67.2118 55.95C67.2118 55.7493 67.2585 55.5673 67.3518 55.404C67.4498 55.2407 67.6061 55.11 67.8208 55.012C68.0401 54.914 68.3341 54.865 68.7028 54.865H69.8788V55.348H68.7308C68.3948 55.348 68.1685 55.404 68.0518 55.516C67.9351 55.628 67.8768 55.7633 67.8768 55.922C67.8768 56.104 67.9491 56.251 68.0938 56.363C68.2385 56.4703 68.4391 56.524 68.6958 56.524C68.9478 56.524 69.1671 56.468 69.3538 56.356C69.5451 56.244 69.6828 56.0807 69.7668 55.866L69.8998 56.328C69.8111 56.5473 69.6548 56.7223 69.4308 56.853C69.2068 56.979 68.9245 57.042 68.5838 57.042ZM72.7464 57.042C72.4384 57.042 72.1444 57 71.8644 56.916C71.5891 56.832 71.3721 56.7293 71.2134 56.608L71.4934 56.076C71.6521 56.1833 71.8481 56.2743 72.0814 56.349C72.3147 56.4237 72.5527 56.461 72.7954 56.461C73.1081 56.461 73.3321 56.4167 73.4674 56.328C73.6074 56.2393 73.6774 56.1157 73.6774 55.957C73.6774 55.8403 73.6354 55.7493 73.5514 55.684C73.4674 55.6187 73.3554 55.5697 73.2154 55.537C73.0801 55.5043 72.9284 55.4763 72.7604 55.453C72.5924 55.425 72.4244 55.3923 72.2564 55.355C72.0884 55.313 71.9344 55.257 71.7944 55.187C71.6544 55.1123 71.5424 55.012 71.4584 54.886C71.3744 54.7553 71.3324 54.5827 71.3324 54.368C71.3324 54.144 71.3954 53.948 71.5214 53.78C71.6474 53.612 71.8247 53.4837 72.0534 53.395C72.2867 53.3017 72.5621 53.255 72.8794 53.255C73.1221 53.255 73.3671 53.2853 73.6144 53.346C73.8664 53.402 74.0717 53.4837 74.2304 53.591L73.9434 54.123C73.7754 54.011 73.6004 53.934 73.4184 53.892C73.2364 53.85 73.0544 53.829 72.8724 53.829C72.5784 53.829 72.3591 53.878 72.2144 53.976C72.0697 54.0693 71.9974 54.1907 71.9974 54.34C71.9974 54.466 72.0394 54.564 72.1234 54.634C72.2121 54.6993 72.3241 54.7507 72.4594 54.788C72.5994 54.8253 72.7534 54.858 72.9214 54.886C73.0894 54.9093 73.2574 54.942 73.4254 54.984C73.5934 55.0213 73.7451 55.075 73.8804 55.145C74.0204 55.215 74.1324 55.313 74.2164 55.439C74.3051 55.565 74.3494 55.733 74.3494 55.943C74.3494 56.167 74.2841 56.3607 74.1534 56.524C74.0227 56.6873 73.8384 56.8157 73.6004 56.909C73.3624 56.9977 73.0777 57.042 72.7464 57.042ZM76.8412 57.042C76.4446 57.042 76.0946 56.9603 75.7912 56.797C75.4926 56.6337 75.2592 56.4097 75.0912 56.125C74.9279 55.8403 74.8462 55.5137 74.8462 55.145C74.8462 54.7763 74.9256 54.4497 75.0842 54.165C75.2476 53.8803 75.4692 53.6587 75.7492 53.5C76.0339 53.3367 76.3536 53.255 76.7082 53.255C77.0676 53.255 77.3849 53.3343 77.6602 53.493C77.9356 53.6517 78.1502 53.8757 78.3042 54.165C78.4629 54.4497 78.5422 54.7833 78.5422 55.166C78.5422 55.194 78.5399 55.2267 78.5352 55.264C78.5352 55.3013 78.5329 55.3363 78.5282 55.369H75.3712V54.886H78.1782L77.9052 55.054C77.9099 54.816 77.8609 54.6037 77.7582 54.417C77.6556 54.2303 77.5132 54.0857 77.3312 53.983C77.1539 53.8757 76.9462 53.822 76.7082 53.822C76.4749 53.822 76.2672 53.8757 76.0852 53.983C75.9032 54.0857 75.7609 54.2327 75.6582 54.424C75.5556 54.6107 75.5042 54.8253 75.5042 55.068V55.18C75.5042 55.4273 75.5602 55.649 75.6722 55.845C75.7889 56.0363 75.9499 56.1857 76.1552 56.293C76.3606 56.4003 76.5962 56.454 76.8622 56.454C77.0816 56.454 77.2799 56.4167 77.4572 56.342C77.6392 56.2673 77.7979 56.1553 77.9332 56.006L78.3042 56.44C78.1362 56.636 77.9262 56.7853 77.6742 56.888C77.4269 56.9907 77.1492 57.042 76.8412 57.042ZM80.5394 57.042C80.2314 57.042 79.9374 57 79.6574 56.916C79.382 56.832 79.165 56.7293 79.0064 56.608L79.2864 56.076C79.445 56.1833 79.641 56.2743 79.8744 56.349C80.1077 56.4237 80.3457 56.461 80.5884 56.461C80.901 56.461 81.125 56.4167 81.2604 56.328C81.4004 56.2393 81.4704 56.1157 81.4704 55.957C81.4704 55.8403 81.4284 55.7493 81.3444 55.684C81.2604 55.6187 81.1484 55.5697 81.0084 55.537C80.873 55.5043 80.7214 55.4763 80.5534 55.453C80.3854 55.425 80.2174 55.3923 80.0494 55.355C79.8814 55.313 79.7274 55.257 79.5874 55.187C79.4474 55.1123 79.3354 55.012 79.2514 54.886C79.1674 54.7553 79.1254 54.5827 79.1254 54.368C79.1254 54.144 79.1884 53.948 79.3144 53.78C79.4404 53.612 79.6177 53.4837 79.8464 53.395C80.0797 53.3017 80.355 53.255 80.6724 53.255C80.915 53.255 81.16 53.2853 81.4074 53.346C81.6594 53.402 81.8647 53.4837 82.0234 53.591L81.7364 54.123C81.5684 54.011 81.3934 53.934 81.2114 53.892C81.0294 53.85 80.8474 53.829 80.6654 53.829C80.3714 53.829 80.152 53.878 80.0074 53.976C79.8627 54.0693 79.7904 54.1907 79.7904 54.34C79.7904 54.466 79.8324 54.564 79.9164 54.634C80.005 54.6993 80.117 54.7507 80.2524 54.788C80.3924 54.8253 80.5464 54.858 80.7144 54.886C80.8824 54.9093 81.0504 54.942 81.2184 54.984C81.3864 55.0213 81.538 55.075 81.6734 55.145C81.8134 55.215 81.9254 55.313 82.0094 55.439C82.098 55.565 82.1424 55.733 82.1424 55.943C82.1424 56.167 82.077 56.3607 81.9464 56.524C81.8157 56.6873 81.6314 56.8157 81.3934 56.909C81.1554 56.9977 80.8707 57.042 80.5394 57.042ZM86.1361 57.042C85.7628 57.042 85.4734 56.9417 85.2681 56.741C85.0628 56.5403 84.9601 56.2533 84.9601 55.88V52.478H85.6321V55.852C85.6321 56.0527 85.6811 56.2067 85.7791 56.314C85.8818 56.4213 86.0264 56.475 86.2131 56.475C86.4231 56.475 86.5981 56.4167 86.7381 56.3L86.9481 56.783C86.8454 56.8717 86.7218 56.937 86.5771 56.979C86.4371 57.021 86.2901 57.042 86.1361 57.042ZM84.3301 53.843V53.29H86.6961V53.843H84.3301ZM89.7415 53.255C90.0449 53.255 90.3109 53.3133 90.5395 53.43C90.7729 53.5467 90.9549 53.724 91.0855 53.962C91.2162 54.2 91.2815 54.501 91.2815 54.865V57H90.6095V54.942C90.6095 54.5827 90.5209 54.312 90.3435 54.13C90.1709 53.948 89.9259 53.857 89.6085 53.857C89.3705 53.857 89.1629 53.9037 88.9855 53.997C88.8082 54.0903 88.6705 54.228 88.5725 54.41C88.4792 54.592 88.4325 54.8183 88.4325 55.089V57H87.7605V51.806H88.4325V54.291L88.2995 54.025C88.4209 53.7823 88.6075 53.5933 88.8595 53.458C89.1115 53.3227 89.4055 53.255 89.7415 53.255ZM94.1772 57.042C93.7805 57.042 93.4305 56.9603 93.1272 56.797C92.8285 56.6337 92.5952 56.4097 92.4272 56.125C92.2639 55.8403 92.1822 55.5137 92.1822 55.145C92.1822 54.7763 92.2615 54.4497 92.4202 54.165C92.5835 53.8803 92.8052 53.6587 93.0852 53.5C93.3699 53.3367 93.6895 53.255 94.0442 53.255C94.4035 53.255 94.7209 53.3343 94.9962 53.493C95.2715 53.6517 95.4862 53.8757 95.6402 54.165C95.7989 54.4497 95.8782 54.7833 95.8782 55.166C95.8782 55.194 95.8759 55.2267 95.8712 55.264C95.8712 55.3013 95.8689 55.3363 95.8642 55.369H92.7072V54.886H95.5142L95.2412 55.054C95.2459 54.816 95.1969 54.6037 95.0942 54.417C94.9915 54.2303 94.8492 54.0857 94.6672 53.983C94.4899 53.8757 94.2822 53.822 94.0442 53.822C93.8109 53.822 93.6032 53.8757 93.4212 53.983C93.2392 54.0857 93.0969 54.2327 92.9942 54.424C92.8915 54.6107 92.8402 54.8253 92.8402 55.068V55.18C92.8402 55.4273 92.8962 55.649 93.0082 55.845C93.1249 56.0363 93.2859 56.1857 93.4912 56.293C93.6965 56.4003 93.9322 56.454 94.1982 56.454C94.4175 56.454 94.6159 56.4167 94.7932 56.342C94.9752 56.2673 95.1339 56.1553 95.2692 56.006L95.6402 56.44C95.4722 56.636 95.2622 56.7853 95.0102 56.888C94.7629 56.9907 94.4852 57.042 94.1772 57.042ZM103.332 53.255C103.631 53.255 103.895 53.3133 104.123 53.43C104.352 53.5467 104.529 53.724 104.655 53.962C104.786 54.2 104.851 54.501 104.851 54.865V57H104.179V54.942C104.179 54.5827 104.095 54.312 103.927 54.13C103.759 53.948 103.524 53.857 103.22 53.857C102.996 53.857 102.8 53.9037 102.632 53.997C102.464 54.0903 102.334 54.228 102.24 54.41C102.152 54.592 102.107 54.8183 102.107 55.089V57H101.435V54.942C101.435 54.5827 101.351 54.312 101.183 54.13C101.02 53.948 100.784 53.857 100.476 53.857C100.257 53.857 100.063 53.9037 99.8952 53.997C99.7272 54.0903 99.5965 54.228 99.5032 54.41C99.4099 54.592 99.3632 54.8183 99.3632 55.089V57H98.6912V53.29H99.3352V54.277L99.2302 54.025C99.3469 53.7823 99.5265 53.5933 99.7692 53.458C100.012 53.3227 100.294 53.255 100.616 53.255C100.971 53.255 101.277 53.3437 101.533 53.521C101.79 53.6937 101.958 53.9573 102.037 54.312L101.764 54.2C101.876 53.9153 102.072 53.6867 102.352 53.514C102.632 53.3413 102.959 53.255 103.332 53.255ZM107.677 57.042C107.303 57.042 106.972 56.9603 106.683 56.797C106.393 56.6337 106.165 56.4097 105.997 56.125C105.829 55.8357 105.745 55.509 105.745 55.145C105.745 54.7763 105.829 54.4497 105.997 54.165C106.165 53.8803 106.393 53.6587 106.683 53.5C106.972 53.3367 107.303 53.255 107.677 53.255C108.045 53.255 108.374 53.3367 108.664 53.5C108.958 53.6587 109.186 53.8803 109.35 54.165C109.518 54.445 109.602 54.7717 109.602 55.145C109.602 55.5137 109.518 55.8403 109.35 56.125C109.186 56.4097 108.958 56.6337 108.664 56.797C108.374 56.9603 108.045 57.042 107.677 57.042ZM107.677 56.454C107.915 56.454 108.127 56.4003 108.314 56.293C108.505 56.1857 108.654 56.034 108.762 55.838C108.869 55.6373 108.923 55.4063 108.923 55.145C108.923 54.879 108.869 54.6503 108.762 54.459C108.654 54.263 108.505 54.1113 108.314 54.004C108.127 53.8967 107.915 53.843 107.677 53.843C107.439 53.843 107.226 53.8967 107.04 54.004C106.853 54.1113 106.704 54.263 106.592 54.459C106.48 54.6503 106.424 54.879 106.424 55.145C106.424 55.4063 106.48 55.6373 106.592 55.838C106.704 56.034 106.853 56.1857 107.04 56.293C107.226 56.4003 107.439 56.454 107.677 56.454ZM111.805 57.042C111.432 57.042 111.142 56.9417 110.937 56.741C110.732 56.5403 110.629 56.2533 110.629 55.88V52.478H111.301V55.852C111.301 56.0527 111.35 56.2067 111.448 56.314C111.551 56.4213 111.695 56.475 111.882 56.475C112.092 56.475 112.267 56.4167 112.407 56.3L112.617 56.783C112.514 56.8717 112.391 56.937 112.246 56.979C112.106 57.021 111.959 57.042 111.805 57.042ZM109.999 53.843V53.29H112.365V53.843H109.999ZM113.429 57V53.29H114.101V57H113.429ZM113.765 52.576C113.635 52.576 113.525 52.534 113.436 52.45C113.352 52.366 113.31 52.2633 113.31 52.142C113.31 52.016 113.352 51.911 113.436 51.827C113.525 51.743 113.635 51.701 113.765 51.701C113.896 51.701 114.003 51.743 114.087 51.827C114.176 51.9063 114.22 52.0067 114.22 52.128C114.22 52.254 114.178 52.3613 114.094 52.45C114.01 52.534 113.901 52.576 113.765 52.576ZM116.974 57.042C116.6 57.042 116.269 56.9603 115.98 56.797C115.69 56.6337 115.462 56.4097 115.294 56.125C115.126 55.8357 115.042 55.509 115.042 55.145C115.042 54.7763 115.126 54.4497 115.294 54.165C115.462 53.8803 115.69 53.6587 115.98 53.5C116.269 53.3367 116.6 53.255 116.974 53.255C117.342 53.255 117.671 53.3367 117.961 53.5C118.255 53.6587 118.483 53.8803 118.647 54.165C118.815 54.445 118.899 54.7717 118.899 55.145C118.899 55.5137 118.815 55.8403 118.647 56.125C118.483 56.4097 118.255 56.6337 117.961 56.797C117.671 56.9603 117.342 57.042 116.974 57.042ZM116.974 56.454C117.212 56.454 117.424 56.4003 117.611 56.293C117.802 56.1857 117.951 56.034 118.059 55.838C118.166 55.6373 118.22 55.4063 118.22 55.145C118.22 54.879 118.166 54.6503 118.059 54.459C117.951 54.263 117.802 54.1113 117.611 54.004C117.424 53.8967 117.212 53.843 116.974 53.843C116.736 53.843 116.523 53.8967 116.337 54.004C116.15 54.1113 116.001 54.263 115.889 54.459C115.777 54.6503 115.721 54.879 115.721 55.145C115.721 55.4063 115.777 55.6373 115.889 55.838C116.001 56.034 116.15 56.1857 116.337 56.293C116.523 56.4003 116.736 56.454 116.974 56.454ZM121.809 53.255C122.112 53.255 122.378 53.3133 122.607 53.43C122.84 53.5467 123.022 53.724 123.153 53.962C123.284 54.2 123.349 54.501 123.349 54.865V57H122.677V54.942C122.677 54.5827 122.588 54.312 122.411 54.13C122.238 53.948 121.993 53.857 121.676 53.857C121.438 53.857 121.23 53.9037 121.053 53.997C120.876 54.0903 120.738 54.228 120.64 54.41C120.547 54.592 120.5 54.8183 120.5 55.089V57H119.828V53.29H120.472V54.291L120.367 54.025C120.488 53.7823 120.675 53.5933 120.927 53.458C121.179 53.3227 121.473 53.255 121.809 53.255ZM128.061 57.042C127.688 57.042 127.357 56.9603 127.067 56.797C126.778 56.6337 126.549 56.4097 126.381 56.125C126.213 55.8357 126.129 55.509 126.129 55.145C126.129 54.7763 126.213 54.4497 126.381 54.165C126.549 53.8803 126.778 53.6587 127.067 53.5C127.357 53.3367 127.688 53.255 128.061 53.255C128.43 53.255 128.759 53.3367 129.048 53.5C129.342 53.6587 129.571 53.8803 129.734 54.165C129.902 54.445 129.986 54.7717 129.986 55.145C129.986 55.5137 129.902 55.8403 129.734 56.125C129.571 56.4097 129.342 56.6337 129.048 56.797C128.759 56.9603 128.43 57.042 128.061 57.042ZM128.061 56.454C128.299 56.454 128.512 56.4003 128.698 56.293C128.89 56.1857 129.039 56.034 129.146 55.838C129.254 55.6373 129.307 55.4063 129.307 55.145C129.307 54.879 129.254 54.6503 129.146 54.459C129.039 54.263 128.89 54.1113 128.698 54.004C128.512 53.8967 128.299 53.843 128.061 53.843C127.823 53.843 127.611 53.8967 127.424 54.004C127.238 54.1113 127.088 54.263 126.976 54.459C126.864 54.6503 126.808 54.879 126.808 55.145C126.808 55.4063 126.864 55.6373 126.976 55.838C127.088 56.034 127.238 56.1857 127.424 56.293C127.611 56.4003 127.823 56.454 128.061 56.454ZM131.014 57V52.961C131.014 52.597 131.119 52.3077 131.329 52.093C131.543 51.8737 131.847 51.764 132.239 51.764C132.383 51.764 132.521 51.7827 132.652 51.82C132.787 51.8527 132.901 51.9063 132.995 51.981L132.792 52.492C132.722 52.436 132.642 52.394 132.554 52.366C132.465 52.3333 132.372 52.317 132.274 52.317C132.078 52.317 131.928 52.373 131.826 52.485C131.723 52.5923 131.672 52.7533 131.672 52.968V53.465L131.686 53.773V57H131.014ZM130.384 53.843V53.29H132.75V53.843H130.384ZM136.915 57.042C136.519 57.042 136.169 56.9603 135.865 56.797C135.567 56.6337 135.333 56.4097 135.165 56.125C135.002 55.8403 134.92 55.5137 134.92 55.145C134.92 54.7763 135 54.4497 135.158 54.165C135.322 53.8803 135.543 53.6587 135.823 53.5C136.108 53.3367 136.428 53.255 136.782 53.255C137.142 53.255 137.459 53.3343 137.734 53.493C138.01 53.6517 138.224 53.8757 138.378 54.165C138.537 54.4497 138.616 54.7833 138.616 55.166C138.616 55.194 138.614 55.2267 138.609 55.264C138.609 55.3013 138.607 55.3363 138.602 55.369H135.445V54.886H138.252L137.979 55.054C137.984 54.816 137.935 54.6037 137.832 54.417C137.73 54.2303 137.587 54.0857 137.405 53.983C137.228 53.8757 137.02 53.822 136.782 53.822C136.549 53.822 136.341 53.8757 136.159 53.983C135.977 54.0857 135.835 54.2327 135.732 54.424C135.63 54.6107 135.578 54.8253 135.578 55.068V55.18C135.578 55.4273 135.634 55.649 135.746 55.845C135.863 56.0363 136.024 56.1857 136.229 56.293C136.435 56.4003 136.67 56.454 136.936 56.454C137.156 56.454 137.354 56.4167 137.531 56.342C137.713 56.2673 137.872 56.1553 138.007 56.006L138.378 56.44C138.21 56.636 138 56.7853 137.748 56.888C137.501 56.9907 137.223 57.042 136.915 57.042ZM139.38 55.369V54.788H141.263V55.369H139.38ZM144.265 57.042C143.947 57.042 143.66 56.972 143.404 56.832C143.152 56.6873 142.951 56.475 142.802 56.195C142.657 55.915 142.585 55.565 142.585 55.145C142.585 54.725 142.659 54.375 142.809 54.095C142.963 53.815 143.166 53.605 143.418 53.465C143.674 53.325 143.957 53.255 144.265 53.255C144.629 53.255 144.951 53.3343 145.231 53.493C145.511 53.6517 145.732 53.8733 145.896 54.158C146.059 54.438 146.141 54.767 146.141 55.145C146.141 55.523 146.059 55.8543 145.896 56.139C145.732 56.4237 145.511 56.6453 145.231 56.804C144.951 56.9627 144.629 57.042 144.265 57.042ZM142.298 57V51.806H142.97V54.277L142.9 55.138L142.942 55.999V57H142.298ZM144.209 56.454C144.447 56.454 144.659 56.4003 144.846 56.293C145.037 56.1857 145.186 56.034 145.294 55.838C145.406 55.6373 145.462 55.4063 145.462 55.145C145.462 54.879 145.406 54.6503 145.294 54.459C145.186 54.263 145.037 54.1113 144.846 54.004C144.659 53.8967 144.447 53.843 144.209 53.843C143.975 53.843 143.763 53.8967 143.572 54.004C143.385 54.1113 143.236 54.263 143.124 54.459C143.016 54.6503 142.963 54.879 142.963 55.145C142.963 55.4063 143.016 55.6373 143.124 55.838C143.236 56.034 143.385 56.1857 143.572 56.293C143.763 56.4003 143.975 56.454 144.209 56.454ZM147.069 57V53.29H147.741V57H147.069ZM147.405 52.576C147.274 52.576 147.165 52.534 147.076 52.45C146.992 52.366 146.95 52.2633 146.95 52.142C146.95 52.016 146.992 51.911 147.076 51.827C147.165 51.743 147.274 51.701 147.405 51.701C147.536 51.701 147.643 51.743 147.727 51.827C147.816 51.9063 147.86 52.0067 147.86 52.128C147.86 52.254 147.818 52.3613 147.734 52.45C147.65 52.534 147.54 52.576 147.405 52.576ZM149.57 56.104L149.584 55.243L151.719 53.29H152.531L150.893 54.9L150.529 55.208L149.57 56.104ZM149.024 57V51.806H149.696V57H149.024ZM151.859 57L150.403 55.194L150.837 54.655L152.685 57H151.859ZM154.832 57.042C154.436 57.042 154.086 56.9603 153.782 56.797C153.484 56.6337 153.25 56.4097 153.082 56.125C152.919 55.8403 152.837 55.5137 152.837 55.145C152.837 54.7763 152.917 54.4497 153.075 54.165C153.239 53.8803 153.46 53.6587 153.74 53.5C154.025 53.3367 154.345 53.255 154.699 53.255C155.059 53.255 155.376 53.3343 155.651 53.493C155.927 53.6517 156.141 53.8757 156.295 54.165C156.454 54.4497 156.533 54.7833 156.533 55.166C156.533 55.194 156.531 55.2267 156.526 55.264C156.526 55.3013 156.524 55.3363 156.519 55.369H153.362V54.886H156.169L155.896 55.054C155.901 54.816 155.852 54.6037 155.749 54.417C155.647 54.2303 155.504 54.0857 155.322 53.983C155.145 53.8757 154.937 53.822 154.699 53.822C154.466 53.822 154.258 53.8757 154.076 53.983C153.894 54.0857 153.752 54.2327 153.649 54.424C153.547 54.6107 153.495 54.8253 153.495 55.068V55.18C153.495 55.4273 153.551 55.649 153.663 55.845C153.78 56.0363 153.941 56.1857 154.146 56.293C154.352 56.4003 154.587 56.454 154.853 56.454C155.073 56.454 155.271 56.4167 155.448 56.342C155.63 56.2673 155.789 56.1553 155.924 56.006L156.295 56.44C156.127 56.636 155.917 56.7853 155.665 56.888C155.418 56.9907 155.14 57.042 154.832 57.042Z" fill="#252525"/>
<circle cx="23.5" cy="26.5" r="2.5" fill="#1CBB3F"/>
</svg>
