<svg width="1440" height="486" viewBox="0 0 1440 486" fill="none" xmlns="http://www.w3.org/2000/svg">
<rect x="1441" y="486" width="1441" height="486" transform="rotate(-180 1441 486)" fill="url(#paint0_linear_3970_8625)" fill-opacity="0.4"/>
<path d="M95.1703 176V74.9256H139.429C151.68 74.9256 160.716 77.3248 166.535 82.1233C172.354 86.9218 175.264 93.7111 175.264 102.491C175.264 107.902 173.631 112.701 170.364 116.887C167.096 121.073 162.298 123.727 155.968 124.85V125.003C163.013 126.024 168.424 128.679 172.201 132.967C175.979 137.255 177.868 142.36 177.868 148.281C177.868 156.959 174.703 163.749 168.373 168.649C162.145 173.55 153.007 176 140.96 176H95.1703ZM115.691 160.073H139.122C144.84 160.073 149.077 158.899 151.833 156.551C154.59 154.203 155.968 150.936 155.968 146.75C155.968 142.462 154.59 139.195 151.833 136.949C149.077 134.702 144.84 133.579 139.122 133.579H115.691V160.073ZM115.691 117.346H136.672C147.8 117.346 153.365 113.007 153.365 104.329C153.365 95.6509 147.8 91.3119 136.672 91.3119H115.691V117.346ZM289.511 176H267.612L259.189 151.344H220.444L212.021 176H190.428L227.335 74.9256H252.604L289.511 176ZM225.191 135.723H254.441L239.74 91.6182L225.191 135.723ZM376.027 74.9256V91.9245H342.183V176H321.049V91.9245H287.051V74.9256H376.027ZM477.832 74.9256V91.9245H443.987V176H422.853V91.9245H388.856V74.9256H477.832ZM499.695 176V74.9256H575.501V91.9245H520.829V117.04H563.862V133.273H520.829V159.001H577.645V176H499.695ZM645.765 74.9256C657.2 74.9256 666.184 77.6822 672.718 83.1953C679.252 88.7085 682.519 96.1104 682.519 105.401C682.519 115.304 679.252 122.91 672.718 128.219C666.184 133.426 657.251 136.03 645.918 136.03L643.774 137.255H622.028V176H601.2V74.9256H645.765ZM643.315 121.175C649.236 121.175 653.626 120.001 656.485 117.652C659.446 115.202 660.926 111.476 660.926 106.473C660.926 101.47 659.446 97.7949 656.485 95.4468C653.626 92.9965 649.236 91.7713 643.315 91.7713H622.028V121.175H643.315ZM655.719 125.616L688.492 176H664.755L637.648 131.742L655.719 125.616ZM785.816 74.9256L749.98 138.174V176H728.846V138.174L693.011 74.9256H715.523L731.756 105.248L739.413 121.022L747.224 105.248L763.457 74.9256H785.816ZM928.228 74.9256V91.9245H894.383V176H873.249V91.9245H839.252V74.9256H928.228ZM1036.92 74.9256V176H1015.79V74.9256H1036.92ZM971.225 74.9256V176H950.091V74.9256H971.225ZM1026.82 116.427V133.426H960.658V116.427H1026.82ZM1155.65 176H1133.75L1125.33 151.344H1086.58L1078.16 176H1056.57L1093.47 74.9256H1118.74L1155.65 176ZM1091.33 135.723H1120.58L1105.88 91.6182L1091.33 135.723ZM1242.17 74.9256V91.9245H1208.32V176H1187.19V91.9245H1153.19V74.9256H1242.17ZM182.002 205.926V307H157.806L122.43 247.58L113.701 231.041H113.547L114.16 248.499V307H95.1703V205.926H119.214L154.59 265.192L163.319 281.885H163.625L163.013 264.426V205.926H182.002ZM212.977 307V205.926H288.783V222.924H234.111V248.04H277.144V264.273H234.111V290.001H290.927V307H212.977ZM401.773 205.926L365.019 307H340.363L303.456 205.926H325.815L347.101 270.246L352.921 290.154L358.587 270.399L380.027 205.926H401.773ZM421.67 307V205.926H497.476V222.924H442.804V248.04H485.837V264.273H442.804V290.001H499.62V307H421.67ZM567.74 205.926C579.175 205.926 588.159 208.682 594.693 214.195C601.227 219.708 604.494 227.11 604.494 236.401C604.494 246.304 601.227 253.91 594.693 259.219C588.159 264.426 579.226 267.03 567.893 267.03L565.749 268.255H544.003V307H523.175V205.926H567.74ZM565.29 252.175C571.211 252.175 575.601 251.001 578.46 248.652C581.421 246.202 582.901 242.476 582.901 237.473C582.901 232.47 581.421 228.795 578.46 226.447C575.601 223.996 571.211 222.771 565.29 222.771H544.003V252.175H565.29ZM577.694 256.616L610.467 307H586.73L559.623 262.742L577.694 256.616ZM724.765 308.531C715.475 308.531 707.307 306.49 700.262 302.406C693.32 298.322 687.909 292.4 684.029 284.641C680.15 276.882 678.21 267.54 678.21 256.616C678.21 245.794 680.252 236.503 684.336 228.744C688.419 220.883 694.188 214.859 701.641 210.673C709.196 206.487 717.925 204.394 727.828 204.394C738.752 204.394 747.584 206.436 754.322 210.52C761.06 214.502 766.42 220.729 770.402 229.203L750.8 237.626C749.166 232.215 746.359 228.233 742.377 225.681C738.497 223.027 733.699 221.699 727.981 221.699C722.264 221.699 717.312 223.078 713.126 225.834C708.941 228.489 705.725 232.419 703.478 237.626C701.232 242.731 700.109 249.01 700.109 256.463C700.109 264.12 701.181 270.603 703.325 275.912C705.469 281.119 708.634 285.049 712.82 287.704C717.108 290.256 722.366 291.533 728.594 291.533C731.963 291.533 735.077 291.124 737.936 290.307C740.896 289.491 743.449 288.265 745.593 286.632C747.737 284.998 749.421 282.905 750.647 280.353C751.872 277.801 752.484 274.84 752.484 271.471V269.174H725.99V253.706H770.708V307H755.853L754.322 284.947L757.997 287.551C755.751 294.289 751.77 299.496 746.052 303.171C740.437 306.745 733.341 308.531 724.765 308.531ZM842.173 204.394C852.179 204.394 860.806 206.487 868.055 210.673C875.303 214.859 880.868 220.832 884.747 228.591C888.729 236.35 890.72 245.641 890.72 256.463C890.72 267.285 888.729 276.576 884.747 284.335C880.868 292.094 875.303 298.067 868.055 302.253C860.806 306.438 852.179 308.531 842.173 308.531C832.168 308.531 823.49 306.438 816.139 302.253C808.89 298.067 803.275 292.094 799.293 284.335C795.414 276.576 793.474 267.285 793.474 256.463C793.474 245.641 795.414 236.35 799.293 228.591C803.275 220.832 808.89 214.859 816.139 210.673C823.49 206.487 832.168 204.394 842.173 204.394ZM842.173 221.699C836.456 221.699 831.607 223.027 827.625 225.681C823.643 228.336 820.58 232.266 818.436 237.473C816.394 242.578 815.373 248.908 815.373 256.463C815.373 263.916 816.394 270.246 818.436 275.453C820.58 280.659 823.643 284.59 827.625 287.245C831.607 289.899 836.456 291.226 842.173 291.226C847.789 291.226 852.587 289.899 856.569 287.245C860.551 284.59 863.562 280.659 865.604 275.453C867.748 270.246 868.82 263.916 868.82 256.463C868.82 248.908 867.748 242.578 865.604 237.473C863.562 232.266 860.551 228.336 856.569 225.681C852.587 223.027 847.789 221.699 842.173 221.699ZM916.633 307V205.926H992.439V222.924H937.767V248.04H980.8V264.273H937.767V290.001H994.583V307H916.633ZM1055.05 204.394C1064.23 204.394 1072.3 205.977 1079.24 209.142C1086.18 212.307 1092.11 217.003 1097.01 223.231L1085.21 236.86C1081.03 231.552 1076.43 227.672 1071.43 225.222C1066.53 222.669 1060.81 221.393 1054.28 221.393C1049.99 221.393 1046.42 221.955 1043.56 223.078C1040.8 224.201 1038.76 225.681 1037.43 227.519C1036.21 229.356 1035.6 231.398 1035.6 233.644C1035.6 236.401 1036.67 238.749 1038.81 240.689C1040.96 242.527 1044.63 244.058 1049.84 245.283L1068.68 249.571C1078.68 251.817 1085.83 255.187 1090.12 259.679C1094.51 264.069 1096.7 269.786 1096.7 276.831C1096.7 283.467 1094.97 289.184 1091.49 293.983C1088.02 298.679 1083.17 302.304 1076.95 304.856C1070.72 307.306 1063.57 308.531 1055.51 308.531C1048.46 308.531 1041.98 307.715 1036.06 306.081C1030.24 304.346 1025.03 301.997 1020.44 299.037C1015.84 296.076 1012.01 292.656 1008.95 288.776L1020.89 274.534C1023.24 277.801 1026.15 280.71 1029.62 283.263C1033.1 285.815 1037.03 287.857 1041.42 289.389C1045.91 290.818 1050.6 291.533 1055.51 291.533C1059.69 291.533 1063.21 291.073 1066.07 290.154C1069.03 289.133 1071.23 287.755 1072.66 286.019C1074.19 284.182 1074.95 281.987 1074.95 279.434C1074.95 276.78 1074.04 274.534 1072.2 272.696C1070.46 270.756 1067.2 269.276 1062.4 268.255L1041.88 263.661C1035.95 262.231 1030.85 260.393 1026.56 258.147C1022.38 255.799 1019.16 252.838 1016.91 249.265C1014.77 245.59 1013.7 241.251 1013.7 236.248C1013.7 230.224 1015.33 224.813 1018.6 220.015C1021.86 215.216 1026.56 211.439 1032.69 208.682C1038.91 205.823 1046.37 204.394 1055.05 204.394ZM134.222 336.926C150.047 336.926 162.298 341.316 170.976 350.096C179.654 358.774 183.993 371.23 183.993 387.463C183.993 403.594 179.654 416.049 170.976 424.83C162.298 433.61 150.047 438 134.222 438H95.1703V336.926H134.222ZM133.15 421.154C142.747 421.154 149.944 418.296 154.743 412.578C159.644 406.759 162.094 398.387 162.094 387.463C162.094 376.539 159.644 368.218 154.743 362.5C149.944 356.681 142.747 353.771 133.15 353.771H116.304V421.154H133.15ZM253.482 335.394C263.487 335.394 272.114 337.487 279.363 341.673C286.612 345.859 292.176 351.832 296.056 359.591C300.037 367.35 302.028 376.641 302.028 387.463C302.028 398.285 300.037 407.576 296.056 415.335C292.176 423.094 286.612 429.067 279.363 433.253C272.114 437.438 263.487 439.531 253.482 439.531C243.477 439.531 234.798 437.438 227.448 433.253C220.199 429.067 214.584 423.094 210.602 415.335C206.722 407.576 204.782 398.285 204.782 387.463C204.782 376.641 206.722 367.35 210.602 359.591C214.584 351.832 220.199 345.859 227.448 341.673C234.798 337.487 243.477 335.394 253.482 335.394ZM253.482 352.699C247.765 352.699 242.915 354.027 238.933 356.681C234.952 359.336 231.889 363.266 229.745 368.473C227.703 373.578 226.682 379.908 226.682 387.463C226.682 394.916 227.703 401.246 229.745 406.453C231.889 411.659 234.952 415.59 238.933 418.245C242.915 420.899 247.765 422.226 253.482 422.226C259.097 422.226 263.896 420.899 267.877 418.245C271.859 415.59 274.871 411.659 276.913 406.453C279.057 401.246 280.129 394.916 280.129 387.463C280.129 379.908 279.057 373.578 276.913 368.473C274.871 363.266 271.859 359.336 267.877 356.681C263.896 354.027 259.097 352.699 253.482 352.699ZM345.14 438L315.737 336.926H338.249L358.158 420.389L378.373 336.926H398.587L419.109 420.389L438.864 336.926H460.457L431.054 438H407.317L393.227 382.868L388.48 358.978H388.174L383.426 382.868L369.49 438H345.14ZM568.174 336.926V438H543.978L508.602 378.58L499.872 362.041H499.719L500.332 379.499V438H481.342V336.926H505.386L540.762 396.192L549.491 412.885H549.797L549.184 395.426V336.926H568.174ZM619.21 336.926V373.68L616.607 405.381H599.761L597.158 373.68V336.926H619.21ZM608.184 415.794C612.166 415.794 615.331 416.866 617.679 419.01C620.027 421.154 621.201 424.013 621.201 427.586C621.201 431.262 620.027 434.171 617.679 436.315C615.331 438.357 612.166 439.378 608.184 439.378C604.202 439.378 601.037 438.357 598.689 436.315C596.341 434.171 595.167 431.262 595.167 427.586C595.167 424.013 596.341 421.154 598.689 419.01C601.037 416.866 604.202 415.794 608.184 415.794Z" fill="white"/>
<defs>
<linearGradient id="paint0_linear_3970_8625" x1="2161" y1="463" x2="2161" y2="1065.31" gradientUnits="userSpaceOnUse">
<stop/>
<stop offset="0.176741" stop-opacity="0.2"/>
<stop offset="1" stop-opacity="0"/>
</linearGradient>
</defs>
</svg>
