<svg width="200" height="81" viewBox="0 0 200 81" fill="none" xmlns="http://www.w3.org/2000/svg">
<rect width="200" height="81" rx="12" fill="#D9D9D9"/>
<path d="M53.0002 26.132C52.3916 26.132 51.8306 26.0367 51.3172 25.846C50.8112 25.648 50.3676 25.3693 49.9862 25.01C49.6122 24.6507 49.3189 24.229 49.1062 23.745C48.9009 23.261 48.7982 22.7293 48.7982 22.15C48.7982 21.5707 48.9009 21.039 49.1062 20.555C49.3189 20.071 49.6159 19.6493 49.9972 19.29C50.3786 18.9307 50.8259 18.6557 51.3392 18.465C51.8526 18.267 52.4172 18.168 53.0332 18.168C53.7152 18.168 54.3276 18.2817 54.8702 18.509C55.4202 18.7363 55.8822 19.0663 56.2562 19.499L55.1122 20.555C54.8336 20.2617 54.5292 20.0453 54.1992 19.906C53.8692 19.7593 53.5099 19.686 53.1212 19.686C52.7472 19.686 52.4062 19.7447 52.0982 19.862C51.7902 19.9793 51.5226 20.148 51.2952 20.368C51.0752 20.588 50.9029 20.8483 50.7782 21.149C50.6609 21.4497 50.6022 21.7833 50.6022 22.15C50.6022 22.5093 50.6609 22.8393 50.7782 23.14C50.9029 23.4407 51.0752 23.7047 51.2952 23.932C51.5226 24.152 51.7866 24.3207 52.0872 24.438C52.3952 24.5553 52.7326 24.614 53.0992 24.614C53.4512 24.614 53.7922 24.559 54.1222 24.449C54.4596 24.3317 54.7859 24.1373 55.1012 23.866L56.1132 25.153C55.6952 25.4683 55.2076 25.7103 54.6502 25.879C54.1002 26.0477 53.5502 26.132 53.0002 26.132ZM54.4852 24.922V22.029H56.1132V25.153L54.4852 24.922ZM61.4645 19.994C61.9339 19.994 62.3519 20.0893 62.7185 20.28C63.0925 20.4633 63.3859 20.7493 63.5985 21.138C63.8112 21.5193 63.9175 22.0107 63.9175 22.612V26H62.2015V22.876C62.2015 22.3993 62.0952 22.0473 61.8825 21.82C61.6772 21.5927 61.3839 21.479 61.0025 21.479C60.7312 21.479 60.4855 21.5377 60.2655 21.655C60.0529 21.765 59.8842 21.9373 59.7595 22.172C59.6422 22.4067 59.5835 22.7073 59.5835 23.074V26H57.8675V17.838H59.5835V21.721L59.1985 21.226C59.4112 20.83 59.7155 20.5257 60.1115 20.313C60.5075 20.1003 60.9585 19.994 61.4645 19.994ZM73.272 19.994C73.7413 19.994 74.1557 20.0893 74.515 20.28C74.8817 20.4633 75.1677 20.7493 75.373 21.138C75.5857 21.5193 75.692 22.0107 75.692 22.612V26H73.976V22.876C73.976 22.3993 73.877 22.0473 73.679 21.82C73.481 21.5927 73.2023 21.479 72.843 21.479C72.5937 21.479 72.37 21.5377 72.172 21.655C71.974 21.765 71.82 21.9337 71.71 22.161C71.6 22.3883 71.545 22.678 71.545 23.03V26H69.829V22.876C69.829 22.3993 69.73 22.0473 69.532 21.82C69.3413 21.5927 69.0663 21.479 68.707 21.479C68.4577 21.479 68.234 21.5377 68.036 21.655C67.838 21.765 67.684 21.9337 67.574 22.161C67.464 22.3883 67.409 22.678 67.409 23.03V26H65.693V20.082H67.332V21.699L67.024 21.226C67.2293 20.8227 67.519 20.5183 67.893 20.313C68.2743 20.1003 68.707 19.994 69.191 19.994C69.7337 19.994 70.2067 20.1333 70.61 20.412C71.0207 20.6833 71.292 21.1013 71.424 21.666L70.819 21.501C71.017 21.039 71.3323 20.6723 71.765 20.401C72.205 20.1297 72.7073 19.994 73.272 19.994ZM79.8944 26L83.3264 18.3H85.0864L88.5294 26H86.6594L83.8434 19.202H84.5474L81.7204 26H79.8944ZM81.6104 24.35L82.0834 22.997H86.0434L86.5274 24.35H81.6104ZM89.4272 26V17.838H91.1432V26H89.4272ZM92.9558 26V17.838H94.6718V26H92.9558ZM99.3004 26.088C98.6698 26.088 98.1088 25.956 97.6174 25.692C97.1334 25.428 96.7484 25.0687 96.4624 24.614C96.1838 24.152 96.0444 23.6277 96.0444 23.041C96.0444 22.447 96.1838 21.9227 96.4624 21.468C96.7484 21.006 97.1334 20.6467 97.6174 20.39C98.1088 20.126 98.6698 19.994 99.3004 19.994C99.9238 19.994 100.481 20.126 100.972 20.39C101.464 20.6467 101.849 21.0023 102.127 21.457C102.406 21.9117 102.545 22.4397 102.545 23.041C102.545 23.6277 102.406 24.152 102.127 24.614C101.849 25.0687 101.464 25.428 100.972 25.692C100.481 25.956 99.9238 26.088 99.3004 26.088ZM99.3004 24.68C99.5864 24.68 99.8431 24.614 100.07 24.482C100.298 24.35 100.477 24.163 100.609 23.921C100.741 23.6717 100.807 23.3783 100.807 23.041C100.807 22.6963 100.741 22.403 100.609 22.161C100.477 21.919 100.298 21.732 100.07 21.6C99.8431 21.468 99.5864 21.402 99.3004 21.402C99.0144 21.402 98.7578 21.468 98.5304 21.6C98.3031 21.732 98.1198 21.919 97.9804 22.161C97.8484 22.403 97.7824 22.6963 97.7824 23.041C97.7824 23.3783 97.8484 23.6717 97.9804 23.921C98.1198 24.163 98.3031 24.35 98.5304 24.482C98.7578 24.614 99.0144 24.68 99.3004 24.68ZM104.499 28.222C104.191 28.222 103.887 28.1743 103.586 28.079C103.286 27.9837 103.04 27.8517 102.849 27.683L103.476 26.462C103.608 26.5793 103.759 26.671 103.927 26.737C104.103 26.803 104.276 26.836 104.444 26.836C104.686 26.836 104.877 26.7773 105.016 26.66C105.163 26.55 105.295 26.363 105.412 26.099L105.72 25.373L105.852 25.186L107.975 20.082H109.625L106.952 26.363C106.762 26.8397 106.542 27.2137 106.292 27.485C106.05 27.7563 105.779 27.947 105.478 28.057C105.185 28.167 104.859 28.222 104.499 28.222ZM105.511 26.231L102.871 20.082H104.642L106.688 25.032L105.511 26.231ZM117.687 26.132C117.093 26.132 116.539 26.0367 116.026 25.846C115.52 25.648 115.08 25.3693 114.706 25.01C114.332 24.6507 114.038 24.229 113.826 23.745C113.62 23.261 113.518 22.7293 113.518 22.15C113.518 21.5707 113.62 21.039 113.826 20.555C114.038 20.071 114.332 19.6493 114.706 19.29C115.087 18.9307 115.531 18.6557 116.037 18.465C116.543 18.267 117.096 18.168 117.698 18.168C118.365 18.168 118.966 18.2853 119.502 18.52C120.044 18.7473 120.499 19.0847 120.866 19.532L119.722 20.588C119.458 20.2873 119.164 20.0637 118.842 19.917C118.519 19.763 118.167 19.686 117.786 19.686C117.426 19.686 117.096 19.7447 116.796 19.862C116.495 19.9793 116.235 20.148 116.015 20.368C115.795 20.588 115.622 20.8483 115.498 21.149C115.38 21.4497 115.322 21.7833 115.322 22.15C115.322 22.5167 115.38 22.8503 115.498 23.151C115.622 23.4517 115.795 23.712 116.015 23.932C116.235 24.152 116.495 24.3207 116.796 24.438C117.096 24.5553 117.426 24.614 117.786 24.614C118.167 24.614 118.519 24.5407 118.842 24.394C119.164 24.24 119.458 24.009 119.722 23.701L120.866 24.757C120.499 25.2043 120.044 25.5453 119.502 25.78C118.966 26.0147 118.361 26.132 117.687 26.132ZM122.168 26V20.082H123.807V21.754L123.576 21.27C123.752 20.852 124.034 20.5367 124.423 20.324C124.812 20.104 125.285 19.994 125.842 19.994V21.578C125.769 21.5707 125.703 21.567 125.644 21.567C125.585 21.5597 125.523 21.556 125.457 21.556C124.988 21.556 124.606 21.6917 124.313 21.963C124.027 22.227 123.884 22.6413 123.884 23.206V26H122.168ZM130.326 26V24.845L130.216 24.592V22.524C130.216 22.1573 130.102 21.8713 129.875 21.666C129.655 21.4607 129.314 21.358 128.852 21.358C128.536 21.358 128.225 21.4093 127.917 21.512C127.616 21.6073 127.359 21.7393 127.147 21.908L126.531 20.709C126.853 20.4817 127.242 20.3057 127.697 20.181C128.151 20.0563 128.613 19.994 129.083 19.994C129.985 19.994 130.685 20.2067 131.184 20.632C131.682 21.0573 131.932 21.721 131.932 22.623V26H130.326ZM128.522 26.088C128.06 26.088 127.664 26.011 127.334 25.857C127.004 25.6957 126.751 25.4793 126.575 25.208C126.399 24.9367 126.311 24.6323 126.311 24.295C126.311 23.943 126.395 23.635 126.564 23.371C126.74 23.107 127.015 22.9017 127.389 22.755C127.763 22.601 128.25 22.524 128.852 22.524H130.425V23.525H129.039C128.635 23.525 128.357 23.591 128.203 23.723C128.056 23.855 127.983 24.02 127.983 24.218C127.983 24.438 128.067 24.614 128.236 24.746C128.412 24.8707 128.65 24.933 128.951 24.933C129.237 24.933 129.493 24.867 129.721 24.735C129.948 24.5957 130.113 24.394 130.216 24.13L130.48 24.922C130.355 25.3033 130.128 25.593 129.798 25.791C129.468 25.989 129.042 26.088 128.522 26.088ZM137.302 19.994C137.771 19.994 138.189 20.0893 138.556 20.28C138.93 20.4633 139.223 20.7493 139.436 21.138C139.648 21.5193 139.755 22.0107 139.755 22.612V26H138.039V22.876C138.039 22.3993 137.932 22.0473 137.72 21.82C137.514 21.5927 137.221 21.479 136.84 21.479C136.568 21.479 136.323 21.5377 136.103 21.655C135.89 21.765 135.721 21.9373 135.597 22.172C135.479 22.4067 135.421 22.7073 135.421 23.074V26H133.705V20.082H135.344V21.721L135.036 21.226C135.248 20.83 135.553 20.5257 135.949 20.313C136.345 20.1003 136.796 19.994 137.302 19.994ZM142.949 24.79L142.993 22.7L145.754 20.082H147.8L145.149 22.777L144.258 23.503L142.949 24.79ZM141.53 26V17.838H143.246V26H141.53ZM145.941 26L143.939 23.514L145.017 22.183L148.02 26H145.941Z" fill="#161616"/>
<path opacity="0.9" d="M29.9533 40V35.1H30.6533V40H29.9533ZM33.2963 40.042C32.9229 40.042 32.6336 39.9417 32.4283 39.741C32.2229 39.5403 32.1203 39.2533 32.1203 38.88V35.478H32.7923V38.852C32.7923 39.0527 32.8413 39.2067 32.9393 39.314C33.0419 39.4213 33.1866 39.475 33.3733 39.475C33.5833 39.475 33.7583 39.4167 33.8983 39.3L34.1083 39.783C34.0056 39.8717 33.8819 39.937 33.7373 39.979C33.5973 40.021 33.4503 40.042 33.2963 40.042ZM31.4903 36.843V36.29H33.8563V36.843H31.4903ZM36.8006 40V36.29H37.4726V40H36.8006ZM37.1366 35.576C37.0059 35.576 36.8962 35.534 36.8076 35.45C36.7236 35.366 36.6816 35.2633 36.6816 35.142C36.6816 35.016 36.7236 34.911 36.8076 34.827C36.8962 34.743 37.0059 34.701 37.1366 34.701C37.2672 34.701 37.3746 34.743 37.4586 34.827C37.5472 34.9063 37.5916 35.0067 37.5916 35.128C37.5916 35.254 37.5496 35.3613 37.4656 35.45C37.3816 35.534 37.2719 35.576 37.1366 35.576ZM39.8197 40.042C39.5117 40.042 39.2177 40 38.9377 39.916C38.6623 39.832 38.4453 39.7293 38.2867 39.608L38.5667 39.076C38.7253 39.1833 38.9213 39.2743 39.1547 39.349C39.388 39.4237 39.626 39.461 39.8687 39.461C40.1813 39.461 40.4053 39.4167 40.5407 39.328C40.6807 39.2393 40.7507 39.1157 40.7507 38.957C40.7507 38.8403 40.7087 38.7493 40.6247 38.684C40.5407 38.6187 40.4287 38.5697 40.2887 38.537C40.1533 38.5043 40.0017 38.4763 39.8337 38.453C39.6657 38.425 39.4977 38.3923 39.3297 38.355C39.1617 38.313 39.0077 38.257 38.8677 38.187C38.7277 38.1123 38.6157 38.012 38.5317 37.886C38.4477 37.7553 38.4057 37.5827 38.4057 37.368C38.4057 37.144 38.4687 36.948 38.5947 36.78C38.7207 36.612 38.898 36.4837 39.1267 36.395C39.36 36.3017 39.6353 36.255 39.9527 36.255C40.1953 36.255 40.4403 36.2853 40.6877 36.346C40.9397 36.402 41.145 36.4837 41.3037 36.591L41.0167 37.123C40.8487 37.011 40.6737 36.934 40.4917 36.892C40.3097 36.85 40.1277 36.829 39.9457 36.829C39.6517 36.829 39.4323 36.878 39.2877 36.976C39.143 37.0693 39.0707 37.1907 39.0707 37.34C39.0707 37.466 39.1127 37.564 39.1967 37.634C39.2853 37.6993 39.3973 37.7507 39.5327 37.788C39.6727 37.8253 39.8267 37.858 39.9947 37.886C40.1627 37.9093 40.3307 37.942 40.4987 37.984C40.6667 38.0213 40.8183 38.075 40.9537 38.145C41.0937 38.215 41.2057 38.313 41.2897 38.439C41.3783 38.565 41.4227 38.733 41.4227 38.943C41.4227 39.167 41.3573 39.3607 41.2267 39.524C41.096 39.6873 40.9117 39.8157 40.6737 39.909C40.4357 39.9977 40.151 40.042 39.8197 40.042ZM44.1424 40V34.806H44.8144V40H44.1424ZM46.0974 40V36.29H46.7694V40H46.0974ZM46.4334 35.576C46.3028 35.576 46.1931 35.534 46.1044 35.45C46.0204 35.366 45.9784 35.2633 45.9784 35.142C45.9784 35.016 46.0204 34.911 46.1044 34.827C46.1931 34.743 46.3028 34.701 46.4334 34.701C46.5641 34.701 46.6714 34.743 46.7554 34.827C46.8441 34.9063 46.8884 35.0067 46.8884 35.128C46.8884 35.254 46.8464 35.3613 46.7624 35.45C46.6784 35.534 46.5688 35.576 46.4334 35.576ZM49.6765 41.4C49.3359 41.4 49.0045 41.351 48.6825 41.253C48.3652 41.1597 48.1062 41.0243 47.9055 40.847L48.2275 40.329C48.4002 40.4783 48.6125 40.595 48.8645 40.679C49.1165 40.7677 49.3802 40.812 49.6555 40.812C50.0942 40.812 50.4162 40.7093 50.6215 40.504C50.8269 40.2987 50.9295 39.986 50.9295 39.566V38.782L50.9995 38.047L50.9645 37.305V36.29H51.6015V39.496C51.6015 40.1493 51.4382 40.63 51.1115 40.938C50.7849 41.246 50.3065 41.4 49.6765 41.4ZM49.5925 39.846C49.2332 39.846 48.9112 39.7713 48.6265 39.622C48.3465 39.468 48.1225 39.2557 47.9545 38.985C47.7912 38.7143 47.7095 38.4017 47.7095 38.047C47.7095 37.6877 47.7912 37.375 47.9545 37.109C48.1225 36.8383 48.3465 36.6283 48.6265 36.479C48.9112 36.3297 49.2332 36.255 49.5925 36.255C49.9099 36.255 50.1992 36.3203 50.4605 36.451C50.7219 36.577 50.9295 36.773 51.0835 37.039C51.2422 37.305 51.3215 37.641 51.3215 38.047C51.3215 38.4483 51.2422 38.782 51.0835 39.048C50.9295 39.314 50.7219 39.5147 50.4605 39.65C50.1992 39.7807 49.9099 39.846 49.5925 39.846ZM49.6695 39.258C49.9169 39.258 50.1362 39.2067 50.3275 39.104C50.5189 39.0013 50.6682 38.859 50.7755 38.677C50.8875 38.495 50.9435 38.285 50.9435 38.047C50.9435 37.809 50.8875 37.599 50.7755 37.417C50.6682 37.235 50.5189 37.095 50.3275 36.997C50.1362 36.8943 49.9169 36.843 49.6695 36.843C49.4222 36.843 49.2005 36.8943 49.0045 36.997C48.8132 37.095 48.6615 37.235 48.5495 37.417C48.4422 37.599 48.3885 37.809 48.3885 38.047C48.3885 38.285 48.4422 38.495 48.5495 38.677C48.6615 38.859 48.8132 39.0013 49.0045 39.104C49.2005 39.2067 49.4222 39.258 49.6695 39.258ZM54.8665 36.255C55.1699 36.255 55.4359 36.3133 55.6645 36.43C55.8979 36.5467 56.0799 36.724 56.2105 36.962C56.3412 37.2 56.4065 37.501 56.4065 37.865V40H55.7345V37.942C55.7345 37.5827 55.6459 37.312 55.4685 37.13C55.2959 36.948 55.0509 36.857 54.7335 36.857C54.4955 36.857 54.2879 36.9037 54.1105 36.997C53.9332 37.0903 53.7955 37.228 53.6975 37.41C53.6042 37.592 53.5575 37.8183 53.5575 38.089V40H52.8855V34.806H53.5575V37.291L53.4245 37.025C53.5459 36.7823 53.7325 36.5933 53.9845 36.458C54.2365 36.3227 54.5305 36.255 54.8665 36.255ZM58.9242 40.042C58.5509 40.042 58.2615 39.9417 58.0562 39.741C57.8509 39.5403 57.7482 39.2533 57.7482 38.88V35.478H58.4202V38.852C58.4202 39.0527 58.4692 39.2067 58.5672 39.314C58.6699 39.4213 58.8145 39.475 59.0012 39.475C59.2112 39.475 59.3862 39.4167 59.5262 39.3L59.7362 39.783C59.6335 39.8717 59.5099 39.937 59.3652 39.979C59.2252 40.021 59.0782 40.042 58.9242 40.042ZM57.1182 36.843V36.29H59.4842V36.843H57.1182ZM62.0776 40.042C61.6809 40.042 61.3309 39.9603 61.0276 39.797C60.7289 39.6337 60.4956 39.4097 60.3276 39.125C60.1642 38.8403 60.0826 38.5137 60.0826 38.145C60.0826 37.7763 60.1619 37.4497 60.3206 37.165C60.4839 36.8803 60.7056 36.6587 60.9856 36.5C61.2702 36.3367 61.5899 36.255 61.9446 36.255C62.3039 36.255 62.6212 36.3343 62.8966 36.493C63.1719 36.6517 63.3866 36.8757 63.5406 37.165C63.6992 37.4497 63.7786 37.7833 63.7786 38.166C63.7786 38.194 63.7762 38.2267 63.7716 38.264C63.7716 38.3013 63.7692 38.3363 63.7646 38.369H60.6076V37.886H63.4146L63.1416 38.054C63.1462 37.816 63.0972 37.6037 62.9946 37.417C62.8919 37.2303 62.7496 37.0857 62.5676 36.983C62.3902 36.8757 62.1826 36.822 61.9446 36.822C61.7112 36.822 61.5036 36.8757 61.3216 36.983C61.1396 37.0857 60.9972 37.2327 60.8946 37.424C60.7919 37.6107 60.7406 37.8253 60.7406 38.068V38.18C60.7406 38.4273 60.7966 38.649 60.9086 38.845C61.0252 39.0363 61.1862 39.1857 61.3916 39.293C61.5969 39.4003 61.8326 39.454 62.0986 39.454C62.3179 39.454 62.5162 39.4167 62.6936 39.342C62.8756 39.2673 63.0342 39.1553 63.1696 39.006L63.5406 39.44C63.3726 39.636 63.1626 39.7853 62.9106 39.888C62.6632 39.9907 62.3856 40.042 62.0776 40.042ZM64.7117 40V36.29H65.3557V37.298L65.2927 37.046C65.3954 36.7893 65.568 36.5933 65.8107 36.458C66.0534 36.3227 66.352 36.255 66.7067 36.255V36.906C66.6787 36.9013 66.6507 36.899 66.6227 36.899C66.5994 36.899 66.576 36.899 66.5527 36.899C66.1934 36.899 65.9087 37.0063 65.6987 37.221C65.4887 37.4357 65.3837 37.746 65.3837 38.152V40H64.7117ZM70.8557 40.056C70.5244 40.056 70.2304 40.0023 69.9737 39.895C69.717 39.7877 69.514 39.6383 69.3647 39.447C69.2154 39.2557 69.1407 39.034 69.1407 38.782C69.1407 38.5627 69.1897 38.362 69.2877 38.18C69.3857 37.998 69.542 37.823 69.7567 37.655C69.9714 37.4823 70.2537 37.305 70.6037 37.123C70.8884 36.9737 71.11 36.843 71.2687 36.731C71.432 36.619 71.5464 36.514 71.6117 36.416C71.6817 36.3133 71.7167 36.2037 71.7167 36.087C71.7167 35.9283 71.6607 35.8 71.5487 35.702C71.4367 35.5993 71.2757 35.548 71.0657 35.548C70.8464 35.548 70.6737 35.604 70.5477 35.716C70.4264 35.8233 70.3657 35.9657 70.3657 36.143C70.3657 36.2317 70.3797 36.318 70.4077 36.402C70.4404 36.4813 70.4964 36.5723 70.5757 36.675C70.6597 36.773 70.7787 36.899 70.9327 37.053L73.5227 39.629L73.1447 40.077L70.3937 37.34C70.2304 37.1767 70.102 37.032 70.0087 36.906C69.9154 36.7753 69.8477 36.6493 69.8057 36.528C69.7637 36.4067 69.7427 36.283 69.7427 36.157C69.7427 35.9377 69.7964 35.7463 69.9037 35.583C70.0157 35.415 70.1697 35.2867 70.3657 35.198C70.5664 35.1047 70.7997 35.058 71.0657 35.058C71.313 35.058 71.5277 35.1 71.7097 35.184C71.8917 35.2633 72.0317 35.38 72.1297 35.534C72.2324 35.6833 72.2837 35.8653 72.2837 36.08C72.2837 36.2667 72.237 36.4393 72.1437 36.598C72.055 36.7567 71.9104 36.9107 71.7097 37.06C71.509 37.2093 71.2384 37.3703 70.8977 37.543C70.6177 37.6877 70.3984 37.823 70.2397 37.949C70.081 38.0703 69.9667 38.1917 69.8967 38.313C69.8314 38.4343 69.7987 38.5673 69.7987 38.712C69.7987 38.866 69.843 39.0037 69.9317 39.125C70.025 39.2417 70.1534 39.3327 70.3167 39.398C70.4847 39.4633 70.6784 39.496 70.8977 39.496C71.2104 39.496 71.4927 39.4283 71.7447 39.293C71.9967 39.1577 72.2067 38.9547 72.3747 38.684C72.5474 38.4133 72.6734 38.0773 72.7527 37.676L73.2917 37.851C73.1984 38.3223 73.0374 38.7213 72.8087 39.048C72.5847 39.3747 72.307 39.6243 71.9757 39.797C71.6444 39.9697 71.271 40.056 70.8557 40.056ZM77.2054 40.042C76.8974 40.042 76.6034 40 76.3234 39.916C76.0481 39.832 75.8311 39.7293 75.6724 39.608L75.9524 39.076C76.1111 39.1833 76.3071 39.2743 76.5404 39.349C76.7737 39.4237 77.0117 39.461 77.2544 39.461C77.5671 39.461 77.7911 39.4167 77.9264 39.328C78.0664 39.2393 78.1364 39.1157 78.1364 38.957C78.1364 38.8403 78.0944 38.7493 78.0104 38.684C77.9264 38.6187 77.8144 38.5697 77.6744 38.537C77.5391 38.5043 77.3874 38.4763 77.2194 38.453C77.0514 38.425 76.8834 38.3923 76.7154 38.355C76.5474 38.313 76.3934 38.257 76.2534 38.187C76.1134 38.1123 76.0014 38.012 75.9174 37.886C75.8334 37.7553 75.7914 37.5827 75.7914 37.368C75.7914 37.144 75.8544 36.948 75.9804 36.78C76.1064 36.612 76.2837 36.4837 76.5124 36.395C76.7457 36.3017 77.0211 36.255 77.3384 36.255C77.5811 36.255 77.8261 36.2853 78.0734 36.346C78.3254 36.402 78.5307 36.4837 78.6894 36.591L78.4024 37.123C78.2344 37.011 78.0594 36.934 77.8774 36.892C77.6954 36.85 77.5134 36.829 77.3314 36.829C77.0374 36.829 76.8181 36.878 76.6734 36.976C76.5287 37.0693 76.4564 37.1907 76.4564 37.34C76.4564 37.466 76.4984 37.564 76.5824 37.634C76.6711 37.6993 76.7831 37.7507 76.9184 37.788C77.0584 37.8253 77.2124 37.858 77.3804 37.886C77.5484 37.9093 77.7164 37.942 77.8844 37.984C78.0524 38.0213 78.2041 38.075 78.3394 38.145C78.4794 38.215 78.5914 38.313 78.6754 38.439C78.7641 38.565 78.8084 38.733 78.8084 38.943C78.8084 39.167 78.7431 39.3607 78.6124 39.524C78.4817 39.6873 78.2974 39.8157 78.0594 39.909C77.8214 39.9977 77.5367 40.042 77.2054 40.042ZM80.9222 40.042C80.5489 40.042 80.2596 39.9417 80.0542 39.741C79.8489 39.5403 79.7462 39.2533 79.7462 38.88V35.478H80.4182V38.852C80.4182 39.0527 80.4672 39.2067 80.5652 39.314C80.6679 39.4213 80.8126 39.475 80.9992 39.475C81.2092 39.475 81.3842 39.4167 81.5242 39.3L81.7342 39.783C81.6316 39.8717 81.5079 39.937 81.3632 39.979C81.2232 40.021 81.0762 40.042 80.9222 40.042ZM79.1162 36.843V36.29H81.4822V36.843H79.1162ZM82.5467 40V36.29H83.1907V37.298L83.1277 37.046C83.2303 36.7893 83.403 36.5933 83.6457 36.458C83.8883 36.3227 84.187 36.255 84.5417 36.255V36.906C84.5137 36.9013 84.4857 36.899 84.4577 36.899C84.4343 36.899 84.411 36.899 84.3877 36.899C84.0283 36.899 83.7437 37.0063 83.5337 37.221C83.3237 37.4357 83.2187 37.746 83.2187 38.152V40H82.5467ZM86.9247 40.042C86.5514 40.042 86.2201 39.9603 85.9307 39.797C85.6414 39.6337 85.4127 39.4097 85.2447 39.125C85.0767 38.8357 84.9927 38.509 84.9927 38.145C84.9927 37.7763 85.0767 37.4497 85.2447 37.165C85.4127 36.8803 85.6414 36.6587 85.9307 36.5C86.2201 36.3367 86.5514 36.255 86.9247 36.255C87.2934 36.255 87.6224 36.3367 87.9117 36.5C88.2057 36.6587 88.4344 36.8803 88.5977 37.165C88.7657 37.445 88.8497 37.7717 88.8497 38.145C88.8497 38.5137 88.7657 38.8403 88.5977 39.125C88.4344 39.4097 88.2057 39.6337 87.9117 39.797C87.6224 39.9603 87.2934 40.042 86.9247 40.042ZM86.9247 39.454C87.1627 39.454 87.3751 39.4003 87.5617 39.293C87.7531 39.1857 87.9024 39.034 88.0097 38.838C88.1171 38.6373 88.1707 38.4063 88.1707 38.145C88.1707 37.879 88.1171 37.6503 88.0097 37.459C87.9024 37.263 87.7531 37.1113 87.5617 37.004C87.3751 36.8967 87.1627 36.843 86.9247 36.843C86.6867 36.843 86.4744 36.8967 86.2877 37.004C86.1011 37.1113 85.9517 37.263 85.8397 37.459C85.7277 37.6503 85.6717 37.879 85.6717 38.145C85.6717 38.4063 85.7277 38.6373 85.8397 38.838C85.9517 39.034 86.1011 39.1857 86.2877 39.293C86.4744 39.4003 86.6867 39.454 86.9247 39.454ZM91.7601 36.255C92.0634 36.255 92.3294 36.3133 92.5581 36.43C92.7914 36.5467 92.9734 36.724 93.1041 36.962C93.2348 37.2 93.3001 37.501 93.3001 37.865V40H92.6281V37.942C92.6281 37.5827 92.5394 37.312 92.3621 37.13C92.1894 36.948 91.9444 36.857 91.6271 36.857C91.3891 36.857 91.1814 36.9037 91.0041 36.997C90.8268 37.0903 90.6891 37.228 90.5911 37.41C90.4978 37.592 90.4511 37.8183 90.4511 38.089V40H89.7791V36.29H90.4231V37.291L90.3181 37.025C90.4394 36.7823 90.6261 36.5933 90.8781 36.458C91.1301 36.3227 91.4241 36.255 91.7601 36.255ZM96.1677 41.4C95.8271 41.4 95.4957 41.351 95.1737 41.253C94.8564 41.1597 94.5974 41.0243 94.3967 40.847L94.7187 40.329C94.8914 40.4783 95.1037 40.595 95.3557 40.679C95.6077 40.7677 95.8714 40.812 96.1467 40.812C96.5854 40.812 96.9074 40.7093 97.1127 40.504C97.3181 40.2987 97.4207 39.986 97.4207 39.566V38.782L97.4907 38.047L97.4557 37.305V36.29H98.0927V39.496C98.0927 40.1493 97.9294 40.63 97.6027 40.938C97.2761 41.246 96.7977 41.4 96.1677 41.4ZM96.0837 39.846C95.7244 39.846 95.4024 39.7713 95.1177 39.622C94.8377 39.468 94.6137 39.2557 94.4457 38.985C94.2824 38.7143 94.2007 38.4017 94.2007 38.047C94.2007 37.6877 94.2824 37.375 94.4457 37.109C94.6137 36.8383 94.8377 36.6283 95.1177 36.479C95.4024 36.3297 95.7244 36.255 96.0837 36.255C96.4011 36.255 96.6904 36.3203 96.9517 36.451C97.2131 36.577 97.4207 36.773 97.5747 37.039C97.7334 37.305 97.8127 37.641 97.8127 38.047C97.8127 38.4483 97.7334 38.782 97.5747 39.048C97.4207 39.314 97.2131 39.5147 96.9517 39.65C96.6904 39.7807 96.4011 39.846 96.0837 39.846ZM96.1607 39.258C96.4081 39.258 96.6274 39.2067 96.8187 39.104C97.0101 39.0013 97.1594 38.859 97.2667 38.677C97.3787 38.495 97.4347 38.285 97.4347 38.047C97.4347 37.809 97.3787 37.599 97.2667 37.417C97.1594 37.235 97.0101 37.095 96.8187 36.997C96.6274 36.8943 96.4081 36.843 96.1607 36.843C95.9134 36.843 95.6917 36.8943 95.4957 36.997C95.3044 37.095 95.1527 37.235 95.0407 37.417C94.9334 37.599 94.8797 37.809 94.8797 38.047C94.8797 38.285 94.9334 38.495 95.0407 38.677C95.1527 38.859 95.3044 39.0013 95.4957 39.104C95.6917 39.2067 95.9134 39.258 96.1607 39.258ZM101.029 40.042C100.632 40.042 100.282 39.9603 99.9787 39.797C99.6801 39.6337 99.4467 39.4097 99.2787 39.125C99.1154 38.8403 99.0337 38.5137 99.0337 38.145C99.0337 37.7763 99.1131 37.4497 99.2717 37.165C99.4351 36.8803 99.6567 36.6587 99.9367 36.5C100.221 36.3367 100.541 36.255 100.896 36.255C101.255 36.255 101.572 36.3343 101.848 36.493C102.123 36.6517 102.338 36.8757 102.492 37.165C102.65 37.4497 102.73 37.7833 102.73 38.166C102.73 38.194 102.727 38.2267 102.723 38.264C102.723 38.3013 102.72 38.3363 102.716 38.369H99.5587V37.886H102.366L102.093 38.054C102.097 37.816 102.048 37.6037 101.946 37.417C101.843 37.2303 101.701 37.0857 101.519 36.983C101.341 36.8757 101.134 36.822 100.896 36.822C100.662 36.822 100.455 36.8757 100.273 36.983C100.091 37.0857 99.9484 37.2327 99.8457 37.424C99.7431 37.6107 99.6917 37.8253 99.6917 38.068V38.18C99.6917 38.4273 99.7477 38.649 99.8597 38.845C99.9764 39.0363 100.137 39.1857 100.343 39.293C100.548 39.4003 100.784 39.454 101.05 39.454C101.269 39.454 101.467 39.4167 101.645 39.342C101.827 39.2673 101.985 39.1553 102.121 39.006L102.492 39.44C102.324 39.636 102.114 39.7853 101.862 39.888C101.614 39.9907 101.337 40.042 101.029 40.042ZM103.663 40V36.29H104.307V37.298L104.244 37.046C104.347 36.7893 104.519 36.5933 104.762 36.458C105.005 36.3227 105.303 36.255 105.658 36.255V36.906C105.63 36.9013 105.602 36.899 105.574 36.899C105.551 36.899 105.527 36.899 105.504 36.899C105.145 36.899 104.86 37.0063 104.65 37.221C104.44 37.4357 104.335 37.746 104.335 38.152V40H103.663ZM106.2 41.036L106.55 39.622L106.641 40.028C106.505 40.028 106.391 39.986 106.298 39.902C106.209 39.818 106.165 39.7037 106.165 39.559C106.165 39.419 106.209 39.3047 106.298 39.216C106.391 39.1273 106.503 39.083 106.634 39.083C106.769 39.083 106.879 39.1297 106.963 39.223C107.047 39.3117 107.089 39.4237 107.089 39.559C107.089 39.6057 107.084 39.6523 107.075 39.699C107.07 39.741 107.058 39.7923 107.04 39.853C107.026 39.909 107.002 39.979 106.97 40.063L106.641 41.036H106.2ZM111.898 40.042C111.59 40.042 111.308 39.972 111.051 39.832C110.799 39.6873 110.596 39.475 110.442 39.195C110.293 38.915 110.218 38.565 110.218 38.145C110.218 37.725 110.291 37.375 110.435 37.095C110.585 36.815 110.785 36.605 111.037 36.465C111.294 36.325 111.581 36.255 111.898 36.255C112.262 36.255 112.584 36.3343 112.864 36.493C113.144 36.6517 113.366 36.8733 113.529 37.158C113.693 37.438 113.774 37.767 113.774 38.145C113.774 38.523 113.693 38.8543 113.529 39.139C113.366 39.4237 113.144 39.6453 112.864 39.804C112.584 39.9627 112.262 40.042 111.898 40.042ZM109.931 41.358V36.29H110.575V37.291L110.533 38.152L110.603 39.013V41.358H109.931ZM111.842 39.454C112.08 39.454 112.293 39.4003 112.479 39.293C112.671 39.1857 112.82 39.034 112.927 38.838C113.039 38.6373 113.095 38.4063 113.095 38.145C113.095 37.879 113.039 37.6503 112.927 37.459C112.82 37.263 112.671 37.1113 112.479 37.004C112.293 36.8967 112.08 36.843 111.842 36.843C111.609 36.843 111.397 36.8967 111.205 37.004C111.019 37.1113 110.869 37.263 110.757 37.459C110.65 37.6503 110.596 37.879 110.596 38.145C110.596 38.4063 110.65 38.6373 110.757 38.838C110.869 39.034 111.019 39.1857 111.205 39.293C111.397 39.4003 111.609 39.454 111.842 39.454ZM114.703 40V36.29H115.347V37.298L115.284 37.046C115.387 36.7893 115.559 36.5933 115.802 36.458C116.045 36.3227 116.343 36.255 116.698 36.255V36.906C116.67 36.9013 116.642 36.899 116.614 36.899C116.591 36.899 116.567 36.899 116.544 36.899C116.185 36.899 115.9 37.0063 115.69 37.221C115.48 37.4357 115.375 37.746 115.375 38.152V40H114.703ZM119.081 40.042C118.708 40.042 118.376 39.9603 118.087 39.797C117.798 39.6337 117.569 39.4097 117.401 39.125C117.233 38.8357 117.149 38.509 117.149 38.145C117.149 37.7763 117.233 37.4497 117.401 37.165C117.569 36.8803 117.798 36.6587 118.087 36.5C118.376 36.3367 118.708 36.255 119.081 36.255C119.45 36.255 119.779 36.3367 120.068 36.5C120.362 36.6587 120.591 36.8803 120.754 37.165C120.922 37.445 121.006 37.7717 121.006 38.145C121.006 38.5137 120.922 38.8403 120.754 39.125C120.591 39.4097 120.362 39.6337 120.068 39.797C119.779 39.9603 119.45 40.042 119.081 40.042ZM119.081 39.454C119.319 39.454 119.531 39.4003 119.718 39.293C119.909 39.1857 120.059 39.034 120.166 38.838C120.273 38.6373 120.327 38.4063 120.327 38.145C120.327 37.879 120.273 37.6503 120.166 37.459C120.059 37.263 119.909 37.1113 119.718 37.004C119.531 36.8967 119.319 36.843 119.081 36.843C118.843 36.843 118.631 36.8967 118.444 37.004C118.257 37.1113 118.108 37.263 117.996 37.459C117.884 37.6503 117.828 37.879 117.828 38.145C117.828 38.4063 117.884 38.6373 117.996 38.838C118.108 39.034 118.257 39.1857 118.444 39.293C118.631 39.4003 118.843 39.454 119.081 39.454ZM122.806 40L121.182 36.29H121.882L123.324 39.65H122.988L124.458 36.29H125.116L123.492 40H122.806ZM125.743 40V36.29H126.415V40H125.743ZM126.079 35.576C125.948 35.576 125.839 35.534 125.75 35.45C125.666 35.366 125.624 35.2633 125.624 35.142C125.624 35.016 125.666 34.911 125.75 34.827C125.839 34.743 125.948 34.701 126.079 34.701C126.21 34.701 126.317 34.743 126.401 34.827C126.49 34.9063 126.534 35.0067 126.534 35.128C126.534 35.254 126.492 35.3613 126.408 35.45C126.324 35.534 126.214 35.576 126.079 35.576ZM129.231 40.042C128.872 40.042 128.55 39.9627 128.265 39.804C127.985 39.6453 127.763 39.4237 127.6 39.139C127.437 38.8543 127.355 38.523 127.355 38.145C127.355 37.767 127.437 37.438 127.6 37.158C127.763 36.8733 127.985 36.6517 128.265 36.493C128.55 36.3343 128.872 36.255 129.231 36.255C129.544 36.255 129.826 36.325 130.078 36.465C130.33 36.605 130.531 36.815 130.68 37.095C130.834 37.375 130.911 37.725 130.911 38.145C130.911 38.565 130.836 38.915 130.687 39.195C130.542 39.475 130.344 39.6873 130.092 39.832C129.84 39.972 129.553 40.042 129.231 40.042ZM129.287 39.454C129.52 39.454 129.73 39.4003 129.917 39.293C130.108 39.1857 130.258 39.034 130.365 38.838C130.477 38.6373 130.533 38.4063 130.533 38.145C130.533 37.879 130.477 37.6503 130.365 37.459C130.258 37.263 130.108 37.1113 129.917 37.004C129.73 36.8967 129.52 36.843 129.287 36.843C129.049 36.843 128.837 36.8967 128.65 37.004C128.463 37.1113 128.314 37.263 128.202 37.459C128.09 37.6503 128.034 37.879 128.034 38.145C128.034 38.4063 128.09 38.6373 128.202 38.838C128.314 39.034 128.463 39.1857 128.65 39.293C128.837 39.4003 129.049 39.454 129.287 39.454ZM130.554 40V38.999L130.596 38.138L130.526 37.277V34.806H131.198V40H130.554ZM132.47 40V36.29H133.142V40H132.47ZM132.806 35.576C132.675 35.576 132.565 35.534 132.477 35.45C132.393 35.366 132.351 35.2633 132.351 35.142C132.351 35.016 132.393 34.911 132.477 34.827C132.565 34.743 132.675 34.701 132.806 34.701C132.936 34.701 133.044 34.743 133.128 34.827C133.216 34.9063 133.261 35.0067 133.261 35.128C133.261 35.254 133.219 35.3613 133.135 35.45C133.051 35.534 132.941 35.576 132.806 35.576ZM136.406 36.255C136.709 36.255 136.975 36.3133 137.204 36.43C137.437 36.5467 137.619 36.724 137.75 36.962C137.88 37.2 137.946 37.501 137.946 37.865V40H137.274V37.942C137.274 37.5827 137.185 37.312 137.008 37.13C136.835 36.948 136.59 36.857 136.273 36.857C136.035 36.857 135.827 36.9037 135.65 36.997C135.472 37.0903 135.335 37.228 135.237 37.41C135.143 37.592 135.097 37.8183 135.097 38.089V40H134.425V36.29H135.069V37.291L134.964 37.025C135.085 36.7823 135.272 36.5933 135.524 36.458C135.776 36.3227 136.07 36.255 136.406 36.255ZM140.813 41.4C140.473 41.4 140.141 41.351 139.819 41.253C139.502 41.1597 139.243 41.0243 139.042 40.847L139.364 40.329C139.537 40.4783 139.749 40.595 140.001 40.679C140.253 40.7677 140.517 40.812 140.792 40.812C141.231 40.812 141.553 40.7093 141.758 40.504C141.964 40.2987 142.066 39.986 142.066 39.566V38.782L142.136 38.047L142.101 37.305V36.29H142.738V39.496C142.738 40.1493 142.575 40.63 142.248 40.938C141.922 41.246 141.443 41.4 140.813 41.4ZM140.729 39.846C140.37 39.846 140.048 39.7713 139.763 39.622C139.483 39.468 139.259 39.2557 139.091 38.985C138.928 38.7143 138.846 38.4017 138.846 38.047C138.846 37.6877 138.928 37.375 139.091 37.109C139.259 36.8383 139.483 36.6283 139.763 36.479C140.048 36.3297 140.37 36.255 140.729 36.255C141.047 36.255 141.336 36.3203 141.597 36.451C141.859 36.577 142.066 36.773 142.22 37.039C142.379 37.305 142.458 37.641 142.458 38.047C142.458 38.4483 142.379 38.782 142.22 39.048C142.066 39.314 141.859 39.5147 141.597 39.65C141.336 39.7807 141.047 39.846 140.729 39.846ZM140.806 39.258C141.054 39.258 141.273 39.2067 141.464 39.104C141.656 39.0013 141.805 38.859 141.912 38.677C142.024 38.495 142.08 38.285 142.08 38.047C142.08 37.809 142.024 37.599 141.912 37.417C141.805 37.235 141.656 37.095 141.464 36.997C141.273 36.8943 141.054 36.843 140.806 36.843C140.559 36.843 140.337 36.8943 140.141 36.997C139.95 37.095 139.798 37.235 139.686 37.417C139.579 37.599 139.525 37.809 139.525 38.047C139.525 38.285 139.579 38.495 139.686 38.677C139.798 38.859 139.95 39.0013 140.141 39.104C140.337 39.2067 140.559 39.258 140.806 39.258ZM148.205 40V39.216L148.17 39.069V37.732C148.17 37.4473 148.086 37.228 147.918 37.074C147.755 36.9153 147.507 36.836 147.176 36.836C146.957 36.836 146.742 36.8733 146.532 36.948C146.322 37.018 146.145 37.1137 146 37.235L145.72 36.731C145.911 36.577 146.14 36.4603 146.406 36.381C146.677 36.297 146.959 36.255 147.253 36.255C147.762 36.255 148.154 36.3787 148.429 36.626C148.704 36.8733 148.842 37.2513 148.842 37.76V40H148.205ZM146.987 40.042C146.712 40.042 146.469 39.9953 146.259 39.902C146.054 39.8087 145.895 39.6803 145.783 39.517C145.671 39.349 145.615 39.16 145.615 38.95C145.615 38.7493 145.662 38.5673 145.755 38.404C145.853 38.2407 146.009 38.11 146.224 38.012C146.443 37.914 146.737 37.865 147.106 37.865H148.282V38.348H147.134C146.798 38.348 146.572 38.404 146.455 38.516C146.338 38.628 146.28 38.7633 146.28 38.922C146.28 39.104 146.352 39.251 146.497 39.363C146.642 39.4703 146.842 39.524 147.099 39.524C147.351 39.524 147.57 39.468 147.757 39.356C147.948 39.244 148.086 39.0807 148.17 38.866L148.303 39.328C148.214 39.5473 148.058 39.7223 147.834 39.853C147.61 39.979 147.328 40.042 146.987 40.042ZM153.03 40.042C152.722 40.042 152.428 40 152.148 39.916C151.872 39.832 151.655 39.7293 151.497 39.608L151.777 39.076C151.935 39.1833 152.131 39.2743 152.365 39.349C152.598 39.4237 152.836 39.461 153.079 39.461C153.391 39.461 153.615 39.4167 153.751 39.328C153.891 39.2393 153.961 39.1157 153.961 38.957C153.961 38.8403 153.919 38.7493 153.835 38.684C153.751 38.6187 153.639 38.5697 153.499 38.537C153.363 38.5043 153.212 38.4763 153.044 38.453C152.876 38.425 152.708 38.3923 152.54 38.355C152.372 38.313 152.218 38.257 152.078 38.187C151.938 38.1123 151.826 38.012 151.742 37.886C151.658 37.7553 151.616 37.5827 151.616 37.368C151.616 37.144 151.679 36.948 151.805 36.78C151.931 36.612 152.108 36.4837 152.337 36.395C152.57 36.3017 152.845 36.255 153.163 36.255C153.405 36.255 153.65 36.2853 153.898 36.346C154.15 36.402 154.355 36.4837 154.514 36.591L154.227 37.123C154.059 37.011 153.884 36.934 153.702 36.892C153.52 36.85 153.338 36.829 153.156 36.829C152.862 36.829 152.642 36.878 152.498 36.976C152.353 37.0693 152.281 37.1907 152.281 37.34C152.281 37.466 152.323 37.564 152.407 37.634C152.495 37.6993 152.607 37.7507 152.743 37.788C152.883 37.8253 153.037 37.858 153.205 37.886C153.373 37.9093 153.541 37.942 153.709 37.984C153.877 38.0213 154.028 38.075 154.164 38.145C154.304 38.215 154.416 38.313 154.5 38.439C154.588 38.565 154.633 38.733 154.633 38.943C154.633 39.167 154.567 39.3607 154.437 39.524C154.306 39.6873 154.122 39.8157 153.884 39.909C153.646 39.9977 153.361 40.042 153.03 40.042ZM160.113 36.255C160.412 36.255 160.676 36.3133 160.904 36.43C161.133 36.5467 161.31 36.724 161.436 36.962C161.567 37.2 161.632 37.501 161.632 37.865V40H160.96V37.942C160.96 37.5827 160.876 37.312 160.708 37.13C160.54 36.948 160.305 36.857 160.001 36.857C159.777 36.857 159.581 36.9037 159.413 36.997C159.245 37.0903 159.115 37.228 159.021 37.41C158.933 37.592 158.888 37.8183 158.888 38.089V40H158.216V37.942C158.216 37.5827 158.132 37.312 157.964 37.13C157.801 36.948 157.565 36.857 157.257 36.857C157.038 36.857 156.844 36.9037 156.676 36.997C156.508 37.0903 156.378 37.228 156.284 37.41C156.191 37.592 156.144 37.8183 156.144 38.089V40H155.472V36.29H156.116V37.277L156.011 37.025C156.128 36.7823 156.308 36.5933 156.55 36.458C156.793 36.3227 157.075 36.255 157.397 36.255C157.752 36.255 158.058 36.3437 158.314 36.521C158.571 36.6937 158.739 36.9573 158.818 37.312L158.545 37.2C158.657 36.9153 158.853 36.6867 159.133 36.514C159.413 36.3413 159.74 36.255 160.113 36.255ZM164.458 40.042C164.085 40.042 163.753 39.9603 163.464 39.797C163.175 39.6337 162.946 39.4097 162.778 39.125C162.61 38.8357 162.526 38.509 162.526 38.145C162.526 37.7763 162.61 37.4497 162.778 37.165C162.946 36.8803 163.175 36.6587 163.464 36.5C163.753 36.3367 164.085 36.255 164.458 36.255C164.827 36.255 165.156 36.3367 165.445 36.5C165.739 36.6587 165.968 36.8803 166.131 37.165C166.299 37.445 166.383 37.7717 166.383 38.145C166.383 38.5137 166.299 38.8403 166.131 39.125C165.968 39.4097 165.739 39.6337 165.445 39.797C165.156 39.9603 164.827 40.042 164.458 40.042ZM164.458 39.454C164.696 39.454 164.908 39.4003 165.095 39.293C165.286 39.1857 165.436 39.034 165.543 38.838C165.65 38.6373 165.704 38.4063 165.704 38.145C165.704 37.879 165.65 37.6503 165.543 37.459C165.436 37.263 165.286 37.1113 165.095 37.004C164.908 36.8967 164.696 36.843 164.458 36.843C164.22 36.843 164.008 36.8967 163.821 37.004C163.634 37.1113 163.485 37.263 163.373 37.459C163.261 37.6503 163.205 37.879 163.205 38.145C163.205 38.4063 163.261 38.6373 163.373 38.838C163.485 39.034 163.634 39.1857 163.821 39.293C164.008 39.4003 164.22 39.454 164.458 39.454ZM168.901 40.042C168.528 40.042 168.197 39.9603 167.907 39.797C167.618 39.6337 167.389 39.4097 167.221 39.125C167.053 38.8357 166.969 38.509 166.969 38.145C166.969 37.7763 167.053 37.4497 167.221 37.165C167.389 36.8803 167.618 36.6587 167.907 36.5C168.197 36.3367 168.528 36.255 168.901 36.255C169.27 36.255 169.599 36.3367 169.888 36.5C170.182 36.6587 170.411 36.8803 170.574 37.165C170.742 37.445 170.826 37.7717 170.826 38.145C170.826 38.5137 170.742 38.8403 170.574 39.125C170.411 39.4097 170.182 39.6337 169.888 39.797C169.599 39.9603 169.27 40.042 168.901 40.042ZM168.901 39.454C169.139 39.454 169.352 39.4003 169.538 39.293C169.73 39.1857 169.879 39.034 169.986 38.838C170.094 38.6373 170.147 38.4063 170.147 38.145C170.147 37.879 170.094 37.6503 169.986 37.459C169.879 37.263 169.73 37.1113 169.538 37.004C169.352 36.8967 169.139 36.843 168.901 36.843C168.663 36.843 168.451 36.8967 168.264 37.004C168.078 37.1113 167.928 37.263 167.816 37.459C167.704 37.6503 167.648 37.879 167.648 38.145C167.648 38.4063 167.704 38.6373 167.816 38.838C167.928 39.034 168.078 39.1857 168.264 39.293C168.451 39.4003 168.663 39.454 168.901 39.454ZM173.03 40.042C172.656 40.042 172.367 39.9417 172.162 39.741C171.956 39.5403 171.854 39.2533 171.854 38.88V35.478H172.526V38.852C172.526 39.0527 172.575 39.2067 172.673 39.314C172.775 39.4213 172.92 39.475 173.107 39.475C173.317 39.475 173.492 39.4167 173.632 39.3L173.842 39.783C173.739 39.8717 173.615 39.937 173.471 39.979C173.331 40.021 173.184 40.042 173.03 40.042ZM171.224 36.843V36.29H173.59V36.843H171.224ZM176.635 36.255C176.938 36.255 177.204 36.3133 177.433 36.43C177.666 36.5467 177.848 36.724 177.979 36.962C178.11 37.2 178.175 37.501 178.175 37.865V40H177.503V37.942C177.503 37.5827 177.414 37.312 177.237 37.13C177.064 36.948 176.819 36.857 176.502 36.857C176.264 36.857 176.056 36.9037 175.879 36.997C175.702 37.0903 175.564 37.228 175.466 37.41C175.373 37.592 175.326 37.8183 175.326 38.089V40H174.654V34.806H175.326V37.291L175.193 37.025C175.314 36.7823 175.501 36.5933 175.753 36.458C176.005 36.3227 176.299 36.255 176.635 36.255ZM22.7425 52V48.29H23.3865V49.298L23.3235 49.046C23.4261 48.7893 23.5988 48.5933 23.8415 48.458C24.0841 48.3227 24.3828 48.255 24.7375 48.255V48.906C24.7095 48.9013 24.6815 48.899 24.6535 48.899C24.6301 48.899 24.6068 48.899 24.5835 48.899C24.2241 48.899 23.9395 49.0063 23.7295 49.221C23.5195 49.4357 23.4145 49.746 23.4145 50.152V52H22.7425ZM25.5657 52V48.29H26.2377V52H25.5657ZM25.9017 47.576C25.771 47.576 25.6614 47.534 25.5727 47.45C25.4887 47.366 25.4467 47.2633 25.4467 47.142C25.4467 47.016 25.4887 46.911 25.5727 46.827C25.6614 46.743 25.771 46.701 25.9017 46.701C26.0324 46.701 26.1397 46.743 26.2237 46.827C26.3124 46.9063 26.3567 47.0067 26.3567 47.128C26.3567 47.254 26.3147 47.3613 26.2307 47.45C26.1467 47.534 26.037 47.576 25.9017 47.576ZM29.0538 52.042C28.6945 52.042 28.3725 51.9627 28.0878 51.804C27.8078 51.6453 27.5861 51.4237 27.4228 51.139C27.2595 50.8543 27.1778 50.523 27.1778 50.145C27.1778 49.767 27.2595 49.438 27.4228 49.158C27.5861 48.8733 27.8078 48.6517 28.0878 48.493C28.3725 48.3343 28.6945 48.255 29.0538 48.255C29.3665 48.255 29.6488 48.325 29.9008 48.465C30.1528 48.605 30.3535 48.815 30.5028 49.095C30.6568 49.375 30.7338 49.725 30.7338 50.145C30.7338 50.565 30.6591 50.915 30.5098 51.195C30.3651 51.475 30.1668 51.6873 29.9148 51.832C29.6628 51.972 29.3758 52.042 29.0538 52.042ZM29.1098 51.454C29.3431 51.454 29.5531 51.4003 29.7398 51.293C29.9311 51.1857 30.0805 51.034 30.1878 50.838C30.2998 50.6373 30.3558 50.4063 30.3558 50.145C30.3558 49.879 30.2998 49.6503 30.1878 49.459C30.0805 49.263 29.9311 49.1113 29.7398 49.004C29.5531 48.8967 29.3431 48.843 29.1098 48.843C28.8718 48.843 28.6595 48.8967 28.4728 49.004C28.2861 49.1113 28.1368 49.263 28.0248 49.459C27.9128 49.6503 27.8568 49.879 27.8568 50.145C27.8568 50.4063 27.9128 50.6373 28.0248 50.838C28.1368 51.034 28.2861 51.1857 28.4728 51.293C28.6595 51.4003 28.8718 51.454 29.1098 51.454ZM30.3768 52V50.999L30.4188 50.138L30.3488 49.277V46.806H31.0208V52H30.3768ZM32.2923 52V48.29H32.9643V52H32.2923ZM32.6283 47.576C32.4976 47.576 32.3879 47.534 32.2993 47.45C32.2153 47.366 32.1733 47.2633 32.1733 47.142C32.1733 47.016 32.2153 46.911 32.2993 46.827C32.3879 46.743 32.4976 46.701 32.6283 46.701C32.7589 46.701 32.8663 46.743 32.9503 46.827C33.0389 46.9063 33.0833 47.0067 33.0833 47.128C33.0833 47.254 33.0413 47.3613 32.9573 47.45C32.8733 47.534 32.7636 47.576 32.6283 47.576ZM36.2284 48.255C36.5317 48.255 36.7977 48.3133 37.0264 48.43C37.2597 48.5467 37.4417 48.724 37.5724 48.962C37.703 49.2 37.7684 49.501 37.7684 49.865V52H37.0964V49.942C37.0964 49.5827 37.0077 49.312 36.8304 49.13C36.6577 48.948 36.4127 48.857 36.0954 48.857C35.8574 48.857 35.6497 48.9037 35.4724 48.997C35.295 49.0903 35.1574 49.228 35.0594 49.41C34.966 49.592 34.9194 49.8183 34.9194 50.089V52H34.2474V48.29H34.8914V49.291L34.7864 49.025C34.9077 48.7823 35.0944 48.5933 35.3464 48.458C35.5984 48.3227 35.8924 48.255 36.2284 48.255ZM40.636 53.4C40.2953 53.4 39.964 53.351 39.642 53.253C39.3247 53.1597 39.0657 53.0243 38.865 52.847L39.187 52.329C39.3597 52.4783 39.572 52.595 39.824 52.679C40.076 52.7677 40.3397 52.812 40.615 52.812C41.0537 52.812 41.3757 52.7093 41.581 52.504C41.7863 52.2987 41.889 51.986 41.889 51.566V50.782L41.959 50.047L41.924 49.305V48.29H42.561V51.496C42.561 52.1493 42.3977 52.63 42.071 52.938C41.7443 53.246 41.266 53.4 40.636 53.4ZM40.552 51.846C40.1927 51.846 39.8707 51.7713 39.586 51.622C39.306 51.468 39.082 51.2557 38.914 50.985C38.7507 50.7143 38.669 50.4017 38.669 50.047C38.669 49.6877 38.7507 49.375 38.914 49.109C39.082 48.8383 39.306 48.6283 39.586 48.479C39.8707 48.3297 40.1927 48.255 40.552 48.255C40.8693 48.255 41.1587 48.3203 41.42 48.451C41.6813 48.577 41.889 48.773 42.043 49.039C42.2017 49.305 42.281 49.641 42.281 50.047C42.281 50.4483 42.2017 50.782 42.043 51.048C41.889 51.314 41.6813 51.5147 41.42 51.65C41.1587 51.7807 40.8693 51.846 40.552 51.846ZM40.629 51.258C40.8763 51.258 41.0957 51.2067 41.287 51.104C41.4783 51.0013 41.6277 50.859 41.735 50.677C41.847 50.495 41.903 50.285 41.903 50.047C41.903 49.809 41.847 49.599 41.735 49.417C41.6277 49.235 41.4783 49.095 41.287 48.997C41.0957 48.8943 40.8763 48.843 40.629 48.843C40.3817 48.843 40.16 48.8943 39.964 48.997C39.7727 49.095 39.621 49.235 39.509 49.417C39.4017 49.599 39.348 49.809 39.348 50.047C39.348 50.285 39.4017 50.495 39.509 50.677C39.621 50.859 39.7727 51.0013 39.964 51.104C40.16 51.2067 40.3817 51.258 40.629 51.258ZM47.3769 52.042C46.9802 52.042 46.6302 51.9603 46.3269 51.797C46.0282 51.6337 45.7949 51.4097 45.6269 51.125C45.4636 50.8403 45.3819 50.5137 45.3819 50.145C45.3819 49.7763 45.4612 49.4497 45.6199 49.165C45.7832 48.8803 46.0049 48.6587 46.2849 48.5C46.5696 48.3367 46.8892 48.255 47.2439 48.255C47.6032 48.255 47.9206 48.3343 48.1959 48.493C48.4712 48.6517 48.6859 48.8757 48.8399 49.165C48.9986 49.4497 49.0779 49.7833 49.0779 50.166C49.0779 50.194 49.0756 50.2267 49.0709 50.264C49.0709 50.3013 49.0686 50.3363 49.0639 50.369H45.9069V49.886H48.7139L48.4409 50.054C48.4456 49.816 48.3966 49.6037 48.2939 49.417C48.1912 49.2303 48.0489 49.0857 47.8669 48.983C47.6896 48.8757 47.4819 48.822 47.2439 48.822C47.0106 48.822 46.8029 48.8757 46.6209 48.983C46.4389 49.0857 46.2966 49.2327 46.1939 49.424C46.0912 49.6107 46.0399 49.8253 46.0399 50.068V50.18C46.0399 50.4273 46.0959 50.649 46.2079 50.845C46.3246 51.0363 46.4856 51.1857 46.6909 51.293C46.8962 51.4003 47.1319 51.454 47.3979 51.454C47.6172 51.454 47.8156 51.4167 47.9929 51.342C48.1749 51.2673 48.3336 51.1553 48.4689 51.006L48.8399 51.44C48.6719 51.636 48.4619 51.7853 48.2099 51.888C47.9626 51.9907 47.6849 52.042 47.3769 52.042ZM49.3695 52L50.9655 49.928L50.9585 50.271L49.4395 48.29H50.1885L51.3505 49.816H51.0635L52.2255 48.29H52.9605L51.4205 50.285L51.4275 49.928L53.0375 52H52.2745L51.0495 50.376L51.3225 50.418L50.1185 52H49.3695ZM55.7378 52.042C55.4298 52.042 55.1475 51.972 54.8908 51.832C54.6388 51.6873 54.4358 51.475 54.2818 51.195C54.1325 50.915 54.0578 50.565 54.0578 50.145C54.0578 49.725 54.1301 49.375 54.2748 49.095C54.4241 48.815 54.6248 48.605 54.8768 48.465C55.1335 48.325 55.4205 48.255 55.7378 48.255C56.1018 48.255 56.4238 48.3343 56.7038 48.493C56.9838 48.6517 57.2055 48.8733 57.3688 49.158C57.5321 49.438 57.6138 49.767 57.6138 50.145C57.6138 50.523 57.5321 50.8543 57.3688 51.139C57.2055 51.4237 56.9838 51.6453 56.7038 51.804C56.4238 51.9627 56.1018 52.042 55.7378 52.042ZM53.7708 53.358V48.29H54.4148V49.291L54.3728 50.152L54.4428 51.013V53.358H53.7708ZM55.6818 51.454C55.9198 51.454 56.1321 51.4003 56.3188 51.293C56.5101 51.1857 56.6595 51.034 56.7668 50.838C56.8788 50.6373 56.9348 50.4063 56.9348 50.145C56.9348 49.879 56.8788 49.6503 56.7668 49.459C56.6595 49.263 56.5101 49.1113 56.3188 49.004C56.1321 48.8967 55.9198 48.843 55.6818 48.843C55.4485 48.843 55.2361 48.8967 55.0448 49.004C54.8581 49.1113 54.7088 49.263 54.5968 49.459C54.4895 49.6503 54.4358 49.879 54.4358 50.145C54.4358 50.4063 54.4895 50.6373 54.5968 50.838C54.7088 51.034 54.8581 51.1857 55.0448 51.293C55.2361 51.4003 55.4485 51.454 55.6818 51.454ZM60.1943 52.042C59.7976 52.042 59.4476 51.9603 59.1443 51.797C58.8456 51.6337 58.6123 51.4097 58.4443 51.125C58.2809 50.8403 58.1993 50.5137 58.1993 50.145C58.1993 49.7763 58.2786 49.4497 58.4373 49.165C58.6006 48.8803 58.8223 48.6587 59.1023 48.5C59.3869 48.3367 59.7066 48.255 60.0613 48.255C60.4206 48.255 60.7379 48.3343 61.0133 48.493C61.2886 48.6517 61.5033 48.8757 61.6573 49.165C61.8159 49.4497 61.8953 49.7833 61.8953 50.166C61.8953 50.194 61.8929 50.2267 61.8883 50.264C61.8883 50.3013 61.8859 50.3363 61.8813 50.369H58.7243V49.886H61.5313L61.2583 50.054C61.2629 49.816 61.2139 49.6037 61.1113 49.417C61.0086 49.2303 60.8663 49.0857 60.6843 48.983C60.5069 48.8757 60.2993 48.822 60.0613 48.822C59.8279 48.822 59.6203 48.8757 59.4383 48.983C59.2563 49.0857 59.1139 49.2327 59.0113 49.424C58.9086 49.6107 58.8573 49.8253 58.8573 50.068V50.18C58.8573 50.4273 58.9133 50.649 59.0253 50.845C59.1419 51.0363 59.3029 51.1857 59.5083 51.293C59.7136 51.4003 59.9493 51.454 60.2153 51.454C60.4346 51.454 60.6329 51.4167 60.8103 51.342C60.9923 51.2673 61.1509 51.1553 61.2863 51.006L61.6573 51.44C61.4893 51.636 61.2793 51.7853 61.0273 51.888C60.7799 51.9907 60.5023 52.042 60.1943 52.042ZM62.8284 52V48.29H63.4724V49.298L63.4094 49.046C63.5121 48.7893 63.6847 48.5933 63.9274 48.458C64.1701 48.3227 64.4687 48.255 64.8234 48.255V48.906C64.7954 48.9013 64.7674 48.899 64.7394 48.899C64.7161 48.899 64.6927 48.899 64.6694 48.899C64.3101 48.899 64.0254 49.0063 63.8154 49.221C63.6054 49.4357 63.5004 49.746 63.5004 50.152V52H62.8284ZM65.6516 52V48.29H66.3236V52H65.6516ZM65.9876 47.576C65.857 47.576 65.7473 47.534 65.6586 47.45C65.5746 47.366 65.5326 47.2633 65.5326 47.142C65.5326 47.016 65.5746 46.911 65.6586 46.827C65.7473 46.743 65.857 46.701 65.9876 46.701C66.1183 46.701 66.2256 46.743 66.3096 46.827C66.3983 46.9063 66.4426 47.0067 66.4426 47.128C66.4426 47.254 66.4006 47.3613 66.3166 47.45C66.2326 47.534 66.123 47.576 65.9876 47.576ZM69.2587 52.042C68.8621 52.042 68.5121 51.9603 68.2087 51.797C67.9101 51.6337 67.6767 51.4097 67.5087 51.125C67.3454 50.8403 67.2637 50.5137 67.2637 50.145C67.2637 49.7763 67.3431 49.4497 67.5017 49.165C67.6651 48.8803 67.8867 48.6587 68.1667 48.5C68.4514 48.3367 68.7711 48.255 69.1257 48.255C69.4851 48.255 69.8024 48.3343 70.0777 48.493C70.3531 48.6517 70.5677 48.8757 70.7217 49.165C70.8804 49.4497 70.9597 49.7833 70.9597 50.166C70.9597 50.194 70.9574 50.2267 70.9527 50.264C70.9527 50.3013 70.9504 50.3363 70.9457 50.369H67.7887V49.886H70.5957L70.3227 50.054C70.3274 49.816 70.2784 49.6037 70.1757 49.417C70.0731 49.2303 69.9307 49.0857 69.7487 48.983C69.5714 48.8757 69.3637 48.822 69.1257 48.822C68.8924 48.822 68.6847 48.8757 68.5027 48.983C68.3207 49.0857 68.1784 49.2327 68.0757 49.424C67.9731 49.6107 67.9217 49.8253 67.9217 50.068V50.18C67.9217 50.4273 67.9777 50.649 68.0897 50.845C68.2064 51.0363 68.3674 51.1857 68.5727 51.293C68.7781 51.4003 69.0137 51.454 69.2797 51.454C69.4991 51.454 69.6974 51.4167 69.8747 51.342C70.0567 51.2673 70.2154 51.1553 70.3507 51.006L70.7217 51.44C70.5537 51.636 70.3437 51.7853 70.0917 51.888C69.8444 51.9907 69.5667 52.042 69.2587 52.042ZM73.8739 48.255C74.1772 48.255 74.4432 48.3133 74.6719 48.43C74.9052 48.5467 75.0872 48.724 75.2179 48.962C75.3485 49.2 75.4139 49.501 75.4139 49.865V52H74.7419V49.942C74.7419 49.5827 74.6532 49.312 74.4759 49.13C74.3032 48.948 74.0582 48.857 73.7409 48.857C73.5029 48.857 73.2952 48.9037 73.1179 48.997C72.9405 49.0903 72.8029 49.228 72.7049 49.41C72.6115 49.592 72.5649 49.8183 72.5649 50.089V52H71.8929V48.29H72.5369V49.291L72.4319 49.025C72.5532 48.7823 72.7399 48.5933 72.9919 48.458C73.2439 48.3227 73.5379 48.255 73.8739 48.255ZM78.2745 52.042C77.8965 52.042 77.5582 51.9603 77.2595 51.797C76.9655 51.6337 76.7345 51.4097 76.5665 51.125C76.3985 50.8403 76.3145 50.5137 76.3145 50.145C76.3145 49.7763 76.3985 49.4497 76.5665 49.165C76.7345 48.8803 76.9655 48.6587 77.2595 48.5C77.5582 48.3367 77.8965 48.255 78.2745 48.255C78.6105 48.255 78.9092 48.3227 79.1705 48.458C79.4365 48.5887 79.6418 48.7847 79.7865 49.046L79.2755 49.375C79.1542 49.193 79.0048 49.06 78.8275 48.976C78.6548 48.8873 78.4682 48.843 78.2675 48.843C78.0248 48.843 77.8078 48.8967 77.6165 49.004C77.4252 49.1113 77.2735 49.263 77.1615 49.459C77.0495 49.6503 76.9935 49.879 76.9935 50.145C76.9935 50.411 77.0495 50.642 77.1615 50.838C77.2735 51.034 77.4252 51.1857 77.6165 51.293C77.8078 51.4003 78.0248 51.454 78.2675 51.454C78.4682 51.454 78.6548 51.412 78.8275 51.328C79.0048 51.2393 79.1542 51.104 79.2755 50.922L79.7865 51.244C79.6418 51.5007 79.4365 51.699 79.1705 51.839C78.9092 51.9743 78.6105 52.042 78.2745 52.042ZM82.2538 52.042C81.8572 52.042 81.5072 51.9603 81.2038 51.797C80.9052 51.6337 80.6718 51.4097 80.5038 51.125C80.3405 50.8403 80.2588 50.5137 80.2588 50.145C80.2588 49.7763 80.3382 49.4497 80.4968 49.165C80.6602 48.8803 80.8818 48.6587 81.1618 48.5C81.4465 48.3367 81.7662 48.255 82.1208 48.255C82.4802 48.255 82.7975 48.3343 83.0728 48.493C83.3482 48.6517 83.5628 48.8757 83.7168 49.165C83.8755 49.4497 83.9548 49.7833 83.9548 50.166C83.9548 50.194 83.9525 50.2267 83.9478 50.264C83.9478 50.3013 83.9455 50.3363 83.9408 50.369H80.7838V49.886H83.5908L83.3178 50.054C83.3225 49.816 83.2735 49.6037 83.1708 49.417C83.0682 49.2303 82.9258 49.0857 82.7438 48.983C82.5665 48.8757 82.3588 48.822 82.1208 48.822C81.8875 48.822 81.6798 48.8757 81.4978 48.983C81.3158 49.0857 81.1735 49.2327 81.0708 49.424C80.9682 49.6107 80.9168 49.8253 80.9168 50.068V50.18C80.9168 50.4273 80.9728 50.649 81.0848 50.845C81.2015 51.0363 81.3625 51.1857 81.5678 51.293C81.7732 51.4003 82.0088 51.454 82.2748 51.454C82.4942 51.454 82.6925 51.4167 82.8698 51.342C83.0518 51.2673 83.2105 51.1553 83.3458 51.006L83.7168 51.44C83.5488 51.636 83.3388 51.7853 83.0868 51.888C82.8395 51.9907 82.5618 52.042 82.2538 52.042ZM88.3569 52.042C87.9835 52.042 87.6522 51.9603 87.3629 51.797C87.0735 51.6337 86.8449 51.4097 86.6769 51.125C86.5089 50.8357 86.4249 50.509 86.4249 50.145C86.4249 49.7763 86.5089 49.4497 86.6769 49.165C86.8449 48.8803 87.0735 48.6587 87.3629 48.5C87.6522 48.3367 87.9835 48.255 88.3569 48.255C88.7255 48.255 89.0545 48.3367 89.3439 48.5C89.6379 48.6587 89.8665 48.8803 90.0299 49.165C90.1979 49.445 90.2819 49.7717 90.2819 50.145C90.2819 50.5137 90.1979 50.8403 90.0299 51.125C89.8665 51.4097 89.6379 51.6337 89.3439 51.797C89.0545 51.9603 88.7255 52.042 88.3569 52.042ZM88.3569 51.454C88.5949 51.454 88.8072 51.4003 88.9939 51.293C89.1852 51.1857 89.3345 51.034 89.4419 50.838C89.5492 50.6373 89.6029 50.4063 89.6029 50.145C89.6029 49.879 89.5492 49.6503 89.4419 49.459C89.3345 49.263 89.1852 49.1113 88.9939 49.004C88.8072 48.8967 88.5949 48.843 88.3569 48.843C88.1189 48.843 87.9065 48.8967 87.7199 49.004C87.5332 49.1113 87.3839 49.263 87.2719 49.459C87.1599 49.6503 87.1039 49.879 87.1039 50.145C87.1039 50.4063 87.1599 50.6373 87.2719 50.838C87.3839 51.034 87.5332 51.1857 87.7199 51.293C87.9065 51.4003 88.1189 51.454 88.3569 51.454ZM92.0817 52L90.4577 48.29H91.1577L92.5997 51.65H92.2637L93.7337 48.29H94.3917L92.7677 52H92.0817ZM96.5683 52.042C96.1716 52.042 95.8216 51.9603 95.5183 51.797C95.2196 51.6337 94.9863 51.4097 94.8183 51.125C94.655 50.8403 94.5733 50.5137 94.5733 50.145C94.5733 49.7763 94.6526 49.4497 94.8113 49.165C94.9746 48.8803 95.1963 48.6587 95.4763 48.5C95.761 48.3367 96.0806 48.255 96.4353 48.255C96.7946 48.255 97.112 48.3343 97.3873 48.493C97.6626 48.6517 97.8773 48.8757 98.0313 49.165C98.19 49.4497 98.2693 49.7833 98.2693 50.166C98.2693 50.194 98.267 50.2267 98.2623 50.264C98.2623 50.3013 98.26 50.3363 98.2553 50.369H95.0983V49.886H97.9053L97.6323 50.054C97.637 49.816 97.588 49.6037 97.4853 49.417C97.3826 49.2303 97.2403 49.0857 97.0583 48.983C96.881 48.8757 96.6733 48.822 96.4353 48.822C96.202 48.822 95.9943 48.8757 95.8123 48.983C95.6303 49.0857 95.488 49.2327 95.3853 49.424C95.2826 49.6107 95.2313 49.8253 95.2313 50.068V50.18C95.2313 50.4273 95.2873 50.649 95.3993 50.845C95.516 51.0363 95.677 51.1857 95.8823 51.293C96.0876 51.4003 96.3233 51.454 96.5893 51.454C96.8086 51.454 97.007 51.4167 97.1843 51.342C97.3663 51.2673 97.525 51.1553 97.6603 51.006L98.0313 51.44C97.8633 51.636 97.6533 51.7853 97.4013 51.888C97.154 51.9907 96.8763 52.042 96.5683 52.042ZM99.2024 52V48.29H99.8464V49.298L99.7834 49.046C99.8861 48.7893 100.059 48.5933 100.301 48.458C100.544 48.3227 100.843 48.255 101.197 48.255V48.906C101.169 48.9013 101.141 48.899 101.113 48.899C101.09 48.899 101.067 48.899 101.043 48.899C100.684 48.899 100.399 49.0063 100.189 49.221C99.9794 49.4357 99.8744 49.746 99.8744 50.152V52H99.2024ZM104.926 52L103.302 48.29H104.002L105.444 51.65H105.108L106.578 48.29H107.236L105.612 52H104.926ZM110.05 52V51.216L110.015 51.069V49.732C110.015 49.4473 109.931 49.228 109.763 49.074C109.6 48.9153 109.353 48.836 109.021 48.836C108.802 48.836 108.587 48.8733 108.377 48.948C108.167 49.018 107.99 49.1137 107.845 49.235L107.565 48.731C107.757 48.577 107.985 48.4603 108.251 48.381C108.522 48.297 108.804 48.255 109.098 48.255C109.607 48.255 109.999 48.3787 110.274 48.626C110.55 48.8733 110.687 49.2513 110.687 49.76V52H110.05ZM108.832 52.042C108.557 52.042 108.314 51.9953 108.104 51.902C107.899 51.8087 107.74 51.6803 107.628 51.517C107.516 51.349 107.46 51.16 107.46 50.95C107.46 50.7493 107.507 50.5673 107.6 50.404C107.698 50.2407 107.855 50.11 108.069 50.012C108.289 49.914 108.583 49.865 108.951 49.865H110.127V50.348H108.979C108.643 50.348 108.417 50.404 108.3 50.516C108.184 50.628 108.125 50.7633 108.125 50.922C108.125 51.104 108.198 51.251 108.342 51.363C108.487 51.4703 108.688 51.524 108.944 51.524C109.196 51.524 109.416 51.468 109.602 51.356C109.794 51.244 109.931 51.0807 110.015 50.866L110.148 51.328C110.06 51.5473 109.903 51.7223 109.679 51.853C109.455 51.979 109.173 52.042 108.832 52.042ZM111.931 52V48.29H112.575V49.298L112.512 49.046C112.615 48.7893 112.787 48.5933 113.03 48.458C113.273 48.3227 113.571 48.255 113.926 48.255V48.906C113.898 48.9013 113.87 48.899 113.842 48.899C113.819 48.899 113.795 48.899 113.772 48.899C113.413 48.899 113.128 49.0063 112.918 49.221C112.708 49.4357 112.603 49.746 112.603 50.152V52H111.931ZM114.754 52V48.29H115.426V52H114.754ZM115.09 47.576C114.96 47.576 114.85 47.534 114.761 47.45C114.677 47.366 114.635 47.2633 114.635 47.142C114.635 47.016 114.677 46.911 114.761 46.827C114.85 46.743 114.96 46.701 115.09 46.701C115.221 46.701 115.328 46.743 115.412 46.827C115.501 46.9063 115.545 47.0067 115.545 47.128C115.545 47.254 115.503 47.3613 115.419 47.45C115.335 47.534 115.226 47.576 115.09 47.576ZM118.298 52.042C117.925 52.042 117.594 51.9603 117.304 51.797C117.015 51.6337 116.786 51.4097 116.618 51.125C116.45 50.8357 116.366 50.509 116.366 50.145C116.366 49.7763 116.45 49.4497 116.618 49.165C116.786 48.8803 117.015 48.6587 117.304 48.5C117.594 48.3367 117.925 48.255 118.298 48.255C118.667 48.255 118.996 48.3367 119.285 48.5C119.579 48.6587 119.808 48.8803 119.971 49.165C120.139 49.445 120.223 49.7717 120.223 50.145C120.223 50.5137 120.139 50.8403 119.971 51.125C119.808 51.4097 119.579 51.6337 119.285 51.797C118.996 51.9603 118.667 52.042 118.298 52.042ZM118.298 51.454C118.536 51.454 118.749 51.4003 118.935 51.293C119.127 51.1857 119.276 51.034 119.383 50.838C119.491 50.6373 119.544 50.4063 119.544 50.145C119.544 49.879 119.491 49.6503 119.383 49.459C119.276 49.263 119.127 49.1113 118.935 49.004C118.749 48.8967 118.536 48.843 118.298 48.843C118.06 48.843 117.848 48.8967 117.661 49.004C117.475 49.1113 117.325 49.263 117.213 49.459C117.101 49.6503 117.045 49.879 117.045 50.145C117.045 50.4063 117.101 50.6373 117.213 50.838C117.325 51.034 117.475 51.1857 117.661 51.293C117.848 51.4003 118.06 51.454 118.298 51.454ZM122.714 52.042C122.396 52.042 122.116 51.9837 121.874 51.867C121.636 51.7503 121.449 51.573 121.314 51.335C121.183 51.0923 121.118 50.789 121.118 50.425V48.29H121.79V50.348C121.79 50.712 121.876 50.985 122.049 51.167C122.226 51.349 122.473 51.44 122.791 51.44C123.024 51.44 123.227 51.3933 123.4 51.3C123.572 51.202 123.705 51.062 123.799 50.88C123.892 50.6933 123.939 50.4693 123.939 50.208V48.29H124.611V52H123.974V50.999L124.079 51.265C123.957 51.5123 123.775 51.7037 123.533 51.839C123.29 51.9743 123.017 52.042 122.714 52.042ZM126.954 52.042C126.646 52.042 126.352 52 126.072 51.916C125.797 51.832 125.58 51.7293 125.421 51.608L125.701 51.076C125.86 51.1833 126.056 51.2743 126.289 51.349C126.522 51.4237 126.76 51.461 127.003 51.461C127.316 51.461 127.54 51.4167 127.675 51.328C127.815 51.2393 127.885 51.1157 127.885 50.957C127.885 50.8403 127.843 50.7493 127.759 50.684C127.675 50.6187 127.563 50.5697 127.423 50.537C127.288 50.5043 127.136 50.4763 126.968 50.453C126.8 50.425 126.632 50.3923 126.464 50.355C126.296 50.313 126.142 50.257 126.002 50.187C125.862 50.1123 125.75 50.012 125.666 49.886C125.582 49.7553 125.54 49.5827 125.54 49.368C125.54 49.144 125.603 48.948 125.729 48.78C125.855 48.612 126.032 48.4837 126.261 48.395C126.494 48.3017 126.77 48.255 127.087 48.255C127.33 48.255 127.575 48.2853 127.822 48.346C128.074 48.402 128.279 48.4837 128.438 48.591L128.151 49.123C127.983 49.011 127.808 48.934 127.626 48.892C127.444 48.85 127.262 48.829 127.08 48.829C126.786 48.829 126.567 48.878 126.422 48.976C126.277 49.0693 126.205 49.1907 126.205 49.34C126.205 49.466 126.247 49.564 126.331 49.634C126.42 49.6993 126.532 49.7507 126.667 49.788C126.807 49.8253 126.961 49.858 127.129 49.886C127.297 49.9093 127.465 49.942 127.633 49.984C127.801 50.0213 127.953 50.075 128.088 50.145C128.228 50.215 128.34 50.313 128.424 50.439C128.513 50.565 128.557 50.733 128.557 50.943C128.557 51.167 128.492 51.3607 128.361 51.524C128.23 51.6873 128.046 51.8157 127.808 51.909C127.57 51.9977 127.285 52.042 126.954 52.042ZM132.551 52.042C132.177 52.042 131.888 51.9417 131.683 51.741C131.477 51.5403 131.375 51.2533 131.375 50.88V47.478H132.047V50.852C132.047 51.0527 132.096 51.2067 132.194 51.314C132.296 51.4213 132.441 51.475 132.628 51.475C132.838 51.475 133.013 51.4167 133.153 51.3L133.363 51.783C133.26 51.8717 133.136 51.937 132.992 51.979C132.852 52.021 132.705 52.042 132.551 52.042ZM130.745 48.843V48.29H133.111V48.843H130.745ZM135.704 52.042C135.307 52.042 134.957 51.9603 134.654 51.797C134.355 51.6337 134.122 51.4097 133.954 51.125C133.791 50.8403 133.709 50.5137 133.709 50.145C133.709 49.7763 133.788 49.4497 133.947 49.165C134.11 48.8803 134.332 48.6587 134.612 48.5C134.897 48.3367 135.216 48.255 135.571 48.255C135.93 48.255 136.248 48.3343 136.523 48.493C136.798 48.6517 137.013 48.8757 137.167 49.165C137.326 49.4497 137.405 49.7833 137.405 50.166C137.405 50.194 137.403 50.2267 137.398 50.264C137.398 50.3013 137.396 50.3363 137.391 50.369H134.234V49.886H137.041L136.768 50.054C136.773 49.816 136.724 49.6037 136.621 49.417C136.518 49.2303 136.376 49.0857 136.194 48.983C136.017 48.8757 135.809 48.822 135.571 48.822C135.338 48.822 135.13 48.8757 134.948 48.983C134.766 49.0857 134.624 49.2327 134.521 49.424C134.418 49.6107 134.367 49.8253 134.367 50.068V50.18C134.367 50.4273 134.423 50.649 134.535 50.845C134.652 51.0363 134.813 51.1857 135.018 51.293C135.223 51.4003 135.459 51.454 135.725 51.454C135.944 51.454 136.143 51.4167 136.32 51.342C136.502 51.2673 136.661 51.1553 136.796 51.006L137.167 51.44C136.999 51.636 136.789 51.7853 136.537 51.888C136.29 51.9907 136.012 52.042 135.704 52.042ZM138.338 52V48.29H138.982V49.298L138.919 49.046C139.022 48.7893 139.195 48.5933 139.437 48.458C139.68 48.3227 139.979 48.255 140.333 48.255V48.906C140.305 48.9013 140.277 48.899 140.249 48.899C140.226 48.899 140.203 48.899 140.179 48.899C139.82 48.899 139.535 49.0063 139.325 49.221C139.115 49.4357 139.01 49.746 139.01 50.152V52H138.338ZM141.161 52V48.29H141.805V49.298L141.742 49.046C141.845 48.7893 142.018 48.5933 142.26 48.458C142.503 48.3227 142.802 48.255 143.156 48.255V48.906C143.128 48.9013 143.1 48.899 143.072 48.899C143.049 48.899 143.026 48.899 143.002 48.899C142.643 48.899 142.358 49.0063 142.148 49.221C141.938 49.4357 141.833 49.746 141.833 50.152V52H141.161ZM146.014 52V51.216L145.979 51.069V49.732C145.979 49.4473 145.895 49.228 145.727 49.074C145.564 48.9153 145.317 48.836 144.985 48.836C144.766 48.836 144.551 48.8733 144.341 48.948C144.131 49.018 143.954 49.1137 143.809 49.235L143.529 48.731C143.721 48.577 143.949 48.4603 144.215 48.381C144.486 48.297 144.768 48.255 145.062 48.255C145.571 48.255 145.963 48.3787 146.238 48.626C146.514 48.8733 146.651 49.2513 146.651 49.76V52H146.014ZM144.796 52.042C144.521 52.042 144.278 51.9953 144.068 51.902C143.863 51.8087 143.704 51.6803 143.592 51.517C143.48 51.349 143.424 51.16 143.424 50.95C143.424 50.7493 143.471 50.5673 143.564 50.404C143.662 50.2407 143.819 50.11 144.033 50.012C144.253 49.914 144.547 49.865 144.915 49.865H146.091V50.348H144.943C144.607 50.348 144.381 50.404 144.264 50.516C144.148 50.628 144.089 50.7633 144.089 50.922C144.089 51.104 144.162 51.251 144.306 51.363C144.451 51.4703 144.652 51.524 144.908 51.524C145.16 51.524 145.38 51.468 145.566 51.356C145.758 51.244 145.895 51.0807 145.979 50.866L146.112 51.328C146.024 51.5473 145.867 51.7223 145.643 51.853C145.419 51.979 145.137 52.042 144.796 52.042ZM147.895 52V48.29H148.567V52H147.895ZM148.231 47.576C148.1 47.576 147.99 47.534 147.902 47.45C147.818 47.366 147.776 47.2633 147.776 47.142C147.776 47.016 147.818 46.911 147.902 46.827C147.99 46.743 148.1 46.701 148.231 46.701C148.361 46.701 148.469 46.743 148.553 46.827C148.641 46.9063 148.686 47.0067 148.686 47.128C148.686 47.254 148.644 47.3613 148.56 47.45C148.476 47.534 148.366 47.576 148.231 47.576ZM151.831 48.255C152.134 48.255 152.4 48.3133 152.629 48.43C152.862 48.5467 153.044 48.724 153.175 48.962C153.306 49.2 153.371 49.501 153.371 49.865V52H152.699V49.942C152.699 49.5827 152.61 49.312 152.433 49.13C152.26 48.948 152.015 48.857 151.698 48.857C151.46 48.857 151.252 48.9037 151.075 48.997C150.898 49.0903 150.76 49.228 150.662 49.41C150.569 49.592 150.522 49.8183 150.522 50.089V52H149.85V48.29H150.494V49.291L150.389 49.025C150.51 48.7823 150.697 48.5933 150.949 48.458C151.201 48.3227 151.495 48.255 151.831 48.255ZM155.679 52.042C155.371 52.042 155.077 52 154.797 51.916C154.521 51.832 154.304 51.7293 154.146 51.608L154.426 51.076C154.584 51.1833 154.78 51.2743 155.014 51.349C155.247 51.4237 155.485 51.461 155.728 51.461C156.04 51.461 156.264 51.4167 156.4 51.328C156.54 51.2393 156.61 51.1157 156.61 50.957C156.61 50.8403 156.568 50.7493 156.484 50.684C156.4 50.6187 156.288 50.5697 156.148 50.537C156.012 50.5043 155.861 50.4763 155.693 50.453C155.525 50.425 155.357 50.3923 155.189 50.355C155.021 50.313 154.867 50.257 154.727 50.187C154.587 50.1123 154.475 50.012 154.391 49.886C154.307 49.7553 154.265 49.5827 154.265 49.368C154.265 49.144 154.328 48.948 154.454 48.78C154.58 48.612 154.757 48.4837 154.986 48.395C155.219 48.3017 155.494 48.255 155.812 48.255C156.054 48.255 156.299 48.2853 156.547 48.346C156.799 48.402 157.004 48.4837 157.163 48.591L156.876 49.123C156.708 49.011 156.533 48.934 156.351 48.892C156.169 48.85 155.987 48.829 155.805 48.829C155.511 48.829 155.291 48.878 155.147 48.976C155.002 49.0693 154.93 49.1907 154.93 49.34C154.93 49.466 154.972 49.564 155.056 49.634C155.144 49.6993 155.256 49.7507 155.392 49.788C155.532 49.8253 155.686 49.858 155.854 49.886C156.022 49.9093 156.19 49.942 156.358 49.984C156.526 50.0213 156.677 50.075 156.813 50.145C156.953 50.215 157.065 50.313 157.149 50.439C157.237 50.565 157.282 50.733 157.282 50.943C157.282 51.167 157.216 51.3607 157.086 51.524C156.955 51.6873 156.771 51.8157 156.533 51.909C156.295 51.9977 156.01 52.042 155.679 52.042ZM161.065 52.042C160.757 52.042 160.463 52 160.183 51.916C159.908 51.832 159.691 51.7293 159.532 51.608L159.812 51.076C159.971 51.1833 160.167 51.2743 160.4 51.349C160.634 51.4237 160.872 51.461 161.114 51.461C161.427 51.461 161.651 51.4167 161.786 51.328C161.926 51.2393 161.996 51.1157 161.996 50.957C161.996 50.8403 161.954 50.7493 161.87 50.684C161.786 50.6187 161.674 50.5697 161.534 50.537C161.399 50.5043 161.247 50.4763 161.079 50.453C160.911 50.425 160.743 50.3923 160.575 50.355C160.407 50.313 160.253 50.257 160.113 50.187C159.973 50.1123 159.861 50.012 159.777 49.886C159.693 49.7553 159.651 49.5827 159.651 49.368C159.651 49.144 159.714 48.948 159.84 48.78C159.966 48.612 160.144 48.4837 160.372 48.395C160.606 48.3017 160.881 48.255 161.198 48.255C161.441 48.255 161.686 48.2853 161.933 48.346C162.185 48.402 162.391 48.4837 162.549 48.591L162.262 49.123C162.094 49.011 161.919 48.934 161.737 48.892C161.555 48.85 161.373 48.829 161.191 48.829C160.897 48.829 160.678 48.878 160.533 48.976C160.389 49.0693 160.316 49.1907 160.316 49.34C160.316 49.466 160.358 49.564 160.442 49.634C160.531 49.6993 160.643 49.7507 160.778 49.788C160.918 49.8253 161.072 49.858 161.24 49.886C161.408 49.9093 161.576 49.942 161.744 49.984C161.912 50.0213 162.064 50.075 162.199 50.145C162.339 50.215 162.451 50.313 162.535 50.439C162.624 50.565 162.668 50.733 162.668 50.943C162.668 51.167 162.603 51.3607 162.472 51.524C162.342 51.6873 162.157 51.8157 161.919 51.909C161.681 51.9977 161.397 52.042 161.065 52.042ZM165.069 52.042C164.752 52.042 164.472 51.9837 164.229 51.867C163.991 51.7503 163.804 51.573 163.669 51.335C163.538 51.0923 163.473 50.789 163.473 50.425V48.29H164.145V50.348C164.145 50.712 164.231 50.985 164.404 51.167C164.581 51.349 164.829 51.44 165.146 51.44C165.379 51.44 165.582 51.3933 165.755 51.3C165.928 51.202 166.061 51.062 166.154 50.88C166.247 50.6933 166.294 50.4693 166.294 50.208V48.29H166.966V52H166.329V50.999L166.434 51.265C166.313 51.5123 166.131 51.7037 165.888 51.839C165.645 51.9743 165.372 52.042 165.069 52.042ZM169.862 52.042C169.484 52.042 169.146 51.9603 168.847 51.797C168.553 51.6337 168.322 51.4097 168.154 51.125C167.986 50.8403 167.902 50.5137 167.902 50.145C167.902 49.7763 167.986 49.4497 168.154 49.165C168.322 48.8803 168.553 48.6587 168.847 48.5C169.146 48.3367 169.484 48.255 169.862 48.255C170.198 48.255 170.497 48.3227 170.758 48.458C171.024 48.5887 171.23 48.7847 171.374 49.046L170.863 49.375C170.742 49.193 170.593 49.06 170.415 48.976C170.243 48.8873 170.056 48.843 169.855 48.843C169.613 48.843 169.396 48.8967 169.204 49.004C169.013 49.1113 168.861 49.263 168.749 49.459C168.637 49.6503 168.581 49.879 168.581 50.145C168.581 50.411 168.637 50.642 168.749 50.838C168.861 51.034 169.013 51.1857 169.204 51.293C169.396 51.4003 169.613 51.454 169.855 51.454C170.056 51.454 170.243 51.412 170.415 51.328C170.593 51.2393 170.742 51.104 170.863 50.922L171.374 51.244C171.23 51.5007 171.024 51.699 170.758 51.839C170.497 51.9743 170.198 52.042 169.862 52.042ZM174.178 48.255C174.481 48.255 174.747 48.3133 174.976 48.43C175.209 48.5467 175.391 48.724 175.522 48.962C175.652 49.2 175.718 49.501 175.718 49.865V52H175.046V49.942C175.046 49.5827 174.957 49.312 174.78 49.13C174.607 48.948 174.362 48.857 174.045 48.857C173.807 48.857 173.599 48.9037 173.422 48.997C173.244 49.0903 173.107 49.228 173.009 49.41C172.915 49.592 172.869 49.8183 172.869 50.089V52H172.197V46.806H172.869V49.291L172.736 49.025C172.857 48.7823 173.044 48.5933 173.296 48.458C173.548 48.3227 173.842 48.255 174.178 48.255ZM181.144 52V51.216L181.109 51.069V49.732C181.109 49.4473 181.025 49.228 180.857 49.074C180.694 48.9153 180.446 48.836 180.115 48.836C179.896 48.836 179.681 48.8733 179.471 48.948C179.261 49.018 179.084 49.1137 178.939 49.235L178.659 48.731C178.85 48.577 179.079 48.4603 179.345 48.381C179.616 48.297 179.898 48.255 180.192 48.255C180.701 48.255 181.093 48.3787 181.368 48.626C181.643 48.8733 181.781 49.2513 181.781 49.76V52H181.144ZM179.926 52.042C179.651 52.042 179.408 51.9953 179.198 51.902C178.993 51.8087 178.834 51.6803 178.722 51.517C178.61 51.349 178.554 51.16 178.554 50.95C178.554 50.7493 178.601 50.5673 178.694 50.404C178.792 50.2407 178.948 50.11 179.163 50.012C179.382 49.914 179.676 49.865 180.045 49.865H181.221V50.348H180.073C179.737 50.348 179.511 50.404 179.394 50.516C179.277 50.628 179.219 50.7633 179.219 50.922C179.219 51.104 179.291 51.251 179.436 51.363C179.581 51.4703 179.781 51.524 180.038 51.524C180.29 51.524 180.509 51.468 180.696 51.356C180.887 51.244 181.025 51.0807 181.109 50.866L181.242 51.328C181.153 51.5473 180.997 51.7223 180.773 51.853C180.549 51.979 180.267 52.042 179.926 52.042ZM184.089 52.042C183.781 52.042 183.487 52 183.207 51.916C182.931 51.832 182.714 51.7293 182.556 51.608L182.836 51.076C182.994 51.1833 183.19 51.2743 183.424 51.349C183.657 51.4237 183.895 51.461 184.138 51.461C184.45 51.461 184.674 51.4167 184.81 51.328C184.95 51.2393 185.02 51.1157 185.02 50.957C185.02 50.8403 184.978 50.7493 184.894 50.684C184.81 50.6187 184.698 50.5697 184.558 50.537C184.422 50.5043 184.271 50.4763 184.103 50.453C183.935 50.425 183.767 50.3923 183.599 50.355C183.431 50.313 183.277 50.257 183.137 50.187C182.997 50.1123 182.885 50.012 182.801 49.886C182.717 49.7553 182.675 49.5827 182.675 49.368C182.675 49.144 182.738 48.948 182.864 48.78C182.99 48.612 183.167 48.4837 183.396 48.395C183.629 48.3017 183.904 48.255 184.222 48.255C184.464 48.255 184.709 48.2853 184.957 48.346C185.209 48.402 185.414 48.4837 185.573 48.591L185.286 49.123C185.118 49.011 184.943 48.934 184.761 48.892C184.579 48.85 184.397 48.829 184.215 48.829C183.921 48.829 183.701 48.878 183.557 48.976C183.412 49.0693 183.34 49.1907 183.34 49.34C183.34 49.466 183.382 49.564 183.466 49.634C183.554 49.6993 183.666 49.7507 183.802 49.788C183.942 49.8253 184.096 49.858 184.264 49.886C184.432 49.9093 184.6 49.942 184.768 49.984C184.936 50.0213 185.087 50.075 185.223 50.145C185.363 50.215 185.475 50.313 185.559 50.439C185.647 50.565 185.692 50.733 185.692 50.943C185.692 51.167 185.626 51.3607 185.496 51.524C185.365 51.6873 185.181 51.8157 184.943 51.909C184.705 51.9977 184.42 52.042 184.089 52.042ZM66.7478 64.042C66.4305 64.042 66.1505 63.9837 65.9078 63.867C65.6698 63.7503 65.4831 63.573 65.3478 63.335C65.2171 63.0923 65.1518 62.789 65.1518 62.425V60.29H65.8238V62.348C65.8238 62.712 65.9101 62.985 66.0828 63.167C66.2601 63.349 66.5075 63.44 66.8248 63.44C67.0581 63.44 67.2611 63.3933 67.4338 63.3C67.6065 63.202 67.7395 63.062 67.8328 62.88C67.9261 62.6933 67.9728 62.4693 67.9728 62.208V60.29H68.6448V64H68.0078V62.999L68.1128 63.265C67.9915 63.5123 67.8095 63.7037 67.5668 63.839C67.3241 63.9743 67.0511 64.042 66.7478 64.042ZM71.8911 64.042C71.5831 64.042 71.3008 63.972 71.0441 63.832C70.7921 63.6873 70.5891 63.475 70.4351 63.195C70.2858 62.915 70.2111 62.565 70.2111 62.145C70.2111 61.725 70.2834 61.375 70.4281 61.095C70.5774 60.815 70.7781 60.605 71.0301 60.465C71.2868 60.325 71.5738 60.255 71.8911 60.255C72.2551 60.255 72.5771 60.3343 72.8571 60.493C73.1371 60.6517 73.3588 60.8733 73.5221 61.158C73.6854 61.438 73.7671 61.767 73.7671 62.145C73.7671 62.523 73.6854 62.8543 73.5221 63.139C73.3588 63.4237 73.1371 63.6453 72.8571 63.804C72.5771 63.9627 72.2551 64.042 71.8911 64.042ZM69.9241 65.358V60.29H70.5681V61.291L70.5261 62.152L70.5961 63.013V65.358H69.9241ZM71.8351 63.454C72.0731 63.454 72.2854 63.4003 72.4721 63.293C72.6634 63.1857 72.8128 63.034 72.9201 62.838C73.0321 62.6373 73.0881 62.4063 73.0881 62.145C73.0881 61.879 73.0321 61.6503 72.9201 61.459C72.8128 61.263 72.6634 61.1113 72.4721 61.004C72.2854 60.8967 72.0731 60.843 71.8351 60.843C71.6018 60.843 71.3894 60.8967 71.1981 61.004C71.0114 61.1113 70.8621 61.263 70.7501 61.459C70.6428 61.6503 70.5891 61.879 70.5891 62.145C70.5891 62.4063 70.6428 62.6373 70.7501 62.838C70.8621 63.034 71.0114 63.1857 71.1981 63.293C71.3894 63.4003 71.6018 63.454 71.8351 63.454ZM78.5565 60.255C78.8598 60.255 79.1258 60.3133 79.3545 60.43C79.5878 60.5467 79.7698 60.724 79.9005 60.962C80.0311 61.2 80.0965 61.501 80.0965 61.865V64H79.4245V61.942C79.4245 61.5827 79.3358 61.312 79.1585 61.13C78.9858 60.948 78.7408 60.857 78.4235 60.857C78.1855 60.857 77.9778 60.9037 77.8005 60.997C77.6231 61.0903 77.4855 61.228 77.3875 61.41C77.2941 61.592 77.2475 61.8183 77.2475 62.089V64H76.5755V58.806H77.2475V61.291L77.1145 61.025C77.2358 60.7823 77.4225 60.5933 77.6745 60.458C77.9265 60.3227 78.2205 60.255 78.5565 60.255ZM81.3401 64V60.29H82.0121V64H81.3401ZM81.6761 59.576C81.5455 59.576 81.4358 59.534 81.3471 59.45C81.2631 59.366 81.2211 59.2633 81.2211 59.142C81.2211 59.016 81.2631 58.911 81.3471 58.827C81.4358 58.743 81.5455 58.701 81.6761 58.701C81.8068 58.701 81.9141 58.743 81.9981 58.827C82.0868 58.9063 82.1311 59.0067 82.1311 59.128C82.1311 59.254 82.0891 59.3613 82.0051 59.45C81.9211 59.534 81.8115 59.576 81.6761 59.576ZM83.2952 64V58.806H83.9672V64H83.2952ZM85.2503 64V58.806H85.9223V64H85.2503ZM88.2694 64.042C87.9614 64.042 87.6674 64 87.3874 63.916C87.112 63.832 86.895 63.7293 86.7364 63.608L87.0164 63.076C87.175 63.1833 87.371 63.2743 87.6044 63.349C87.8377 63.4237 88.0757 63.461 88.3184 63.461C88.631 63.461 88.855 63.4167 88.9904 63.328C89.1304 63.2393 89.2004 63.1157 89.2004 62.957C89.2004 62.8403 89.1584 62.7493 89.0744 62.684C88.9904 62.6187 88.8784 62.5697 88.7384 62.537C88.603 62.5043 88.4514 62.4763 88.2834 62.453C88.1154 62.425 87.9474 62.3923 87.7794 62.355C87.6114 62.313 87.4574 62.257 87.3174 62.187C87.1774 62.1123 87.0654 62.012 86.9814 61.886C86.8974 61.7553 86.8554 61.5827 86.8554 61.368C86.8554 61.144 86.9184 60.948 87.0444 60.78C87.1704 60.612 87.3477 60.4837 87.5764 60.395C87.8097 60.3017 88.085 60.255 88.4024 60.255C88.645 60.255 88.89 60.2853 89.1374 60.346C89.3894 60.402 89.5947 60.4837 89.7534 60.591L89.4664 61.123C89.2984 61.011 89.1234 60.934 88.9414 60.892C88.7594 60.85 88.5774 60.829 88.3954 60.829C88.1014 60.829 87.882 60.878 87.7374 60.976C87.5927 61.0693 87.5204 61.1907 87.5204 61.34C87.5204 61.466 87.5624 61.564 87.6464 61.634C87.735 61.6993 87.847 61.7507 87.9824 61.788C88.1224 61.8253 88.2764 61.858 88.4444 61.886C88.6124 61.9093 88.7804 61.942 88.9484 61.984C89.1164 62.0213 89.268 62.075 89.4034 62.145C89.5434 62.215 89.6554 62.313 89.7394 62.439C89.828 62.565 89.8724 62.733 89.8724 62.943C89.8724 63.167 89.807 63.3607 89.6764 63.524C89.5457 63.6873 89.3614 63.8157 89.1234 63.909C88.8854 63.9977 88.6007 64.042 88.2694 64.042ZM94.8951 64V63.216L94.8601 63.069V61.732C94.8601 61.4473 94.7761 61.228 94.6081 61.074C94.4447 60.9153 94.1974 60.836 93.8661 60.836C93.6467 60.836 93.4321 60.8733 93.2221 60.948C93.0121 61.018 92.8347 61.1137 92.6901 61.235L92.4101 60.731C92.6014 60.577 92.8301 60.4603 93.0961 60.381C93.3667 60.297 93.6491 60.255 93.9431 60.255C94.4517 60.255 94.8437 60.3787 95.1191 60.626C95.3944 60.8733 95.5321 61.2513 95.5321 61.76V64H94.8951ZM93.6771 64.042C93.4017 64.042 93.1591 63.9953 92.9491 63.902C92.7437 63.8087 92.5851 63.6803 92.4731 63.517C92.3611 63.349 92.3051 63.16 92.3051 62.95C92.3051 62.7493 92.3517 62.5673 92.4451 62.404C92.5431 62.2407 92.6994 62.11 92.9141 62.012C93.1334 61.914 93.4274 61.865 93.7961 61.865H94.9721V62.348H93.8241C93.4881 62.348 93.2617 62.404 93.1451 62.516C93.0284 62.628 92.9701 62.7633 92.9701 62.922C92.9701 63.104 93.0424 63.251 93.1871 63.363C93.3317 63.4703 93.5324 63.524 93.7891 63.524C94.0411 63.524 94.2604 63.468 94.4471 63.356C94.6384 63.244 94.7761 63.0807 94.8601 62.866L94.9931 63.328C94.9044 63.5473 94.7481 63.7223 94.5241 63.853C94.3001 63.979 94.0177 64.042 93.6771 64.042ZM98.7567 60.255C99.06 60.255 99.326 60.3133 99.5547 60.43C99.788 60.5467 99.97 60.724 100.101 60.962C100.231 61.2 100.297 61.501 100.297 61.865V64H99.6247V61.942C99.6247 61.5827 99.536 61.312 99.3587 61.13C99.186 60.948 98.941 60.857 98.6237 60.857C98.3857 60.857 98.178 60.9037 98.0007 60.997C97.8233 61.0903 97.6857 61.228 97.5877 61.41C97.4943 61.592 97.4477 61.8183 97.4477 62.089V64H96.7757V60.29H97.4197V61.291L97.3147 61.025C97.436 60.7823 97.6227 60.5933 97.8747 60.458C98.1267 60.3227 98.4207 60.255 98.7567 60.255ZM103.073 64.042C102.714 64.042 102.392 63.9627 102.107 63.804C101.827 63.6453 101.606 63.4237 101.442 63.139C101.279 62.8543 101.197 62.523 101.197 62.145C101.197 61.767 101.279 61.438 101.442 61.158C101.606 60.8733 101.827 60.6517 102.107 60.493C102.392 60.3343 102.714 60.255 103.073 60.255C103.386 60.255 103.668 60.325 103.92 60.465C104.172 60.605 104.373 60.815 104.522 61.095C104.676 61.375 104.753 61.725 104.753 62.145C104.753 62.565 104.679 62.915 104.529 63.195C104.385 63.475 104.186 63.6873 103.934 63.832C103.682 63.972 103.395 64.042 103.073 64.042ZM103.129 63.454C103.363 63.454 103.573 63.4003 103.759 63.293C103.951 63.1857 104.1 63.034 104.207 62.838C104.319 62.6373 104.375 62.4063 104.375 62.145C104.375 61.879 104.319 61.6503 104.207 61.459C104.1 61.263 103.951 61.1113 103.759 61.004C103.573 60.8967 103.363 60.843 103.129 60.843C102.891 60.843 102.679 60.8967 102.492 61.004C102.306 61.1113 102.156 61.263 102.044 61.459C101.932 61.6503 101.876 61.879 101.876 62.145C101.876 62.4063 101.932 62.6373 102.044 62.838C102.156 63.034 102.306 63.1857 102.492 63.293C102.679 63.4003 102.891 63.454 103.129 63.454ZM104.396 64V62.999L104.438 62.138L104.368 61.277V58.806H105.04V64H104.396ZM109.725 64.042C109.365 64.042 109.043 63.9627 108.759 63.804C108.479 63.6453 108.257 63.4237 108.094 63.139C107.93 62.8543 107.849 62.523 107.849 62.145C107.849 61.767 107.93 61.438 108.094 61.158C108.257 60.8733 108.479 60.6517 108.759 60.493C109.043 60.3343 109.365 60.255 109.725 60.255C110.037 60.255 110.32 60.325 110.572 60.465C110.824 60.605 111.024 60.815 111.174 61.095C111.328 61.375 111.405 61.725 111.405 62.145C111.405 62.565 111.33 62.915 111.181 63.195C111.036 63.475 110.838 63.6873 110.586 63.832C110.334 63.972 110.047 64.042 109.725 64.042ZM109.781 63.454C110.014 63.454 110.224 63.4003 110.411 63.293C110.602 63.1857 110.751 63.034 110.859 62.838C110.971 62.6373 111.027 62.4063 111.027 62.145C111.027 61.879 110.971 61.6503 110.859 61.459C110.751 61.263 110.602 61.1113 110.411 61.004C110.224 60.8967 110.014 60.843 109.781 60.843C109.543 60.843 109.33 60.8967 109.144 61.004C108.957 61.1113 108.808 61.263 108.696 61.459C108.584 61.6503 108.528 61.879 108.528 62.145C108.528 62.4063 108.584 62.6373 108.696 62.838C108.808 63.034 108.957 63.1857 109.144 63.293C109.33 63.4003 109.543 63.454 109.781 63.454ZM111.048 64V62.999L111.09 62.138L111.02 61.277V58.806H111.692V64H111.048ZM114.552 64.042C114.179 64.042 113.848 63.9603 113.558 63.797C113.269 63.6337 113.04 63.4097 112.872 63.125C112.704 62.8357 112.62 62.509 112.62 62.145C112.62 61.7763 112.704 61.4497 112.872 61.165C113.04 60.8803 113.269 60.6587 113.558 60.5C113.848 60.3367 114.179 60.255 114.552 60.255C114.921 60.255 115.25 60.3367 115.539 60.5C115.833 60.6587 116.062 60.8803 116.225 61.165C116.393 61.445 116.477 61.7717 116.477 62.145C116.477 62.5137 116.393 62.8403 116.225 63.125C116.062 63.4097 115.833 63.6337 115.539 63.797C115.25 63.9603 114.921 64.042 114.552 64.042ZM114.552 63.454C114.79 63.454 115.003 63.4003 115.189 63.293C115.381 63.1857 115.53 63.034 115.637 62.838C115.745 62.6373 115.798 62.4063 115.798 62.145C115.798 61.879 115.745 61.6503 115.637 61.459C115.53 61.263 115.381 61.1113 115.189 61.004C115.003 60.8967 114.79 60.843 114.552 60.843C114.314 60.843 114.102 60.8967 113.915 61.004C113.729 61.1113 113.579 61.263 113.467 61.459C113.355 61.6503 113.299 61.879 113.299 62.145C113.299 62.4063 113.355 62.6373 113.467 62.838C113.579 63.034 113.729 63.1857 113.915 63.293C114.102 63.4003 114.314 63.454 114.552 63.454ZM118.088 64L116.709 60.29H117.346L118.571 63.65H118.27L119.544 60.29H120.111L121.357 63.65H121.063L122.316 60.29H122.918L121.532 64H120.888L119.719 60.934H119.915L118.732 64H118.088ZM125.581 60.255C125.884 60.255 126.15 60.3133 126.379 60.43C126.612 60.5467 126.794 60.724 126.925 60.962C127.056 61.2 127.121 61.501 127.121 61.865V64H126.449V61.942C126.449 61.5827 126.36 61.312 126.183 61.13C126.01 60.948 125.765 60.857 125.448 60.857C125.21 60.857 125.002 60.9037 124.825 60.997C124.648 61.0903 124.51 61.228 124.412 61.41C124.319 61.592 124.272 61.8183 124.272 62.089V64H123.6V60.29H124.244V61.291L124.139 61.025C124.26 60.7823 124.447 60.5933 124.699 60.458C124.951 60.3227 125.245 60.255 125.581 60.255ZM130.346 60.255C130.649 60.255 130.915 60.3133 131.144 60.43C131.377 60.5467 131.559 60.724 131.69 60.962C131.82 61.2 131.886 61.501 131.886 61.865V64H131.214V61.942C131.214 61.5827 131.125 61.312 130.948 61.13C130.775 60.948 130.53 60.857 130.213 60.857C129.975 60.857 129.767 60.9037 129.59 60.997C129.412 61.0903 129.275 61.228 129.177 61.41C129.083 61.592 129.037 61.8183 129.037 62.089V64H128.365V58.806H129.037V61.291L128.904 61.025C129.025 60.7823 129.212 60.5933 129.464 60.458C129.716 60.3227 130.01 60.255 130.346 60.255ZM133.129 64V60.29H133.801V64H133.129ZM133.465 59.576C133.335 59.576 133.225 59.534 133.136 59.45C133.052 59.366 133.01 59.2633 133.01 59.142C133.01 59.016 133.052 58.911 133.136 58.827C133.225 58.743 133.335 58.701 133.465 58.701C133.596 58.701 133.703 58.743 133.787 58.827C133.876 58.9063 133.92 59.0067 133.92 59.128C133.92 59.254 133.878 59.3613 133.794 59.45C133.71 59.534 133.601 59.576 133.465 59.576ZM135.084 64V58.806H135.756V64H135.084ZM137.039 64V58.806H137.711V64H137.039ZM140.058 64.042C139.75 64.042 139.456 64 139.176 63.916C138.901 63.832 138.684 63.7293 138.525 63.608L138.805 63.076C138.964 63.1833 139.16 63.2743 139.393 63.349C139.627 63.4237 139.865 63.461 140.107 63.461C140.42 63.461 140.644 63.4167 140.779 63.328C140.919 63.2393 140.989 63.1157 140.989 62.957C140.989 62.8403 140.947 62.7493 140.863 62.684C140.779 62.6187 140.667 62.5697 140.527 62.537C140.392 62.5043 140.24 62.4763 140.072 62.453C139.904 62.425 139.736 62.3923 139.568 62.355C139.4 62.313 139.246 62.257 139.106 62.187C138.966 62.1123 138.854 62.012 138.77 61.886C138.686 61.7553 138.644 61.5827 138.644 61.368C138.644 61.144 138.707 60.948 138.833 60.78C138.959 60.612 139.137 60.4837 139.365 60.395C139.599 60.3017 139.874 60.255 140.191 60.255C140.434 60.255 140.679 60.2853 140.926 60.346C141.178 60.402 141.384 60.4837 141.542 60.591L141.255 61.123C141.087 61.011 140.912 60.934 140.73 60.892C140.548 60.85 140.366 60.829 140.184 60.829C139.89 60.829 139.671 60.878 139.526 60.976C139.382 61.0693 139.309 61.1907 139.309 61.34C139.309 61.466 139.351 61.564 139.435 61.634C139.524 61.6993 139.636 61.7507 139.771 61.788C139.911 61.8253 140.065 61.858 140.233 61.886C140.401 61.9093 140.569 61.942 140.737 61.984C140.905 62.0213 141.057 62.075 141.192 62.145C141.332 62.215 141.444 62.313 141.528 62.439C141.617 62.565 141.661 62.733 141.661 62.943C141.661 63.167 141.596 63.3607 141.465 63.524C141.335 63.6873 141.15 63.8157 140.912 63.909C140.674 63.9977 140.39 64.042 140.058 64.042ZM142.662 64.042C142.532 64.042 142.42 63.9977 142.326 63.909C142.233 63.8157 142.186 63.699 142.186 63.559C142.186 63.419 142.233 63.3047 142.326 63.216C142.42 63.1273 142.532 63.083 142.662 63.083C142.788 63.083 142.896 63.1273 142.984 63.216C143.078 63.3047 143.124 63.419 143.124 63.559C143.124 63.699 143.078 63.8157 142.984 63.909C142.896 63.9977 142.788 64.042 142.662 64.042Z" fill="#252525"/>
<circle cx="41.5" cy="22.5" r="2.5" fill="#1CBB3F"/>
</svg>
