<svg width="405" height="79" viewBox="0 0 405 79" fill="none" xmlns="http://www.w3.org/2000/svg">
<rect width="404.299" height="78.35" fill="#D9D9D9"/>
<path d="M66.2527 22.7652H68.5745V32.7979H66.2527V22.7652ZM61.695 32.7979H59.3732V22.7652H61.695V32.7979ZM66.4247 28.6845H61.523V26.721H66.4247V28.6845ZM75.3339 32.9125C74.4548 32.9125 73.6809 32.7405 73.012 32.3965C72.3528 32.0526 71.8416 31.5844 71.4785 30.992C71.1154 30.39 70.9339 29.7069 70.9339 28.9425C70.9339 28.1685 71.1106 27.4853 71.4642 26.8929C71.8272 26.291 72.3193 25.8228 72.9404 25.4884C73.5615 25.1444 74.2637 24.9724 75.0472 24.9724C75.8021 24.9724 76.4805 25.1348 77.0824 25.4597C77.6939 25.775 78.1765 26.2337 78.53 26.8356C78.8835 27.428 79.0603 28.1399 79.0603 28.9711C79.0603 29.0571 79.0555 29.1574 79.0459 29.2721C79.0364 29.3772 79.0268 29.4775 79.0173 29.5731H72.7541V28.2688H77.842L76.9821 28.6558C76.9821 28.2545 76.9009 27.9058 76.7384 27.6096C76.576 27.3134 76.3515 27.084 76.0648 26.9216C75.7782 26.7496 75.4438 26.6636 75.0616 26.6636C74.6794 26.6636 74.3402 26.7496 74.044 26.9216C73.7573 27.084 73.5328 27.3181 73.3704 27.6239C73.2079 27.9201 73.1267 28.2736 73.1267 28.6845V29.0285C73.1267 29.4489 73.2175 29.8215 73.399 30.1464C73.5901 30.4617 73.8529 30.7053 74.1873 30.8773C74.5313 31.0398 74.9326 31.121 75.3912 31.121C75.8021 31.121 76.1604 31.0589 76.4661 30.9347C76.7814 30.8104 77.0681 30.6241 77.3261 30.3757L78.5157 31.6656C78.1621 32.0669 77.7178 32.3774 77.1827 32.5972C76.6477 32.8074 76.0314 32.9125 75.3339 32.9125ZM85.7852 32.7979V31.293L85.6418 30.9633V28.2688C85.6418 27.7911 85.4937 27.4185 85.1975 27.1509C84.9109 26.8834 84.4666 26.7496 83.8646 26.7496C83.4538 26.7496 83.0477 26.8165 82.6464 26.9503C82.2546 27.0745 81.9202 27.2465 81.6431 27.4662L80.8405 25.904C81.2609 25.6078 81.7673 25.3785 82.3597 25.2161C82.9521 25.0536 83.5541 24.9724 84.1656 24.9724C85.3409 24.9724 86.2533 25.2495 86.9031 25.8037C87.5528 26.3579 87.8777 27.2226 87.8777 28.3978V32.7979H85.7852ZM83.4347 32.9125C82.8327 32.9125 82.3167 32.8122 81.8868 32.6115C81.4568 32.4013 81.1272 32.1195 80.8978 31.7659C80.6685 31.4124 80.5539 31.0159 80.5539 30.5763C80.5539 30.1177 80.6637 29.7164 80.8835 29.3724C81.1128 29.0285 81.4711 28.7609 81.9584 28.5698C82.4457 28.3692 83.0811 28.2688 83.8646 28.2688H85.9141V29.5731H84.1083C83.5828 29.5731 83.2197 29.6591 83.019 29.8311C82.8279 30.0031 82.7324 30.218 82.7324 30.476C82.7324 30.7627 82.8423 30.992 83.062 31.164C83.2913 31.3264 83.6019 31.4076 83.9936 31.4076C84.3663 31.4076 84.7007 31.3216 84.9969 31.1496C85.2931 30.9681 85.5081 30.7053 85.6418 30.3614L85.9858 31.3933C85.8234 31.8901 85.5272 32.2676 85.0972 32.5255C84.6672 32.7835 84.1131 32.9125 83.4347 32.9125ZM93.9846 32.9125C93.2584 32.9125 92.6039 32.7501 92.0211 32.4252C91.4382 32.0908 90.9748 31.6274 90.6308 31.035C90.2964 30.4426 90.1292 29.7451 90.1292 28.9425C90.1292 28.1303 90.2964 27.428 90.6308 26.8356C90.9748 26.2432 91.4382 25.7846 92.0211 25.4597C92.6039 25.1348 93.2584 24.9724 93.9846 24.9724C94.6343 24.9724 95.2028 25.1157 95.6901 25.4024C96.1774 25.689 96.5548 26.1238 96.8224 26.7066C97.0899 27.2895 97.2237 28.0347 97.2237 28.9425C97.2237 29.8406 97.0947 30.5859 96.8367 31.1783C96.5787 31.7611 96.2061 32.1959 95.7188 32.4825C95.241 32.7692 94.663 32.9125 93.9846 32.9125ZM94.3716 31.078C94.7346 31.078 95.0643 30.992 95.3605 30.82C95.6567 30.648 95.8908 30.4044 96.0628 30.089C96.2443 29.7642 96.3351 29.382 96.3351 28.9425C96.3351 28.4934 96.2443 28.1112 96.0628 27.7959C95.8908 27.4806 95.6567 27.2369 95.3605 27.0649C95.0643 26.8929 94.7346 26.8069 94.3716 26.8069C93.9989 26.8069 93.6645 26.8929 93.3683 27.0649C93.0721 27.2369 92.8332 27.4806 92.6517 27.7959C92.4797 28.1112 92.3937 28.4934 92.3937 28.9425C92.3937 29.382 92.4797 29.7642 92.6517 30.089C92.8332 30.4044 93.0721 30.648 93.3683 30.82C93.6645 30.992 93.9989 31.078 94.3716 31.078ZM96.3924 32.7979V31.2213L96.4354 28.9281L96.2921 26.6493V22.1633H98.5279V32.7979H96.3924ZM106.089 32.7979V22.1633H108.325V32.7979H106.089ZM111.117 32.7979V25.0871H113.353V32.7979H111.117ZM112.235 24.0121C111.824 24.0121 111.49 23.8927 111.232 23.6538C110.974 23.415 110.845 23.1188 110.845 22.7652C110.845 22.4117 110.974 22.1155 111.232 21.8766C111.49 21.6378 111.824 21.5183 112.235 21.5183C112.646 21.5183 112.98 21.633 113.238 21.8623C113.496 22.0821 113.625 22.3687 113.625 22.7222C113.625 23.0949 113.496 23.4054 113.238 23.6538C112.99 23.8927 112.655 24.0121 112.235 24.0121ZM119.771 35.693C119.044 35.693 118.342 35.6022 117.664 35.4207C116.995 35.2487 116.436 34.9859 115.987 34.6324L116.875 33.0272C117.2 33.2947 117.611 33.5049 118.108 33.6578C118.614 33.8202 119.111 33.9014 119.599 33.9014C120.392 33.9014 120.965 33.7247 121.318 33.3711C121.682 33.0176 121.863 32.4921 121.863 31.7946V30.6337L122.006 28.6988L121.978 26.7496V25.0871H124.099V31.5079C124.099 32.9412 123.726 33.997 122.981 34.6754C122.236 35.3538 121.166 35.693 119.771 35.693ZM119.427 32.4252C118.71 32.4252 118.06 32.2723 117.477 31.9666C116.904 31.6513 116.441 31.2165 116.087 30.6623C115.743 30.0986 115.571 29.4441 115.571 28.6988C115.571 27.944 115.743 27.2895 116.087 26.7353C116.441 26.1715 116.904 25.7368 117.477 25.431C118.06 25.1253 118.71 24.9724 119.427 24.9724C120.076 24.9724 120.65 25.1062 121.146 25.3737C121.643 25.6317 122.03 26.0378 122.307 26.592C122.584 27.1366 122.723 27.8389 122.723 28.6988C122.723 29.5492 122.584 30.2515 122.307 30.8057C122.03 31.3503 121.643 31.7564 121.146 32.0239C120.65 32.2914 120.076 32.4252 119.427 32.4252ZM119.871 30.5907C120.263 30.5907 120.611 30.5142 120.917 30.3614C121.223 30.1989 121.462 29.9744 121.634 29.6877C121.806 29.4011 121.892 29.0715 121.892 28.6988C121.892 28.3166 121.806 27.987 121.634 27.7099C121.462 27.4232 121.223 27.2035 120.917 27.0506C120.611 26.8882 120.263 26.8069 119.871 26.8069C119.479 26.8069 119.13 26.8882 118.825 27.0506C118.519 27.2035 118.275 27.4232 118.094 27.7099C117.922 27.987 117.836 28.3166 117.836 28.6988C117.836 29.0715 117.922 29.4011 118.094 29.6877C118.275 29.9744 118.519 30.1989 118.825 30.3614C119.13 30.5142 119.479 30.5907 119.871 30.5907ZM131.583 24.9724C132.195 24.9724 132.739 25.0966 133.217 25.3451C133.704 25.5839 134.087 25.9566 134.364 26.463C134.641 26.9598 134.779 27.6 134.779 28.3835V32.7979H132.543V28.7275C132.543 28.1064 132.405 27.6478 132.128 27.3516C131.86 27.0554 131.478 26.9073 130.981 26.9073C130.628 26.9073 130.308 26.9837 130.021 27.1366C129.744 27.2799 129.524 27.5045 129.362 27.8102C129.209 28.116 129.132 28.5077 129.132 28.9855V32.7979H126.896V22.1633H129.132V27.2226L128.631 26.5776C128.908 26.0617 129.304 25.6651 129.82 25.388C130.336 25.111 130.924 24.9724 131.583 24.9724ZM140.676 32.9125C139.768 32.9125 139.061 32.6832 138.554 32.2246C138.048 31.7564 137.795 31.0636 137.795 30.1464V23.3815H140.031V30.1177C140.031 30.4426 140.117 30.6958 140.289 30.8773C140.461 31.0493 140.695 31.1353 140.991 31.1353C141.344 31.1353 141.645 31.0398 141.894 30.8487L142.496 32.4252C142.267 32.5876 141.989 32.7119 141.665 32.7979C141.349 32.8743 141.02 32.9125 140.676 32.9125ZM136.605 26.9789V25.2591H141.951V26.9789H136.605ZM147.062 32.9125C146.402 32.9125 145.767 32.8361 145.156 32.6832C144.554 32.5208 144.076 32.3201 143.722 32.0812L144.468 30.476C144.821 30.6958 145.237 30.8773 145.714 31.0206C146.202 31.1544 146.68 31.2213 147.148 31.2213C147.664 31.2213 148.027 31.1592 148.237 31.035C148.457 30.9108 148.567 30.7388 148.567 30.519C148.567 30.3375 148.481 30.2037 148.309 30.1177C148.146 30.0222 147.926 29.9505 147.649 29.9027C147.372 29.855 147.066 29.8072 146.732 29.7594C146.407 29.7116 146.078 29.6495 145.743 29.5731C145.409 29.4871 145.103 29.3629 144.826 29.2004C144.549 29.038 144.324 28.8182 144.152 28.5412C143.99 28.2641 143.909 27.9058 143.909 27.4662C143.909 26.9789 144.047 26.549 144.324 26.1763C144.611 25.8037 145.022 25.5123 145.557 25.3021C146.092 25.0823 146.732 24.9724 147.477 24.9724C148.003 24.9724 148.538 25.0297 149.083 25.1444C149.627 25.2591 150.081 25.4263 150.444 25.646L149.699 27.2369C149.326 27.0172 148.949 26.8691 148.567 26.7926C148.194 26.7066 147.831 26.6636 147.477 26.6636C146.98 26.6636 146.617 26.7305 146.388 26.8643C146.159 26.998 146.044 27.17 146.044 27.3802C146.044 27.5713 146.125 27.7147 146.288 27.8102C146.46 27.9058 146.684 27.9822 146.961 28.0395C147.238 28.0969 147.539 28.1494 147.864 28.1972C148.199 28.2354 148.533 28.2975 148.868 28.3835C149.202 28.4695 149.503 28.5937 149.771 28.7561C150.048 28.909 150.272 29.124 150.444 29.4011C150.616 29.6686 150.702 30.0222 150.702 30.4617C150.702 30.9394 150.559 31.3646 150.272 31.7373C149.986 32.1003 149.57 32.387 149.025 32.5972C148.49 32.8074 147.836 32.9125 147.062 32.9125ZM152.526 34.919L153.243 32.0239L153.429 32.8552C153.152 32.8552 152.918 32.7692 152.727 32.5972C152.545 32.4252 152.454 32.1911 152.454 31.8949C152.454 31.6083 152.545 31.3742 152.727 31.1926C152.918 31.0111 153.147 30.9203 153.415 30.9203C153.692 30.9203 153.916 31.0159 154.088 31.207C154.26 31.3885 154.346 31.6178 154.346 31.8949C154.346 31.9905 154.337 32.086 154.317 32.1816C154.308 32.2676 154.284 32.3727 154.246 32.4969C154.217 32.6115 154.169 32.7549 154.102 32.9268L153.429 34.919H152.526ZM165.627 32.8838C164.997 32.8838 164.419 32.7405 163.893 32.4539C163.377 32.1577 162.962 31.7229 162.646 31.1496C162.34 30.5763 162.188 29.8597 162.188 28.9998C162.188 28.1399 162.336 27.4232 162.632 26.8499C162.938 26.2767 163.348 25.8467 163.864 25.56C164.39 25.2734 164.978 25.1301 165.627 25.1301C166.373 25.1301 167.032 25.2925 167.605 25.6174C168.178 25.9422 168.632 26.3961 168.967 26.9789C169.301 27.5522 169.468 28.2258 169.468 28.9998C169.468 29.7737 169.301 30.4521 168.967 31.035C168.632 31.6178 168.178 32.0717 167.605 32.3965C167.032 32.7214 166.373 32.8838 165.627 32.8838ZM161.6 35.5783V25.2017H162.919V27.2512L162.833 29.0141L162.976 30.777V35.5783H161.6ZM165.513 31.6799C166 31.6799 166.435 31.5701 166.817 31.3503C167.209 31.1305 167.514 30.82 167.734 30.4187C167.963 30.0078 168.078 29.5349 168.078 28.9998C168.078 28.4552 167.963 27.987 167.734 27.5952C167.514 27.1939 167.209 26.8834 166.817 26.6636C166.435 26.4439 166 26.334 165.513 26.334C165.035 26.334 164.6 26.4439 164.208 26.6636C163.826 26.8834 163.52 27.1939 163.291 27.5952C163.071 27.987 162.962 28.4552 162.962 28.9998C162.962 29.5349 163.071 30.0078 163.291 30.4187C163.52 30.82 163.826 31.1305 164.208 31.3503C164.6 31.5701 165.035 31.6799 165.513 31.6799ZM172.086 32.7979V25.2017H173.405V27.2656L173.276 26.7496C173.486 26.2241 173.839 25.8228 174.336 25.5457C174.833 25.2686 175.445 25.1301 176.171 25.1301V26.463C176.113 26.4534 176.056 26.4486 175.999 26.4486C175.951 26.4486 175.903 26.4486 175.855 26.4486C175.12 26.4486 174.537 26.6684 174.107 27.1079C173.677 27.5474 173.462 28.1828 173.462 29.0141V32.7979H172.086ZM181.767 32.8838C181.002 32.8838 180.324 32.7166 179.731 32.3822C179.139 32.0478 178.671 31.5892 178.327 31.0063C177.983 30.4139 177.811 29.7451 177.811 28.9998C177.811 28.245 177.983 27.5761 178.327 26.9933C178.671 26.4104 179.139 25.9566 179.731 25.6317C180.324 25.2973 181.002 25.1301 181.767 25.1301C182.521 25.1301 183.195 25.2973 183.787 25.6317C184.389 25.9566 184.858 26.4104 185.192 26.9933C185.536 27.5666 185.708 28.2354 185.708 28.9998C185.708 29.7546 185.536 30.4235 185.192 31.0063C184.858 31.5892 184.389 32.0478 183.787 32.3822C183.195 32.7166 182.521 32.8838 181.767 32.8838ZM181.767 31.6799C182.254 31.6799 182.689 31.5701 183.071 31.3503C183.463 31.1305 183.768 30.82 183.988 30.4187C184.208 30.0078 184.318 29.5349 184.318 28.9998C184.318 28.4552 184.208 27.987 183.988 27.5952C183.768 27.1939 183.463 26.8834 183.071 26.6636C182.689 26.4439 182.254 26.334 181.767 26.334C181.279 26.334 180.845 26.4439 180.462 26.6636C180.08 26.8834 179.774 27.1939 179.545 27.5952C179.316 27.987 179.201 28.4552 179.201 28.9998C179.201 29.5349 179.316 30.0078 179.545 30.4187C179.774 30.82 180.08 31.1305 180.462 31.3503C180.845 31.5701 181.279 31.6799 181.767 31.6799ZM190.11 32.7979L186.785 25.2017H188.218L191.17 32.0812H190.482L193.492 25.2017H194.839L191.514 32.7979H190.11ZM196.84 32.7979V25.2017H198.216V32.7979H196.84ZM197.528 23.7398C197.26 23.7398 197.036 23.6538 196.854 23.4819C196.682 23.3099 196.596 23.0997 196.596 22.8512C196.596 22.5932 196.682 22.3783 196.854 22.2063C197.036 22.0343 197.26 21.9483 197.528 21.9483C197.796 21.9483 198.015 22.0343 198.187 22.2063C198.369 22.3687 198.46 22.5741 198.46 22.8226C198.46 23.0805 198.374 23.3003 198.202 23.4819C198.03 23.6538 197.805 23.7398 197.528 23.7398ZM204.698 32.8838C203.963 32.8838 203.303 32.7214 202.721 32.3965C202.147 32.0717 201.693 31.6178 201.359 31.035C201.025 30.4521 200.857 29.7737 200.857 28.9998C200.857 28.2258 201.025 27.5522 201.359 26.9789C201.693 26.3961 202.147 25.9422 202.721 25.6174C203.303 25.2925 203.963 25.1301 204.698 25.1301C205.339 25.1301 205.917 25.2734 206.433 25.56C206.949 25.8467 207.359 26.2767 207.665 26.8499C207.981 27.4232 208.138 28.1399 208.138 28.9998C208.138 29.8597 207.985 30.5763 207.68 31.1496C207.383 31.7229 206.977 32.1577 206.461 32.4539C205.945 32.7405 205.358 32.8838 204.698 32.8838ZM204.813 31.6799C205.291 31.6799 205.721 31.5701 206.103 31.3503C206.495 31.1305 206.8 30.82 207.02 30.4187C207.25 30.0078 207.364 29.5349 207.364 28.9998C207.364 28.4552 207.25 27.987 207.02 27.5952C206.8 27.1939 206.495 26.8834 206.103 26.6636C205.721 26.4439 205.291 26.334 204.813 26.334C204.326 26.334 203.891 26.4439 203.509 26.6636C203.127 26.8834 202.821 27.1939 202.592 27.5952C202.362 27.987 202.248 28.4552 202.248 28.9998C202.248 29.5349 202.362 30.0078 202.592 30.4187C202.821 30.82 203.127 31.1305 203.509 31.3503C203.891 31.5701 204.326 31.6799 204.813 31.6799ZM207.407 32.7979V30.7483L207.493 28.9855L207.35 27.2226V22.1633H208.726V32.7979H207.407ZM212.046 32.7979V25.2017H213.422V32.7979H212.046ZM212.734 23.7398C212.466 23.7398 212.242 23.6538 212.06 23.4819C211.888 23.3099 211.802 23.0997 211.802 22.8512C211.802 22.5932 211.888 22.3783 212.06 22.2063C212.242 22.0343 212.466 21.9483 212.734 21.9483C213.001 21.9483 213.221 22.0343 213.393 22.2063C213.575 22.3687 213.665 22.5741 213.665 22.8226C213.665 23.0805 213.579 23.3003 213.407 23.4819C213.235 23.6538 213.011 23.7398 212.734 23.7398ZM220.821 25.1301C221.442 25.1301 221.987 25.2495 222.455 25.4884C222.933 25.7272 223.306 26.0903 223.573 26.5776C223.841 27.0649 223.974 27.6812 223.974 28.4265V32.7979H222.599V28.5842C222.599 27.8484 222.417 27.2942 222.054 26.9216C221.7 26.549 221.199 26.3626 220.549 26.3626C220.062 26.3626 219.637 26.4582 219.273 26.6493C218.91 26.8404 218.629 27.1223 218.428 27.4949C218.237 27.8675 218.141 28.3309 218.141 28.8851V32.7979H216.765V25.2017H218.084V27.2512L217.869 26.7066C218.117 26.2098 218.5 25.8228 219.016 25.5457C219.531 25.2686 220.133 25.1301 220.821 25.1301ZM230.563 35.6643C229.865 35.6643 229.187 35.564 228.527 35.3633C227.878 35.1722 227.347 34.8951 226.936 34.5321L227.596 33.4715C227.949 33.7772 228.384 34.0161 228.9 34.1881C229.416 34.3696 229.956 34.4604 230.52 34.4604C231.418 34.4604 232.077 34.2502 232.497 33.8298C232.918 33.4094 233.128 32.7692 233.128 31.9092V30.304L233.271 28.7991L233.2 27.2799V25.2017H234.504V31.7659C234.504 33.1036 234.169 34.0878 233.501 34.7184C232.832 35.349 231.852 35.6643 230.563 35.6643ZM230.391 32.4825C229.655 32.4825 228.996 32.3297 228.413 32.0239C227.839 31.7086 227.381 31.2738 227.037 30.7197C226.702 30.1655 226.535 29.5253 226.535 28.7991C226.535 28.0634 226.702 27.4232 227.037 26.8786C227.381 26.3244 227.839 25.8945 228.413 25.5887C228.996 25.2829 229.655 25.1301 230.391 25.1301C231.04 25.1301 231.633 25.2638 232.168 25.5314C232.703 25.7894 233.128 26.1907 233.443 26.7353C233.768 27.2799 233.931 27.9679 233.931 28.7991C233.931 29.6209 233.768 30.304 233.443 30.8487C233.128 31.3933 232.703 31.8041 232.168 32.0812C231.633 32.3488 231.04 32.4825 230.391 32.4825ZM230.548 31.2786C231.055 31.2786 231.504 31.1735 231.895 30.9633C232.287 30.7531 232.593 30.4617 232.813 30.089C233.042 29.7164 233.157 29.2864 233.157 28.7991C233.157 28.3118 233.042 27.8819 232.813 27.5092C232.593 27.1366 232.287 26.8499 231.895 26.6493C231.504 26.4391 231.055 26.334 230.548 26.334C230.042 26.334 229.588 26.4391 229.187 26.6493C228.795 26.8499 228.484 27.1366 228.255 27.5092C228.035 27.8819 227.925 28.3118 227.925 28.7991C227.925 29.2864 228.035 29.7164 228.255 30.089C228.484 30.4617 228.795 30.7531 229.187 30.9633C229.588 31.1735 230.042 31.2786 230.548 31.2786ZM247.13 32.7979V31.1926L247.059 30.8917V28.1542C247.059 27.5713 246.887 27.1223 246.543 26.8069C246.208 26.4821 245.702 26.3196 245.024 26.3196C244.575 26.3196 244.135 26.3961 243.705 26.549C243.275 26.6923 242.912 26.8882 242.616 27.1366L242.042 26.1047C242.434 25.7894 242.902 25.5505 243.447 25.388C244.001 25.2161 244.579 25.1301 245.181 25.1301C246.223 25.1301 247.025 25.3833 247.589 25.8897C248.153 26.3961 248.435 27.17 248.435 28.2115V32.7979H247.13ZM244.637 32.8838C244.073 32.8838 243.576 32.7883 243.146 32.5972C242.726 32.4061 242.401 32.1433 242.171 31.8089C241.942 31.4649 241.828 31.078 241.828 30.648C241.828 30.2371 241.923 29.8645 242.114 29.5301C242.315 29.1957 242.635 28.9281 243.074 28.7275C243.523 28.5268 244.125 28.4265 244.88 28.4265H247.288V29.4154H244.938C244.25 29.4154 243.786 29.5301 243.547 29.7594C243.309 29.9887 243.189 30.2658 243.189 30.5907C243.189 30.9633 243.337 31.2643 243.633 31.4936C243.93 31.7134 244.34 31.8233 244.866 31.8233C245.382 31.8233 245.831 31.7086 246.213 31.4793C246.605 31.25 246.887 30.9155 247.059 30.476L247.331 31.4219C247.15 31.871 246.829 32.2293 246.371 32.4969C245.912 32.7549 245.334 32.8838 244.637 32.8838ZM259.574 32.8838C258.8 32.8838 258.107 32.7166 257.496 32.3822C256.894 32.0478 256.421 31.5892 256.077 31.0063C255.733 30.4235 255.561 29.7546 255.561 28.9998C255.561 28.245 255.733 27.5761 256.077 26.9933C256.421 26.4104 256.894 25.9566 257.496 25.6317C258.107 25.2973 258.8 25.1301 259.574 25.1301C260.262 25.1301 260.873 25.2686 261.408 25.5457C261.953 25.8132 262.373 26.2145 262.67 26.7496L261.623 27.4232C261.375 27.0506 261.069 26.7783 260.706 26.6063C260.353 26.4248 259.97 26.334 259.56 26.334C259.063 26.334 258.618 26.4439 258.227 26.6636C257.835 26.8834 257.524 27.1939 257.295 27.5952C257.066 27.987 256.951 28.4552 256.951 28.9998C256.951 29.5444 257.066 30.0174 257.295 30.4187C257.524 30.82 257.835 31.1305 258.227 31.3503C258.618 31.5701 259.063 31.6799 259.56 31.6799C259.97 31.6799 260.353 31.5939 260.706 31.4219C261.069 31.2404 261.375 30.9633 261.623 30.5907L262.67 31.25C262.373 31.7755 261.953 32.1816 261.408 32.4682C260.873 32.7453 260.262 32.8838 259.574 32.8838ZM265.07 32.7979V22.1633H266.446V32.7979H265.07ZM273.172 32.8838C272.36 32.8838 271.643 32.7166 271.022 32.3822C270.41 32.0478 269.933 31.5892 269.589 31.0063C269.254 30.4235 269.087 29.7546 269.087 28.9998C269.087 28.245 269.249 27.5761 269.574 26.9933C269.909 26.4104 270.363 25.9566 270.936 25.6317C271.519 25.2973 272.173 25.1301 272.899 25.1301C273.635 25.1301 274.285 25.2925 274.849 25.6174C275.412 25.9422 275.852 26.4009 276.167 26.9933C276.492 27.5761 276.654 28.2593 276.654 29.0428C276.654 29.1001 276.65 29.167 276.64 29.2434C276.64 29.3199 276.635 29.3915 276.626 29.4584H270.162V28.4695H275.909L275.35 28.8135C275.36 28.3262 275.259 27.8914 275.049 27.5092C274.839 27.127 274.548 26.8308 274.175 26.6206C273.812 26.4009 273.387 26.291 272.899 26.291C272.422 26.291 271.996 26.4009 271.624 26.6206C271.251 26.8308 270.96 27.1318 270.75 27.5236C270.539 27.9058 270.434 28.3453 270.434 28.8421V29.0715C270.434 29.5779 270.549 30.0317 270.778 30.433C271.017 30.8248 271.347 31.1305 271.767 31.3503C272.188 31.5701 272.67 31.6799 273.215 31.6799C273.664 31.6799 274.07 31.6035 274.433 31.4506C274.806 31.2977 275.13 31.0684 275.408 30.7627L276.167 31.6513C275.823 32.0526 275.393 32.3583 274.877 32.5685C274.371 32.7787 273.802 32.8838 273.172 32.8838ZM283.787 32.7979V31.1926L283.715 30.8917V28.1542C283.715 27.5713 283.543 27.1223 283.199 26.8069C282.865 26.4821 282.359 26.3196 281.68 26.3196C281.231 26.3196 280.792 26.3961 280.362 26.549C279.932 26.6923 279.569 26.8882 279.272 27.1366L278.699 26.1047C279.091 25.7894 279.559 25.5505 280.104 25.388C280.658 25.2161 281.236 25.1301 281.838 25.1301C282.879 25.1301 283.682 25.3833 284.246 25.8897C284.809 26.3961 285.091 27.17 285.091 28.2115V32.7979H283.787ZM281.293 32.8838C280.729 32.8838 280.233 32.7883 279.803 32.5972C279.382 32.4061 279.057 32.1433 278.828 31.8089C278.599 31.4649 278.484 31.078 278.484 30.648C278.484 30.2371 278.58 29.8645 278.771 29.5301C278.971 29.1957 279.291 28.9281 279.731 28.7275C280.18 28.5268 280.782 28.4265 281.537 28.4265H283.945V29.4154H281.594C280.906 29.4154 280.443 29.5301 280.204 29.7594C279.965 29.9887 279.846 30.2658 279.846 30.5907C279.846 30.9633 279.994 31.2643 280.29 31.4936C280.586 31.7134 280.997 31.8233 281.523 31.8233C282.038 31.8233 282.488 31.7086 282.87 31.4793C283.261 31.25 283.543 30.9155 283.715 30.476L283.988 31.4219C283.806 31.871 283.486 32.2293 283.027 32.4969C282.569 32.7549 281.991 32.8838 281.293 32.8838ZM288.354 32.7979V25.2017H289.673V27.2656L289.544 26.7496C289.754 26.2241 290.107 25.8228 290.604 25.5457C291.101 25.2686 291.713 25.1301 292.439 25.1301V26.463C292.381 26.4534 292.324 26.4486 292.267 26.4486C292.219 26.4486 292.171 26.4486 292.123 26.4486C291.388 26.4486 290.805 26.6684 290.375 27.1079C289.945 27.5474 289.73 28.1828 289.73 29.0141V32.7979H288.354ZM301.507 32.7979L298.182 25.2017H299.615L302.568 32.0812H301.88L304.889 25.2017H306.237L302.912 32.7979H301.507ZM308.237 32.7979V25.2017H309.613V32.7979H308.237ZM308.925 23.7398C308.658 23.7398 308.433 23.6538 308.252 23.4819C308.08 23.3099 307.994 23.0997 307.994 22.8512C307.994 22.5932 308.08 22.3783 308.252 22.2063C308.433 22.0343 308.658 21.9483 308.925 21.9483C309.193 21.9483 309.413 22.0343 309.585 22.2063C309.766 22.3687 309.857 22.5741 309.857 22.8226C309.857 23.0805 309.771 23.3003 309.599 23.4819C309.427 23.6538 309.202 23.7398 308.925 23.7398ZM315.135 32.8838C314.505 32.8838 313.903 32.7979 313.33 32.6259C312.766 32.4539 312.322 32.2437 311.997 31.9952L312.57 30.906C312.895 31.1257 313.296 31.3121 313.774 31.4649C314.252 31.6178 314.739 31.6943 315.236 31.6943C315.876 31.6943 316.335 31.6035 316.612 31.4219C316.898 31.2404 317.042 30.9872 317.042 30.6623C317.042 30.4235 316.956 30.2371 316.784 30.1034C316.612 29.9696 316.382 29.8693 316.096 29.8024C315.819 29.7355 315.508 29.6782 315.164 29.6304C314.82 29.5731 314.476 29.5062 314.132 29.4298C313.788 29.3438 313.473 29.2291 313.186 29.0858C312.9 28.9329 312.67 28.7275 312.498 28.4695C312.326 28.202 312.24 27.8484 312.24 27.4089C312.24 26.9503 312.369 26.549 312.627 26.205C312.885 25.861 313.248 25.5983 313.717 25.4167C314.194 25.2256 314.758 25.1301 315.408 25.1301C315.905 25.1301 316.406 25.1922 316.913 25.3164C317.429 25.431 317.849 25.5983 318.174 25.818L317.586 26.9073C317.242 26.678 316.884 26.5203 316.511 26.4343C316.139 26.3483 315.766 26.3053 315.393 26.3053C314.791 26.3053 314.342 26.4056 314.046 26.6063C313.75 26.7974 313.602 27.0458 313.602 27.3516C313.602 27.6096 313.688 27.8102 313.86 27.9535C314.041 28.0873 314.271 28.1924 314.548 28.2688C314.834 28.3453 315.15 28.4122 315.494 28.4695C315.838 28.5173 316.182 28.5842 316.526 28.6701C316.87 28.7466 317.18 28.8565 317.457 28.9998C317.744 29.1431 317.973 29.3438 318.145 29.6017C318.327 29.8597 318.418 30.2037 318.418 30.6337C318.418 31.0923 318.284 31.4888 318.016 31.8233C317.749 32.1577 317.371 32.4204 316.884 32.6115C316.397 32.7931 315.814 32.8838 315.135 32.8838ZM320.854 32.7979V25.2017H322.23V32.7979H320.854ZM321.542 23.7398C321.274 23.7398 321.05 23.6538 320.868 23.4819C320.696 23.3099 320.61 23.0997 320.61 22.8512C320.61 22.5932 320.696 22.3783 320.868 22.2063C321.05 22.0343 321.274 21.9483 321.542 21.9483C321.809 21.9483 322.029 22.0343 322.201 22.2063C322.382 22.3687 322.473 22.5741 322.473 22.8226C322.473 23.0805 322.387 23.3003 322.215 23.4819C322.043 23.6538 321.819 23.7398 321.542 23.7398ZM328.827 32.8838C328.062 32.8838 327.384 32.7166 326.792 32.3822C326.199 32.0478 325.731 31.5892 325.387 31.0063C325.043 30.4139 324.871 29.7451 324.871 28.9998C324.871 28.245 325.043 27.5761 325.387 26.9933C325.731 26.4104 326.199 25.9566 326.792 25.6317C327.384 25.2973 328.062 25.1301 328.827 25.1301C329.582 25.1301 330.255 25.2973 330.848 25.6317C331.45 25.9566 331.918 26.4104 332.252 26.9933C332.596 27.5666 332.768 28.2354 332.768 28.9998C332.768 29.7546 332.596 30.4235 332.252 31.0063C331.918 31.5892 331.45 32.0478 330.848 32.3822C330.255 32.7166 329.582 32.8838 328.827 32.8838ZM328.827 31.6799C329.314 31.6799 329.749 31.5701 330.131 31.3503C330.523 31.1305 330.828 30.82 331.048 30.4187C331.268 30.0078 331.378 29.5349 331.378 28.9998C331.378 28.4552 331.268 27.987 331.048 27.5952C330.828 27.1939 330.523 26.8834 330.131 26.6636C329.749 26.4439 329.314 26.334 328.827 26.334C328.339 26.334 327.905 26.4439 327.523 26.6636C327.14 26.8834 326.835 27.1939 326.605 27.5952C326.376 27.987 326.261 28.4552 326.261 28.9998C326.261 29.5349 326.376 30.0078 326.605 30.4187C326.835 30.82 327.14 31.1305 327.523 31.3503C327.905 31.5701 328.339 31.6799 328.827 31.6799ZM339.444 25.1301C340.065 25.1301 340.609 25.2495 341.078 25.4884C341.555 25.7272 341.928 26.0903 342.195 26.5776C342.463 27.0649 342.597 27.6812 342.597 28.4265V32.7979H341.221V28.5842C341.221 27.8484 341.039 27.2942 340.676 26.9216C340.323 26.549 339.821 26.3626 339.171 26.3626C338.684 26.3626 338.259 26.4582 337.896 26.6493C337.533 26.8404 337.251 27.1223 337.05 27.4949C336.859 27.8675 336.763 28.3309 336.763 28.8851V32.7979H335.388V25.2017H336.706V27.2512L336.491 26.7066C336.74 26.2098 337.122 25.8228 337.638 25.5457C338.154 25.2686 338.756 25.1301 339.444 25.1301ZM64.2032 56.7979V55.1926L64.1315 54.8917V52.1542C64.1315 51.5713 63.9595 51.1223 63.6155 50.8069C63.2811 50.4821 62.7747 50.3196 62.0963 50.3196C61.6472 50.3196 61.2077 50.3961 60.7777 50.549C60.3478 50.6923 59.9847 50.8882 59.6885 51.1366L59.1152 50.1047C59.5069 49.7894 59.9751 49.5505 60.5198 49.388C61.0739 49.2161 61.652 49.1301 62.254 49.1301C63.2955 49.1301 64.0981 49.3833 64.6618 49.8897C65.2255 50.3961 65.5074 51.17 65.5074 52.2115V56.7979H64.2032ZM61.7093 56.8838C61.1456 56.8838 60.6488 56.7883 60.2188 56.5972C59.7984 56.4061 59.4735 56.1433 59.2442 55.8089C59.0149 55.4649 58.9002 55.078 58.9002 54.648C58.9002 54.2371 58.9958 53.8645 59.1869 53.5301C59.3875 53.1957 59.7076 52.9281 60.1471 52.7275C60.5962 52.5268 61.1982 52.4265 61.953 52.4265H64.3608V53.4154H62.0103C61.3224 53.4154 60.859 53.5301 60.6201 53.7594C60.3812 53.9887 60.2618 54.2658 60.2618 54.5907C60.2618 54.9633 60.4099 55.2643 60.7061 55.4936C61.0023 55.7134 61.4131 55.8233 61.9387 55.8233C62.4546 55.8233 62.9037 55.7086 63.2859 55.4793C63.6776 55.25 63.9595 54.9155 64.1315 54.476L64.4038 55.4219C64.2223 55.871 63.9022 56.2293 63.4436 56.4969C62.9849 56.7549 62.4068 56.8838 61.7093 56.8838ZM71.3787 56.8838C70.6143 56.8838 70.0219 56.6784 69.6015 56.2676C69.1811 55.8567 68.9709 55.2691 68.9709 54.5047V47.5392H70.3468V54.4474C70.3468 54.8582 70.4471 55.1735 70.6478 55.3933C70.858 55.613 71.1542 55.7229 71.5364 55.7229C71.9663 55.7229 72.3247 55.6035 72.6113 55.3646L73.0413 56.3535C72.8311 56.5351 72.5779 56.6689 72.2817 56.7549C71.995 56.8408 71.694 56.8838 71.3787 56.8838ZM67.681 50.334V49.2017H72.5253V50.334H67.681ZM84.043 49.1301C84.6641 49.1301 85.2087 49.2495 85.6769 49.4884C86.1546 49.7272 86.5273 50.0903 86.7948 50.5776C87.0623 51.0649 87.1961 51.6812 87.1961 52.4265V56.7979H85.8202V52.5842C85.8202 51.8484 85.6387 51.2942 85.2756 50.9216C84.922 50.549 84.4204 50.3626 83.7707 50.3626C83.2834 50.3626 82.8582 50.4582 82.4951 50.6493C82.132 50.8404 81.8502 51.1223 81.6495 51.4949C81.4584 51.8675 81.3629 52.3309 81.3629 52.8851V56.7979H79.987V49.2017H81.3055V51.2512L81.0905 50.7066C81.339 50.2098 81.7212 49.8228 82.2371 49.5457C82.7531 49.2686 83.355 49.1301 84.043 49.1301ZM90.4591 56.7979V49.2017H91.835V56.7979H90.4591ZM91.147 47.7398C90.8795 47.7398 90.6549 47.6538 90.4734 47.4819C90.3014 47.3099 90.2154 47.0997 90.2154 46.8512C90.2154 46.5932 90.3014 46.3783 90.4734 46.2063C90.6549 46.0343 90.8795 45.9483 91.147 45.9483C91.4145 45.9483 91.6343 46.0343 91.8063 46.2063C91.9878 46.3687 92.0786 46.5741 92.0786 46.8226C92.0786 47.0805 91.9926 47.3003 91.8206 47.4819C91.6486 47.6538 91.4241 47.7398 91.147 47.7398ZM98.5037 59.6643C97.8062 59.6643 97.1278 59.564 96.4685 59.3633C95.8188 59.1722 95.2885 58.8951 94.8777 58.5321L95.5369 57.4715C95.8905 57.7772 96.3252 58.0161 96.8412 58.1881C97.3572 58.3696 97.897 58.4604 98.4607 58.4604C99.3589 58.4604 100.018 58.2502 100.439 57.8298C100.859 57.4094 101.069 56.7692 101.069 55.9092V54.304L101.213 52.7991L101.141 51.2799V49.2017H102.445V55.7659C102.445 57.1036 102.111 58.0878 101.442 58.7184C100.773 59.349 99.7936 59.6643 98.5037 59.6643ZM98.3317 56.4825C97.596 56.4825 96.9367 56.3297 96.3539 56.0239C95.7806 55.7086 95.322 55.2738 94.978 54.7197C94.6436 54.1655 94.4764 53.5253 94.4764 52.7991C94.4764 52.0634 94.6436 51.4232 94.978 50.8786C95.322 50.3244 95.7806 49.8945 96.3539 49.5887C96.9367 49.2829 97.596 49.1301 98.3317 49.1301C98.9815 49.1301 99.5739 49.2638 100.109 49.5314C100.644 49.7894 101.069 50.1907 101.385 50.7353C101.709 51.2799 101.872 51.9679 101.872 52.7991C101.872 53.6209 101.709 54.304 101.385 54.8487C101.069 55.3933 100.644 55.8041 100.109 56.0812C99.5739 56.3488 98.9815 56.4825 98.3317 56.4825ZM98.4894 55.2786C98.9958 55.2786 99.4449 55.1735 99.8366 54.9633C100.228 54.7531 100.534 54.4617 100.754 54.089C100.983 53.7164 101.098 53.2864 101.098 52.7991C101.098 52.3118 100.983 51.8819 100.754 51.5092C100.534 51.1366 100.228 50.8499 99.8366 50.6493C99.4449 50.4391 98.9958 50.334 98.4894 50.334C97.983 50.334 97.5291 50.4391 97.1278 50.6493C96.7361 50.8499 96.4256 51.1366 96.1962 51.5092C95.9765 51.8819 95.8666 52.3118 95.8666 52.7991C95.8666 53.2864 95.9765 53.7164 96.1962 54.089C96.4256 54.4617 96.7361 54.7531 97.1278 54.9633C97.5291 55.1735 97.983 55.2786 98.4894 55.2786ZM109.847 49.1301C110.468 49.1301 111.012 49.2495 111.481 49.4884C111.958 49.7272 112.331 50.0903 112.599 50.5776C112.866 51.0649 113 51.6812 113 52.4265V56.7979H111.624V52.5842C111.624 51.8484 111.442 51.2942 111.079 50.9216C110.726 50.549 110.224 50.3626 109.574 50.3626C109.087 50.3626 108.662 50.4582 108.299 50.6493C107.936 50.8404 107.654 51.1223 107.453 51.4949C107.262 51.8675 107.167 52.3309 107.167 52.8851V56.7979H105.791V46.1633H107.167V51.2512L106.894 50.7066C107.143 50.2098 107.525 49.8228 108.041 49.5457C108.557 49.2686 109.159 49.1301 109.847 49.1301ZM118.871 56.8838C118.107 56.8838 117.515 56.6784 117.094 56.2676C116.674 55.8567 116.463 55.2691 116.463 54.5047V47.5392H117.839V54.4474C117.839 54.8582 117.94 55.1735 118.14 55.3933C118.351 55.613 118.647 55.7229 119.029 55.7229C119.459 55.7229 119.817 55.6035 120.104 55.3646L120.534 56.3535C120.324 56.5351 120.07 56.6689 119.774 56.7549C119.488 56.8408 119.187 56.8838 118.871 56.8838ZM115.174 50.334V49.2017H120.018V50.334H115.174ZM125.092 56.8838C124.462 56.8838 123.86 56.7979 123.287 56.6259C122.723 56.4539 122.278 56.2437 121.954 55.9952L122.527 54.906C122.852 55.1257 123.253 55.3121 123.731 55.4649C124.209 55.6178 124.696 55.6943 125.193 55.6943C125.833 55.6943 126.292 55.6035 126.569 55.4219C126.855 55.2404 126.999 54.9872 126.999 54.6623C126.999 54.4235 126.913 54.2371 126.741 54.1034C126.569 53.9696 126.339 53.8693 126.053 53.8024C125.776 53.7355 125.465 53.6782 125.121 53.6304C124.777 53.5731 124.433 53.5062 124.089 53.4298C123.745 53.3438 123.43 53.2291 123.143 53.0858C122.857 52.9329 122.627 52.7275 122.455 52.4695C122.283 52.202 122.197 51.8484 122.197 51.4089C122.197 50.9503 122.326 50.549 122.584 50.205C122.842 49.861 123.205 49.5983 123.674 49.4167C124.151 49.2256 124.715 49.1301 125.365 49.1301C125.862 49.1301 126.363 49.1922 126.87 49.3164C127.386 49.431 127.806 49.5983 128.131 49.818L127.543 50.9073C127.199 50.678 126.841 50.5203 126.468 50.4343C126.096 50.3483 125.723 50.3053 125.35 50.3053C124.748 50.3053 124.299 50.4056 124.003 50.6063C123.707 50.7974 123.559 51.0458 123.559 51.3516C123.559 51.6096 123.645 51.8102 123.817 51.9535C123.998 52.0873 124.228 52.1924 124.505 52.2688C124.791 52.3453 125.107 52.4122 125.451 52.4695C125.795 52.5173 126.139 52.5842 126.483 52.6701C126.827 52.7466 127.137 52.8565 127.414 52.9998C127.701 53.1431 127.93 53.3438 128.102 53.6017C128.284 53.8597 128.375 54.2037 128.375 54.6337C128.375 55.0923 128.241 55.4888 127.973 55.8233C127.706 56.1577 127.328 56.4204 126.841 56.6115C126.354 56.7931 125.771 56.8838 125.092 56.8838ZM136.982 56.7979L134.158 49.2017H135.462L137.97 56.0812H137.354L139.963 49.2017H141.124L143.675 56.0812H143.073L145.638 49.2017H146.871L144.033 56.7979H142.714L140.321 50.5203H140.722L138.3 56.7979H136.982ZM148.984 56.7979V49.2017H150.359V56.7979H148.984ZM149.672 47.7398C149.404 47.7398 149.179 47.6538 148.998 47.4819C148.826 47.3099 148.74 47.0997 148.74 46.8512C148.74 46.5932 148.826 46.3783 148.998 46.2063C149.179 46.0343 149.404 45.9483 149.672 45.9483C149.939 45.9483 150.159 46.0343 150.331 46.2063C150.512 46.3687 150.603 46.5741 150.603 46.8226C150.603 47.0805 150.517 47.3003 150.345 47.4819C150.173 47.6538 149.949 47.7398 149.672 47.7398ZM156.312 56.8838C155.547 56.8838 154.955 56.6784 154.534 56.2676C154.114 55.8567 153.904 55.2691 153.904 54.5047V47.5392H155.28V54.4474C155.28 54.8582 155.38 55.1735 155.581 55.3933C155.791 55.613 156.087 55.7229 156.469 55.7229C156.899 55.7229 157.258 55.6035 157.544 55.3646L157.974 56.3535C157.764 56.5351 157.511 56.6689 157.215 56.7549C156.928 56.8408 156.627 56.8838 156.312 56.8838ZM152.614 50.334V49.2017H157.458V50.334H152.614ZM164.41 49.1301C165.031 49.1301 165.576 49.2495 166.044 49.4884C166.522 49.7272 166.895 50.0903 167.162 50.5776C167.43 51.0649 167.563 51.6812 167.563 52.4265V56.7979H166.188V52.5842C166.188 51.8484 166.006 51.2942 165.643 50.9216C165.289 50.549 164.788 50.3626 164.138 50.3626C163.651 50.3626 163.225 50.4582 162.862 50.6493C162.499 50.8404 162.217 51.1223 162.017 51.4949C161.826 51.8675 161.73 52.3309 161.73 52.8851V56.7979H160.354V46.1633H161.73V51.2512L161.458 50.7066C161.706 50.2098 162.088 49.8228 162.604 49.5457C163.12 49.2686 163.722 49.1301 164.41 49.1301ZM180.107 56.7979V55.1926L180.036 54.8917V52.1542C180.036 51.5713 179.864 51.1223 179.52 50.8069C179.185 50.4821 178.679 50.3196 178 50.3196C177.551 50.3196 177.112 50.3961 176.682 50.549C176.252 50.6923 175.889 50.8882 175.593 51.1366L175.019 50.1047C175.411 49.7894 175.879 49.5505 176.424 49.388C176.978 49.2161 177.556 49.1301 178.158 49.1301C179.2 49.1301 180.002 49.3833 180.566 49.8897C181.13 50.3961 181.412 51.17 181.412 52.2115V56.7979H180.107ZM177.613 56.8838C177.05 56.8838 176.553 56.7883 176.123 56.5972C175.703 56.4061 175.378 56.1433 175.148 55.8089C174.919 55.4649 174.804 55.078 174.804 54.648C174.804 54.2371 174.9 53.8645 175.091 53.5301C175.292 53.1957 175.612 52.9281 176.051 52.7275C176.5 52.5268 177.102 52.4265 177.857 52.4265H180.265V53.4154H177.914C177.227 53.4154 176.763 53.5301 176.524 53.7594C176.285 53.9887 176.166 54.2658 176.166 54.5907C176.166 54.9633 176.314 55.2643 176.61 55.4936C176.906 55.7134 177.317 55.8233 177.843 55.8233C178.359 55.8233 178.808 55.7086 179.19 55.4793C179.582 55.25 179.864 54.9155 180.036 54.476L180.308 55.4219C180.126 55.871 179.806 56.2293 179.348 56.4969C178.889 56.7549 178.311 56.8838 177.613 56.8838ZM193.267 56.8838C192.637 56.8838 192.059 56.7405 191.533 56.4539C191.017 56.1577 190.602 55.7229 190.286 55.1496C189.981 54.5763 189.828 53.8597 189.828 52.9998C189.828 52.1399 189.976 51.4232 190.272 50.8499C190.578 50.2767 190.989 49.8467 191.505 49.56C192.03 49.2734 192.618 49.1301 193.267 49.1301C194.013 49.1301 194.672 49.2925 195.245 49.6174C195.819 49.9422 196.272 50.3961 196.607 50.9789C196.941 51.5522 197.108 52.2258 197.108 52.9998C197.108 53.7737 196.941 54.4521 196.607 55.035C196.272 55.6178 195.819 56.0717 195.245 56.3965C194.672 56.7214 194.013 56.8838 193.267 56.8838ZM189.24 59.5783V49.2017H190.559V51.2512L190.473 53.0141L190.616 54.777V59.5783H189.24ZM193.153 55.6799C193.64 55.6799 194.075 55.5701 194.457 55.3503C194.849 55.1305 195.154 54.82 195.374 54.4187C195.604 54.0078 195.718 53.5349 195.718 52.9998C195.718 52.4552 195.604 51.987 195.374 51.5952C195.154 51.1939 194.849 50.8834 194.457 50.6636C194.075 50.4439 193.64 50.334 193.153 50.334C192.675 50.334 192.24 50.4439 191.848 50.6636C191.466 50.8834 191.161 51.1939 190.931 51.5952C190.711 51.987 190.602 52.4552 190.602 52.9998C190.602 53.5349 190.711 54.0078 190.931 54.4187C191.161 54.82 191.466 55.1305 191.848 55.3503C192.24 55.5701 192.675 55.6799 193.153 55.6799ZM202.98 56.8838C202.215 56.8838 201.537 56.7166 200.944 56.3822C200.352 56.0478 199.884 55.5892 199.54 55.0063C199.196 54.4139 199.024 53.7451 199.024 52.9998C199.024 52.245 199.196 51.5761 199.54 50.9933C199.884 50.4104 200.352 49.9566 200.944 49.6317C201.537 49.2973 202.215 49.1301 202.98 49.1301C203.734 49.1301 204.408 49.2973 205 49.6317C205.602 49.9566 206.071 50.4104 206.405 50.9933C206.749 51.5666 206.921 52.2354 206.921 52.9998C206.921 53.7546 206.749 54.4235 206.405 55.0063C206.071 55.5892 205.602 56.0478 205 56.3822C204.408 56.7166 203.734 56.8838 202.98 56.8838ZM202.98 55.6799C203.467 55.6799 203.902 55.5701 204.284 55.3503C204.676 55.1305 204.981 54.82 205.201 54.4187C205.421 54.0078 205.531 53.5349 205.531 52.9998C205.531 52.4552 205.421 51.987 205.201 51.5952C204.981 51.1939 204.676 50.8834 204.284 50.6636C203.902 50.4439 203.467 50.334 202.98 50.334C202.492 50.334 202.058 50.4439 201.675 50.6636C201.293 50.8834 200.987 51.1939 200.758 51.5952C200.529 51.987 200.414 52.4552 200.414 52.9998C200.414 53.5349 200.529 54.0078 200.758 54.4187C200.987 54.82 201.293 55.1305 201.675 55.3503C202.058 55.5701 202.492 55.6799 202.98 55.6799ZM210.936 56.7979L208.112 49.2017H209.416L211.925 56.0812H211.308L213.917 49.2017H215.078L217.629 56.0812H217.027L219.592 49.2017H220.825L217.987 56.7979H216.669L214.275 50.5203H214.676L212.254 56.7979H210.936ZM226.11 56.8838C225.298 56.8838 224.581 56.7166 223.96 56.3822C223.349 56.0478 222.871 55.5892 222.527 55.0063C222.193 54.4235 222.026 53.7546 222.026 52.9998C222.026 52.245 222.188 51.5761 222.513 50.9933C222.847 50.4104 223.301 49.9566 223.874 49.6317C224.457 49.2973 225.112 49.1301 225.838 49.1301C226.574 49.1301 227.223 49.2925 227.787 49.6174C228.351 49.9422 228.79 50.4009 229.106 50.9933C229.431 51.5761 229.593 52.2593 229.593 53.0428C229.593 53.1001 229.588 53.167 229.579 53.2434C229.579 53.3199 229.574 53.3915 229.564 53.4584H223.1V52.4695H228.848L228.289 52.8135C228.298 52.3262 228.198 51.8914 227.988 51.5092C227.778 51.127 227.486 50.8308 227.113 50.6206C226.75 50.4009 226.325 50.291 225.838 50.291C225.36 50.291 224.935 50.4009 224.562 50.6206C224.19 50.8308 223.898 51.1318 223.688 51.5236C223.478 51.9058 223.373 52.3453 223.373 52.8421V53.0715C223.373 53.5779 223.487 54.0317 223.717 54.433C223.956 54.8248 224.285 55.1305 224.706 55.3503C225.126 55.5701 225.609 55.6799 226.153 55.6799C226.602 55.6799 227.008 55.6035 227.371 55.4506C227.744 55.2977 228.069 55.0684 228.346 54.7627L229.106 55.6513C228.762 56.0526 228.332 56.3583 227.816 56.5685C227.309 56.7787 226.741 56.8838 226.11 56.8838ZM232.22 56.7979V49.2017H233.539V51.2656L233.41 50.7496C233.62 50.2241 233.973 49.8228 234.47 49.5457C234.967 49.2686 235.579 49.1301 236.305 49.1301V50.463C236.248 50.4534 236.19 50.4486 236.133 50.4486C236.085 50.4486 236.037 50.4486 235.99 50.4486C235.254 50.4486 234.671 50.6684 234.241 51.1079C233.811 51.5474 233.596 52.1828 233.596 53.0141V56.7979H232.22ZM239.016 56.7979V48.5281C239.016 47.7828 239.231 47.1904 239.661 46.7509C240.1 46.3018 240.721 46.0773 241.524 46.0773C241.82 46.0773 242.102 46.1155 242.37 46.1919C242.647 46.2588 242.881 46.3687 243.072 46.5216L242.656 47.5678C242.513 47.4532 242.351 47.3672 242.169 47.3099C241.987 47.243 241.796 47.2095 241.596 47.2095C241.194 47.2095 240.889 47.3242 240.678 47.5535C240.468 47.7733 240.363 48.1029 240.363 48.5424V49.56L240.392 50.1907V56.7979H239.016ZM237.726 50.334V49.2017H242.57V50.334H237.726ZM247.781 56.8838C247.131 56.8838 246.558 56.7644 246.061 56.5255C245.573 56.2867 245.191 55.9236 244.914 55.4363C244.647 54.9394 244.513 54.3184 244.513 53.5731V49.2017H245.889V53.4154C245.889 54.1607 246.066 54.7197 246.419 55.0923C246.782 55.4649 247.289 55.6513 247.938 55.6513C248.416 55.6513 248.832 55.5557 249.185 55.3646C249.539 55.164 249.811 54.8773 250.002 54.5047C250.193 54.1225 250.289 53.6639 250.289 53.1288V49.2017H251.665V56.7979H250.36V54.7483L250.575 55.293C250.327 55.7994 249.954 56.1911 249.458 56.4682C248.961 56.7453 248.402 56.8838 247.781 56.8838ZM255.001 56.7979V46.1633H256.377V56.7979H255.001ZM266.737 56.9125C266.03 56.9125 265.342 56.8026 264.673 56.5829C264.014 56.3631 263.474 56.0669 263.053 55.6943L263.713 54.562C264.047 54.8773 264.482 55.1353 265.017 55.336C265.552 55.5366 266.125 55.6369 266.737 55.6369C267.482 55.6369 268.06 55.4793 268.471 55.164C268.891 54.8391 269.102 54.4044 269.102 53.8597C269.102 53.3342 268.901 52.9138 268.5 52.5985C268.108 52.2736 267.482 52.1112 266.622 52.1112H265.819V51.1079L268.801 47.4389L269.001 48.0121H263.512V46.7652H270.133V47.7398L267.167 51.3946L266.421 50.9503H266.894C268.108 50.9503 269.016 51.2226 269.618 51.7672C270.229 52.3118 270.535 53.0046 270.535 53.8454C270.535 54.4091 270.396 54.9251 270.119 55.3933C269.842 55.8615 269.422 56.2341 268.858 56.5112C268.304 56.7787 267.597 56.9125 266.737 56.9125ZM275.687 56.9125C274.98 56.9125 274.292 56.8026 273.623 56.5829C272.964 56.3631 272.424 56.0669 272.004 55.6943L272.663 54.562C272.998 54.8773 273.432 55.1353 273.967 55.336C274.502 55.5366 275.071 55.6369 275.673 55.6369C276.437 55.6369 277.025 55.4745 277.436 55.1496C277.847 54.8248 278.052 54.39 278.052 53.8454C278.052 53.4728 277.961 53.1479 277.78 52.8708C277.598 52.5937 277.283 52.3835 276.834 52.2402C276.394 52.0873 275.788 52.0109 275.014 52.0109H272.735L273.265 46.7652H278.926V48.0121H273.795L274.541 47.3099L274.125 51.4519L273.38 50.7639H275.315C276.318 50.7639 277.125 50.8929 277.737 51.1509C278.348 51.4089 278.793 51.7672 279.07 52.2258C279.347 52.6749 279.485 53.1957 279.485 53.7881C279.485 54.3614 279.347 54.8869 279.07 55.3646C278.793 55.8328 278.372 56.2102 277.808 56.4969C277.254 56.774 276.547 56.9125 275.687 56.9125ZM284.421 56.7979L281.067 46.7652H282.544L285.625 56.0239H284.88L288.076 46.7652H289.394L292.519 56.0239H291.802L294.927 46.7652H296.288L292.934 56.7979H291.43L288.506 48.2128H288.893L285.955 56.7979H284.421ZM303.534 56.7979V46.7652H304.967V55.5509H310.399V56.7979H303.534ZM314.064 51.0936H319.224V52.3118H314.064V51.0936ZM314.193 55.5509H320.041V56.7979H312.76V46.7652H319.84V48.0121H314.193V55.5509ZM323.078 56.7979V46.7652H327.306C328.376 46.7652 329.318 46.9754 330.13 47.3959C330.951 47.8163 331.587 48.4039 332.036 49.1587C332.495 49.9136 332.724 50.7878 332.724 51.7815C332.724 52.7753 332.495 53.6495 332.036 54.4044C331.587 55.1592 330.951 55.7468 330.13 56.1672C329.318 56.5876 328.376 56.7979 327.306 56.7979H323.078ZM324.511 55.5509H327.22C328.052 55.5509 328.768 55.3933 329.37 55.078C329.982 54.7627 330.455 54.3231 330.789 53.7594C331.123 53.1861 331.291 52.5268 331.291 51.7815C331.291 51.0267 331.123 50.3674 330.789 49.8037C330.455 49.2399 329.982 48.8004 329.37 48.4851C328.768 48.1698 328.052 48.0121 327.22 48.0121H324.511V55.5509ZM335.485 56.8838C335.217 56.8838 334.988 56.7931 334.797 56.6115C334.606 56.4204 334.51 56.1816 334.51 55.8949C334.51 55.6083 334.606 55.3742 334.797 55.1926C334.988 55.0111 335.217 54.9203 335.485 54.9203C335.743 54.9203 335.963 55.0111 336.144 55.1926C336.335 55.3742 336.431 55.6083 336.431 55.8949C336.431 56.1816 336.335 56.4204 336.144 56.6115C335.963 56.7931 335.743 56.8838 335.485 56.8838Z" fill="#141414"/>
</svg>
