<svg width="406" height="79" viewBox="0 0 406 79" fill="none" xmlns="http://www.w3.org/2000/svg">
<rect x="0.851562" width="404.299" height="78.35" fill="#D9D9D9"/>
<path d="M51.323 22.7652H53.6448V32.7979H51.323V22.7652ZM46.7653 32.7979H44.4435V22.7652H46.7653V32.7979ZM51.495 28.6845H46.5933V26.721H51.495V28.6845ZM56.5775 32.7979V25.0871H58.8133V32.7979H56.5775ZM57.6954 24.0121C57.2845 24.0121 56.9501 23.8927 56.6921 23.6538C56.4341 23.415 56.3052 23.1188 56.3052 22.7652C56.3052 22.4117 56.4341 22.1155 56.6921 21.8766C56.9501 21.6378 57.2845 21.5183 57.6954 21.5183C58.1062 21.5183 58.4407 21.633 58.6986 21.8623C58.9566 22.0821 59.0856 22.3687 59.0856 22.7222C59.0856 23.0949 58.9566 23.4054 58.6986 23.6538C58.4502 23.8927 58.1158 24.0121 57.6954 24.0121ZM65.231 35.693C64.5049 35.693 63.8026 35.6022 63.1242 35.4207C62.4554 35.2487 61.8964 34.9859 61.4473 34.6324L62.3359 33.0272C62.6608 33.2947 63.0716 33.5049 63.5685 33.6578C64.0749 33.8202 64.5718 33.9014 65.0591 33.9014C65.8521 33.9014 66.4254 33.7247 66.7789 33.3711C67.142 33.0176 67.3236 32.4921 67.3236 31.7946V30.6337L67.4669 28.6988L67.4382 26.7496V25.0871H69.5594V31.5079C69.5594 32.9412 69.1868 33.997 68.4415 34.6754C67.6962 35.3538 66.6261 35.693 65.231 35.693ZM64.8871 32.4252C64.1705 32.4252 63.5207 32.2723 62.9379 31.9666C62.3646 31.6513 61.9012 31.2165 61.5476 30.6623C61.2037 30.0986 61.0317 29.4441 61.0317 28.6988C61.0317 27.944 61.2037 27.2895 61.5476 26.7353C61.9012 26.1715 62.3646 25.7368 62.9379 25.431C63.5207 25.1253 64.1705 24.9724 64.8871 24.9724C65.5368 24.9724 66.1101 25.1062 66.6069 25.3737C67.1038 25.6317 67.4908 26.0378 67.7679 26.592C68.045 27.1366 68.1835 27.8389 68.1835 28.6988C68.1835 29.5492 68.045 30.2515 67.7679 30.8057C67.4908 31.3503 67.1038 31.7564 66.6069 32.0239C66.1101 32.2914 65.5368 32.4252 64.8871 32.4252ZM65.3314 30.5907C65.7231 30.5907 66.0719 30.5142 66.3776 30.3614C66.6834 30.1989 66.9223 29.9744 67.0942 29.6877C67.2662 29.4011 67.3522 29.0715 67.3522 28.6988C67.3522 28.3166 67.2662 27.987 67.0942 27.7099C66.9223 27.4232 66.6834 27.2035 66.3776 27.0506C66.0719 26.8882 65.7231 26.8069 65.3314 26.8069C64.9396 26.8069 64.5909 26.8882 64.2851 27.0506C63.9794 27.2035 63.7357 27.4232 63.5542 27.7099C63.3822 27.987 63.2962 28.3166 63.2962 28.6988C63.2962 29.0715 63.3822 29.4011 63.5542 29.6877C63.7357 29.9744 63.9794 30.1989 64.2851 30.3614C64.5909 30.5142 64.9396 30.5907 65.3314 30.5907ZM77.0437 24.9724C77.6552 24.9724 78.1998 25.0966 78.6776 25.3451C79.1649 25.5839 79.547 25.9566 79.8241 26.463C80.1012 26.9598 80.2398 27.6 80.2398 28.3835V32.7979H78.0039V28.7275C78.0039 28.1064 77.8654 27.6478 77.5883 27.3516C77.3208 27.0554 76.9386 26.9073 76.4417 26.9073C76.0882 26.9073 75.7681 26.9837 75.4814 27.1366C75.2044 27.2799 74.9846 27.5045 74.8222 27.8102C74.6693 28.116 74.5928 28.5077 74.5928 28.9855V32.7979H72.357V22.1633H74.5928V27.2226L74.0912 26.5776C74.3683 26.0617 74.7648 25.6651 75.2808 25.388C75.7968 25.111 76.3844 24.9724 77.0437 24.9724ZM90.9117 32.9125C90.004 32.9125 89.297 32.6832 88.7906 32.2246C88.2842 31.7564 88.031 31.0636 88.031 30.1464V23.3815H90.2668V30.1177C90.2668 30.4426 90.3528 30.6958 90.5248 30.8773C90.6968 31.0493 90.9309 31.1353 91.2271 31.1353C91.5806 31.1353 91.8816 31.0398 92.13 30.8487L92.7319 32.4252C92.5026 32.5876 92.2255 32.7119 91.9007 32.7979C91.5854 32.8743 91.2557 32.9125 90.9117 32.9125ZM86.8414 26.9789V25.2591H92.1873V26.9789H86.8414ZM94.7036 32.7979V25.0871H96.8392V27.2656L96.5382 26.635C96.7675 26.0903 97.1354 25.6795 97.6418 25.4024C98.1482 25.1157 98.7645 24.9724 99.4906 24.9724V27.0363C99.3951 27.0267 99.3091 27.0219 99.2327 27.0219C99.1562 27.0124 99.075 27.0076 98.989 27.0076C98.3775 27.0076 97.8806 27.1844 97.4984 27.5379C97.1258 27.8819 96.9395 28.4217 96.9395 29.1574V32.7979H94.7036ZM105.762 32.7979V31.293L105.619 30.9633V28.2688C105.619 27.7911 105.471 27.4185 105.175 27.1509C104.888 26.8834 104.444 26.7496 103.842 26.7496C103.431 26.7496 103.025 26.8165 102.624 26.9503C102.232 27.0745 101.898 27.2465 101.62 27.4662L100.818 25.904C101.238 25.6078 101.745 25.3785 102.337 25.2161C102.929 25.0536 103.531 24.9724 104.143 24.9724C105.318 24.9724 106.231 25.2495 106.88 25.8037C107.53 26.3579 107.855 27.2226 107.855 28.3978V32.7979H105.762ZM103.412 32.9125C102.81 32.9125 102.294 32.8122 101.864 32.6115C101.434 32.4013 101.104 32.1195 100.875 31.7659C100.646 31.4124 100.531 31.0159 100.531 30.5763C100.531 30.1177 100.641 29.7164 100.861 29.3724C101.09 29.0285 101.448 28.7609 101.936 28.5698C102.423 28.3692 103.058 28.2688 103.842 28.2688H105.891V29.5731H104.086C103.56 29.5731 103.197 29.6591 102.996 29.8311C102.805 30.0031 102.71 30.218 102.71 30.476C102.71 30.7627 102.82 30.992 103.039 31.164C103.269 31.3264 103.579 31.4076 103.971 31.4076C104.344 31.4076 104.678 31.3216 104.974 31.1496C105.27 30.9681 105.485 30.7053 105.619 30.3614L105.963 31.3933C105.801 31.8901 105.504 32.2676 105.075 32.5255C104.645 32.7835 104.09 32.9125 103.412 32.9125ZM114.378 32.9125C113.546 32.9125 112.806 32.7453 112.156 32.4109C111.506 32.0669 110.995 31.5939 110.622 30.992C110.259 30.39 110.078 29.7069 110.078 28.9425C110.078 28.1685 110.259 27.4853 110.622 26.8929C110.995 26.291 111.506 25.8228 112.156 25.4884C112.806 25.1444 113.546 24.9724 114.378 24.9724C115.19 24.9724 115.897 25.1444 116.499 25.4884C117.101 25.8228 117.545 26.3053 117.832 26.9359L116.097 27.8675C115.897 27.5045 115.644 27.2369 115.338 27.0649C115.042 26.8929 114.717 26.8069 114.363 26.8069C113.981 26.8069 113.637 26.8929 113.331 27.0649C113.026 27.2369 112.782 27.4806 112.6 27.7959C112.428 28.1112 112.342 28.4934 112.342 28.9425C112.342 29.3915 112.428 29.7737 112.6 30.089C112.782 30.4044 113.026 30.648 113.331 30.82C113.637 30.992 113.981 31.078 114.363 31.078C114.717 31.078 115.042 30.9968 115.338 30.8343C115.644 30.6623 115.897 30.39 116.097 30.0174L117.832 30.9633C117.545 31.5844 117.101 32.0669 116.499 32.4109C115.897 32.7453 115.19 32.9125 114.378 32.9125ZM123.101 32.9125C122.193 32.9125 121.486 32.6832 120.979 32.2246C120.473 31.7564 120.22 31.0636 120.22 30.1464V23.3815H122.456V30.1177C122.456 30.4426 122.542 30.6958 122.714 30.8773C122.886 31.0493 123.12 31.1353 123.416 31.1353C123.769 31.1353 124.07 31.0398 124.319 30.8487L124.921 32.4252C124.692 32.5876 124.414 32.7119 124.09 32.7979C123.774 32.8743 123.445 32.9125 123.101 32.9125ZM119.03 26.9789V25.2591H124.376V26.9789H119.03ZM126.893 32.7979V25.0871H129.128V32.7979H126.893ZM128.01 24.0121C127.6 24.0121 127.265 23.8927 127.007 23.6538C126.749 23.415 126.62 23.1188 126.62 22.7652C126.62 22.4117 126.749 22.1155 127.007 21.8766C127.265 21.6378 127.6 21.5183 128.01 21.5183C128.421 21.5183 128.756 21.633 129.014 21.8623C129.272 22.0821 129.401 22.3687 129.401 22.7222C129.401 23.0949 129.272 23.4054 129.014 23.6538C128.765 23.8927 128.431 24.0121 128.01 24.0121ZM135.589 32.9125C134.767 32.9125 134.036 32.7405 133.396 32.3965C132.766 32.0526 132.264 31.5844 131.891 30.992C131.528 30.39 131.347 29.7069 131.347 28.9425C131.347 28.1685 131.528 27.4853 131.891 26.8929C132.264 26.291 132.766 25.8228 133.396 25.4884C134.036 25.1444 134.767 24.9724 135.589 24.9724C136.401 24.9724 137.127 25.1444 137.768 25.4884C138.408 25.8228 138.909 26.2862 139.273 26.8786C139.636 27.471 139.817 28.159 139.817 28.9425C139.817 29.7069 139.636 30.39 139.273 30.992C138.909 31.5844 138.408 32.0526 137.768 32.3965C137.127 32.7405 136.401 32.9125 135.589 32.9125ZM135.589 31.078C135.962 31.078 136.296 30.992 136.592 30.82C136.889 30.648 137.123 30.4044 137.295 30.089C137.467 29.7642 137.553 29.382 137.553 28.9425C137.553 28.4934 137.467 28.1112 137.295 27.7959C137.123 27.4806 136.889 27.2369 136.592 27.0649C136.296 26.8929 135.962 26.8069 135.589 26.8069C135.216 26.8069 134.882 26.8929 134.586 27.0649C134.29 27.2369 134.051 27.4806 133.869 27.7959C133.697 28.1112 133.611 28.4934 133.611 28.9425C133.611 29.382 133.697 29.7642 133.869 30.089C134.051 30.4044 134.29 30.648 134.586 30.82C134.882 30.992 135.216 31.078 135.589 31.078ZM146.715 24.9724C147.326 24.9724 147.871 25.0966 148.349 25.3451C148.836 25.5839 149.218 25.9566 149.495 26.463C149.772 26.9598 149.911 27.6 149.911 28.3835V32.7979H147.675V28.7275C147.675 28.1064 147.537 27.6478 147.26 27.3516C146.992 27.0554 146.61 26.9073 146.113 26.9073C145.759 26.9073 145.439 26.9837 145.153 27.1366C144.876 27.2799 144.656 27.5045 144.493 27.8102C144.341 28.116 144.264 28.5077 144.264 28.9855V32.7979H142.028V25.0871H144.164V27.2226L143.762 26.5776C144.04 26.0617 144.436 25.6651 144.952 25.388C145.468 25.111 146.056 24.9724 146.715 24.9724ZM159.666 32.7979V24.6571H156.455V22.7652H165.198V24.6571H161.988V32.7979H159.666ZM167.519 35.693C167.118 35.693 166.721 35.6309 166.329 35.5067C165.938 35.3824 165.618 35.2105 165.369 34.9907L166.186 33.3998C166.358 33.5527 166.554 33.6721 166.774 33.7581C167.003 33.8441 167.228 33.8871 167.447 33.8871C167.763 33.8871 168.011 33.8107 168.193 33.6578C168.384 33.5145 168.556 33.2708 168.709 32.9268L169.11 31.9809L169.282 31.7373L172.048 25.0871H174.198L170.715 33.2708C170.467 33.8919 170.18 34.3792 169.855 34.7327C169.54 35.0862 169.186 35.3347 168.795 35.478C168.412 35.6213 167.987 35.693 167.519 35.693ZM168.838 33.0988L165.398 25.0871H167.705L170.371 31.5366L168.838 33.0988ZM175.827 32.7979V25.0871H177.962V27.2656L177.661 26.635C177.891 26.0903 178.258 25.6795 178.765 25.4024C179.271 25.1157 179.888 24.9724 180.614 24.9724V27.0363C180.518 27.0267 180.432 27.0219 180.356 27.0219C180.279 27.0124 180.198 27.0076 180.112 27.0076C179.501 27.0076 179.004 27.1844 178.622 27.5379C178.249 27.8819 178.063 28.4217 178.063 29.1574V32.7979H175.827ZM186.431 32.9125C185.551 32.9125 184.778 32.7405 184.109 32.3965C183.449 32.0526 182.938 31.5844 182.575 30.992C182.212 30.39 182.031 29.7069 182.031 28.9425C182.031 28.1685 182.207 27.4853 182.561 26.8929C182.924 26.291 183.416 25.8228 184.037 25.4884C184.658 25.1444 185.36 24.9724 186.144 24.9724C186.899 24.9724 187.577 25.1348 188.179 25.4597C188.791 25.775 189.273 26.2337 189.627 26.8356C189.98 27.428 190.157 28.1399 190.157 28.9711C190.157 29.0571 190.152 29.1574 190.143 29.2721C190.133 29.3772 190.123 29.4775 190.114 29.5731H183.851V28.2688H188.939L188.079 28.6558C188.079 28.2545 187.998 27.9058 187.835 27.6096C187.673 27.3134 187.448 27.084 187.161 26.9216C186.875 26.7496 186.54 26.6636 186.158 26.6636C185.776 26.6636 185.437 26.7496 185.141 26.9216C184.854 27.084 184.629 27.3181 184.467 27.6239C184.305 27.9201 184.223 28.2736 184.223 28.6845V29.0285C184.223 29.4489 184.314 29.8215 184.496 30.1464C184.687 30.4617 184.95 30.7053 185.284 30.8773C185.628 31.0398 186.029 31.121 186.488 31.121C186.899 31.121 187.257 31.0589 187.563 30.9347C187.878 30.8104 188.165 30.6241 188.423 30.3757L189.612 31.6656C189.259 32.0669 188.814 32.3774 188.279 32.5972C187.744 32.8074 187.128 32.9125 186.431 32.9125ZM194.956 32.9125C194.297 32.9125 193.662 32.8361 193.05 32.6832C192.448 32.5208 191.97 32.3201 191.617 32.0812L192.362 30.476C192.716 30.6958 193.131 30.8773 193.609 31.0206C194.096 31.1544 194.574 31.2213 195.042 31.2213C195.558 31.2213 195.921 31.1592 196.131 31.035C196.351 30.9108 196.461 30.7388 196.461 30.519C196.461 30.3375 196.375 30.2037 196.203 30.1177C196.041 30.0222 195.821 29.9505 195.544 29.9027C195.267 29.855 194.961 29.8072 194.627 29.7594C194.302 29.7116 193.972 29.6495 193.638 29.5731C193.303 29.4871 192.997 29.3629 192.72 29.2004C192.443 29.038 192.219 28.8182 192.047 28.5412C191.884 28.2641 191.803 27.9058 191.803 27.4662C191.803 26.9789 191.942 26.549 192.219 26.1763C192.505 25.8037 192.916 25.5123 193.451 25.3021C193.986 25.0823 194.627 24.9724 195.372 24.9724C195.897 24.9724 196.432 25.0297 196.977 25.1444C197.522 25.2591 197.976 25.4263 198.339 25.646L197.593 27.2369C197.221 27.0172 196.843 26.8691 196.461 26.7926C196.088 26.7066 195.725 26.6636 195.372 26.6636C194.875 26.6636 194.512 26.7305 194.283 26.8643C194.053 26.998 193.939 27.17 193.939 27.3802C193.939 27.5713 194.02 27.7147 194.182 27.8102C194.354 27.9058 194.579 27.9822 194.856 28.0395C195.133 28.0969 195.434 28.1494 195.759 28.1972C196.093 28.2354 196.428 28.2975 196.762 28.3835C197.097 28.4695 197.398 28.5937 197.665 28.7561C197.942 28.909 198.167 29.124 198.339 29.4011C198.511 29.6686 198.597 30.0222 198.597 30.4617C198.597 30.9394 198.453 31.3646 198.167 31.7373C197.88 32.1003 197.464 32.387 196.92 32.5972C196.385 32.8074 195.73 32.9125 194.956 32.9125ZM200.42 34.919L201.137 32.0239L201.323 32.8552C201.046 32.8552 200.812 32.7692 200.621 32.5972C200.44 32.4252 200.349 32.1911 200.349 31.8949C200.349 31.6083 200.44 31.3742 200.621 31.1926C200.812 31.0111 201.042 30.9203 201.309 30.9203C201.586 30.9203 201.811 31.0159 201.983 31.207C202.155 31.3885 202.241 31.6178 202.241 31.8949C202.241 31.9905 202.231 32.086 202.212 32.1816C202.202 32.2676 202.179 32.3727 202.14 32.4969C202.112 32.6115 202.064 32.7549 201.997 32.9268L201.323 34.919H200.42ZM213.522 32.8838C212.891 32.8838 212.313 32.7405 211.788 32.4539C211.272 32.1577 210.856 31.7229 210.541 31.1496C210.235 30.5763 210.082 29.8597 210.082 28.9998C210.082 28.1399 210.23 27.4232 210.526 26.8499C210.832 26.2767 211.243 25.8467 211.759 25.56C212.284 25.2734 212.872 25.1301 213.522 25.1301C214.267 25.1301 214.926 25.2925 215.5 25.6174C216.073 25.9422 216.527 26.3961 216.861 26.9789C217.196 27.5522 217.363 28.2258 217.363 28.9998C217.363 29.7737 217.196 30.4521 216.861 31.035C216.527 31.6178 216.073 32.0717 215.5 32.3965C214.926 32.7214 214.267 32.8838 213.522 32.8838ZM209.494 35.5783V25.2017H210.813V27.2512L210.727 29.0141L210.87 30.777V35.5783H209.494ZM213.407 31.6799C213.894 31.6799 214.329 31.5701 214.711 31.3503C215.103 31.1305 215.409 30.82 215.629 30.4187C215.858 30.0078 215.973 29.5349 215.973 28.9998C215.973 28.4552 215.858 27.987 215.629 27.5952C215.409 27.1939 215.103 26.8834 214.711 26.6636C214.329 26.4439 213.894 26.334 213.407 26.334C212.929 26.334 212.495 26.4439 212.103 26.6636C211.721 26.8834 211.415 27.1939 211.186 27.5952C210.966 27.987 210.856 28.4552 210.856 28.9998C210.856 29.5349 210.966 30.0078 211.186 30.4187C211.415 30.82 211.721 31.1305 212.103 31.3503C212.495 31.5701 212.929 31.6799 213.407 31.6799ZM219.981 32.7979V25.2017H221.299V27.2656L221.17 26.7496C221.38 26.2241 221.734 25.8228 222.231 25.5457C222.728 25.2686 223.339 25.1301 224.065 25.1301V26.463C224.008 26.4534 223.951 26.4486 223.893 26.4486C223.846 26.4486 223.798 26.4486 223.75 26.4486C223.014 26.4486 222.431 26.6684 222.001 27.1079C221.571 27.5474 221.356 28.1828 221.356 29.0141V32.7979H219.981ZM229.661 32.8838C228.897 32.8838 228.218 32.7166 227.626 32.3822C227.034 32.0478 226.565 31.5892 226.221 31.0063C225.877 30.4139 225.705 29.7451 225.705 28.9998C225.705 28.245 225.877 27.5761 226.221 26.9933C226.565 26.4104 227.034 25.9566 227.626 25.6317C228.218 25.2973 228.897 25.1301 229.661 25.1301C230.416 25.1301 231.09 25.2973 231.682 25.6317C232.284 25.9566 232.752 26.4104 233.087 26.9933C233.431 27.5666 233.603 28.2354 233.603 28.9998C233.603 29.7546 233.431 30.4235 233.087 31.0063C232.752 31.5892 232.284 32.0478 231.682 32.3822C231.09 32.7166 230.416 32.8838 229.661 32.8838ZM229.661 31.6799C230.148 31.6799 230.583 31.5701 230.965 31.3503C231.357 31.1305 231.663 30.82 231.883 30.4187C232.102 30.0078 232.212 29.5349 232.212 28.9998C232.212 28.4552 232.102 27.987 231.883 27.5952C231.663 27.1939 231.357 26.8834 230.965 26.6636C230.583 26.4439 230.148 26.334 229.661 26.334C229.174 26.334 228.739 26.4439 228.357 26.6636C227.975 26.8834 227.669 27.1939 227.44 27.5952C227.21 27.987 227.096 28.4552 227.096 28.9998C227.096 29.5349 227.21 30.0078 227.44 30.4187C227.669 30.82 227.975 31.1305 228.357 31.3503C228.739 31.5701 229.174 31.6799 229.661 31.6799ZM238.004 32.7979L234.679 25.2017H236.112L239.065 32.0812H238.377L241.387 25.2017H242.734L239.409 32.7979H238.004ZM244.735 32.7979V25.2017H246.111V32.7979H244.735ZM245.423 23.7398C245.155 23.7398 244.93 23.6538 244.749 23.4819C244.577 23.3099 244.491 23.0997 244.491 22.8512C244.491 22.5932 244.577 22.3783 244.749 22.2063C244.93 22.0343 245.155 21.9483 245.423 21.9483C245.69 21.9483 245.91 22.0343 246.082 22.2063C246.263 22.3687 246.354 22.5741 246.354 22.8226C246.354 23.0805 246.268 23.3003 246.096 23.4819C245.924 23.6538 245.7 23.7398 245.423 23.7398ZM252.593 32.8838C251.857 32.8838 251.198 32.7214 250.615 32.3965C250.042 32.0717 249.588 31.6178 249.254 31.035C248.919 30.4521 248.752 29.7737 248.752 28.9998C248.752 28.2258 248.919 27.5522 249.254 26.9789C249.588 26.3961 250.042 25.9422 250.615 25.6174C251.198 25.2925 251.857 25.1301 252.593 25.1301C253.233 25.1301 253.811 25.2734 254.327 25.56C254.843 25.8467 255.254 26.2767 255.56 26.8499C255.875 27.4232 256.033 28.1399 256.033 28.9998C256.033 29.8597 255.88 30.5763 255.574 31.1496C255.278 31.7229 254.872 32.1577 254.356 32.4539C253.84 32.7405 253.252 32.8838 252.593 32.8838ZM252.708 31.6799C253.185 31.6799 253.615 31.5701 253.998 31.3503C254.389 31.1305 254.695 30.82 254.915 30.4187C255.144 30.0078 255.259 29.5349 255.259 28.9998C255.259 28.4552 255.144 27.987 254.915 27.5952C254.695 27.1939 254.389 26.8834 253.998 26.6636C253.615 26.4439 253.185 26.334 252.708 26.334C252.22 26.334 251.786 26.4439 251.403 26.6636C251.021 26.8834 250.715 27.1939 250.486 27.5952C250.257 27.987 250.142 28.4552 250.142 28.9998C250.142 29.5349 250.257 30.0078 250.486 30.4187C250.715 30.82 251.021 31.1305 251.403 31.3503C251.786 31.5701 252.22 31.6799 252.708 31.6799ZM255.302 32.7979V30.7483L255.388 28.9855L255.244 27.2226V22.1633H256.62V32.7979H255.302ZM259.94 32.7979V25.2017H261.316V32.7979H259.94ZM260.628 23.7398C260.361 23.7398 260.136 23.6538 259.955 23.4819C259.783 23.3099 259.697 23.0997 259.697 22.8512C259.697 22.5932 259.783 22.3783 259.955 22.2063C260.136 22.0343 260.361 21.9483 260.628 21.9483C260.896 21.9483 261.116 22.0343 261.288 22.2063C261.469 22.3687 261.56 22.5741 261.56 22.8226C261.56 23.0805 261.474 23.3003 261.302 23.4819C261.13 23.6538 260.905 23.7398 260.628 23.7398ZM268.716 25.1301C269.337 25.1301 269.882 25.2495 270.35 25.4884C270.828 25.7272 271.2 26.0903 271.468 26.5776C271.735 27.0649 271.869 27.6812 271.869 28.4265V32.7979H270.493V28.5842C270.493 27.8484 270.312 27.2942 269.948 26.9216C269.595 26.549 269.093 26.3626 268.444 26.3626C267.956 26.3626 267.531 26.4582 267.168 26.6493C266.805 26.8404 266.523 27.1223 266.322 27.4949C266.131 27.8675 266.036 28.3309 266.036 28.8851V32.7979H264.66V25.2017H265.978V27.2512L265.763 26.7066C266.012 26.2098 266.394 25.8228 266.91 25.5457C267.426 25.2686 268.028 25.1301 268.716 25.1301ZM278.457 35.6643C277.76 35.6643 277.081 35.564 276.422 35.3633C275.772 35.1722 275.242 34.8951 274.831 34.5321L275.49 33.4715C275.844 33.7772 276.279 34.0161 276.795 34.1881C277.31 34.3696 277.85 34.4604 278.414 34.4604C279.312 34.4604 279.972 34.2502 280.392 33.8298C280.812 33.4094 281.023 32.7692 281.023 31.9092V30.304L281.166 28.7991L281.094 27.2799V25.2017H282.398V31.7659C282.398 33.1036 282.064 34.0878 281.395 34.7184C280.726 35.349 279.747 35.6643 278.457 35.6643ZM278.285 32.4825C277.549 32.4825 276.89 32.3297 276.307 32.0239C275.734 31.7086 275.275 31.2738 274.931 30.7197C274.597 30.1655 274.43 29.5253 274.43 28.7991C274.43 28.0634 274.597 27.4232 274.931 26.8786C275.275 26.3244 275.734 25.8945 276.307 25.5887C276.89 25.2829 277.549 25.1301 278.285 25.1301C278.935 25.1301 279.527 25.2638 280.062 25.5314C280.597 25.7894 281.023 26.1907 281.338 26.7353C281.663 27.2799 281.825 27.9679 281.825 28.7991C281.825 29.6209 281.663 30.304 281.338 30.8487C281.023 31.3933 280.597 31.8041 280.062 32.0812C279.527 32.3488 278.935 32.4825 278.285 32.4825ZM278.443 31.2786C278.949 31.2786 279.398 31.1735 279.79 30.9633C280.182 30.7531 280.487 30.4617 280.707 30.089C280.937 29.7164 281.051 29.2864 281.051 28.7991C281.051 28.3118 280.937 27.8819 280.707 27.5092C280.487 27.1366 280.182 26.8499 279.79 26.6493C279.398 26.4391 278.949 26.334 278.443 26.334C277.936 26.334 277.482 26.4391 277.081 26.6493C276.689 26.8499 276.379 27.1366 276.15 27.5092C275.93 27.8819 275.82 28.3118 275.82 28.7991C275.82 29.2864 275.93 29.7164 276.15 30.089C276.379 30.4617 276.689 30.7531 277.081 30.9633C277.482 31.1735 277.936 31.2786 278.443 31.2786ZM294.337 32.8838C293.687 32.8838 293.1 32.7405 292.574 32.4539C292.058 32.1577 291.647 31.7229 291.342 31.1496C291.045 30.5763 290.897 29.8597 290.897 28.9998C290.897 28.1399 291.05 27.4232 291.356 26.8499C291.671 26.2767 292.087 25.8467 292.603 25.56C293.128 25.2734 293.706 25.1301 294.337 25.1301C295.082 25.1301 295.742 25.2925 296.315 25.6174C296.888 25.9422 297.342 26.3961 297.676 26.9789C298.011 27.5522 298.178 28.2258 298.178 28.9998C298.178 29.7737 298.011 30.4521 297.676 31.035C297.342 31.6178 296.888 32.0717 296.315 32.3965C295.742 32.7214 295.082 32.8838 294.337 32.8838ZM290.31 32.7979V22.1633H291.686V27.2226L291.542 28.9855L291.628 30.7483V32.7979H290.31ZM294.222 31.6799C294.71 31.6799 295.144 31.5701 295.527 31.3503C295.918 31.1305 296.224 30.82 296.444 30.4187C296.673 30.0078 296.788 29.5349 296.788 28.9998C296.788 28.4552 296.673 27.987 296.444 27.5952C296.224 27.1939 295.918 26.8834 295.527 26.6636C295.144 26.4439 294.71 26.334 294.222 26.334C293.745 26.334 293.31 26.4439 292.918 26.6636C292.536 26.8834 292.23 27.1939 292.001 27.5952C291.781 27.987 291.671 28.4552 291.671 28.9998C291.671 29.5349 291.781 30.0078 292.001 30.4187C292.23 30.82 292.536 31.1305 292.918 31.3503C293.31 31.5701 293.745 31.6799 294.222 31.6799ZM304.178 32.8838C303.366 32.8838 302.649 32.7166 302.028 32.3822C301.417 32.0478 300.939 31.5892 300.595 31.0063C300.261 30.4235 300.093 29.7546 300.093 28.9998C300.093 28.245 300.256 27.5761 300.581 26.9933C300.915 26.4104 301.369 25.9566 301.942 25.6317C302.525 25.2973 303.18 25.1301 303.906 25.1301C304.642 25.1301 305.291 25.2925 305.855 25.6174C306.419 25.9422 306.858 26.4009 307.174 26.9933C307.498 27.5761 307.661 28.2593 307.661 29.0428C307.661 29.1001 307.656 29.167 307.647 29.2434C307.647 29.3199 307.642 29.3915 307.632 29.4584H301.168V28.4695H306.916L306.357 28.8135C306.366 28.3262 306.266 27.8914 306.056 27.5092C305.846 27.127 305.554 26.8308 305.181 26.6206C304.818 26.4009 304.393 26.291 303.906 26.291C303.428 26.291 303.003 26.4009 302.63 26.6206C302.258 26.8308 301.966 27.1318 301.756 27.5236C301.546 27.9058 301.441 28.3453 301.441 28.8421V29.0715C301.441 29.5779 301.555 30.0317 301.785 30.433C302.024 30.8248 302.353 31.1305 302.774 31.3503C303.194 31.5701 303.677 31.6799 304.221 31.6799C304.67 31.6799 305.076 31.6035 305.439 31.4506C305.812 31.2977 306.137 31.0684 306.414 30.7627L307.174 31.6513C306.83 32.0526 306.4 32.3583 305.884 32.5685C305.377 32.7787 304.809 32.8838 304.178 32.8838ZM312.467 32.8838C311.836 32.8838 311.234 32.7979 310.661 32.6259C310.097 32.4539 309.653 32.2437 309.328 31.9952L309.901 30.906C310.226 31.1257 310.627 31.3121 311.105 31.4649C311.583 31.6178 312.07 31.6943 312.567 31.6943C313.207 31.6943 313.666 31.6035 313.943 31.4219C314.229 31.2404 314.373 30.9872 314.373 30.6623C314.373 30.4235 314.287 30.2371 314.115 30.1034C313.943 29.9696 313.714 29.8693 313.427 29.8024C313.15 29.7355 312.839 29.6782 312.495 29.6304C312.151 29.5731 311.807 29.5062 311.463 29.4298C311.119 29.3438 310.804 29.2291 310.517 29.0858C310.231 28.9329 310.001 28.7275 309.829 28.4695C309.657 28.202 309.571 27.8484 309.571 27.4089C309.571 26.9503 309.7 26.549 309.958 26.205C310.216 25.861 310.58 25.5983 311.048 25.4167C311.525 25.2256 312.089 25.1301 312.739 25.1301C313.236 25.1301 313.737 25.1922 314.244 25.3164C314.76 25.431 315.18 25.5983 315.505 25.818L314.917 26.9073C314.573 26.678 314.215 26.5203 313.843 26.4343C313.47 26.3483 313.097 26.3053 312.725 26.3053C312.123 26.3053 311.674 26.4056 311.377 26.6063C311.081 26.7974 310.933 27.0458 310.933 27.3516C310.933 27.6096 311.019 27.8102 311.191 27.9535C311.373 28.0873 311.602 28.1924 311.879 28.2688C312.166 28.3453 312.481 28.4122 312.825 28.4695C313.169 28.5173 313.513 28.5842 313.857 28.6701C314.201 28.7466 314.511 28.8565 314.788 28.9998C315.075 29.1431 315.304 29.3438 315.476 29.6017C315.658 29.8597 315.749 30.2037 315.749 30.6337C315.749 31.0923 315.615 31.4888 315.347 31.8233C315.08 32.1577 314.702 32.4204 314.215 32.6115C313.728 32.7931 313.145 32.8838 312.467 32.8838ZM320.793 32.8838C320.029 32.8838 319.437 32.6784 319.016 32.2676C318.596 31.8567 318.386 31.2691 318.386 30.5047V23.5392H319.761V30.4474C319.761 30.8582 319.862 31.1735 320.062 31.3933C320.273 31.613 320.569 31.7229 320.951 31.7229C321.381 31.7229 321.739 31.6035 322.026 31.3646L322.456 32.3535C322.246 32.5351 321.993 32.6689 321.696 32.7549C321.41 32.8408 321.109 32.8838 320.793 32.8838ZM317.096 26.334V25.2017H321.94V26.334H317.096ZM47.8832 57.6643C47.1857 57.6643 46.5073 57.564 45.8481 57.3633C45.1983 57.1722 44.668 56.8951 44.2572 56.5321L44.9165 55.4715C45.27 55.7772 45.7047 56.0161 46.2207 56.1881C46.7367 56.3696 47.2765 56.4604 47.8402 56.4604C48.7384 56.4604 49.3977 56.2502 49.8181 55.8298C50.2385 55.4094 50.4487 54.7692 50.4487 53.9092V52.304L50.592 50.7991L50.5204 49.2799V47.2017H51.8246V53.7659C51.8246 55.1036 51.4902 56.0878 50.8214 56.7184C50.1525 57.349 49.1732 57.6643 47.8832 57.6643ZM47.7113 54.4825C46.9755 54.4825 46.3162 54.3297 45.7334 54.0239C45.1601 53.7086 44.7015 53.2738 44.3575 52.7197C44.0231 52.1655 43.8559 51.5253 43.8559 50.7991C43.8559 50.0634 44.0231 49.4232 44.3575 48.8786C44.7015 48.3244 45.1601 47.8945 45.7334 47.5887C46.3162 47.2829 46.9755 47.1301 47.7113 47.1301C48.361 47.1301 48.9534 47.2638 49.4885 47.5314C50.0235 47.7894 50.4487 48.1907 50.764 48.7353C51.0889 49.2799 51.2513 49.9679 51.2513 50.7991C51.2513 51.6209 51.0889 52.304 50.764 52.8487C50.4487 53.3933 50.0235 53.8041 49.4885 54.0812C48.9534 54.3488 48.361 54.4825 47.7113 54.4825ZM47.8689 53.2786C48.3753 53.2786 48.8244 53.1735 49.2161 52.9633C49.6079 52.7531 49.9137 52.4617 50.1334 52.089C50.3627 51.7164 50.4774 51.2864 50.4774 50.7991C50.4774 50.3118 50.3627 49.8819 50.1334 49.5092C49.9137 49.1366 49.6079 48.8499 49.2161 48.6493C48.8244 48.4391 48.3753 48.334 47.8689 48.334C47.3625 48.334 46.9086 48.4391 46.5073 48.6493C46.1156 48.8499 45.8051 49.1366 45.5757 49.5092C45.356 49.8819 45.2461 50.3118 45.2461 50.7991C45.2461 51.2864 45.356 51.7164 45.5757 52.089C45.8051 52.4617 46.1156 52.7531 46.5073 52.9633C46.9086 53.1735 47.3625 53.2786 47.8689 53.2786ZM55.1702 54.7979V47.2017H56.4888V49.2656L56.3598 48.7496C56.57 48.2241 56.9235 47.8228 57.4204 47.5457C57.9172 47.2686 58.5288 47.1301 59.2549 47.1301V48.463C59.1976 48.4534 59.1403 48.4486 59.0829 48.4486C59.0352 48.4486 58.9874 48.4486 58.9396 48.4486C58.2039 48.4486 57.621 48.6684 57.1911 49.1079C56.7611 49.5474 56.5461 50.1828 56.5461 51.0141V54.7979H55.1702ZM61.6673 54.7979V47.2017H63.0432V54.7979H61.6673ZM62.3553 45.7398C62.0878 45.7398 61.8632 45.6538 61.6817 45.4819C61.5097 45.3099 61.4237 45.0997 61.4237 44.8512C61.4237 44.5932 61.5097 44.3783 61.6817 44.2063C61.8632 44.0343 62.0878 43.9483 62.3553 43.9483C62.6228 43.9483 62.8426 44.0343 63.0146 44.2063C63.1961 44.3687 63.2869 44.5741 63.2869 44.8226C63.2869 45.0805 63.2009 45.3003 63.0289 45.4819C62.8569 45.6538 62.6324 45.7398 62.3553 45.7398ZM70.4143 54.8838C69.7837 54.8838 69.2056 54.7405 68.6801 54.4539C68.1641 54.1577 67.7485 53.7229 67.4332 53.1496C67.1274 52.5763 66.9746 51.8597 66.9746 50.9998C66.9746 50.1399 67.1227 49.4232 67.4189 48.8499C67.7246 48.2767 68.1355 47.8467 68.6514 47.56C69.1769 47.2734 69.7646 47.1301 70.4143 47.1301C71.1596 47.1301 71.8189 47.2925 72.3922 47.6174C72.9655 47.9422 73.4193 48.3961 73.7537 48.9789C74.0882 49.5522 74.2554 50.2258 74.2554 50.9998C74.2554 51.7737 74.0882 52.4521 73.7537 53.035C73.4193 53.6178 72.9655 54.0717 72.3922 54.3965C71.8189 54.7214 71.1596 54.8838 70.4143 54.8838ZM66.3869 57.5783V47.2017H67.7055V49.2512L67.6195 51.0141L67.7628 52.777V57.5783H66.3869ZM70.2996 53.6799C70.7869 53.6799 71.2217 53.5701 71.6039 53.3503C71.9956 53.1305 72.3014 52.82 72.5212 52.4187C72.7505 52.0078 72.8651 51.5349 72.8651 50.9998C72.8651 50.4552 72.7505 49.987 72.5212 49.5952C72.3014 49.1939 71.9956 48.8834 71.6039 48.6636C71.2217 48.4439 70.7869 48.334 70.2996 48.334C69.8219 48.334 69.3872 48.4439 68.9954 48.6636C68.6132 48.8834 68.3075 49.1939 68.0781 49.5952C67.8584 49.987 67.7485 50.4552 67.7485 50.9998C67.7485 51.5349 67.8584 52.0078 68.0781 52.4187C68.3075 52.82 68.6132 53.1305 68.9954 53.3503C69.3872 53.5701 69.8219 53.6799 70.2996 53.6799ZM81.4386 54.7979V47.2017H82.8145V54.7979H81.4386ZM82.1266 45.7398C81.8591 45.7398 81.6345 45.6538 81.453 45.4819C81.281 45.3099 81.195 45.0997 81.195 44.8512C81.195 44.5932 81.281 44.3783 81.453 44.2063C81.6345 44.0343 81.8591 43.9483 82.1266 43.9483C82.3941 43.9483 82.6139 44.0343 82.7859 44.2063C82.9674 44.3687 83.0582 44.5741 83.0582 44.8226C83.0582 45.0805 82.9722 45.3003 82.8002 45.4819C82.6282 45.6538 82.4037 45.7398 82.1266 45.7398ZM90.2143 47.1301C90.8353 47.1301 91.38 47.2495 91.8482 47.4884C92.3259 47.7272 92.6985 48.0903 92.9661 48.5776C93.2336 49.0649 93.3674 49.6812 93.3674 50.4265V54.7979H91.9915V50.5842C91.9915 49.8484 91.8099 49.2942 91.4469 48.9216C91.0933 48.549 90.5917 48.3626 89.942 48.3626C89.4547 48.3626 89.0295 48.4582 88.6664 48.6493C88.3033 48.8404 88.0214 49.1223 87.8208 49.4949C87.6297 49.8675 87.5341 50.3309 87.5341 50.8851V54.7979H86.1582V47.2017H87.4768V49.2512L87.2618 48.7066C87.5102 48.2098 87.8924 47.8228 88.4084 47.5457C88.9244 47.2686 89.5263 47.1301 90.2143 47.1301ZM105.911 54.7979V53.1926L105.84 52.8917V50.1542C105.84 49.5713 105.668 49.1223 105.324 48.8069C104.989 48.4821 104.483 48.3196 103.804 48.3196C103.355 48.3196 102.916 48.3961 102.486 48.549C102.056 48.6923 101.693 48.8882 101.397 49.1366L100.823 48.1047C101.215 47.7894 101.683 47.5505 102.228 47.388C102.782 47.2161 103.36 47.1301 103.962 47.1301C105.004 47.1301 105.806 47.3833 106.37 47.8897C106.934 48.3961 107.216 49.17 107.216 50.2115V54.7979H105.911ZM103.417 54.8838C102.854 54.8838 102.357 54.7883 101.927 54.5972C101.506 54.4061 101.182 54.1433 100.952 53.8089C100.723 53.4649 100.608 53.078 100.608 52.648C100.608 52.2371 100.704 51.8645 100.895 51.5301C101.096 51.1957 101.416 50.9281 101.855 50.7275C102.304 50.5268 102.906 50.4265 103.661 50.4265H106.069V51.4154H103.718C103.03 51.4154 102.567 51.5301 102.328 51.7594C102.089 51.9887 101.97 52.2658 101.97 52.5907C101.97 52.9633 102.118 53.2643 102.414 53.4936C102.71 53.7134 103.121 53.8233 103.647 53.8233C104.163 53.8233 104.612 53.7086 104.994 53.4793C105.386 53.25 105.668 52.9155 105.84 52.476L106.112 53.4219C105.93 53.871 105.61 54.2293 105.152 54.4969C104.693 54.7549 104.115 54.8838 103.417 54.8838ZM110.478 54.7979V44.1633H111.854V54.7979H110.478ZM115.198 54.7979V44.1633H116.574V54.7979H115.198ZM127.092 54.8838C126.327 54.8838 125.735 54.6784 125.314 54.2676C124.894 53.8567 124.684 53.2691 124.684 52.5047V45.5392H126.06V52.4474C126.06 52.8582 126.16 53.1735 126.361 53.3933C126.571 53.613 126.867 53.7229 127.249 53.7229C127.679 53.7229 128.038 53.6035 128.324 53.3646L128.754 54.3535C128.544 54.5351 128.291 54.6689 127.995 54.7549C127.708 54.8408 127.407 54.8838 127.092 54.8838ZM123.394 48.334V47.2017H128.238V48.334H123.394ZM131.324 57.6643C130.961 57.6643 130.607 57.6022 130.263 57.478C129.919 57.3633 129.623 57.1913 129.375 56.962L129.962 55.9301C130.153 56.1116 130.364 56.2502 130.593 56.3457C130.822 56.4413 131.066 56.4891 131.324 56.4891C131.658 56.4891 131.935 56.4031 132.155 56.2311C132.375 56.0591 132.58 55.7533 132.771 55.3138L133.244 54.2676L133.388 54.0956L136.369 47.2017H137.716L134.033 55.5575C133.813 56.0925 133.565 56.513 133.287 56.8187C133.02 57.1245 132.724 57.3394 132.399 57.4637C132.074 57.5974 131.716 57.6643 131.324 57.6643ZM133.13 55.0415L129.661 47.2017H131.095L134.047 53.9666L133.13 55.0415ZM143.744 54.8838C143.114 54.8838 142.536 54.7405 142.01 54.4539C141.494 54.1577 141.078 53.7229 140.763 53.1496C140.457 52.5763 140.304 51.8597 140.304 50.9998C140.304 50.1399 140.453 49.4232 140.749 48.8499C141.055 48.2767 141.465 47.8467 141.981 47.56C142.507 47.2734 143.094 47.1301 143.744 47.1301C144.489 47.1301 145.149 47.2925 145.722 47.6174C146.295 47.9422 146.749 48.3961 147.084 48.9789C147.418 49.5522 147.585 50.2258 147.585 50.9998C147.585 51.7737 147.418 52.4521 147.084 53.035C146.749 53.6178 146.295 54.0717 145.722 54.3965C145.149 54.7214 144.489 54.8838 143.744 54.8838ZM139.717 57.5783V47.2017H141.035V49.2512L140.949 51.0141L141.093 52.777V57.5783H139.717ZM143.63 53.6799C144.117 53.6799 144.552 53.5701 144.934 53.3503C145.326 53.1305 145.631 52.82 145.851 52.4187C146.08 52.0078 146.195 51.5349 146.195 50.9998C146.195 50.4552 146.08 49.987 145.851 49.5952C145.631 49.1939 145.326 48.8834 144.934 48.6636C144.552 48.4439 144.117 48.334 143.63 48.334C143.152 48.334 142.717 48.4439 142.325 48.6636C141.943 48.8834 141.637 49.1939 141.408 49.5952C141.188 49.987 141.078 50.4552 141.078 50.9998C141.078 51.5349 141.188 52.0078 141.408 52.4187C141.637 52.82 141.943 53.1305 142.325 53.3503C142.717 53.5701 143.152 53.6799 143.63 53.6799ZM153.585 54.8838C152.773 54.8838 152.057 54.7166 151.436 54.3822C150.824 54.0478 150.346 53.5892 150.002 53.0063C149.668 52.4235 149.501 51.7546 149.501 50.9998C149.501 50.245 149.663 49.5761 149.988 48.9933C150.322 48.4104 150.776 47.9566 151.35 47.6317C151.932 47.2973 152.587 47.1301 153.313 47.1301C154.049 47.1301 154.699 47.2925 155.262 47.6174C155.826 47.9422 156.266 48.4009 156.581 48.9933C156.906 49.5761 157.068 50.2593 157.068 51.0428C157.068 51.1001 157.063 51.167 157.054 51.2434C157.054 51.3199 157.049 51.3915 157.039 51.4584H150.576V50.4695H156.323L155.764 50.8135C155.773 50.3262 155.673 49.8914 155.463 49.5092C155.253 49.127 154.961 48.8308 154.589 48.6206C154.226 48.4009 153.8 48.291 153.313 48.291C152.835 48.291 152.41 48.4009 152.037 48.6206C151.665 48.8308 151.373 49.1318 151.163 49.5236C150.953 49.9058 150.848 50.3453 150.848 50.8421V51.0715C150.848 51.5779 150.963 52.0317 151.192 52.433C151.431 52.8248 151.76 53.1305 152.181 53.3503C152.601 53.5701 153.084 53.6799 153.628 53.6799C154.077 53.6799 154.484 53.6035 154.847 53.4506C155.219 53.2977 155.544 53.0684 155.821 52.7627L156.581 53.6513C156.237 54.0526 155.807 54.3583 155.291 54.5685C154.784 54.7787 154.216 54.8838 153.585 54.8838ZM161.874 54.8838C161.243 54.8838 160.641 54.7979 160.068 54.6259C159.504 54.4539 159.06 54.2437 158.735 53.9952L159.308 52.906C159.633 53.1257 160.034 53.3121 160.512 53.4649C160.99 53.6178 161.477 53.6943 161.974 53.6943C162.614 53.6943 163.073 53.6035 163.35 53.4219C163.637 53.2404 163.78 52.9872 163.78 52.6623C163.78 52.4235 163.694 52.2371 163.522 52.1034C163.35 51.9696 163.121 51.8693 162.834 51.8024C162.557 51.7355 162.246 51.6782 161.902 51.6304C161.558 51.5731 161.215 51.5062 160.871 51.4298C160.527 51.3438 160.211 51.2291 159.925 51.0858C159.638 50.9329 159.409 50.7275 159.237 50.4695C159.065 50.202 158.979 49.8484 158.979 49.4089C158.979 48.9503 159.108 48.549 159.366 48.205C159.624 47.861 159.987 47.5983 160.455 47.4167C160.933 47.2256 161.496 47.1301 162.146 47.1301C162.643 47.1301 163.145 47.1922 163.651 47.3164C164.167 47.431 164.587 47.5983 164.912 47.818L164.325 48.9073C163.981 48.678 163.622 48.5203 163.25 48.4343C162.877 48.3483 162.504 48.3053 162.132 48.3053C161.53 48.3053 161.081 48.4056 160.785 48.6063C160.488 48.7974 160.34 49.0458 160.34 49.3516C160.34 49.6096 160.426 49.8102 160.598 49.9535C160.78 50.0873 161.009 50.1924 161.286 50.2688C161.573 50.3453 161.888 50.4122 162.232 50.4695C162.576 50.5173 162.92 50.5842 163.264 50.6701C163.608 50.7466 163.919 50.8565 164.196 50.9998C164.482 51.1431 164.712 51.3438 164.884 51.6017C165.065 51.8597 165.156 52.2037 165.156 52.6337C165.156 53.0923 165.022 53.4888 164.755 53.8233C164.487 54.1577 164.11 54.4204 163.622 54.6115C163.135 54.7931 162.552 54.8838 161.874 54.8838ZM175.411 54.8838C174.647 54.8838 173.968 54.7166 173.376 54.3822C172.784 54.0478 172.315 53.5892 171.971 53.0063C171.627 52.4139 171.455 51.7451 171.455 50.9998C171.455 50.245 171.627 49.5761 171.971 48.9933C172.315 48.4104 172.784 47.9566 173.376 47.6317C173.968 47.2973 174.647 47.1301 175.411 47.1301C176.166 47.1301 176.84 47.2973 177.432 47.6317C178.034 47.9566 178.502 48.4104 178.837 48.9933C179.181 49.5666 179.353 50.2354 179.353 50.9998C179.353 51.7546 179.181 52.4235 178.837 53.0063C178.502 53.5892 178.034 54.0478 177.432 54.3822C176.84 54.7166 176.166 54.8838 175.411 54.8838ZM175.411 53.6799C175.898 53.6799 176.333 53.5701 176.715 53.3503C177.107 53.1305 177.413 52.82 177.633 52.4187C177.852 52.0078 177.962 51.5349 177.962 50.9998C177.962 50.4552 177.852 49.987 177.633 49.5952C177.413 49.1939 177.107 48.8834 176.715 48.6636C176.333 48.4439 175.898 48.334 175.411 48.334C174.924 48.334 174.489 48.4439 174.107 48.6636C173.725 48.8834 173.419 49.1939 173.19 49.5952C172.96 49.987 172.846 50.4552 172.846 50.9998C172.846 51.5349 172.96 52.0078 173.19 52.4187C173.419 52.82 173.725 53.1305 174.107 53.3503C174.489 53.5701 174.924 53.6799 175.411 53.6799ZM182.173 54.7979V46.5281C182.173 45.7828 182.388 45.1904 182.818 44.7509C183.257 44.3018 183.878 44.0773 184.681 44.0773C184.977 44.0773 185.259 44.1155 185.526 44.1919C185.803 44.2588 186.038 44.3687 186.229 44.5216L185.813 45.5678C185.67 45.4532 185.507 45.3672 185.326 45.3099C185.144 45.243 184.953 45.2095 184.752 45.2095C184.351 45.2095 184.045 45.3242 183.835 45.5535C183.625 45.7733 183.52 46.1029 183.52 46.5424V47.56L183.549 48.1907V54.7979H182.173ZM180.883 48.334V47.2017H185.727V48.334H180.883ZM193.912 54.7979L191.089 47.2017H192.393L194.901 54.0812H194.285L196.893 47.2017H198.054L200.605 54.0812H200.003L202.569 47.2017H203.801L200.964 54.7979H199.645L197.252 48.5203H197.653L195.231 54.7979H193.912ZM209.087 54.8838C208.275 54.8838 207.558 54.7166 206.937 54.3822C206.325 54.0478 205.848 53.5892 205.504 53.0063C205.169 52.4235 205.002 51.7546 205.002 50.9998C205.002 50.245 205.164 49.5761 205.489 48.9933C205.824 48.4104 206.278 47.9566 206.851 47.6317C207.434 47.2973 208.088 47.1301 208.814 47.1301C209.55 47.1301 210.2 47.2925 210.764 47.6174C211.327 47.9422 211.767 48.4009 212.082 48.9933C212.407 49.5761 212.569 50.2593 212.569 51.0428C212.569 51.1001 212.565 51.167 212.555 51.2434C212.555 51.3199 212.55 51.3915 212.541 51.4584H206.077V50.4695H211.824L211.265 50.8135C211.275 50.3262 211.174 49.8914 210.964 49.5092C210.754 49.127 210.463 48.8308 210.09 48.6206C209.727 48.4009 209.302 48.291 208.814 48.291C208.337 48.291 207.911 48.4009 207.539 48.6206C207.166 48.8308 206.875 49.1318 206.665 49.5236C206.454 49.9058 206.349 50.3453 206.349 50.8421V51.0715C206.349 51.5779 206.464 52.0317 206.693 52.433C206.932 52.8248 207.262 53.1305 207.682 53.3503C208.103 53.5701 208.585 53.6799 209.13 53.6799C209.579 53.6799 209.985 53.6035 210.348 53.4506C210.721 53.2977 211.045 53.0684 211.323 52.7627L212.082 53.6513C211.738 54.0526 211.308 54.3583 210.792 54.5685C210.286 54.7787 209.717 54.8838 209.087 54.8838ZM219.702 54.7979V53.1926L219.63 52.8917V50.1542C219.63 49.5713 219.458 49.1223 219.114 48.8069C218.78 48.4821 218.274 48.3196 217.595 48.3196C217.146 48.3196 216.707 48.3961 216.277 48.549C215.847 48.6923 215.484 48.8882 215.187 49.1366L214.614 48.1047C215.006 47.7894 215.474 47.5505 216.019 47.388C216.573 47.2161 217.151 47.1301 217.753 47.1301C218.794 47.1301 219.597 47.3833 220.161 47.8897C220.724 48.3961 221.006 49.17 221.006 50.2115V54.7979H219.702ZM217.208 54.8838C216.644 54.8838 216.148 54.7883 215.718 54.5972C215.297 54.4061 214.972 54.1433 214.743 53.8089C214.514 53.4649 214.399 53.078 214.399 52.648C214.399 52.2371 214.495 51.8645 214.686 51.5301C214.886 51.1957 215.206 50.9281 215.646 50.7275C216.095 50.5268 216.697 50.4265 217.452 50.4265H219.86V51.4154H217.509C216.821 51.4154 216.358 51.5301 216.119 51.7594C215.88 51.9887 215.761 52.2658 215.761 52.5907C215.761 52.9633 215.909 53.2643 216.205 53.4936C216.501 53.7134 216.912 53.8233 217.437 53.8233C217.953 53.8233 218.403 53.7086 218.785 53.4793C219.176 53.25 219.458 52.9155 219.63 52.476L219.903 53.4219C219.721 53.871 219.401 54.2293 218.942 54.4969C218.484 54.7549 217.906 54.8838 217.208 54.8838ZM226.878 54.8838C226.113 54.8838 225.521 54.6784 225.1 54.2676C224.68 53.8567 224.47 53.2691 224.47 52.5047V45.5392H225.846V52.4474C225.846 52.8582 225.946 53.1735 226.147 53.3933C226.357 53.613 226.653 53.7229 227.035 53.7229C227.465 53.7229 227.823 53.6035 228.11 53.3646L228.54 54.3535C228.33 54.5351 228.077 54.6689 227.78 54.7549C227.494 54.8408 227.193 54.8838 226.878 54.8838ZM223.18 48.334V47.2017H228.024V48.334H223.18ZM234.976 47.1301C235.597 47.1301 236.142 47.2495 236.61 47.4884C237.088 47.7272 237.46 48.0903 237.728 48.5776C237.996 49.0649 238.129 49.6812 238.129 50.4265V54.7979H236.753V50.5842C236.753 49.8484 236.572 49.2942 236.209 48.9216C235.855 48.549 235.354 48.3626 234.704 48.3626C234.217 48.3626 233.791 48.4582 233.428 48.6493C233.065 48.8404 232.783 49.1223 232.583 49.4949C232.392 49.8675 232.296 50.3309 232.296 50.8851V54.7979H230.92V44.1633H232.296V49.2512L232.024 48.7066C232.272 48.2098 232.654 47.8228 233.17 47.5457C233.686 47.2686 234.288 47.1301 234.976 47.1301ZM244.775 54.8838C243.963 54.8838 243.246 54.7166 242.625 54.3822C242.013 54.0478 241.536 53.5892 241.192 53.0063C240.857 52.4235 240.69 51.7546 240.69 50.9998C240.69 50.245 240.852 49.5761 241.177 48.9933C241.512 48.4104 241.966 47.9566 242.539 47.6317C243.122 47.2973 243.776 47.1301 244.502 47.1301C245.238 47.1301 245.888 47.2925 246.452 47.6174C247.015 47.9422 247.455 48.4009 247.77 48.9933C248.095 49.5761 248.257 50.2593 248.257 51.0428C248.257 51.1001 248.253 51.167 248.243 51.2434C248.243 51.3199 248.238 51.3915 248.229 51.4584H241.765V50.4695H247.512L246.953 50.8135C246.963 50.3262 246.862 49.8914 246.652 49.5092C246.442 49.127 246.151 48.8308 245.778 48.6206C245.415 48.4009 244.99 48.291 244.502 48.291C244.025 48.291 243.599 48.4009 243.227 48.6206C242.854 48.8308 242.563 49.1318 242.353 49.5236C242.142 49.9058 242.037 50.3453 242.037 50.8421V51.0715C242.037 51.5779 242.152 52.0317 242.381 52.433C242.62 52.8248 242.95 53.1305 243.37 53.3503C243.791 53.5701 244.273 53.6799 244.818 53.6799C245.267 53.6799 245.673 53.6035 246.036 53.4506C246.409 53.2977 246.733 53.0684 247.011 52.7627L247.77 53.6513C247.426 54.0526 246.996 54.3583 246.48 54.5685C245.974 54.7787 245.405 54.8838 244.775 54.8838ZM250.885 54.7979V47.2017H252.203V49.2656L252.074 48.7496C252.284 48.2241 252.638 47.8228 253.135 47.5457C253.632 47.2686 254.243 47.1301 254.969 47.1301V48.463C254.912 48.4534 254.855 48.4486 254.797 48.4486C254.75 48.4486 254.702 48.4486 254.654 48.4486C253.918 48.4486 253.335 48.6684 252.905 49.1079C252.475 49.5474 252.261 50.1828 252.261 51.0141V54.7979H250.885ZM265.356 54.8838C264.582 54.8838 263.889 54.7166 263.278 54.3822C262.676 54.0478 262.203 53.5892 261.859 53.0063C261.515 52.4235 261.343 51.7546 261.343 50.9998C261.343 50.245 261.515 49.5761 261.859 48.9933C262.203 48.4104 262.676 47.9566 263.278 47.6317C263.889 47.2973 264.582 47.1301 265.356 47.1301C266.044 47.1301 266.656 47.2686 267.191 47.5457C267.735 47.8132 268.156 48.2145 268.452 48.7496L267.406 49.4232C267.157 49.0506 266.851 48.7783 266.488 48.6063C266.135 48.4248 265.753 48.334 265.342 48.334C264.845 48.334 264.401 48.4439 264.009 48.6636C263.617 48.8834 263.307 49.1939 263.077 49.5952C262.848 49.987 262.733 50.4552 262.733 50.9998C262.733 51.5444 262.848 52.0174 263.077 52.4187C263.307 52.82 263.617 53.1305 264.009 53.3503C264.401 53.5701 264.845 53.6799 265.342 53.6799C265.753 53.6799 266.135 53.5939 266.488 53.4219C266.851 53.2404 267.157 52.9633 267.406 52.5907L268.452 53.25C268.156 53.7755 267.735 54.1816 267.191 54.4682C266.656 54.7453 266.044 54.8838 265.356 54.8838ZM274.091 54.8838C273.327 54.8838 272.649 54.7166 272.056 54.3822C271.464 54.0478 270.996 53.5892 270.652 53.0063C270.308 52.4139 270.136 51.7451 270.136 50.9998C270.136 50.245 270.308 49.5761 270.652 48.9933C270.996 48.4104 271.464 47.9566 272.056 47.6317C272.649 47.2973 273.327 47.1301 274.091 47.1301C274.846 47.1301 275.52 47.2973 276.112 47.6317C276.714 47.9566 277.182 48.4104 277.517 48.9933C277.861 49.5666 278.033 50.2354 278.033 50.9998C278.033 51.7546 277.861 52.4235 277.517 53.0063C277.182 53.5892 276.714 54.0478 276.112 54.3822C275.52 54.7166 274.846 54.8838 274.091 54.8838ZM274.091 53.6799C274.579 53.6799 275.013 53.5701 275.396 53.3503C275.787 53.1305 276.093 52.82 276.313 52.4187C276.533 52.0078 276.642 51.5349 276.642 50.9998C276.642 50.4552 276.533 49.987 276.313 49.5952C276.093 49.1939 275.787 48.8834 275.396 48.6636C275.013 48.4439 274.579 48.334 274.091 48.334C273.604 48.334 273.169 48.4439 272.787 48.6636C272.405 48.8834 272.099 49.1939 271.87 49.5952C271.64 49.987 271.526 50.4552 271.526 50.9998C271.526 51.5349 271.64 52.0078 271.87 52.4187C272.099 52.82 272.405 53.1305 272.787 53.3503C273.169 53.5701 273.604 53.6799 274.091 53.6799ZM284.708 47.1301C285.329 47.1301 285.874 47.2495 286.342 47.4884C286.82 47.7272 287.192 48.0903 287.46 48.5776C287.728 49.0649 287.861 49.6812 287.861 50.4265V54.7979H286.485V50.5842C286.485 49.8484 286.304 49.2942 285.941 48.9216C285.587 48.549 285.086 48.3626 284.436 48.3626C283.949 48.3626 283.523 48.4582 283.16 48.6493C282.797 48.8404 282.515 49.1223 282.315 49.4949C282.124 49.8675 282.028 50.3309 282.028 50.8851V54.7979H280.652V47.2017H281.971V49.2512L281.756 48.7066C282.004 48.2098 282.386 47.8228 282.902 47.5457C283.418 47.2686 284.02 47.1301 284.708 47.1301ZM294.263 54.8838C293.527 54.8838 292.868 54.7214 292.285 54.3965C291.712 54.0717 291.258 53.6178 290.924 53.035C290.589 52.4521 290.422 51.7737 290.422 50.9998C290.422 50.2258 290.589 49.5522 290.924 48.9789C291.258 48.3961 291.712 47.9422 292.285 47.6174C292.868 47.2925 293.527 47.1301 294.263 47.1301C294.903 47.1301 295.481 47.2734 295.997 47.56C296.513 47.8467 296.924 48.2767 297.23 48.8499C297.545 49.4232 297.703 50.1399 297.703 50.9998C297.703 51.8597 297.55 52.5763 297.244 53.1496C296.948 53.7229 296.542 54.1577 296.026 54.4539C295.51 54.7405 294.922 54.8838 294.263 54.8838ZM294.378 53.6799C294.855 53.6799 295.285 53.5701 295.668 53.3503C296.059 53.1305 296.365 52.82 296.585 52.4187C296.814 52.0078 296.929 51.5349 296.929 50.9998C296.929 50.4552 296.814 49.987 296.585 49.5952C296.365 49.1939 296.059 48.8834 295.668 48.6636C295.285 48.4439 294.855 48.334 294.378 48.334C293.89 48.334 293.456 48.4439 293.073 48.6636C292.691 48.8834 292.385 49.1939 292.156 49.5952C291.927 49.987 291.812 50.4552 291.812 50.9998C291.812 51.5349 291.927 52.0078 292.156 52.4187C292.385 52.82 292.691 53.1305 293.073 53.3503C293.456 53.5701 293.89 53.6799 294.378 53.6799ZM296.972 54.7979V52.7483L297.058 50.9855L296.915 49.2226V44.1633H298.29V54.7979H296.972ZM301.61 54.7979V47.2017H302.986V54.7979H301.61ZM302.298 45.7398C302.031 45.7398 301.806 45.6538 301.625 45.4819C301.453 45.3099 301.367 45.0997 301.367 44.8512C301.367 44.5932 301.453 44.3783 301.625 44.2063C301.806 44.0343 302.031 43.9483 302.298 43.9483C302.566 43.9483 302.786 44.0343 302.958 44.2063C303.139 44.3687 303.23 44.5741 303.23 44.8226C303.23 45.0805 303.144 45.3003 302.972 45.4819C302.8 45.6538 302.575 45.7398 302.298 45.7398ZM308.938 54.8838C308.174 54.8838 307.582 54.6784 307.161 54.2676C306.741 53.8567 306.531 53.2691 306.531 52.5047V45.5392H307.906V52.4474C307.906 52.8582 308.007 53.1735 308.207 53.3933C308.418 53.613 308.714 53.7229 309.096 53.7229C309.526 53.7229 309.884 53.6035 310.171 53.3646L310.601 54.3535C310.391 54.5351 310.138 54.6689 309.841 54.7549C309.555 54.8408 309.254 54.8838 308.938 54.8838ZM305.241 48.334V47.2017H310.085V48.334H305.241ZM312.981 54.7979V47.2017H314.357V54.7979H312.981ZM313.669 45.7398C313.401 45.7398 313.177 45.6538 312.995 45.4819C312.823 45.3099 312.737 45.0997 312.737 44.8512C312.737 44.5932 312.823 44.3783 312.995 44.2063C313.177 44.0343 313.401 43.9483 313.669 43.9483C313.937 43.9483 314.156 44.0343 314.328 44.2063C314.51 44.3687 314.601 44.5741 314.601 44.8226C314.601 45.0805 314.515 45.3003 314.343 45.4819C314.171 45.6538 313.946 45.7398 313.669 45.7398ZM320.954 54.8838C320.19 54.8838 319.511 54.7166 318.919 54.3822C318.326 54.0478 317.858 53.5892 317.514 53.0063C317.17 52.4139 316.998 51.7451 316.998 50.9998C316.998 50.245 317.17 49.5761 317.514 48.9933C317.858 48.4104 318.326 47.9566 318.919 47.6317C319.511 47.2973 320.19 47.1301 320.954 47.1301C321.709 47.1301 322.382 47.2973 322.975 47.6317C323.577 47.9566 324.045 48.4104 324.379 48.9933C324.723 49.5666 324.895 50.2354 324.895 50.9998C324.895 51.7546 324.723 52.4235 324.379 53.0063C324.045 53.5892 323.577 54.0478 322.975 54.3822C322.382 54.7166 321.709 54.8838 320.954 54.8838ZM320.954 53.6799C321.441 53.6799 321.876 53.5701 322.258 53.3503C322.65 53.1305 322.956 52.82 323.176 52.4187C323.395 52.0078 323.505 51.5349 323.505 50.9998C323.505 50.4552 323.395 49.987 323.176 49.5952C322.956 49.1939 322.65 48.8834 322.258 48.6636C321.876 48.4439 321.441 48.334 320.954 48.334C320.467 48.334 320.032 48.4439 319.65 48.6636C319.268 48.8834 318.962 49.1939 318.733 49.5952C318.503 49.987 318.389 50.4552 318.389 50.9998C318.389 51.5349 318.503 52.0078 318.733 52.4187C318.962 52.82 319.268 53.1305 319.65 53.3503C320.032 53.5701 320.467 53.6799 320.954 53.6799ZM331.571 47.1301C332.192 47.1301 332.737 47.2495 333.205 47.4884C333.683 47.7272 334.055 48.0903 334.323 48.5776C334.59 49.0649 334.724 49.6812 334.724 50.4265V54.7979H333.348V50.5842C333.348 49.8484 333.167 49.2942 332.803 48.9216C332.45 48.549 331.948 48.3626 331.299 48.3626C330.811 48.3626 330.386 48.4582 330.023 48.6493C329.66 48.8404 329.378 49.1223 329.177 49.4949C328.986 49.8675 328.891 50.3309 328.891 50.8851V54.7979H327.515V47.2017H328.833V49.2512L328.618 48.7066C328.867 48.2098 329.249 47.8228 329.765 47.5457C330.281 47.2686 330.883 47.1301 331.571 47.1301ZM340.165 54.8838C339.535 54.8838 338.933 54.7979 338.36 54.6259C337.796 54.4539 337.352 54.2437 337.027 53.9952L337.6 52.906C337.925 53.1257 338.326 53.3121 338.804 53.4649C339.282 53.6178 339.769 53.6943 340.266 53.6943C340.906 53.6943 341.365 53.6035 341.642 53.4219C341.928 53.2404 342.072 52.9872 342.072 52.6623C342.072 52.4235 341.986 52.2371 341.814 52.1034C341.642 51.9696 341.412 51.8693 341.126 51.8024C340.849 51.7355 340.538 51.6782 340.194 51.6304C339.85 51.5731 339.506 51.5062 339.162 51.4298C338.818 51.3438 338.503 51.2291 338.216 51.0858C337.93 50.9329 337.7 50.7275 337.528 50.4695C337.356 50.202 337.27 49.8484 337.27 49.4089C337.27 48.9503 337.399 48.549 337.657 48.205C337.915 47.861 338.278 47.5983 338.747 47.4167C339.224 47.2256 339.788 47.1301 340.438 47.1301C340.935 47.1301 341.436 47.1922 341.943 47.3164C342.459 47.431 342.879 47.5983 343.204 47.818L342.616 48.9073C342.272 48.678 341.914 48.5203 341.541 48.4343C341.169 48.3483 340.796 48.3053 340.423 48.3053C339.822 48.3053 339.372 48.4056 339.076 48.6063C338.78 48.7974 338.632 49.0458 338.632 49.3516C338.632 49.6096 338.718 49.8102 338.89 49.9535C339.071 50.0873 339.301 50.1924 339.578 50.2688C339.865 50.3453 340.18 50.4122 340.524 50.4695C340.868 50.5173 341.212 50.5842 341.556 50.6701C341.9 50.7466 342.21 50.8565 342.487 50.9998C342.774 51.1431 343.003 51.3438 343.175 51.6017C343.357 51.8597 343.448 52.2037 343.448 52.6337C343.448 53.0923 343.314 53.4888 343.046 53.8233C342.779 54.1577 342.401 54.4204 341.914 54.6115C341.427 54.7931 340.844 54.8838 340.165 54.8838ZM346.213 54.8838C345.946 54.8838 345.717 54.7931 345.525 54.6115C345.334 54.4204 345.239 54.1816 345.239 53.8949C345.239 53.6083 345.334 53.3742 345.525 53.1926C345.717 53.0111 345.946 52.9203 346.213 52.9203C346.471 52.9203 346.691 53.0111 346.873 53.1926C347.064 53.3742 347.159 53.6083 347.159 53.8949C347.159 54.1816 347.064 54.4204 346.873 54.6115C346.691 54.7931 346.471 54.8838 346.213 54.8838Z" fill="#141414"/>
</svg>
