<svg width="405" height="79" viewBox="0 0 405 79" fill="none" xmlns="http://www.w3.org/2000/svg">
<rect x="0.703125" width="404.299" height="78.35" fill="#D9D9D9"/>
<path d="M52.155 22.7652H54.4769V32.7979H52.155V22.7652ZM47.5974 32.7979H45.2755V22.7652H47.5974V32.7979ZM52.327 28.6845H47.4254V26.721H52.327V28.6845ZM61.2362 32.9125C60.3572 32.9125 59.5832 32.7405 58.9144 32.3965C58.2551 32.0526 57.7439 31.5844 57.3808 30.992C57.0177 30.39 56.8362 29.7069 56.8362 28.9425C56.8362 28.1685 57.013 27.4853 57.3665 26.8929C57.7296 26.291 58.2217 25.8228 58.8427 25.4884C59.4638 25.1444 60.1661 24.9724 60.9496 24.9724C61.7044 24.9724 62.3828 25.1348 62.9848 25.4597C63.5963 25.775 64.0788 26.2337 64.4323 26.8356C64.7859 27.428 64.9626 28.1399 64.9626 28.9711C64.9626 29.0571 64.9578 29.1574 64.9483 29.2721C64.9387 29.3772 64.9292 29.4775 64.9196 29.5731H58.6564V28.2688H63.7444L62.8844 28.6558C62.8844 28.2545 62.8032 27.9058 62.6408 27.6096C62.4784 27.3134 62.2538 27.084 61.9672 26.9216C61.6805 26.7496 61.3461 26.6636 60.9639 26.6636C60.5817 26.6636 60.2425 26.7496 59.9463 26.9216C59.6597 27.084 59.4351 27.3181 59.2727 27.6239C59.1103 27.9201 59.029 28.2736 59.029 28.6845V29.0285C59.029 29.4489 59.1198 29.8215 59.3014 30.1464C59.4925 30.4617 59.7552 30.7053 60.0896 30.8773C60.4336 31.0398 60.8349 31.121 61.2936 31.121C61.7044 31.121 62.0627 31.0589 62.3685 30.9347C62.6838 30.8104 62.9704 30.6241 63.2284 30.3757L64.418 31.6656C64.0645 32.0669 63.6202 32.3774 63.0851 32.5972C62.55 32.8074 61.9337 32.9125 61.2362 32.9125ZM71.6875 32.7979V31.293L71.5442 30.9633V28.2688C71.5442 27.7911 71.3961 27.4185 71.0999 27.1509C70.8132 26.8834 70.3689 26.7496 69.767 26.7496C69.3561 26.7496 68.95 26.8165 68.5487 26.9503C68.157 27.0745 67.8226 27.2465 67.5455 27.4662L66.7429 25.904C67.1633 25.6078 67.6697 25.3785 68.2621 25.2161C68.8545 25.0536 69.4564 24.9724 70.068 24.9724C71.2432 24.9724 72.1557 25.2495 72.8054 25.8037C73.4552 26.3579 73.78 27.2226 73.78 28.3978V32.7979H71.6875ZM69.337 32.9125C68.735 32.9125 68.2191 32.8122 67.7891 32.6115C67.3591 32.4013 67.0295 32.1195 66.8002 31.7659C66.5709 31.4124 66.4562 31.0159 66.4562 30.5763C66.4562 30.1177 66.5661 29.7164 66.7859 29.3724C67.0152 29.0285 67.3735 28.7609 67.8608 28.5698C68.3481 28.3692 68.9835 28.2688 69.767 28.2688H71.8165V29.5731H70.0106C69.4851 29.5731 69.122 29.6591 68.9214 29.8311C68.7303 30.0031 68.6347 30.218 68.6347 30.476C68.6347 30.7627 68.7446 30.992 68.9644 31.164C69.1937 31.3264 69.5042 31.4076 69.896 31.4076C70.2686 31.4076 70.603 31.3216 70.8992 31.1496C71.1954 30.9681 71.4104 30.7053 71.5442 30.3614L71.8882 31.3933C71.7257 31.8901 71.4295 32.2676 70.9996 32.5255C70.5696 32.7835 70.0154 32.9125 69.337 32.9125ZM79.8869 32.9125C79.1608 32.9125 78.5062 32.7501 77.9234 32.4252C77.3406 32.0908 76.8771 31.6274 76.5332 31.035C76.1987 30.4426 76.0315 29.7451 76.0315 28.9425C76.0315 28.1303 76.1987 27.428 76.5332 26.8356C76.8771 26.2432 77.3406 25.7846 77.9234 25.4597C78.5062 25.1348 79.1608 24.9724 79.8869 24.9724C80.5367 24.9724 81.1052 25.1157 81.5925 25.4024C82.0798 25.689 82.4572 26.1238 82.7247 26.7066C82.9923 27.2895 83.126 28.0347 83.126 28.9425C83.126 29.8406 82.997 30.5859 82.7391 31.1783C82.4811 31.7611 82.1084 32.1959 81.6211 32.4825C81.1434 32.7692 80.5653 32.9125 79.8869 32.9125ZM80.2739 31.078C80.637 31.078 80.9666 30.992 81.2628 30.82C81.559 30.648 81.7931 30.4044 81.9651 30.089C82.1467 29.7642 82.2374 29.382 82.2374 28.9425C82.2374 28.4934 82.1467 28.1112 81.9651 27.7959C81.7931 27.4806 81.559 27.2369 81.2628 27.0649C80.9666 26.8929 80.637 26.8069 80.2739 26.8069C79.9013 26.8069 79.5668 26.8929 79.2706 27.0649C78.9744 27.2369 78.7356 27.4806 78.554 27.7959C78.382 28.1112 78.296 28.4934 78.296 28.9425C78.296 29.382 78.382 29.7642 78.554 30.089C78.7356 30.4044 78.9744 30.648 79.2706 30.82C79.5668 30.992 79.9013 31.078 80.2739 31.078ZM82.2948 32.7979V31.2213L82.3378 28.9281L82.1944 26.6493V22.1633H84.4303V32.7979H82.2948ZM91.9918 32.7979V22.1633H94.2276V32.7979H91.9918ZM97.0193 32.7979V25.0871H99.2551V32.7979H97.0193ZM98.1372 24.0121C97.7264 24.0121 97.3919 23.8927 97.134 23.6538C96.876 23.415 96.747 23.1188 96.747 22.7652C96.747 22.4117 96.876 22.1155 97.134 21.8766C97.3919 21.6378 97.7264 21.5183 98.1372 21.5183C98.5481 21.5183 98.8825 21.633 99.1405 21.8623C99.3985 22.0821 99.5274 22.3687 99.5274 22.7222C99.5274 23.0949 99.3985 23.4054 99.1405 23.6538C98.8921 23.8927 98.5576 24.0121 98.1372 24.0121ZM105.673 35.693C104.947 35.693 104.244 35.6022 103.566 35.4207C102.897 35.2487 102.338 34.9859 101.889 34.6324L102.778 33.0272C103.103 33.2947 103.513 33.5049 104.01 33.6578C104.517 33.8202 105.014 33.9014 105.501 33.9014C106.294 33.9014 106.867 33.7247 107.221 33.3711C107.584 33.0176 107.765 32.4921 107.765 31.7946V30.6337L107.909 28.6988L107.88 26.7496V25.0871H110.001V31.5079C110.001 32.9412 109.629 33.997 108.883 34.6754C108.138 35.3538 107.068 35.693 105.673 35.693ZM105.329 32.4252C104.612 32.4252 103.963 32.2723 103.38 31.9666C102.806 31.6513 102.343 31.2165 101.989 30.6623C101.645 30.0986 101.474 29.4441 101.474 28.6988C101.474 27.944 101.645 27.2895 101.989 26.7353C102.343 26.1715 102.806 25.7368 103.38 25.431C103.963 25.1253 104.612 24.9724 105.329 24.9724C105.979 24.9724 106.552 25.1062 107.049 25.3737C107.546 25.6317 107.933 26.0378 108.21 26.592C108.487 27.1366 108.625 27.8389 108.625 28.6988C108.625 29.5492 108.487 30.2515 108.21 30.8057C107.933 31.3503 107.546 31.7564 107.049 32.0239C106.552 32.2914 105.979 32.4252 105.329 32.4252ZM105.773 30.5907C106.165 30.5907 106.514 30.5142 106.819 30.3614C107.125 30.1989 107.364 29.9744 107.536 29.6877C107.708 29.4011 107.794 29.0715 107.794 28.6988C107.794 28.3166 107.708 27.987 107.536 27.7099C107.364 27.4232 107.125 27.2035 106.819 27.0506C106.514 26.8882 106.165 26.8069 105.773 26.8069C105.381 26.8069 105.033 26.8882 104.727 27.0506C104.421 27.2035 104.178 27.4232 103.996 27.7099C103.824 27.987 103.738 28.3166 103.738 28.6988C103.738 29.0715 103.824 29.4011 103.996 29.6877C104.178 29.9744 104.421 30.1989 104.727 30.3614C105.033 30.5142 105.381 30.5907 105.773 30.5907ZM117.485 24.9724C118.097 24.9724 118.642 25.0966 119.119 25.3451C119.607 25.5839 119.989 25.9566 120.266 26.463C120.543 26.9598 120.682 27.6 120.682 28.3835V32.7979H118.446V28.7275C118.446 28.1064 118.307 27.6478 118.03 27.3516C117.763 27.0554 117.38 26.9073 116.884 26.9073C116.53 26.9073 116.21 26.9837 115.923 27.1366C115.646 27.2799 115.426 27.5045 115.264 27.8102C115.111 28.116 115.035 28.5077 115.035 28.9855V32.7979H112.799V22.1633H115.035V27.2226L114.533 26.5776C114.81 26.0617 115.207 25.6651 115.723 25.388C116.239 25.111 116.826 24.9724 117.485 24.9724ZM126.578 32.9125C125.67 32.9125 124.963 32.6832 124.457 32.2246C123.95 31.7564 123.697 31.0636 123.697 30.1464V23.3815H125.933V30.1177C125.933 30.4426 126.019 30.6958 126.191 30.8773C126.363 31.0493 126.597 31.1353 126.893 31.1353C127.247 31.1353 127.548 31.0398 127.796 30.8487L128.398 32.4252C128.169 32.5876 127.892 32.7119 127.567 32.7979C127.252 32.8743 126.922 32.9125 126.578 32.9125ZM122.508 26.9789V25.2591H127.854V26.9789H122.508ZM132.964 32.9125C132.305 32.9125 131.669 32.8361 131.058 32.6832C130.456 32.5208 129.978 32.3201 129.625 32.0812L130.37 30.476C130.723 30.6958 131.139 30.8773 131.617 31.0206C132.104 31.1544 132.582 31.2213 133.05 31.2213C133.566 31.2213 133.929 31.1592 134.139 31.035C134.359 30.9108 134.469 30.7388 134.469 30.519C134.469 30.3375 134.383 30.2037 134.211 30.1177C134.049 30.0222 133.829 29.9505 133.552 29.9027C133.275 29.855 132.969 29.8072 132.634 29.7594C132.31 29.7116 131.98 29.6495 131.645 29.5731C131.311 29.4871 131.005 29.3629 130.728 29.2004C130.451 29.038 130.227 28.8182 130.055 28.5412C129.892 28.2641 129.811 27.9058 129.811 27.4662C129.811 26.9789 129.949 26.549 130.227 26.1763C130.513 25.8037 130.924 25.5123 131.459 25.3021C131.994 25.0823 132.634 24.9724 133.38 24.9724C133.905 24.9724 134.44 25.0297 134.985 25.1444C135.53 25.2591 135.983 25.4263 136.346 25.646L135.601 27.2369C135.229 27.0172 134.851 26.8691 134.469 26.7926C134.096 26.7066 133.733 26.6636 133.38 26.6636C132.883 26.6636 132.52 26.7305 132.29 26.8643C132.061 26.998 131.946 27.17 131.946 27.3802C131.946 27.5713 132.028 27.7147 132.19 27.8102C132.362 27.9058 132.587 27.9822 132.864 28.0395C133.141 28.0969 133.442 28.1494 133.767 28.1972C134.101 28.2354 134.436 28.2975 134.77 28.3835C135.104 28.4695 135.405 28.5937 135.673 28.7561C135.95 28.909 136.174 29.124 136.346 29.4011C136.518 29.6686 136.604 30.0222 136.604 30.4617C136.604 30.9394 136.461 31.3646 136.174 31.7373C135.888 32.1003 135.472 32.387 134.928 32.5972C134.393 32.8074 133.738 32.9125 132.964 32.9125ZM138.428 34.919L139.145 32.0239L139.331 32.8552C139.054 32.8552 138.82 32.7692 138.629 32.5972C138.447 32.4252 138.357 32.1911 138.357 31.8949C138.357 31.6083 138.447 31.3742 138.629 31.1926C138.82 31.0111 139.049 30.9203 139.317 30.9203C139.594 30.9203 139.818 31.0159 139.99 31.207C140.162 31.3885 140.248 31.6178 140.248 31.8949C140.248 31.9905 140.239 32.086 140.22 32.1816C140.21 32.2676 140.186 32.3727 140.148 32.4969C140.119 32.6115 140.072 32.7549 140.005 32.9268L139.331 34.919H138.428ZM151.53 32.8838C150.899 32.8838 150.321 32.7405 149.795 32.4539C149.279 32.1577 148.864 31.7229 148.549 31.1496C148.243 30.5763 148.09 29.8597 148.09 28.9998C148.09 28.1399 148.238 27.4232 148.534 26.8499C148.84 26.2767 149.251 25.8467 149.767 25.56C150.292 25.2734 150.88 25.1301 151.53 25.1301C152.275 25.1301 152.934 25.2925 153.508 25.6174C154.081 25.9422 154.535 26.3961 154.869 26.9789C155.204 27.5522 155.371 28.2258 155.371 28.9998C155.371 29.7737 155.204 30.4521 154.869 31.035C154.535 31.6178 154.081 32.0717 153.508 32.3965C152.934 32.7214 152.275 32.8838 151.53 32.8838ZM147.502 35.5783V25.2017H148.821V27.2512L148.735 29.0141L148.878 30.777V35.5783H147.502ZM151.415 31.6799C151.902 31.6799 152.337 31.5701 152.719 31.3503C153.111 31.1305 153.417 30.82 153.637 30.4187C153.866 30.0078 153.98 29.5349 153.98 28.9998C153.98 28.4552 153.866 27.987 153.637 27.5952C153.417 27.1939 153.111 26.8834 152.719 26.6636C152.337 26.4439 151.902 26.334 151.415 26.334C150.937 26.334 150.503 26.4439 150.111 26.6636C149.729 26.8834 149.423 27.1939 149.193 27.5952C148.974 27.987 148.864 28.4552 148.864 28.9998C148.864 29.5349 148.974 30.0078 149.193 30.4187C149.423 30.82 149.729 31.1305 150.111 31.3503C150.503 31.5701 150.937 31.6799 151.415 31.6799ZM157.988 32.7979V25.2017H159.307V27.2656L159.178 26.7496C159.388 26.2241 159.742 25.8228 160.239 25.5457C160.735 25.2686 161.347 25.1301 162.073 25.1301V26.463C162.016 26.4534 161.958 26.4486 161.901 26.4486C161.853 26.4486 161.806 26.4486 161.758 26.4486C161.022 26.4486 160.439 26.6684 160.009 27.1079C159.579 27.5474 159.364 28.1828 159.364 29.0141V32.7979H157.988ZM167.669 32.8838C166.905 32.8838 166.226 32.7166 165.634 32.3822C165.041 32.0478 164.573 31.5892 164.229 31.0063C163.885 30.4139 163.713 29.7451 163.713 28.9998C163.713 28.245 163.885 27.5761 164.229 26.9933C164.573 26.4104 165.041 25.9566 165.634 25.6317C166.226 25.2973 166.905 25.1301 167.669 25.1301C168.424 25.1301 169.097 25.2973 169.69 25.6317C170.292 25.9566 170.76 26.4104 171.094 26.9933C171.438 27.5666 171.61 28.2354 171.61 28.9998C171.61 29.7546 171.438 30.4235 171.094 31.0063C170.76 31.5892 170.292 32.0478 169.69 32.3822C169.097 32.7166 168.424 32.8838 167.669 32.8838ZM167.669 31.6799C168.156 31.6799 168.591 31.5701 168.973 31.3503C169.365 31.1305 169.671 30.82 169.89 30.4187C170.11 30.0078 170.22 29.5349 170.22 28.9998C170.22 28.4552 170.11 27.987 169.89 27.5952C169.671 27.1939 169.365 26.8834 168.973 26.6636C168.591 26.4439 168.156 26.334 167.669 26.334C167.182 26.334 166.747 26.4439 166.365 26.6636C165.983 26.8834 165.677 27.1939 165.447 27.5952C165.218 27.987 165.103 28.4552 165.103 28.9998C165.103 29.5349 165.218 30.0078 165.447 30.4187C165.677 30.82 165.983 31.1305 166.365 31.3503C166.747 31.5701 167.182 31.6799 167.669 31.6799ZM176.012 32.7979L172.687 25.2017H174.12L177.073 32.0812H176.385L179.394 25.2017H180.742L177.417 32.7979H176.012ZM182.742 32.7979V25.2017H184.118V32.7979H182.742ZM183.43 23.7398C183.163 23.7398 182.938 23.6538 182.757 23.4819C182.585 23.3099 182.499 23.0997 182.499 22.8512C182.499 22.5932 182.585 22.3783 182.757 22.2063C182.938 22.0343 183.163 21.9483 183.43 21.9483C183.698 21.9483 183.918 22.0343 184.09 22.2063C184.271 22.3687 184.362 22.5741 184.362 22.8226C184.362 23.0805 184.276 23.3003 184.104 23.4819C183.932 23.6538 183.707 23.7398 183.43 23.7398ZM190.601 32.8838C189.865 32.8838 189.206 32.7214 188.623 32.3965C188.05 32.0717 187.596 31.6178 187.261 31.035C186.927 30.4521 186.76 29.7737 186.76 28.9998C186.76 28.2258 186.927 27.5522 187.261 26.9789C187.596 26.3961 188.05 25.9422 188.623 25.6174C189.206 25.2925 189.865 25.1301 190.601 25.1301C191.241 25.1301 191.819 25.2734 192.335 25.56C192.851 25.8467 193.262 26.2767 193.568 26.8499C193.883 27.4232 194.041 28.1399 194.041 28.9998C194.041 29.8597 193.888 30.5763 193.582 31.1496C193.286 31.7229 192.88 32.1577 192.364 32.4539C191.848 32.7405 191.26 32.8838 190.601 32.8838ZM190.715 31.6799C191.193 31.6799 191.623 31.5701 192.005 31.3503C192.397 31.1305 192.703 30.82 192.923 30.4187C193.152 30.0078 193.267 29.5349 193.267 28.9998C193.267 28.4552 193.152 27.987 192.923 27.5952C192.703 27.1939 192.397 26.8834 192.005 26.6636C191.623 26.4439 191.193 26.334 190.715 26.334C190.228 26.334 189.793 26.4439 189.411 26.6636C189.029 26.8834 188.723 27.1939 188.494 27.5952C188.265 27.987 188.15 28.4552 188.15 28.9998C188.15 29.5349 188.265 30.0078 188.494 30.4187C188.723 30.82 189.029 31.1305 189.411 31.3503C189.793 31.5701 190.228 31.6799 190.715 31.6799ZM193.31 32.7979V30.7483L193.396 28.9855L193.252 27.2226V22.1633H194.628V32.7979H193.31ZM197.948 32.7979V25.2017H199.324V32.7979H197.948ZM198.636 23.7398C198.368 23.7398 198.144 23.6538 197.962 23.4819C197.79 23.3099 197.704 23.0997 197.704 22.8512C197.704 22.5932 197.79 22.3783 197.962 22.2063C198.144 22.0343 198.368 21.9483 198.636 21.9483C198.904 21.9483 199.123 22.0343 199.295 22.2063C199.477 22.3687 199.568 22.5741 199.568 22.8226C199.568 23.0805 199.482 23.3003 199.31 23.4819C199.138 23.6538 198.913 23.7398 198.636 23.7398ZM206.724 25.1301C207.345 25.1301 207.889 25.2495 208.358 25.4884C208.835 25.7272 209.208 26.0903 209.476 26.5776C209.743 27.0649 209.877 27.6812 209.877 28.4265V32.7979H208.501V28.5842C208.501 27.8484 208.319 27.2942 207.956 26.9216C207.603 26.549 207.101 26.3626 206.451 26.3626C205.964 26.3626 205.539 26.4582 205.176 26.6493C204.813 26.8404 204.531 27.1223 204.33 27.4949C204.139 27.8675 204.044 28.3309 204.044 28.8851V32.7979H202.668V25.2017H203.986V27.2512L203.771 26.7066C204.02 26.2098 204.402 25.8228 204.918 25.5457C205.434 25.2686 206.036 25.1301 206.724 25.1301ZM216.465 35.6643C215.767 35.6643 215.089 35.564 214.43 35.3633C213.78 35.1722 213.25 34.8951 212.839 34.5321L213.498 33.4715C213.852 33.7772 214.286 34.0161 214.802 34.1881C215.318 34.3696 215.858 34.4604 216.422 34.4604C217.32 34.4604 217.979 34.2502 218.4 33.8298C218.82 33.4094 219.03 32.7692 219.03 31.9092V30.304L219.174 28.7991L219.102 27.2799V25.2017H220.406V31.7659C220.406 33.1036 220.072 34.0878 219.403 34.7184C218.734 35.349 217.755 35.6643 216.465 35.6643ZM216.293 32.4825C215.557 32.4825 214.898 32.3297 214.315 32.0239C213.742 31.7086 213.283 31.2738 212.939 30.7197C212.605 30.1655 212.437 29.5253 212.437 28.7991C212.437 28.0634 212.605 27.4232 212.939 26.8786C213.283 26.3244 213.742 25.8945 214.315 25.5887C214.898 25.2829 215.557 25.1301 216.293 25.1301C216.943 25.1301 217.535 25.2638 218.07 25.5314C218.605 25.7894 219.03 26.1907 219.346 26.7353C219.671 27.2799 219.833 27.9679 219.833 28.7991C219.833 29.6209 219.671 30.304 219.346 30.8487C219.03 31.3933 218.605 31.8041 218.07 32.0812C217.535 32.3488 216.943 32.4825 216.293 32.4825ZM216.451 31.2786C216.957 31.2786 217.406 31.1735 217.798 30.9633C218.19 30.7531 218.495 30.4617 218.715 30.089C218.944 29.7164 219.059 29.2864 219.059 28.7991C219.059 28.3118 218.944 27.8819 218.715 27.5092C218.495 27.1366 218.19 26.8499 217.798 26.6493C217.406 26.4391 216.957 26.334 216.451 26.334C215.944 26.334 215.49 26.4391 215.089 26.6493C214.697 26.8499 214.387 27.1366 214.157 27.5092C213.938 27.8819 213.828 28.3118 213.828 28.7991C213.828 29.2864 213.938 29.7164 214.157 30.089C214.387 30.4617 214.697 30.7531 215.089 30.9633C215.49 31.1735 215.944 31.2786 216.451 31.2786ZM233.033 32.7979V31.1926L232.961 30.8917V28.1542C232.961 27.5713 232.789 27.1223 232.445 26.8069C232.111 26.4821 231.604 26.3196 230.926 26.3196C230.477 26.3196 230.037 26.3961 229.607 26.549C229.177 26.6923 228.814 26.8882 228.518 27.1366L227.945 26.1047C228.337 25.7894 228.805 25.5505 229.349 25.388C229.904 25.2161 230.482 25.1301 231.084 25.1301C232.125 25.1301 232.928 25.3833 233.491 25.8897C234.055 26.3961 234.337 27.17 234.337 28.2115V32.7979H233.033ZM230.539 32.8838C229.975 32.8838 229.478 32.7883 229.048 32.5972C228.628 32.4061 228.303 32.1433 228.074 31.8089C227.845 31.4649 227.73 31.078 227.73 30.648C227.73 30.2371 227.825 29.8645 228.016 29.5301C228.217 29.1957 228.537 28.9281 228.977 28.7275C229.426 28.5268 230.028 28.4265 230.783 28.4265H233.19V29.4154H230.84C230.152 29.4154 229.689 29.5301 229.45 29.7594C229.211 29.9887 229.091 30.2658 229.091 30.5907C229.091 30.9633 229.24 31.2643 229.536 31.4936C229.832 31.7134 230.243 31.8233 230.768 31.8233C231.284 31.8233 231.733 31.7086 232.116 31.4793C232.507 31.25 232.789 30.9155 232.961 30.476L233.233 31.4219C233.052 31.871 232.732 32.2293 232.273 32.4969C231.815 32.7549 231.236 32.8838 230.539 32.8838ZM245.476 32.8838C244.702 32.8838 244.01 32.7166 243.398 32.3822C242.796 32.0478 242.323 31.5892 241.979 31.0063C241.635 30.4235 241.463 29.7546 241.463 28.9998C241.463 28.245 241.635 27.5761 241.979 26.9933C242.323 26.4104 242.796 25.9566 243.398 25.6317C244.01 25.2973 244.702 25.1301 245.476 25.1301C246.164 25.1301 246.776 25.2686 247.311 25.5457C247.855 25.8132 248.276 26.2145 248.572 26.7496L247.526 27.4232C247.277 27.0506 246.972 26.7783 246.609 26.6063C246.255 26.4248 245.873 26.334 245.462 26.334C244.965 26.334 244.521 26.4439 244.129 26.6636C243.737 26.8834 243.427 27.1939 243.197 27.5952C242.968 27.987 242.853 28.4552 242.853 28.9998C242.853 29.5444 242.968 30.0174 243.197 30.4187C243.427 30.82 243.737 31.1305 244.129 31.3503C244.521 31.5701 244.965 31.6799 245.462 31.6799C245.873 31.6799 246.255 31.5939 246.609 31.4219C246.972 31.2404 247.277 30.9633 247.526 30.5907L248.572 31.25C248.276 31.7755 247.855 32.1816 247.311 32.4682C246.776 32.7453 246.164 32.8838 245.476 32.8838ZM250.972 32.7979V22.1633H252.348V32.7979H250.972ZM259.074 32.8838C258.262 32.8838 257.545 32.7166 256.924 32.3822C256.313 32.0478 255.835 31.5892 255.491 31.0063C255.157 30.4235 254.989 29.7546 254.989 28.9998C254.989 28.245 255.152 27.5761 255.477 26.9933C255.811 26.4104 256.265 25.9566 256.838 25.6317C257.421 25.2973 258.076 25.1301 258.802 25.1301C259.537 25.1301 260.187 25.2925 260.751 25.6174C261.315 25.9422 261.754 26.4009 262.069 26.9933C262.394 27.5761 262.557 28.2593 262.557 29.0428C262.557 29.1001 262.552 29.167 262.542 29.2434C262.542 29.3199 262.538 29.3915 262.528 29.4584H256.064V28.4695H261.812L261.253 28.8135C261.262 28.3262 261.162 27.8914 260.952 27.5092C260.741 27.127 260.45 26.8308 260.077 26.6206C259.714 26.4009 259.289 26.291 258.802 26.291C258.324 26.291 257.899 26.4009 257.526 26.6206C257.154 26.8308 256.862 27.1318 256.652 27.5236C256.442 27.9058 256.337 28.3453 256.337 28.8421V29.0715C256.337 29.5779 256.451 30.0317 256.681 30.433C256.919 30.8248 257.249 31.1305 257.669 31.3503C258.09 31.5701 258.572 31.6799 259.117 31.6799C259.566 31.6799 259.972 31.6035 260.335 31.4506C260.708 31.2977 261.033 31.0684 261.31 30.7627L262.069 31.6513C261.726 32.0526 261.296 32.3583 260.78 32.5685C260.273 32.7787 259.705 32.8838 259.074 32.8838ZM269.689 32.7979V31.1926L269.618 30.8917V28.1542C269.618 27.5713 269.446 27.1223 269.102 26.8069C268.767 26.4821 268.261 26.3196 267.583 26.3196C267.133 26.3196 266.694 26.3961 266.264 26.549C265.834 26.6923 265.471 26.8882 265.175 27.1366L264.601 26.1047C264.993 25.7894 265.461 25.5505 266.006 25.388C266.56 25.2161 267.138 25.1301 267.74 25.1301C268.782 25.1301 269.584 25.3833 270.148 25.8897C270.712 26.3961 270.994 27.17 270.994 28.2115V32.7979H269.689ZM267.196 32.8838C266.632 32.8838 266.135 32.7883 265.705 32.5972C265.285 32.4061 264.96 32.1433 264.73 31.8089C264.501 31.4649 264.386 31.078 264.386 30.648C264.386 30.2371 264.482 29.8645 264.673 29.5301C264.874 29.1957 265.194 28.9281 265.633 28.7275C266.082 28.5268 266.684 28.4265 267.439 28.4265H269.847V29.4154H267.497C266.809 29.4154 266.345 29.5301 266.106 29.7594C265.867 29.9887 265.748 30.2658 265.748 30.5907C265.748 30.9633 265.896 31.2643 266.192 31.4936C266.488 31.7134 266.899 31.8233 267.425 31.8233C267.941 31.8233 268.39 31.7086 268.772 31.4793C269.164 31.25 269.446 30.9155 269.618 30.476L269.89 31.4219C269.708 31.871 269.388 32.2293 268.93 32.4969C268.471 32.7549 267.893 32.8838 267.196 32.8838ZM274.256 32.7979V25.2017H275.575V27.2656L275.446 26.7496C275.656 26.2241 276.01 25.8228 276.507 25.5457C277.003 25.2686 277.615 25.1301 278.341 25.1301V26.463C278.284 26.4534 278.226 26.4486 278.169 26.4486C278.121 26.4486 278.074 26.4486 278.026 26.4486C277.29 26.4486 276.707 26.6684 276.277 27.1079C275.847 27.5474 275.632 28.1828 275.632 29.0141V32.7979H274.256ZM287.409 32.7979L284.084 25.2017H285.517L288.47 32.0812H287.782L290.792 25.2017H292.139L288.814 32.7979H287.409ZM294.14 32.7979V25.2017H295.516V32.7979H294.14ZM294.828 23.7398C294.56 23.7398 294.336 23.6538 294.154 23.4819C293.982 23.3099 293.896 23.0997 293.896 22.8512C293.896 22.5932 293.982 22.3783 294.154 22.2063C294.336 22.0343 294.56 21.9483 294.828 21.9483C295.095 21.9483 295.315 22.0343 295.487 22.2063C295.668 22.3687 295.759 22.5741 295.759 22.8226C295.759 23.0805 295.673 23.3003 295.501 23.4819C295.329 23.6538 295.105 23.7398 294.828 23.7398ZM301.038 32.8838C300.407 32.8838 299.805 32.7979 299.232 32.6259C298.668 32.4539 298.224 32.2437 297.899 31.9952L298.472 30.906C298.797 31.1257 299.198 31.3121 299.676 31.4649C300.154 31.6178 300.641 31.6943 301.138 31.6943C301.778 31.6943 302.237 31.6035 302.514 31.4219C302.801 31.2404 302.944 30.9872 302.944 30.6623C302.944 30.4235 302.858 30.2371 302.686 30.1034C302.514 29.9696 302.285 29.8693 301.998 29.8024C301.721 29.7355 301.41 29.6782 301.066 29.6304C300.722 29.5731 300.379 29.5062 300.035 29.4298C299.691 29.3438 299.375 29.2291 299.089 29.0858C298.802 28.9329 298.573 28.7275 298.401 28.4695C298.229 28.202 298.143 27.8484 298.143 27.4089C298.143 26.9503 298.272 26.549 298.53 26.205C298.788 25.861 299.151 25.5983 299.619 25.4167C300.097 25.2256 300.66 25.1301 301.31 25.1301C301.807 25.1301 302.309 25.1922 302.815 25.3164C303.331 25.431 303.751 25.5983 304.076 25.818L303.489 26.9073C303.145 26.678 302.786 26.5203 302.414 26.4343C302.041 26.3483 301.668 26.3053 301.296 26.3053C300.694 26.3053 300.245 26.4056 299.949 26.6063C299.652 26.7974 299.504 27.0458 299.504 27.3516C299.504 27.6096 299.59 27.8102 299.762 27.9535C299.944 28.0873 300.173 28.1924 300.45 28.2688C300.737 28.3453 301.052 28.4122 301.396 28.4695C301.74 28.5173 302.084 28.5842 302.428 28.6701C302.772 28.7466 303.083 28.8565 303.36 28.9998C303.646 29.1431 303.876 29.3438 304.048 29.6017C304.229 29.8597 304.32 30.2037 304.32 30.6337C304.32 31.0923 304.186 31.4888 303.919 31.8233C303.651 32.1577 303.274 32.4204 302.786 32.6115C302.299 32.7931 301.716 32.8838 301.038 32.8838ZM306.756 32.7979V25.2017H308.132V32.7979H306.756ZM307.444 23.7398C307.176 23.7398 306.952 23.6538 306.77 23.4819C306.598 23.3099 306.512 23.0997 306.512 22.8512C306.512 22.5932 306.598 22.3783 306.77 22.2063C306.952 22.0343 307.176 21.9483 307.444 21.9483C307.712 21.9483 307.931 22.0343 308.103 22.2063C308.285 22.3687 308.376 22.5741 308.376 22.8226C308.376 23.0805 308.29 23.3003 308.118 23.4819C307.946 23.6538 307.721 23.7398 307.444 23.7398ZM314.729 32.8838C313.965 32.8838 313.286 32.7166 312.694 32.3822C312.102 32.0478 311.633 31.5892 311.289 31.0063C310.945 30.4139 310.773 29.7451 310.773 28.9998C310.773 28.245 310.945 27.5761 311.289 26.9933C311.633 26.4104 312.102 25.9566 312.694 25.6317C313.286 25.2973 313.965 25.1301 314.729 25.1301C315.484 25.1301 316.158 25.2973 316.75 25.6317C317.352 25.9566 317.82 26.4104 318.155 26.9933C318.498 27.5666 318.67 28.2354 318.67 28.9998C318.67 29.7546 318.498 30.4235 318.155 31.0063C317.82 31.5892 317.352 32.0478 316.75 32.3822C316.158 32.7166 315.484 32.8838 314.729 32.8838ZM314.729 31.6799C315.216 31.6799 315.651 31.5701 316.033 31.3503C316.425 31.1305 316.731 30.82 316.951 30.4187C317.17 30.0078 317.28 29.5349 317.28 28.9998C317.28 28.4552 317.17 27.987 316.951 27.5952C316.731 27.1939 316.425 26.8834 316.033 26.6636C315.651 26.4439 315.216 26.334 314.729 26.334C314.242 26.334 313.807 26.4439 313.425 26.6636C313.043 26.8834 312.737 27.1939 312.508 27.5952C312.278 27.987 312.164 28.4552 312.164 28.9998C312.164 29.5349 312.278 30.0078 312.508 30.4187C312.737 30.82 313.043 31.1305 313.425 31.3503C313.807 31.5701 314.242 31.6799 314.729 31.6799ZM325.346 25.1301C325.967 25.1301 326.512 25.2495 326.98 25.4884C327.458 25.7272 327.83 26.0903 328.098 26.5776C328.365 27.0649 328.499 27.6812 328.499 28.4265V32.7979H327.123V28.5842C327.123 27.8484 326.942 27.2942 326.579 26.9216C326.225 26.549 325.723 26.3626 325.074 26.3626C324.586 26.3626 324.161 26.4582 323.798 26.6493C323.435 26.8404 323.153 27.1223 322.952 27.4949C322.761 27.8675 322.666 28.3309 322.666 28.8851V32.7979H321.29V25.2017H322.608V27.2512L322.394 26.7066C322.642 26.2098 323.024 25.8228 323.54 25.5457C324.056 25.2686 324.658 25.1301 325.346 25.1301ZM50.1055 56.7979V55.1926L50.0338 54.8917V52.1542C50.0338 51.5713 49.8619 51.1223 49.5179 50.8069C49.1835 50.4821 48.6771 50.3196 47.9987 50.3196C47.5496 50.3196 47.1101 50.3961 46.6801 50.549C46.2501 50.6923 45.887 50.8882 45.5908 51.1366L45.0175 50.1047C45.4093 49.7894 45.8775 49.5505 46.4221 49.388C46.9763 49.2161 47.5544 49.1301 48.1563 49.1301C49.1978 49.1301 50.0004 49.3833 50.5641 49.8897C51.1279 50.3961 51.4097 51.17 51.4097 52.2115V56.7979H50.1055ZM47.6117 56.8838C47.0479 56.8838 46.5511 56.7883 46.1211 56.5972C45.7007 56.4061 45.3758 56.1433 45.1465 55.8089C44.9172 55.4649 44.8026 55.078 44.8026 54.648C44.8026 54.2371 44.8981 53.8645 45.0892 53.5301C45.2899 53.1957 45.6099 52.9281 46.0495 52.7275C46.4985 52.5268 47.1005 52.4265 47.8553 52.4265H50.2632V53.4154H47.9127C47.2247 53.4154 46.7613 53.5301 46.5224 53.7594C46.2836 53.9887 46.1641 54.2658 46.1641 54.5907C46.1641 54.9633 46.3122 55.2643 46.6084 55.4936C46.9046 55.7134 47.3155 55.8233 47.841 55.8233C48.357 55.8233 48.806 55.7086 49.1882 55.4793C49.58 55.25 49.8619 54.9155 50.0338 54.476L50.3062 55.4219C50.1246 55.871 49.8045 56.2293 49.3459 56.4969C48.8873 56.7549 48.3092 56.8838 47.6117 56.8838ZM57.2811 56.8838C56.5167 56.8838 55.9243 56.6784 55.5039 56.2676C55.0834 55.8567 54.8732 55.2691 54.8732 54.5047V47.5392H56.2491V54.4474C56.2491 54.8582 56.3495 55.1735 56.5501 55.3933C56.7603 55.613 57.0565 55.7229 57.4387 55.7229C57.8687 55.7229 58.227 55.6035 58.5136 55.3646L58.9436 56.3535C58.7334 56.5351 58.4802 56.6689 58.184 56.7549C57.8974 56.8408 57.5964 56.8838 57.2811 56.8838ZM53.5833 50.334V49.2017H58.4277V50.334H53.5833ZM69.9453 49.1301C70.5664 49.1301 71.111 49.2495 71.5792 49.4884C72.057 49.7272 72.4296 50.0903 72.6971 50.5776C72.9647 51.0649 73.0985 51.6812 73.0985 52.4265V56.7979H71.7225V52.5842C71.7225 51.8484 71.541 51.2942 71.1779 50.9216C70.8244 50.549 70.3228 50.3626 69.673 50.3626C69.1857 50.3626 68.7605 50.4582 68.3975 50.6493C68.0344 50.8404 67.7525 51.1223 67.5518 51.4949C67.3607 51.8675 67.2652 52.3309 67.2652 52.8851V56.7979H65.8893V49.2017H67.2079V51.2512L66.9929 50.7066C67.2413 50.2098 67.6235 49.8228 68.1395 49.5457C68.6554 49.2686 69.2574 49.1301 69.9453 49.1301ZM76.3614 56.7979V49.2017H77.7373V56.7979H76.3614ZM77.0494 47.7398C76.7818 47.7398 76.5573 47.6538 76.3757 47.4819C76.2037 47.3099 76.1178 47.0997 76.1178 46.8512C76.1178 46.5932 76.2037 46.3783 76.3757 46.2063C76.5573 46.0343 76.7818 45.9483 77.0494 45.9483C77.3169 45.9483 77.5367 46.0343 77.7086 46.2063C77.8902 46.3687 77.981 46.5741 77.981 46.8226C77.981 47.0805 77.895 47.3003 77.723 47.4819C77.551 47.6538 77.3264 47.7398 77.0494 47.7398ZM84.4061 59.6643C83.7086 59.6643 83.0302 59.564 82.3709 59.3633C81.7212 59.1722 81.1909 58.8951 80.78 58.5321L81.4393 57.4715C81.7928 57.7772 82.2276 58.0161 82.7435 58.1881C83.2595 58.3696 83.7993 58.4604 84.3631 58.4604C85.2612 58.4604 85.9205 58.2502 86.3409 57.8298C86.7614 57.4094 86.9716 56.7692 86.9716 55.9092V54.304L87.1149 52.7991L87.0432 51.2799V49.2017H88.3475V55.7659C88.3475 57.1036 88.013 58.0878 87.3442 58.7184C86.6754 59.349 85.696 59.6643 84.4061 59.6643ZM84.2341 56.4825C83.4984 56.4825 82.8391 56.3297 82.2562 56.0239C81.6829 55.7086 81.2243 55.2738 80.8803 54.7197C80.5459 54.1655 80.3787 53.5253 80.3787 52.7991C80.3787 52.0634 80.5459 51.4232 80.8803 50.8786C81.2243 50.3244 81.6829 49.8945 82.2562 49.5887C82.8391 49.2829 83.4984 49.1301 84.2341 49.1301C84.8838 49.1301 85.4762 49.2638 86.0113 49.5314C86.5464 49.7894 86.9716 50.1907 87.2869 50.7353C87.6117 51.2799 87.7742 51.9679 87.7742 52.7991C87.7742 53.6209 87.6117 54.304 87.2869 54.8487C86.9716 55.3933 86.5464 55.8041 86.0113 56.0812C85.4762 56.3488 84.8838 56.4825 84.2341 56.4825ZM84.3917 55.2786C84.8982 55.2786 85.3472 55.1735 85.739 54.9633C86.1307 54.7531 86.4365 54.4617 86.6563 54.089C86.8856 53.7164 87.0002 53.2864 87.0002 52.7991C87.0002 52.3118 86.8856 51.8819 86.6563 51.5092C86.4365 51.1366 86.1307 50.8499 85.739 50.6493C85.3472 50.4391 84.8982 50.334 84.3917 50.334C83.8853 50.334 83.4315 50.4391 83.0302 50.6493C82.6384 50.8499 82.3279 51.1366 82.0986 51.5092C81.8788 51.8819 81.7689 52.3118 81.7689 52.7991C81.7689 53.2864 81.8788 53.7164 82.0986 54.089C82.3279 54.4617 82.6384 54.7531 83.0302 54.9633C83.4315 55.1735 83.8853 55.2786 84.3917 55.2786ZM95.7491 49.1301C96.3702 49.1301 96.9148 49.2495 97.383 49.4884C97.8607 49.7272 98.2334 50.0903 98.5009 50.5776C98.7684 51.0649 98.9022 51.6812 98.9022 52.4265V56.7979H97.5263V52.5842C97.5263 51.8484 97.3448 51.2942 96.9817 50.9216C96.6281 50.549 96.1265 50.3626 95.4768 50.3626C94.9895 50.3626 94.5643 50.4582 94.2012 50.6493C93.8381 50.8404 93.5563 51.1223 93.3556 51.4949C93.1645 51.8675 93.069 52.3309 93.069 52.8851V56.7979H91.6931V46.1633H93.069V51.2512L92.7966 50.7066C93.0451 50.2098 93.4273 49.8228 93.9432 49.5457C94.4592 49.2686 95.0611 49.1301 95.7491 49.1301ZM104.774 56.8838C104.009 56.8838 103.417 56.6784 102.996 56.2676C102.576 55.8567 102.366 55.2691 102.366 54.5047V47.5392H103.742V54.4474C103.742 54.8582 103.842 55.1735 104.043 55.3933C104.253 55.613 104.549 55.7229 104.931 55.7229C105.361 55.7229 105.72 55.6035 106.006 55.3646L106.436 56.3535C106.226 56.5351 105.973 56.6689 105.677 56.7549C105.39 56.8408 105.089 56.8838 104.774 56.8838ZM101.076 50.334V49.2017H105.92V50.334H101.076ZM110.995 56.8838C110.364 56.8838 109.762 56.7979 109.189 56.6259C108.625 56.4539 108.181 56.2437 107.856 55.9952L108.429 54.906C108.754 55.1257 109.155 55.3121 109.633 55.4649C110.111 55.6178 110.598 55.6943 111.095 55.6943C111.735 55.6943 112.194 55.6035 112.471 55.4219C112.758 55.2404 112.901 54.9872 112.901 54.6623C112.901 54.4235 112.815 54.2371 112.643 54.1034C112.471 53.9696 112.242 53.8693 111.955 53.8024C111.678 53.7355 111.367 53.6782 111.023 53.6304C110.679 53.5731 110.335 53.5062 109.991 53.4298C109.648 53.3438 109.332 53.2291 109.046 53.0858C108.759 52.9329 108.53 52.7275 108.358 52.4695C108.186 52.202 108.1 51.8484 108.1 51.4089C108.1 50.9503 108.229 50.549 108.487 50.205C108.745 49.861 109.108 49.5983 109.576 49.4167C110.054 49.2256 110.617 49.1301 111.267 49.1301C111.764 49.1301 112.266 49.1922 112.772 49.3164C113.288 49.431 113.708 49.5983 114.033 49.818L113.446 50.9073C113.102 50.678 112.743 50.5203 112.371 50.4343C111.998 50.3483 111.625 50.3053 111.253 50.3053C110.651 50.3053 110.202 50.4056 109.905 50.6063C109.609 50.7974 109.461 51.0458 109.461 51.3516C109.461 51.6096 109.547 51.8102 109.719 51.9535C109.901 52.0873 110.13 52.1924 110.407 52.2688C110.694 52.3453 111.009 52.4122 111.353 52.4695C111.697 52.5173 112.041 52.5842 112.385 52.6701C112.729 52.7466 113.039 52.8565 113.317 52.9998C113.603 53.1431 113.833 53.3438 114.005 53.6017C114.186 53.8597 114.277 54.2037 114.277 54.6337C114.277 55.0923 114.143 55.4888 113.876 55.8233C113.608 56.1577 113.231 56.4204 112.743 56.6115C112.256 56.7931 111.673 56.8838 110.995 56.8838ZM122.884 56.7979L120.06 49.2017H121.365L123.873 56.0812H123.256L125.865 49.2017H127.026L129.577 56.0812H128.975L131.541 49.2017H132.773L129.935 56.7979H128.617L126.223 50.5203H126.625L124.202 56.7979H122.884ZM134.886 56.7979V49.2017H136.262V56.7979H134.886ZM135.574 47.7398C135.306 47.7398 135.082 47.6538 134.9 47.4819C134.728 47.3099 134.642 47.0997 134.642 46.8512C134.642 46.5932 134.728 46.3783 134.9 46.2063C135.082 46.0343 135.306 45.9483 135.574 45.9483C135.841 45.9483 136.061 46.0343 136.233 46.2063C136.415 46.3687 136.505 46.5741 136.505 46.8226C136.505 47.0805 136.419 47.3003 136.247 47.4819C136.076 47.6538 135.851 47.7398 135.574 47.7398ZM142.214 56.8838C141.45 56.8838 140.857 56.6784 140.437 56.2676C140.016 55.8567 139.806 55.2691 139.806 54.5047V47.5392H141.182V54.4474C141.182 54.8582 141.282 55.1735 141.483 55.3933C141.693 55.613 141.989 55.7229 142.372 55.7229C142.802 55.7229 143.16 55.6035 143.447 55.3646L143.877 56.3535C143.666 56.5351 143.413 56.6689 143.117 56.7549C142.83 56.8408 142.529 56.8838 142.214 56.8838ZM138.516 50.334V49.2017H143.361V50.334H138.516ZM150.313 49.1301C150.934 49.1301 151.478 49.2495 151.947 49.4884C152.424 49.7272 152.797 50.0903 153.064 50.5776C153.332 51.0649 153.466 51.6812 153.466 52.4265V56.7979H152.09V52.5842C152.09 51.8484 151.908 51.2942 151.545 50.9216C151.192 50.549 150.69 50.3626 150.04 50.3626C149.553 50.3626 149.128 50.4582 148.765 50.6493C148.402 50.8404 148.12 51.1223 147.919 51.4949C147.728 51.8675 147.633 52.3309 147.633 52.8851V56.7979H146.257V46.1633H147.633V51.2512L147.36 50.7066C147.609 50.2098 147.991 49.8228 148.507 49.5457C149.023 49.2686 149.625 49.1301 150.313 49.1301ZM166.01 56.7979V55.1926L165.938 54.8917V52.1542C165.938 51.5713 165.766 51.1223 165.422 50.8069C165.088 50.4821 164.581 50.3196 163.903 50.3196C163.454 50.3196 163.014 50.3961 162.584 50.549C162.154 50.6923 161.791 50.8882 161.495 51.1366L160.922 50.1047C161.313 49.7894 161.782 49.5505 162.326 49.388C162.88 49.2161 163.459 49.1301 164.06 49.1301C165.102 49.1301 165.905 49.3833 166.468 49.8897C167.032 50.3961 167.314 51.17 167.314 52.2115V56.7979H166.01ZM163.516 56.8838C162.952 56.8838 162.455 56.7883 162.025 56.5972C161.605 56.4061 161.28 56.1433 161.051 55.8089C160.821 55.4649 160.707 55.078 160.707 54.648C160.707 54.2371 160.802 53.8645 160.993 53.5301C161.194 53.1957 161.514 52.9281 161.954 52.7275C162.403 52.5268 163.005 52.4265 163.759 52.4265H166.167V53.4154H163.817C163.129 53.4154 162.665 53.5301 162.427 53.7594C162.188 53.9887 162.068 54.2658 162.068 54.5907C162.068 54.9633 162.216 55.2643 162.513 55.4936C162.809 55.7134 163.22 55.8233 163.745 55.8233C164.261 55.8233 164.71 55.7086 165.092 55.4793C165.484 55.25 165.766 54.9155 165.938 54.476L166.21 55.4219C166.029 55.871 165.709 56.2293 165.25 56.4969C164.791 56.7549 164.213 56.8838 163.516 56.8838ZM179.17 56.8838C178.539 56.8838 177.961 56.7405 177.436 56.4539C176.92 56.1577 176.504 55.7229 176.189 55.1496C175.883 54.5763 175.73 53.8597 175.73 52.9998C175.73 52.1399 175.878 51.4232 176.174 50.8499C176.48 50.2767 176.891 49.8467 177.407 49.56C177.932 49.2734 178.52 49.1301 179.17 49.1301C179.915 49.1301 180.574 49.2925 181.148 49.6174C181.721 49.9422 182.175 50.3961 182.509 50.9789C182.844 51.5522 183.011 52.2258 183.011 52.9998C183.011 53.7737 182.844 54.4521 182.509 55.035C182.175 55.6178 181.721 56.0717 181.148 56.3965C180.574 56.7214 179.915 56.8838 179.17 56.8838ZM175.142 59.5783V49.2017H176.461V51.2512L176.375 53.0141L176.518 54.777V59.5783H175.142ZM179.055 55.6799C179.542 55.6799 179.977 55.5701 180.359 55.3503C180.751 55.1305 181.057 54.82 181.277 54.4187C181.506 54.0078 181.621 53.5349 181.621 52.9998C181.621 52.4552 181.506 51.987 181.277 51.5952C181.057 51.1939 180.751 50.8834 180.359 50.6636C179.977 50.4439 179.542 50.334 179.055 50.334C178.577 50.334 178.143 50.4439 177.751 50.6636C177.369 50.8834 177.063 51.1939 176.834 51.5952C176.614 51.987 176.504 52.4552 176.504 52.9998C176.504 53.5349 176.614 54.0078 176.834 54.4187C177.063 54.82 177.369 55.1305 177.751 55.3503C178.143 55.5701 178.577 55.6799 179.055 55.6799ZM188.882 56.8838C188.118 56.8838 187.439 56.7166 186.847 56.3822C186.254 56.0478 185.786 55.5892 185.442 55.0063C185.098 54.4139 184.926 53.7451 184.926 52.9998C184.926 52.245 185.098 51.5761 185.442 50.9933C185.786 50.4104 186.254 49.9566 186.847 49.6317C187.439 49.2973 188.118 49.1301 188.882 49.1301C189.637 49.1301 190.31 49.2973 190.903 49.6317C191.505 49.9566 191.973 50.4104 192.307 50.9933C192.651 51.5666 192.823 52.2354 192.823 52.9998C192.823 53.7546 192.651 54.4235 192.307 55.0063C191.973 55.5892 191.505 56.0478 190.903 56.3822C190.31 56.7166 189.637 56.8838 188.882 56.8838ZM188.882 55.6799C189.369 55.6799 189.804 55.5701 190.186 55.3503C190.578 55.1305 190.884 54.82 191.103 54.4187C191.323 54.0078 191.433 53.5349 191.433 52.9998C191.433 52.4552 191.323 51.987 191.103 51.5952C190.884 51.1939 190.578 50.8834 190.186 50.6636C189.804 50.4439 189.369 50.334 188.882 50.334C188.395 50.334 187.96 50.4439 187.578 50.6636C187.195 50.8834 186.89 51.1939 186.66 51.5952C186.431 51.987 186.316 52.4552 186.316 52.9998C186.316 53.5349 186.431 54.0078 186.66 54.4187C186.89 54.82 187.195 55.1305 187.578 55.3503C187.96 55.5701 188.395 55.6799 188.882 55.6799ZM196.838 56.7979L194.015 49.2017H195.319L197.827 56.0812H197.211L199.819 49.2017H200.98L203.531 56.0812H202.929L205.495 49.2017H206.727L203.889 56.7979H202.571L200.177 50.5203H200.579L198.157 56.7979H196.838ZM212.013 56.8838C211.2 56.8838 210.484 56.7166 209.863 56.3822C209.251 56.0478 208.773 55.5892 208.429 55.0063C208.095 54.4235 207.928 53.7546 207.928 52.9998C207.928 52.245 208.09 51.5761 208.415 50.9933C208.75 50.4104 209.203 49.9566 209.777 49.6317C210.36 49.2973 211.014 49.1301 211.74 49.1301C212.476 49.1301 213.126 49.2925 213.689 49.6174C214.253 49.9422 214.693 50.4009 215.008 50.9933C215.333 51.5761 215.495 52.2593 215.495 53.0428C215.495 53.1001 215.491 53.167 215.481 53.2434C215.481 53.3199 215.476 53.3915 215.467 53.4584H209.003V52.4695H214.75L214.191 52.8135C214.201 52.3262 214.1 51.8914 213.89 51.5092C213.68 51.127 213.388 50.8308 213.016 50.6206C212.653 50.4009 212.228 50.291 211.74 50.291C211.263 50.291 210.837 50.4009 210.465 50.6206C210.092 50.8308 209.801 51.1318 209.59 51.5236C209.38 51.9058 209.275 52.3453 209.275 52.8421V53.0715C209.275 53.5779 209.39 54.0317 209.619 54.433C209.858 54.8248 210.188 55.1305 210.608 55.3503C211.028 55.5701 211.511 55.6799 212.056 55.6799C212.505 55.6799 212.911 55.6035 213.274 55.4506C213.646 55.2977 213.971 55.0684 214.248 54.7627L215.008 55.6513C214.664 56.0526 214.234 56.3583 213.718 56.5685C213.212 56.7787 212.643 56.8838 212.013 56.8838ZM218.122 56.7979V49.2017H219.441V51.2656L219.312 50.7496C219.522 50.2241 219.876 49.8228 220.373 49.5457C220.87 49.2686 221.481 49.1301 222.207 49.1301V50.463C222.15 50.4534 222.093 50.4486 222.035 50.4486C221.987 50.4486 221.94 50.4486 221.892 50.4486C221.156 50.4486 220.573 50.6684 220.143 51.1079C219.713 51.5474 219.498 52.1828 219.498 53.0141V56.7979H218.122ZM224.918 56.7979V48.5281C224.918 47.7828 225.133 47.1904 225.563 46.7509C226.003 46.3018 226.624 46.0773 227.426 46.0773C227.723 46.0773 228.004 46.1155 228.272 46.1919C228.549 46.2588 228.783 46.3687 228.974 46.5216L228.559 47.5678C228.415 47.4532 228.253 47.3672 228.071 47.3099C227.89 47.243 227.699 47.2095 227.498 47.2095C227.097 47.2095 226.791 47.3242 226.581 47.5535C226.371 47.7733 226.265 48.1029 226.265 48.5424V49.56L226.294 50.1907V56.7979H224.918ZM223.628 50.334V49.2017H228.473V50.334H223.628ZM233.683 56.8838C233.033 56.8838 232.46 56.7644 231.963 56.5255C231.476 56.2867 231.094 55.9236 230.817 55.4363C230.549 54.9394 230.415 54.3184 230.415 53.5731V49.2017H231.791V53.4154C231.791 54.1607 231.968 54.7197 232.321 55.0923C232.685 55.4649 233.191 55.6513 233.841 55.6513C234.318 55.6513 234.734 55.5557 235.088 55.3646C235.441 55.164 235.713 54.8773 235.905 54.5047C236.096 54.1225 236.191 53.6639 236.191 53.1288V49.2017H237.567V56.7979H236.263V54.7483L236.478 55.293C236.229 55.7994 235.857 56.1911 235.36 56.4682C234.863 56.7453 234.304 56.8838 233.683 56.8838ZM240.903 56.7979V46.1633H242.279V56.7979H240.903ZM252.639 56.9125C251.932 56.9125 251.244 56.8026 250.575 56.5829C249.916 56.3631 249.376 56.0669 248.956 55.6943L249.615 54.562C249.949 54.8773 250.384 55.1353 250.919 55.336C251.454 55.5366 252.028 55.6369 252.639 55.6369C253.384 55.6369 253.962 55.4793 254.373 55.164C254.794 54.8391 255.004 54.4044 255.004 53.8597C255.004 53.3342 254.803 52.9138 254.402 52.5985C254.01 52.2736 253.384 52.1112 252.524 52.1112H251.722V51.1079L254.703 47.4389L254.904 48.0121H249.414V46.7652H256.036V47.7398L253.069 51.3946L252.324 50.9503H252.797C254.01 50.9503 254.918 51.2226 255.52 51.7672C256.131 52.3118 256.437 53.0046 256.437 53.8454C256.437 54.4091 256.299 54.9251 256.021 55.3933C255.744 55.8615 255.324 56.2341 254.76 56.5112C254.206 56.7787 253.499 56.9125 252.639 56.9125ZM261.59 56.9125C260.883 56.9125 260.195 56.8026 259.526 56.5829C258.866 56.3631 258.327 56.0669 257.906 55.6943L258.565 54.562C258.9 54.8773 259.335 55.1353 259.87 55.336C260.405 55.5366 260.973 55.6369 261.575 55.6369C262.34 55.6369 262.927 55.4745 263.338 55.1496C263.749 54.8248 263.954 54.39 263.954 53.8454C263.954 53.4728 263.864 53.1479 263.682 52.8708C263.501 52.5937 263.185 52.3835 262.736 52.2402C262.297 52.0873 261.69 52.0109 260.916 52.0109H258.637L259.167 46.7652H264.829V48.0121H259.698L260.443 47.3099L260.027 51.4519L259.282 50.7639H261.217C262.22 50.7639 263.028 50.8929 263.639 51.1509C264.251 51.4089 264.695 51.7672 264.972 52.2258C265.249 52.6749 265.388 53.1957 265.388 53.7881C265.388 54.3614 265.249 54.8869 264.972 55.3646C264.695 55.8328 264.275 56.2102 263.711 56.4969C263.157 56.774 262.45 56.9125 261.59 56.9125ZM270.323 56.7979L266.97 46.7652H268.446L271.527 56.0239H270.782L273.978 46.7652H275.297L278.421 56.0239H277.705L280.829 46.7652H282.191L278.837 56.7979H277.332L274.408 48.2128H274.795L271.857 56.7979H270.323ZM289.436 56.7979V46.7652H290.869V55.5509H296.301V56.7979H289.436ZM299.967 51.0936H305.126V52.3118H299.967V51.0936ZM300.096 55.5509H305.943V56.7979H298.662V46.7652H305.743V48.0121H300.096V55.5509ZM308.981 56.7979V46.7652H313.209C314.279 46.7652 315.22 46.9754 316.032 47.3959C316.854 47.8163 317.489 48.4039 317.938 49.1587C318.397 49.9136 318.626 50.7878 318.626 51.7815C318.626 52.7753 318.397 53.6495 317.938 54.4044C317.489 55.1592 316.854 55.7468 316.032 56.1672C315.22 56.5876 314.279 56.7979 313.209 56.7979H308.981ZM310.414 55.5509H313.123C313.954 55.5509 314.671 55.3933 315.272 55.078C315.884 54.7627 316.357 54.3231 316.691 53.7594C317.026 53.1861 317.193 52.5268 317.193 51.7815C317.193 51.0267 317.026 50.3674 316.691 49.8037C316.357 49.2399 315.884 48.8004 315.272 48.4851C314.671 48.1698 313.954 48.0121 313.123 48.0121H310.414V55.5509ZM321.387 56.8838C321.12 56.8838 320.89 56.7931 320.699 56.6115C320.508 56.4204 320.413 56.1816 320.413 55.8949C320.413 55.6083 320.508 55.3742 320.699 55.1926C320.89 55.0111 321.12 54.9203 321.387 54.9203C321.645 54.9203 321.865 55.0111 322.047 55.1926C322.238 55.3742 322.333 55.6083 322.333 55.8949C322.333 56.1816 322.238 56.4204 322.047 56.6115C321.865 56.7931 321.645 56.8838 321.387 56.8838Z" fill="#141414"/>
</svg>
