<svg width="1260" height="145" viewBox="0 0 1260 145" fill="none" xmlns="http://www.w3.org/2000/svg">
<path d="M91.4101 41.0193L94.1132 43.3993L99.3799 37.4176H91.4101V41.0193ZM49.5766 88.5321L47.0299 91.0788L49.7437 93.7926L52.2798 90.9121L49.5766 88.5321ZM48.0529 87.0084L50.5996 84.4616L47.8887 81.7507L45.3522 84.6254L48.0529 87.0084ZM25.1969 112.912L21.6427 113.495L22.8724 120.99L27.8975 115.295L25.1969 112.912ZM22.2879 95.1811L19.5667 92.8218L18.4604 94.0977L18.7338 95.7642L22.2879 95.1811ZM69.2467 41.0193V37.4176H67.6025L66.5254 38.6599L69.2467 41.0193ZM31.7074 41.0193H35.309V37.4176H31.7074V41.0193ZM31.7074 132.443V136.045H35.309V132.443H31.7074ZM12.5914 132.443H8.98979V136.045H12.5914V132.443ZM12.5914 41.0193V37.4176H8.98979V41.0193H12.5914ZM54.8404 72.6021L57.8883 70.6831L55.8376 67.4262L52.7237 69.6882L54.8404 72.6021ZM92.5182 132.443V136.045H99.042L95.5661 130.524L92.5182 132.443ZM70.6319 132.443L67.5704 134.341L68.6267 136.045H70.6319V132.443ZM40.1572 83.2683L38.0404 80.3543L35.333 82.321L37.0957 85.1655L40.1572 83.2683ZM88.7069 38.6392L46.8735 86.152L52.2798 90.9121L94.1132 43.3993L88.7069 38.6392ZM52.1234 85.9853L50.5996 84.4616L45.5061 89.5551L47.0299 91.0788L52.1234 85.9853ZM45.3522 84.6254L22.4962 110.529L27.8975 115.295L50.7535 89.3913L45.3522 84.6254ZM28.751 112.329L25.842 94.598L18.7338 95.7642L21.6427 113.495L28.751 112.329ZM25.0092 97.5405L71.9679 43.3786L66.5254 38.6599L19.5667 92.8218L25.0092 97.5405ZM69.2467 44.6209H91.4101V37.4176H69.2467V44.6209ZM28.1057 41.0193V132.443H35.309V41.0193H28.1057ZM31.7074 128.842H12.5914V136.045H31.7074V128.842ZM16.1931 132.443V41.0193H8.98979V132.443H16.1931ZM12.5914 44.6209H31.7074V37.4176H12.5914V44.6209ZM51.7926 74.5211L89.4704 134.362L95.5661 130.524L57.8883 70.6831L51.7926 74.5211ZM92.5182 128.842H70.6319V136.045H92.5182V128.842ZM73.6933 130.546L43.2186 81.3711L37.0957 85.1655L67.5704 134.341L73.6933 130.546ZM42.2739 86.1822L56.9572 75.5161L52.7237 69.6882L38.0404 80.3543L42.2739 86.1822ZM189.305 41.0193H192.906V37.4176H189.305V41.0193ZM189.305 132.443V136.045H192.906V132.443H189.305ZM167.418 132.443L164.324 134.286L165.371 136.045H167.418V132.443ZM135.42 78.6971L132.235 80.3782L132.278 80.46L132.325 80.5395L135.42 78.6971ZM127.524 63.7368L130.709 62.0557L129.696 60.1351H127.524V63.7368ZM127.386 63.7368V60.1351H123.655L123.786 63.8631L127.386 63.7368ZM127.94 79.5282H131.541V79.465L131.539 79.4019L127.94 79.5282ZM127.94 132.443V136.045H131.541V132.443H127.94ZM110.763 132.443H107.161V136.045H110.763V132.443ZM110.763 41.0193V37.4176H107.161V41.0193H110.763ZM132.511 41.0193L135.603 39.1733L134.556 37.4176H132.511V41.0193ZM164.509 94.627L167.701 92.958L167.654 92.8682L167.602 92.7811L164.509 94.627ZM172.405 109.726L169.213 111.395L170.224 113.327H172.405V109.726ZM172.682 109.726V113.327H176.412L176.281 109.6L172.682 109.726ZM172.128 93.9344H168.526V93.9976L168.529 94.0607L172.128 93.9344ZM172.128 41.0193V37.4176H168.526V41.0193H172.128ZM185.703 41.0193V132.443H192.906V41.0193H185.703ZM189.305 128.842H167.418V136.045H189.305V128.842ZM170.513 130.601L138.515 76.8546L132.325 80.5395L164.324 134.286L170.513 130.601ZM138.605 77.016L130.709 62.0557L124.339 65.4179L132.235 80.3782L138.605 77.016ZM127.524 60.1351H127.386V67.3384H127.524V60.1351ZM123.786 63.8631L124.34 79.6545L131.539 79.4019L130.985 63.6105L123.786 63.8631ZM124.338 79.5282V132.443H131.541V79.5282H124.338ZM127.94 128.842H110.763V136.045H127.94V128.842ZM114.365 132.443V41.0193H107.161V132.443H114.365ZM110.763 44.6209H132.511V37.4176H110.763V44.6209ZM129.418 42.8652L161.417 96.473L167.602 92.7811L135.603 39.1733L129.418 42.8652ZM161.318 96.296L169.213 111.395L175.597 108.057L167.701 92.958L161.318 96.296ZM172.405 113.327H172.682V106.124H172.405V113.327ZM176.281 109.6L175.727 93.8081L168.529 94.0607L169.083 109.852L176.281 109.6ZM175.73 93.9344V41.0193H168.526V93.9344H175.73ZM172.128 44.6209H189.305V37.4176H172.128V44.6209ZM280.21 45.3134L282.011 42.1945L282.011 42.1945L280.21 45.3134ZM295.309 61.5204L292.088 63.1311L292.096 63.148L292.105 63.1648L295.309 61.5204ZM295.309 111.942L292.105 110.298L292.096 110.315L292.088 110.331L295.309 111.942ZM280.21 128.149L282.011 131.268L282.011 131.268L280.21 128.149ZM233.252 128.149L231.451 131.268L231.46 131.274L231.469 131.279L233.252 128.149ZM218.014 111.942L214.793 113.553L214.801 113.57L214.81 113.587L218.014 111.942ZM218.014 61.5204L214.81 59.8761L214.801 59.8929L214.793 59.9097L218.014 61.5204ZM233.252 45.3134L231.469 42.1837L231.46 42.189L231.451 42.1945L233.252 45.3134ZM235.329 69.5547L231.999 68.1833L231.992 68.2002L231.985 68.217L235.329 69.5547ZM235.329 103.908L231.976 105.223L231.987 105.251L231.999 105.279L235.329 103.908ZM243.641 114.574L245.639 111.577L245.639 111.577L243.641 114.574ZM269.821 114.574L271.819 117.571L271.819 117.571L269.821 114.574ZM277.994 103.908L274.664 102.537L274.652 102.565L274.641 102.593L277.994 103.908ZM277.994 69.5547L274.641 70.8696L274.657 70.9097L274.673 70.9493L277.994 69.5547ZM269.821 58.8885L271.819 55.8918L271.819 55.8918L269.821 58.8885ZM256.8 43.2357C265.342 43.2357 272.498 45.019 278.409 48.4324L282.011 42.1945C274.809 38.0354 266.359 36.0324 256.8 36.0324V43.2357ZM278.409 48.4324C284.332 51.8525 288.882 56.7194 292.088 63.1311L298.531 59.9097C294.718 52.2846 289.202 46.3469 282.011 42.1945L278.409 48.4324ZM292.105 63.1648C295.39 69.5664 297.11 77.3792 297.11 86.7313H304.313C304.313 76.5057 302.432 67.5113 298.514 59.8761L292.105 63.1648ZM297.11 86.7313C297.11 96.0834 295.39 103.896 292.105 110.298L298.514 113.587C302.432 105.951 304.313 96.9569 304.313 86.7313H297.11ZM292.088 110.331C288.882 116.743 284.332 121.61 278.409 125.03L282.011 131.268C289.202 127.116 294.718 121.178 298.531 113.553L292.088 110.331ZM278.409 125.03C272.498 128.444 265.342 130.227 256.8 130.227V137.43C266.359 137.43 274.809 135.427 282.011 131.268L278.409 125.03ZM256.8 130.227C248.26 130.227 241.048 128.444 235.034 125.019L231.469 131.279C238.753 135.427 247.24 137.43 256.8 137.43V130.227ZM235.053 125.03C229.122 121.605 224.518 116.727 221.219 110.298L214.81 113.587C218.714 121.194 224.268 127.121 231.451 131.268L235.053 125.03ZM221.236 110.331C218.031 103.922 216.352 96.0963 216.352 86.7313H209.149C209.149 96.944 210.979 105.926 214.793 113.553L221.236 110.331ZM216.352 86.7313C216.352 77.3663 218.031 69.5411 221.236 63.1311L214.793 59.9097C210.979 67.5366 209.149 76.5186 209.149 86.7313H216.352ZM221.219 63.1648C224.518 56.7354 229.122 51.8573 235.053 48.4324L231.451 42.1945C224.268 46.3421 218.714 52.2686 214.81 59.8761L221.219 63.1648ZM235.034 48.4432C241.048 45.0184 248.26 43.2357 256.8 43.2357V36.0324C247.24 36.0324 238.753 38.036 231.469 42.1837L235.034 48.4432ZM256.8 51.6853C251.058 51.6853 245.943 53.0249 241.643 55.8918L245.639 61.8853C248.541 59.9501 252.199 58.8886 256.8 58.8886V51.6853ZM241.643 55.8918C237.346 58.7562 234.162 62.931 231.999 68.1833L238.66 70.926C240.376 66.7589 242.732 63.8229 245.639 61.8853L241.643 55.8918ZM231.985 68.217C229.918 73.3867 228.957 79.5994 228.957 86.7313H236.161C236.161 80.1958 237.047 74.9573 238.673 70.8923L231.985 68.217ZM228.957 86.7313C228.957 93.7816 229.921 99.9804 231.976 105.223L238.682 102.593C237.044 98.4161 236.161 93.1638 236.161 86.7313H228.957ZM231.999 105.279C234.162 110.532 237.346 114.706 241.643 117.571L245.639 111.577C242.732 109.64 240.376 106.704 238.66 102.537L231.999 105.279ZM241.643 117.571C245.943 120.438 251.058 121.777 256.8 121.777V114.574C252.199 114.574 248.541 113.513 245.639 111.577L241.643 117.571ZM256.8 121.777C262.464 121.777 267.529 120.431 271.819 117.571L267.823 111.577C264.91 113.519 261.294 114.574 256.8 114.574V121.777ZM271.819 117.571C276.132 114.695 279.278 110.5 281.347 105.223L274.641 102.593C273.016 106.736 270.713 109.651 267.823 111.577L271.819 117.571ZM281.324 105.279C283.491 100.019 284.505 93.7989 284.505 86.7313H277.301C277.301 93.1464 276.376 98.3779 274.664 102.537L281.324 105.279ZM284.505 86.7313C284.505 79.5824 283.494 73.3484 281.315 68.16L274.673 70.9493C276.373 74.9957 277.301 80.2127 277.301 86.7313H284.505ZM281.347 68.2397C279.278 62.963 276.132 58.7672 271.819 55.8918L267.823 61.8853C270.713 63.8119 273.016 66.7269 274.641 70.8696L281.347 68.2397ZM271.819 55.8918C267.529 53.0318 262.464 51.6853 256.8 51.6853V58.8886C261.294 58.8886 264.91 59.9432 267.823 61.8853L271.819 55.8918ZM339.707 132.443L336.249 133.449L337.004 136.045H339.707V132.443ZM313.111 41.0193V37.4176H308.313L309.653 42.0253L313.111 41.0193ZM333.474 41.0193L336.977 40.1836L336.318 37.4176H333.474V41.0193ZM351.482 116.513L347.978 117.349L354.982 117.361L351.482 116.513ZM369.767 41.0193V37.4176H366.933L366.266 40.1715L369.767 41.0193ZM388.051 41.0193L391.549 40.1593L390.875 37.4176H388.051V41.0193ZM406.613 116.513L403.116 117.373L410.118 117.343L406.613 116.513ZM424.482 41.0193V37.4176H421.634L420.978 40.1897L424.482 41.0193ZM444.014 41.0193L447.472 42.0253L448.813 37.4176H444.014V41.0193ZM417.418 132.443V136.045H420.121L420.876 133.449L417.418 132.443ZM395.947 132.443L392.458 133.335L393.15 136.045H395.947V132.443ZM383.203 82.5757L379.671 83.2777L379.69 83.3731L379.714 83.4674L383.203 82.5757ZM378.909 60.9663L382.442 60.2644L381.865 57.3647H378.909V60.9663ZM378.632 60.9663V57.3647H375.676L375.099 60.2644L378.632 60.9663ZM374.338 82.5757L377.83 83.4583L377.852 83.3685L377.87 83.2777L374.338 82.5757ZM361.732 132.443V136.045H364.537L365.224 133.326L361.732 132.443ZM343.166 131.437L316.57 40.0132L309.653 42.0253L336.249 133.449L343.166 131.437ZM313.111 44.6209H333.474V37.4176H313.111V44.6209ZM329.971 41.8549L347.978 117.349L354.985 115.678L336.977 40.1836L329.971 41.8549ZM354.982 117.361L373.267 41.8671L366.266 40.1715L347.981 115.666L354.982 117.361ZM369.767 44.6209H388.051V37.4176H369.767V44.6209ZM384.554 41.8792L403.116 117.373L410.111 115.653L391.549 40.1593L384.554 41.8792ZM410.118 117.343L427.987 41.8488L420.978 40.1897L403.108 115.684L410.118 117.343ZM424.482 44.6209H444.014V37.4176H424.482V44.6209ZM440.556 40.0132L413.96 131.437L420.876 133.449L447.472 42.0253L440.556 40.0132ZM417.418 128.842H395.947V136.045H417.418V128.842ZM399.437 131.552L386.693 81.6839L379.714 83.4674L392.458 133.335L399.437 131.552ZM386.736 81.8737L382.442 60.2644L375.376 61.6683L379.671 83.2777L386.736 81.8737ZM378.909 57.3647H378.632V64.568H378.909V57.3647ZM375.099 60.2644L370.805 81.8737L377.87 83.2777L382.164 61.6683L375.099 60.2644ZM370.846 81.693L358.24 131.561L365.224 133.326L377.83 83.4583L370.846 81.693ZM361.732 128.842H339.707V136.045H361.732V128.842ZM575.378 41.0193L578.511 42.7947L581.558 37.4176H575.378V41.0193ZM542.964 98.2286L539.83 96.4531L539.362 97.2792V98.2286H542.964ZM542.964 132.443V136.045H546.565V132.443H542.964ZM523.848 132.443H520.246V136.045H523.848V132.443ZM523.848 98.2286H527.449V97.2792L526.981 96.4531L523.848 98.2286ZM491.434 41.0193V37.4176H485.254L488.3 42.7947L491.434 41.0193ZM511.796 41.0193L514.972 39.3194L513.954 37.4176H511.796V41.0193ZM526.48 68.4465L529.72 66.8737L529.689 66.8095L529.655 66.7466L526.48 68.4465ZM533.406 82.7142L530.166 84.287L533.374 90.8956L536.633 84.3123L533.406 82.7142ZM540.47 68.4465L537.295 66.7466L537.268 66.7971L537.243 66.8483L540.47 68.4465ZM555.154 41.0193V37.4176H552.996L551.978 39.3194L555.154 41.0193ZM572.244 39.2438L539.83 96.4531L546.097 100.004L578.511 42.7947L572.244 39.2438ZM539.362 98.2286V132.443H546.565V98.2286H539.362ZM542.964 128.842H523.848V136.045H542.964V128.842ZM527.449 132.443V98.2286H520.246V132.443H527.449ZM526.981 96.4531L494.567 39.2438L488.3 42.7947L520.714 100.004L526.981 96.4531ZM491.434 44.6209H511.796V37.4176H491.434V44.6209ZM508.621 42.7191L523.304 70.1464L529.655 66.7466L514.972 39.3194L508.621 42.7191ZM523.24 70.0193L530.166 84.287L536.646 81.1413L529.72 66.8737L523.24 70.0193ZM536.633 84.3123L543.698 70.0447L537.243 66.8483L530.178 81.116L536.633 84.3123ZM543.646 70.1464L558.329 42.7191L551.978 39.3194L537.295 66.7466L543.646 70.1464ZM555.154 44.6209H575.378V37.4176H555.154V44.6209ZM650.576 45.3134L652.377 42.1945L652.377 42.1945L650.576 45.3134ZM665.675 61.5204L662.454 63.1311L662.462 63.148L662.471 63.1648L665.675 61.5204ZM665.675 111.942L662.471 110.298L662.462 110.315L662.454 110.331L665.675 111.942ZM650.576 128.149L652.377 131.268L652.377 131.268L650.576 128.149ZM603.618 128.149L601.817 131.268L601.826 131.274L601.835 131.279L603.618 128.149ZM588.38 111.942L585.159 113.553L585.167 113.57L585.176 113.587L588.38 111.942ZM588.38 61.5204L585.176 59.8761L585.167 59.8929L585.159 59.9097L588.38 61.5204ZM603.618 45.3134L601.835 42.1837L601.826 42.189L601.817 42.1945L603.618 45.3134ZM605.695 69.5547L602.365 68.1833L602.358 68.2002L602.351 68.217L605.695 69.5547ZM605.695 103.908L602.342 105.223L602.354 105.251L602.365 105.279L605.695 103.908ZM614.007 114.574L616.005 111.577L616.005 111.577L614.007 114.574ZM640.187 114.574L642.185 117.571L642.185 117.571L640.187 114.574ZM648.36 103.908L645.03 102.537L645.018 102.565L645.007 102.593L648.36 103.908ZM648.36 69.5547L645.007 70.8696L645.023 70.9097L645.039 70.9493L648.36 69.5547ZM640.187 58.8885L642.185 55.8918L642.185 55.8918L640.187 58.8885ZM627.166 43.2357C635.708 43.2357 642.864 45.019 648.775 48.4324L652.377 42.1945C645.175 38.0354 636.725 36.0324 627.166 36.0324V43.2357ZM648.775 48.4324C654.698 51.8525 659.248 56.7194 662.454 63.1311L668.897 59.9097C665.084 52.2846 659.568 46.3469 652.377 42.1945L648.775 48.4324ZM662.471 63.1648C665.756 69.5664 667.476 77.3792 667.476 86.7313H674.679C674.679 76.5057 672.798 67.5113 668.88 59.8761L662.471 63.1648ZM667.476 86.7313C667.476 96.0834 665.756 103.896 662.471 110.298L668.88 113.587C672.798 105.951 674.679 96.9569 674.679 86.7313H667.476ZM662.454 110.331C659.248 116.743 654.698 121.61 648.775 125.03L652.377 131.268C659.568 127.116 665.084 121.178 668.897 113.553L662.454 110.331ZM648.775 125.03C642.864 128.444 635.708 130.227 627.166 130.227V137.43C636.725 137.43 645.175 135.427 652.377 131.268L648.775 125.03ZM627.166 130.227C618.626 130.227 611.414 128.444 605.4 125.019L601.835 131.279C609.119 135.427 617.606 137.43 627.166 137.43V130.227ZM605.419 125.03C599.488 121.605 594.884 116.727 591.585 110.298L585.176 113.587C589.08 121.194 594.634 127.121 601.817 131.268L605.419 125.03ZM591.602 110.331C588.397 103.922 586.718 96.0963 586.718 86.7313H579.515C579.515 96.944 581.345 105.926 585.159 113.553L591.602 110.331ZM586.718 86.7313C586.718 77.3663 588.397 69.5411 591.602 63.1311L585.159 59.9097C581.345 67.5366 579.515 76.5186 579.515 86.7313H586.718ZM591.585 63.1648C594.884 56.7354 599.488 51.8573 605.419 48.4324L601.817 42.1945C594.634 46.3421 589.08 52.2686 585.176 59.8761L591.585 63.1648ZM605.4 48.4432C611.414 45.0184 618.626 43.2357 627.166 43.2357V36.0324C617.606 36.0324 609.119 38.036 601.835 42.1837L605.4 48.4432ZM627.166 51.6853C621.424 51.6853 616.309 53.0249 612.009 55.8918L616.005 61.8853C618.907 59.9501 622.565 58.8886 627.166 58.8886V51.6853ZM612.009 55.8918C607.712 58.7562 604.528 62.931 602.365 68.1833L609.026 70.926C610.742 66.7589 613.098 63.8229 616.005 61.8853L612.009 55.8918ZM602.351 68.217C600.284 73.3867 599.323 79.5994 599.323 86.7313H606.527C606.527 80.1958 607.413 74.9573 609.039 70.8923L602.351 68.217ZM599.323 86.7313C599.323 93.7816 600.287 99.9804 602.342 105.223L609.048 102.593C607.41 98.4161 606.527 93.1638 606.527 86.7313H599.323ZM602.365 105.279C604.528 110.532 607.712 114.706 612.009 117.571L616.005 111.577C613.098 109.64 610.742 106.704 609.026 102.537L602.365 105.279ZM612.009 117.571C616.309 120.438 621.424 121.777 627.166 121.777V114.574C622.565 114.574 618.907 113.513 616.005 111.577L612.009 117.571ZM627.166 121.777C632.83 121.777 637.895 120.431 642.185 117.571L638.189 111.577C635.276 113.519 631.66 114.574 627.166 114.574V121.777ZM642.185 117.571C646.498 114.695 649.644 110.5 651.713 105.223L645.007 102.593C643.382 106.736 641.079 109.651 638.189 111.577L642.185 117.571ZM651.69 105.279C653.857 100.019 654.871 93.7989 654.871 86.7313H647.667C647.667 93.1464 646.742 98.3779 645.03 102.537L651.69 105.279ZM654.871 86.7313C654.871 79.5824 653.86 73.3484 651.681 68.16L645.039 70.9493C646.739 74.9957 647.667 80.2127 647.667 86.7313H654.871ZM651.713 68.2397C649.644 62.963 646.498 58.7672 642.185 55.8918L638.189 61.8853C641.079 63.8119 643.382 66.7269 645.007 70.8696L651.713 68.2397ZM642.185 55.8918C637.895 53.0318 632.83 51.6853 627.166 51.6853V58.8886C631.66 58.8886 635.276 59.9432 638.189 61.8853L642.185 55.8918ZM770.842 41.0193H774.444V37.4176H770.842V41.0193ZM760.869 124.548L763.322 127.184L763.332 127.175L763.342 127.166L760.869 124.548ZM702.69 124.548L700.217 127.166L700.226 127.175L700.236 127.184L702.69 124.548ZM692.716 41.0193V37.4176H689.114V41.0193H692.716ZM711.832 41.0193H715.434V37.4176H711.832V41.0193ZM716.68 112.635L713.97 115.007L713.986 115.025L714.003 115.044L716.68 112.635ZM746.739 112.635L749.45 115.007L749.45 115.007L746.739 112.635ZM751.588 41.0193V37.4176H747.986V41.0193H751.588ZM767.24 41.0193V96.4278H774.444V41.0193H767.24ZM767.24 96.4278C767.24 108.276 764.092 116.549 758.396 121.929L763.342 127.166C770.943 119.987 774.444 109.513 774.444 96.4278H767.24ZM758.415 121.911C752.66 127.266 743.981 130.227 731.779 130.227V137.43C745.065 137.43 755.779 134.204 763.322 127.184L758.415 121.911ZM731.779 130.227C719.577 130.227 710.898 127.266 705.143 121.911L700.236 127.184C707.779 134.204 718.493 137.43 731.779 137.43V130.227ZM705.163 121.929C699.466 116.549 696.318 108.276 696.318 96.4278H689.114C689.114 109.513 692.615 119.987 700.217 127.166L705.163 121.929ZM696.318 96.4278V41.0193H689.114V96.4278H696.318ZM692.716 44.6209H711.832V37.4176H692.716V44.6209ZM708.23 41.0193V95.5967H715.434V41.0193H708.23ZM708.23 95.5967C708.23 103.667 709.916 110.374 713.97 115.007L719.391 110.263C716.98 107.508 715.434 102.856 715.434 95.5967H708.23ZM714.003 115.044C718.229 119.74 724.397 121.777 731.779 121.777V114.574C725.679 114.574 721.78 112.918 719.357 110.225L714.003 115.044ZM731.779 121.777C739.154 121.777 745.306 119.742 749.45 115.007L744.029 110.263C741.709 112.915 737.887 114.574 731.779 114.574V121.777ZM749.45 115.007C753.504 110.374 755.189 103.667 755.189 95.5967H747.986C747.986 102.856 746.44 107.508 744.029 110.263L749.45 115.007ZM755.189 95.5967V41.0193H747.986V95.5967H755.189ZM751.588 44.6209H770.842V37.4176H751.588V44.6209ZM861.707 48.4994L859.384 51.2521L859.384 51.2521L861.707 48.4994ZM861.707 89.2247L863.951 92.0414L863.965 92.0308L863.978 92.02L861.707 89.2247ZM837.466 96.2893V92.6876H836.509L835.679 93.1622L837.466 96.2893ZM835.526 97.3975V100.999H836.483L837.313 100.525L835.526 97.3975ZM815.856 97.3975V93.7958H812.255V97.3975H815.856ZM815.856 132.443V136.045H819.458V132.443H815.856ZM797.017 132.443H793.416V136.045H797.017V132.443ZM797.017 41.0193V37.4176H793.416V41.0193H797.017ZM847.023 79.6667L849.31 82.4498L849.32 82.4414L847.023 79.6667ZM847.023 59.5811L844.68 62.3157L844.732 62.3604L844.785 62.403L847.023 59.5811ZM815.856 56.2566V52.655H812.255V56.2566H815.856ZM815.856 82.8527H812.255V86.4544H815.856V82.8527ZM846.331 86.8698L849.35 84.906L847.824 82.5606L845.175 83.4588L846.331 86.8698ZM875.974 132.443V136.045H882.614L878.994 130.48L875.974 132.443ZM854.504 132.443L851.432 134.324L852.486 136.045H854.504V132.443ZM829.985 92.4107L828.829 88.9997L824.559 90.4471L826.914 94.2918L829.985 92.4107ZM837.327 44.6209C847.109 44.6209 854.315 46.9748 859.384 51.2521L864.029 45.7467C857.278 40.0505 848.231 37.4176 837.327 37.4176V44.6209ZM859.384 51.2521C864.407 55.49 866.97 61.1382 866.97 68.585H874.174C874.174 59.2246 870.827 51.4824 864.029 45.7467L859.384 51.2521ZM866.97 68.585C866.97 76.6714 864.351 82.4352 859.436 86.4294L863.978 92.02C870.882 86.41 874.174 78.4141 874.174 68.585H866.97ZM859.462 86.408C854.384 90.4547 847.19 92.6876 837.466 92.6876V99.8909C848.243 99.8909 857.209 97.4141 863.951 92.0414L859.462 86.408ZM835.679 93.1622L833.739 94.2704L837.313 100.525L839.252 99.4164L835.679 93.1622ZM835.526 93.7958H815.856V100.999H835.526V93.7958ZM812.255 97.3975V132.443H819.458V97.3975H812.255ZM815.856 128.842H797.017V136.045H815.856V128.842ZM800.619 132.443V41.0193H793.416V132.443H800.619ZM797.017 44.6209H837.327V37.4176H797.017V44.6209ZM835.111 86.4544C840.832 86.4544 845.792 85.3391 849.31 82.4498L844.737 76.8836C843.083 78.2423 840.102 79.2511 835.111 79.2511V86.4544ZM849.32 82.4414C853.06 79.3462 854.642 74.8048 854.642 69.5547H847.439C847.439 73.3545 846.343 75.5545 844.727 76.892L849.32 82.4414ZM854.642 69.5547C854.642 64.3135 853.062 59.7736 849.262 56.7593L844.785 62.403C846.341 63.6366 847.439 65.7458 847.439 69.5547H854.642ZM849.367 56.8466C845.845 53.8276 840.86 52.655 835.111 52.655V59.8583C840.074 59.8583 843.03 60.902 844.68 62.3157L849.367 56.8466ZM835.111 52.655H815.856V59.8583H835.111V52.655ZM812.255 56.2566V82.8527H819.458V56.2566H812.255ZM815.856 86.4544H835.111V79.2511H815.856V86.4544ZM843.312 88.8337L872.955 134.407L878.994 130.48L849.35 84.906L843.312 88.8337ZM875.974 128.842H854.504V136.045H875.974V128.842ZM857.575 130.562L833.057 90.5296L826.914 94.2918L851.432 134.324L857.575 130.562ZM831.142 95.8217L847.487 90.2808L845.175 83.4588L828.829 88.9997L831.142 95.8217ZM941.821 132.443H938.219V136.045H941.821V132.443ZM941.821 41.0193V37.4176H938.219V41.0193H941.821ZM1006.37 47.5298L1008.66 44.751L1008.66 44.751L1006.37 47.5298ZM1009.83 78.9741L1012.67 81.1901L1012.67 81.1901L1009.83 78.9741ZM996.814 86.1772L996.185 82.631L993.212 83.1583V86.1772H996.814ZM996.814 86.3158H993.212V89.433L996.297 89.8802L996.814 86.3158ZM1011.5 93.5189L1014.2 91.1381L1014.2 91.1381L1011.5 93.5189ZM1008.03 125.794L1005.83 122.946L1005.82 122.955L1005.81 122.964L1008.03 125.794ZM960.383 118.037H956.781V121.639H960.383V118.037ZM993.074 114.851L995.409 117.593L995.409 117.593L993.074 114.851ZM993.074 97.1204L995.349 94.3283L995.349 94.3283L993.074 97.1204ZM960.383 94.0729V90.4713H956.781V94.0729H960.383ZM960.383 79.3897H956.781V82.9913H960.383V79.3897ZM960.383 55.841V52.2394H956.781V55.841H960.383ZM945.422 132.443V41.0193H938.219V132.443H945.422ZM941.821 44.6209H981.853V37.4176H941.821V44.6209ZM981.853 44.6209C992.585 44.6209 999.757 46.7437 1004.08 50.3086L1008.66 44.751C1002.46 39.6352 993.285 37.4176 981.853 37.4176V44.6209ZM1004.08 50.3086C1008.37 53.8486 1010.67 58.8898 1010.67 65.9531H1017.87C1017.87 57.1327 1014.9 49.8916 1008.66 44.751L1004.08 50.3086ZM1010.67 65.9531C1010.67 70.0611 1009.45 73.6178 1007 76.7581L1012.67 81.1901C1016.13 76.7579 1017.87 71.634 1017.87 65.9531H1010.67ZM1007 76.7581C1004.7 79.7022 1001.23 81.7361 996.185 82.631L997.443 89.7235C1003.85 88.5867 1009.06 85.8185 1012.67 81.1901L1007 76.7581ZM993.212 86.1772V86.3158H1000.42V86.1772H993.212ZM996.297 89.8802C1002.04 90.7121 1006.07 92.8083 1008.79 95.8997L1014.2 91.1381C1010.09 86.4722 1004.33 83.7663 997.33 82.7514L996.297 89.8802ZM1008.79 95.8997C1011.61 99.0949 1013.02 102.857 1013.02 107.371H1020.22C1020.22 101.173 1018.22 95.7 1014.2 91.1381L1008.79 95.8997ZM1013.02 107.371C1013.02 114.214 1010.59 119.259 1005.83 122.946L1010.24 128.642C1016.93 123.464 1020.22 116.227 1020.22 107.371H1013.02ZM1005.81 122.964C1001.06 126.696 993.727 128.842 983.239 128.842V136.045C994.544 136.045 1003.74 133.758 1010.26 128.625L1005.81 122.964ZM983.239 128.842H941.821V136.045H983.239V128.842ZM960.383 121.639H981.576V114.436H960.383V121.639ZM981.576 121.639C987.135 121.639 991.979 120.515 995.409 117.593L990.738 112.109C989.181 113.436 986.361 114.436 981.576 114.436V121.639ZM995.409 117.593C998.835 114.674 1000.42 110.644 1000.42 105.986H993.212C993.212 108.9 992.299 110.78 990.738 112.109L995.409 117.593ZM1000.42 105.986C1000.42 101.271 998.856 97.1858 995.349 94.3283L990.799 99.9125C992.278 101.118 993.212 102.943 993.212 105.986H1000.42ZM995.349 94.3283C991.924 91.5379 987.106 90.4713 981.576 90.4713V97.6746C986.389 97.6746 989.236 98.6397 990.799 99.9125L995.349 94.3283ZM981.576 90.4713H960.383V97.6746H981.576V90.4713ZM956.781 94.0729V118.037H963.984V94.0729H956.781ZM960.383 82.9913H979.36V75.788H960.383V82.9913ZM979.36 82.9913C984.762 82.9913 989.477 81.955 992.899 79.2863C996.492 76.4847 998.06 72.3674 998.06 67.6154H990.857C990.857 70.7128 989.91 72.4828 988.469 73.6059C986.859 74.8619 984.024 75.788 979.36 75.788V82.9913ZM998.06 67.6154C998.06 62.8633 996.492 58.7461 992.899 55.9445C989.477 53.2757 984.762 52.2394 979.36 52.2394V59.4427C984.024 59.4427 986.859 60.3688 988.469 61.6248C989.91 62.748 990.857 64.5179 990.857 67.6154H998.06ZM979.36 52.2394H960.383V59.4427H979.36V52.2394ZM956.781 55.841V79.3897H963.984V55.841H956.781ZM1058.16 41.0193H1061.76V37.4176H1058.16V41.0193ZM1058.16 132.443V136.045H1061.76V132.443H1058.16ZM1039.05 132.443H1035.44V136.045H1039.05V132.443ZM1039.05 41.0193V37.4176H1035.44V41.0193H1039.05ZM1054.56 41.0193V132.443H1061.76V41.0193H1054.56ZM1058.16 128.842H1039.05V136.045H1058.16V128.842ZM1042.65 132.443V41.0193H1035.44V132.443H1042.65ZM1039.05 44.6209H1058.16V37.4176H1039.05V44.6209ZM1164.9 41.0193L1167.6 43.3993L1172.87 37.4176H1164.9V41.0193ZM1123.07 88.5321L1120.52 91.0788L1123.24 93.7926L1125.77 90.9121L1123.07 88.5321ZM1121.54 87.0084L1124.09 84.4616L1121.38 81.7507L1118.84 84.6254L1121.54 87.0084ZM1098.69 112.912L1095.13 113.495L1096.36 120.99L1101.39 115.295L1098.69 112.912ZM1095.78 95.1811L1093.06 92.8218L1091.95 94.0977L1092.23 95.7642L1095.78 95.1811ZM1142.74 41.0193V37.4176H1141.09L1140.02 38.6599L1142.74 41.0193ZM1105.2 41.0193H1108.8V37.4176H1105.2V41.0193ZM1105.2 132.443V136.045H1108.8V132.443H1105.2ZM1086.08 132.443H1082.48V136.045H1086.08V132.443ZM1086.08 41.0193V37.4176H1082.48V41.0193H1086.08ZM1128.33 72.6021L1131.38 70.6831L1129.33 67.4262L1126.22 69.6882L1128.33 72.6021ZM1166.01 132.443V136.045H1172.53L1169.06 130.524L1166.01 132.443ZM1144.12 132.443L1141.06 134.341L1142.12 136.045H1144.12V132.443ZM1113.65 83.2683L1111.53 80.3543L1108.82 82.321L1110.59 85.1655L1113.65 83.2683ZM1162.2 38.6392L1120.37 86.152L1125.77 90.9121L1167.6 43.3993L1162.2 38.6392ZM1125.62 85.9853L1124.09 84.4616L1119 89.5551L1120.52 91.0788L1125.62 85.9853ZM1118.84 84.6254L1095.99 110.529L1101.39 115.295L1124.25 89.3913L1118.84 84.6254ZM1102.24 112.329L1099.33 94.598L1092.23 95.7642L1095.13 113.495L1102.24 112.329ZM1098.5 97.5405L1145.46 43.3786L1140.02 38.6599L1093.06 92.8218L1098.5 97.5405ZM1142.74 44.6209H1164.9V37.4176H1142.74V44.6209ZM1101.6 41.0193V132.443H1108.8V41.0193H1101.6ZM1105.2 128.842H1086.08V136.045H1105.2V128.842ZM1089.68 132.443V41.0193H1082.48V132.443H1089.68ZM1086.08 44.6209H1105.2V37.4176H1086.08V44.6209ZM1125.28 74.5211L1162.96 134.362L1169.06 130.524L1131.38 70.6831L1125.28 74.5211ZM1166.01 128.842H1144.12V136.045H1166.01V128.842ZM1147.18 130.546L1116.71 81.3711L1110.59 85.1655L1141.06 134.341L1147.18 130.546ZM1115.77 86.1822L1130.45 75.5161L1126.22 69.6882L1111.53 80.3543L1115.77 86.1822ZM1184.25 132.443H1180.65V136.045H1184.25V132.443ZM1184.25 41.0193V37.4176H1180.65V41.0193H1184.25ZM1252.82 41.0193H1256.42V37.4176H1252.82V41.0193ZM1252.82 56.3951V59.9968H1256.42V56.3951H1252.82ZM1203.37 56.3951V52.7935H1199.77V56.3951H1203.37ZM1203.37 79.1126H1199.77V82.7143H1203.37V79.1126ZM1242.3 79.1126H1245.9V75.511H1242.3V79.1126ZM1242.3 93.7959V97.3975H1245.9V93.7959H1242.3ZM1203.37 93.7959V90.1943H1199.77V93.7959H1203.37ZM1203.37 117.067H1199.77V120.669H1203.37V117.067ZM1254.76 117.067H1258.36V113.466H1254.76V117.067ZM1254.76 132.443V136.045H1258.36V132.443H1254.76ZM1187.86 132.443V41.0193H1180.65V132.443H1187.86ZM1184.25 44.6209H1252.82V37.4176H1184.25V44.6209ZM1249.22 41.0193V56.3951H1256.42V41.0193H1249.22ZM1252.82 52.7935H1203.37V59.9968H1252.82V52.7935ZM1199.77 56.3951V79.1126H1206.97V56.3951H1199.77ZM1203.37 82.7143H1242.3V75.511H1203.37V82.7143ZM1238.69 79.1126V93.7959H1245.9V79.1126H1238.69ZM1242.3 90.1943H1203.37V97.3975H1242.3V90.1943ZM1199.77 93.7959V117.067H1206.97V93.7959H1199.77ZM1203.37 120.669H1254.76V113.466H1203.37V120.669ZM1251.16 117.067V132.443H1258.36V117.067H1251.16ZM1254.76 128.842H1184.25V136.045H1254.76V128.842Z" fill="#7A7A7A"/>
<path d="M20.3546 2.31002V17.2334H17.9125V2.31002H20.3546ZM10.5413 2.31002V17.2334H8.1219V2.31002H10.5413ZM19.1335 8.64115V10.7214H9.34291V8.64115H19.1335ZM29.8624 5.70169C30.9628 5.70169 31.9351 5.93534 32.7792 6.40264C33.6234 6.86994 34.2791 7.54827 34.7464 8.43765C35.2288 9.31195 35.47 10.3596 35.47 11.5806C35.47 12.8016 35.2288 13.8568 34.7464 14.7462C34.2791 15.6205 33.6234 16.2913 32.7792 16.7586C31.9351 17.2259 30.9628 17.4595 29.8624 17.4595C28.762 17.4595 27.7897 17.2259 26.9455 16.7586C26.1014 16.2913 25.4381 15.6205 24.9558 14.7462C24.4734 13.8568 24.2322 12.8016 24.2322 11.5806C24.2322 10.3596 24.4734 9.31195 24.9558 8.43765C25.4381 7.54827 26.1014 6.86994 26.9455 6.40264C27.7897 5.93534 28.762 5.70169 29.8624 5.70169ZM29.8624 7.60103C29.184 7.60103 28.6037 7.75931 28.1213 8.07587C27.654 8.37735 27.2922 8.82204 27.036 9.40993C26.7797 9.99782 26.6516 10.7214 26.6516 11.5806C26.6516 12.4248 26.7797 13.1483 27.036 13.7513C27.2922 14.3392 27.654 14.7914 28.1213 15.1079C28.6037 15.4094 29.184 15.5602 29.8624 15.5602C30.5407 15.5602 31.1135 15.4094 31.5808 15.1079C32.0481 14.7914 32.4099 14.3392 32.6662 13.7513C32.9224 13.1483 33.0506 12.4248 33.0506 11.5806C33.0506 10.7214 32.9224 9.99782 32.6662 9.40993C32.4099 8.82204 32.0481 8.37735 31.5808 8.07587C31.1135 7.75931 30.5407 7.60103 29.8624 7.60103ZM46.5648 5.92781H49.0973L44.5976 17.2334H41.9521L37.4299 5.92781H40.0754L43.2862 15.1306L46.5648 5.92781ZM56.7465 17.4595C55.616 17.4595 54.6211 17.2259 53.7619 16.7586C52.9026 16.2913 52.2318 15.6205 51.7495 14.7462C51.2822 13.8568 51.0485 12.8016 51.0485 11.5806C51.0485 10.3596 51.2822 9.31195 51.7495 8.43765C52.2318 7.54827 52.8951 6.86994 53.7393 6.40264C54.5834 5.93534 55.5406 5.70169 56.6109 5.70169C57.7113 5.70169 58.6459 5.92781 59.4147 6.38003C60.1834 6.83225 60.7713 7.45029 61.1783 8.23415C61.5853 9.018 61.7888 9.90737 61.7888 10.9023C61.7888 11.1736 61.7813 11.4299 61.7662 11.671C61.7512 11.9122 61.7285 12.1233 61.6984 12.3042H52.6087V10.45H60.6357L59.4373 10.8118C59.4373 9.78678 59.181 9.00293 58.6685 8.46026C58.156 7.90252 57.455 7.62365 56.5657 7.62365C55.9175 7.62365 55.3522 7.77439 54.8698 8.07587C54.3874 8.37735 54.0181 8.82957 53.7619 9.43254C53.5056 10.0204 53.3775 10.744 53.3775 11.6032C53.3775 12.4474 53.5131 13.1634 53.7845 13.7513C54.0558 14.3392 54.4402 14.7839 54.9376 15.0853C55.4351 15.3868 56.023 15.5376 56.7013 15.5376C57.455 15.5376 58.0655 15.3944 58.5328 15.1079C59.0001 14.8215 59.3694 14.4221 59.6408 13.9096L61.5627 14.814C61.2914 15.3567 60.9221 15.8315 60.4548 16.2385C60.0026 16.6304 59.4599 16.9319 58.8268 17.143C58.1937 17.354 57.5003 17.4595 56.7465 17.4595ZM65.5225 17.2334V5.92781H67.5801L67.8062 7.96281C68.1077 7.22418 68.5524 6.66644 69.1403 6.28959C69.7433 5.89766 70.4819 5.70169 71.3562 5.70169C71.5823 5.70169 71.8084 5.72431 72.0345 5.76953C72.2606 5.79968 72.4491 5.85244 72.5998 5.92781L72.2606 8.05326C72.0948 7.99296 71.9064 7.94774 71.6954 7.91759C71.4994 7.87237 71.2281 7.84976 70.8814 7.84976C70.4141 7.84976 69.9543 7.97789 69.5021 8.23415C69.0499 8.47533 68.673 8.84465 68.3715 9.3421C68.0851 9.83954 67.9419 10.4727 67.9419 11.2414V17.2334H65.5225ZM88.0155 5.70169C89.1159 5.70169 90.0882 5.93534 90.9324 6.40264C91.7765 6.86994 92.4322 7.54827 92.8995 8.43765C93.3819 9.31195 93.6231 10.3596 93.6231 11.5806C93.6231 12.8016 93.3819 13.8568 92.8995 14.7462C92.4322 15.6205 91.7765 16.2913 90.9324 16.7586C90.0882 17.2259 89.1159 17.4595 88.0155 17.4595C86.9151 17.4595 85.9428 17.2259 85.0987 16.7586C84.2545 16.2913 83.5913 15.6205 83.1089 14.7462C82.6265 13.8568 82.3853 12.8016 82.3853 11.5806C82.3853 10.3596 82.6265 9.31195 83.1089 8.43765C83.5913 7.54827 84.2545 6.86994 85.0987 6.40264C85.9428 5.93534 86.9151 5.70169 88.0155 5.70169ZM88.0155 7.60103C87.3372 7.60103 86.7568 7.75931 86.2745 8.07587C85.8072 8.37735 85.4454 8.82204 85.1891 9.40993C84.9329 9.99782 84.8047 10.7214 84.8047 11.5806C84.8047 12.4248 84.9329 13.1483 85.1891 13.7513C85.4454 14.3392 85.8072 14.7914 86.2745 15.1079C86.7568 15.4094 87.3372 15.5602 88.0155 15.5602C88.6939 15.5602 89.2667 15.4094 89.734 15.1079C90.2013 14.7914 90.563 14.3392 90.8193 13.7513C91.0756 13.1483 91.2037 12.4248 91.2037 11.5806C91.2037 10.7214 91.0756 9.99782 90.8193 9.40993C90.563 8.82204 90.2013 8.37735 89.734 8.07587C89.2667 7.75931 88.6939 7.60103 88.0155 7.60103ZM97.3451 17.2334V5.92781H99.4932L99.6514 8.86726L99.3349 8.5507C99.5459 7.90252 99.8474 7.36739 100.239 6.94531C100.646 6.50816 101.121 6.1916 101.664 5.99564C102.222 5.79968 102.809 5.70169 103.428 5.70169C104.226 5.70169 104.942 5.85997 105.576 6.17653C106.224 6.47801 106.736 6.93777 107.113 7.55581C107.49 8.17385 107.678 8.95771 107.678 9.90738V17.2334H105.259V10.6535C105.259 9.53806 105.025 8.76928 104.558 8.3472C104.106 7.91005 103.533 7.69148 102.84 7.69148C102.342 7.69148 101.86 7.81207 101.393 8.05326C100.925 8.27937 100.533 8.64869 100.217 9.16121C99.9152 9.67373 99.7645 10.3596 99.7645 11.2188V17.2334H97.3451ZM123.002 2.60396V13.8417C123.002 14.3995 123.145 14.8065 123.432 15.0627C123.733 15.319 124.133 15.4471 124.63 15.4471C125.037 15.4471 125.392 15.3868 125.693 15.2662C125.994 15.1306 126.273 14.9497 126.53 14.7236L127.072 16.4872C126.726 16.7887 126.296 17.0299 125.783 17.2108C125.286 17.3766 124.728 17.4595 124.11 17.4595C123.462 17.4595 122.867 17.354 122.324 17.143C121.781 16.9319 121.359 16.5927 121.058 16.1255C120.756 15.6431 120.598 15.0175 120.583 14.2487V3.2823L123.002 2.60396ZM126.891 5.92781V7.82715H118.412V5.92781H126.891ZM130.051 17.2334V0.84029H132.47V7.7367C132.847 7.02822 133.352 6.5157 133.985 6.19914C134.633 5.86751 135.349 5.70169 136.133 5.70169C136.932 5.70169 137.648 5.85997 138.281 6.17653C138.93 6.47801 139.442 6.93777 139.819 7.55581C140.196 8.17385 140.384 8.95771 140.384 9.90738V17.2334H137.965V10.6762C137.965 9.56067 137.731 8.78435 137.264 8.3472C136.812 7.91005 136.239 7.69148 135.545 7.69148C135.063 7.69148 134.581 7.81207 134.098 8.05326C133.631 8.27937 133.239 8.65622 132.923 9.18382C132.621 9.69634 132.47 10.3897 132.47 11.264V17.2334H130.051ZM149.703 17.4595C148.573 17.4595 147.578 17.2259 146.719 16.7586C145.859 16.2913 145.189 15.6205 144.706 14.7462C144.239 13.8568 144.005 12.8016 144.005 11.5806C144.005 10.3596 144.239 9.31195 144.706 8.43765C145.189 7.54827 145.852 6.86994 146.696 6.40264C147.54 5.93534 148.497 5.70169 149.568 5.70169C150.668 5.70169 151.603 5.92781 152.371 6.38003C153.14 6.83225 153.728 7.45029 154.135 8.23415C154.542 9.018 154.746 9.90737 154.746 10.9023C154.746 11.1736 154.738 11.4299 154.723 11.671C154.708 11.9122 154.685 12.1233 154.655 12.3042H145.565V10.45H153.592L152.394 10.8118C152.394 9.78678 152.138 9.00293 151.625 8.46026C151.113 7.90252 150.412 7.62365 149.522 7.62365C148.874 7.62365 148.309 7.77439 147.827 8.07587C147.344 8.37735 146.975 8.82957 146.719 9.43254C146.462 10.0204 146.334 10.744 146.334 11.6032C146.334 12.4474 146.47 13.1634 146.741 13.7513C147.013 14.3392 147.397 14.7839 147.894 15.0853C148.392 15.3868 148.98 15.5376 149.658 15.5376C150.412 15.5376 151.022 15.3944 151.49 15.1079C151.957 14.8215 152.326 14.4221 152.597 13.9096L154.519 14.814C154.248 15.3567 153.879 15.8315 153.411 16.2385C152.959 16.6304 152.417 16.9319 151.783 17.143C151.15 17.354 150.457 17.4595 149.703 17.4595ZM166.511 21.9817V5.92781H168.659L168.84 9.09337L168.523 8.70898C168.704 8.12109 168.983 7.60103 169.36 7.14881C169.736 6.69659 170.204 6.34234 170.761 6.08608C171.334 5.82982 171.96 5.70169 172.638 5.70169C173.558 5.70169 174.394 5.93534 175.148 6.40264C175.902 6.86994 176.497 7.54074 176.934 8.41504C177.371 9.27426 177.59 10.3219 177.59 11.558C177.59 12.7941 177.364 13.8568 176.912 14.7462C176.475 15.6205 175.872 16.2913 175.103 16.7586C174.349 17.2259 173.505 17.4595 172.57 17.4595C171.606 17.4595 170.784 17.2108 170.106 16.7133C169.427 16.2008 168.945 15.5526 168.659 14.7688L168.93 14.3844V21.9817H166.511ZM172.05 15.4923C173.03 15.4923 173.791 15.1456 174.334 14.4522C174.892 13.7588 175.171 12.8016 175.171 11.5806C175.171 10.3596 174.899 9.40239 174.357 8.70898C173.814 8.0005 173.06 7.64626 172.096 7.64626C171.462 7.64626 170.905 7.81207 170.422 8.1437C169.955 8.46026 169.586 8.91248 169.314 9.50037C169.058 10.0732 168.93 10.7666 168.93 11.5806C168.93 12.3795 169.058 13.0729 169.314 13.6608C169.571 14.2487 169.932 14.7009 170.4 15.0175C170.867 15.3341 171.417 15.4923 172.05 15.4923ZM186.272 5.70169C187.372 5.70169 188.344 5.93534 189.189 6.40264C190.033 6.86994 190.688 7.54827 191.156 8.43765C191.638 9.31195 191.879 10.3596 191.879 11.5806C191.879 12.8016 191.638 13.8568 191.156 14.7462C190.688 15.6205 190.033 16.2913 189.189 16.7586C188.344 17.2259 187.372 17.4595 186.272 17.4595C185.171 17.4595 184.199 17.2259 183.355 16.7586C182.511 16.2913 181.847 15.6205 181.365 14.7462C180.883 13.8568 180.642 12.8016 180.642 11.5806C180.642 10.3596 180.883 9.31195 181.365 8.43765C181.847 7.54827 182.511 6.86994 183.355 6.40264C184.199 5.93534 185.171 5.70169 186.272 5.70169ZM186.272 7.60103C185.593 7.60103 185.013 7.75931 184.531 8.07587C184.063 8.37735 183.702 8.82204 183.445 9.40993C183.189 9.99782 183.061 10.7214 183.061 11.5806C183.061 12.4248 183.189 13.1483 183.445 13.7513C183.702 14.3392 184.063 14.7914 184.531 15.1079C185.013 15.4094 185.593 15.5602 186.272 15.5602C186.95 15.5602 187.523 15.4094 187.99 15.1079C188.457 14.7914 188.819 14.3392 189.075 13.7513C189.332 13.1483 189.46 12.4248 189.46 11.5806C189.46 10.7214 189.332 9.99782 189.075 9.40993C188.819 8.82204 188.457 8.37735 187.99 8.07587C187.523 7.75931 186.95 7.60103 186.272 7.60103ZM196.822 4.02847C196.295 4.02847 195.888 3.90034 195.601 3.64408C195.33 3.37274 195.194 2.99589 195.194 2.51352C195.194 2.03115 195.33 1.66183 195.601 1.40557C195.888 1.14931 196.295 1.02118 196.822 1.02118C197.335 1.02118 197.727 1.14931 197.998 1.40557C198.284 1.66183 198.428 2.03115 198.428 2.51352C198.428 2.99589 198.284 3.37274 197.998 3.64408C197.727 3.90034 197.335 4.02847 196.822 4.02847ZM198.021 5.92781V17.2334H195.601V5.92781H198.021ZM202.484 17.2334V5.92781H204.633L204.791 8.86726L204.474 8.5507C204.685 7.90252 204.987 7.36739 205.379 6.94531C205.786 6.50816 206.261 6.1916 206.803 5.99564C207.361 5.79968 207.949 5.70169 208.567 5.70169C209.366 5.70169 210.082 5.85997 210.715 6.17653C211.363 6.47801 211.876 6.93777 212.252 7.55581C212.629 8.17385 212.818 8.95771 212.818 9.90738V17.2334H210.398V10.6535C210.398 9.53806 210.165 8.76928 209.697 8.3472C209.245 7.91005 208.672 7.69148 207.979 7.69148C207.482 7.69148 206.999 7.81207 206.532 8.05326C206.065 8.27937 205.673 8.64869 205.356 9.16121C205.055 9.67373 204.904 10.3596 204.904 11.2188V17.2334H202.484ZM220.331 2.60396V13.8417C220.331 14.3995 220.474 14.8065 220.761 15.0627C221.062 15.319 221.462 15.4471 221.959 15.4471C222.366 15.4471 222.72 15.3868 223.022 15.2662C223.323 15.1306 223.602 14.9497 223.858 14.7236L224.401 16.4872C224.054 16.7887 223.625 17.0299 223.112 17.2108C222.615 17.3766 222.057 17.4595 221.439 17.4595C220.791 17.4595 220.195 17.354 219.653 17.143C219.11 16.9319 218.688 16.5927 218.386 16.1255C218.085 15.6431 217.927 15.0175 217.912 14.2487V3.2823L220.331 2.60396ZM224.22 5.92781V7.82715H215.741V5.92781H224.22ZM231.588 17.4595C230.457 17.4595 229.424 17.2409 228.49 16.8038C227.555 16.3666 226.817 15.7486 226.274 14.9497L227.947 13.5026C228.279 14.1206 228.754 14.618 229.372 14.9949C230.005 15.3567 230.758 15.5376 231.633 15.5376C232.326 15.5376 232.876 15.417 233.283 15.1758C233.69 14.9346 233.894 14.5954 233.894 14.1583C233.894 13.8719 233.796 13.6231 233.6 13.4121C233.419 13.186 233.065 13.0126 232.537 12.8921L230.163 12.3946C228.957 12.1534 228.098 11.769 227.585 11.2414C227.073 10.6988 226.817 10.0129 226.817 9.18382C226.817 8.56578 226.997 7.99296 227.359 7.46537C227.721 6.93777 228.249 6.5157 228.942 6.19914C229.651 5.86751 230.495 5.70169 231.474 5.70169C232.605 5.70169 233.57 5.90519 234.369 6.3122C235.168 6.70412 235.778 7.2694 236.2 8.00804L234.527 9.40993C234.241 8.80696 233.818 8.36228 233.261 8.07587C232.703 7.77439 232.123 7.62365 231.52 7.62365C231.037 7.62365 230.623 7.68394 230.276 7.80453C229.929 7.92513 229.666 8.09094 229.485 8.30198C229.304 8.51302 229.213 8.76174 229.213 9.04815C229.213 9.34963 229.326 9.61343 229.553 9.83954C229.779 10.0657 230.186 10.239 230.774 10.3596L233.351 10.9023C234.437 11.1133 235.198 11.4751 235.635 11.9876C236.087 12.485 236.313 13.0956 236.313 13.8191C236.313 14.5427 236.125 15.1833 235.748 15.7411C235.371 16.2837 234.828 16.7058 234.12 17.0073C233.411 17.3088 232.567 17.4595 231.588 17.4595ZM250.917 2.60396V13.8417C250.917 14.3995 251.06 14.8065 251.347 15.0627C251.648 15.319 252.048 15.4471 252.545 15.4471C252.952 15.4471 253.306 15.3868 253.608 15.2662C253.909 15.1306 254.188 14.9497 254.444 14.7236L254.987 16.4872C254.64 16.7887 254.211 17.0299 253.698 17.2108C253.201 17.3766 252.643 17.4595 252.025 17.4595C251.377 17.4595 250.781 17.354 250.239 17.143C249.696 16.9319 249.274 16.5927 248.973 16.1255C248.671 15.6431 248.513 15.0175 248.498 14.2487V3.2823L250.917 2.60396ZM254.806 5.92781V7.82715H246.327V5.92781H254.806ZM262.784 5.70169C263.884 5.70169 264.857 5.93534 265.701 6.40264C266.545 6.86994 267.201 7.54827 267.668 8.43765C268.15 9.31195 268.392 10.3596 268.392 11.5806C268.392 12.8016 268.15 13.8568 267.668 14.7462C267.201 15.6205 266.545 16.2913 265.701 16.7586C264.857 17.2259 263.884 17.4595 262.784 17.4595C261.684 17.4595 260.711 17.2259 259.867 16.7586C259.023 16.2913 258.36 15.6205 257.877 14.7462C257.395 13.8568 257.154 12.8016 257.154 11.5806C257.154 10.3596 257.395 9.31195 257.877 8.43765C258.36 7.54827 259.023 6.86994 259.867 6.40264C260.711 5.93534 261.684 5.70169 262.784 5.70169ZM262.784 7.60103C262.106 7.60103 261.525 7.75931 261.043 8.07587C260.576 8.37735 260.214 8.82204 259.958 9.40993C259.701 9.99782 259.573 10.7214 259.573 11.5806C259.573 12.4248 259.701 13.1483 259.958 13.7513C260.214 14.3392 260.576 14.7914 261.043 15.1079C261.525 15.4094 262.106 15.5602 262.784 15.5602C263.462 15.5602 264.035 15.4094 264.503 15.1079C264.97 14.7914 265.332 14.3392 265.588 13.7513C265.844 13.1483 265.972 12.4248 265.972 11.5806C265.972 10.7214 265.844 9.99782 265.588 9.40993C265.332 8.82204 264.97 8.37735 264.503 8.07587C264.035 7.75931 263.462 7.60103 262.784 7.60103Z" fill="#7A7A7A"/>
</svg>
