<svg width="216" height="90" viewBox="0 0 216 90" fill="none" xmlns="http://www.w3.org/2000/svg">
<rect width="216" height="90" rx="12" fill="#D9D9D9"/>
<path d="M25.2719 29V21.3H28.4399C29.1219 21.3 29.7049 21.41 30.1889 21.63C30.6802 21.85 31.0579 22.1653 31.3219 22.576C31.5859 22.9867 31.7179 23.4743 31.7179 24.039C31.7179 24.6037 31.5859 25.0913 31.3219 25.502C31.0579 25.9053 30.6802 26.217 30.1889 26.437C29.7049 26.6497 29.1219 26.756 28.4399 26.756H26.0639L26.7019 26.107V29H25.2719ZM30.3099 29L28.3629 26.206H29.8919L31.8499 29H30.3099ZM26.7019 26.261L26.0639 25.579H28.3739C29.0045 25.579 29.4775 25.4433 29.7929 25.172C30.1155 24.9007 30.2769 24.523 30.2769 24.039C30.2769 23.5477 30.1155 23.17 29.7929 22.906C29.4775 22.642 29.0045 22.51 28.3739 22.51H26.0639L26.7019 21.806V26.261ZM32.4488 29L35.9138 21.3H37.3218L40.7978 29H39.3018L36.3208 22.059H36.8928L33.9228 29H32.4488ZM34.0438 27.218L34.4288 26.096H38.5868L38.9718 27.218H34.0438ZM41.997 29V21.3H43.427V27.79H47.453V29H41.997ZM51.1353 29.11C50.5339 29.11 49.9583 29.0257 49.4083 28.857C48.8583 28.681 48.4219 28.4573 48.0993 28.186L48.5943 27.075C48.9023 27.317 49.2836 27.5187 49.7383 27.68C50.1929 27.8413 50.6586 27.922 51.1353 27.922C51.5386 27.922 51.8649 27.878 52.1143 27.79C52.3636 27.702 52.5469 27.5847 52.6643 27.438C52.7816 27.284 52.8403 27.1117 52.8403 26.921C52.8403 26.6863 52.7559 26.4993 52.5873 26.36C52.4186 26.2133 52.1986 26.0997 51.9273 26.019C51.6633 25.931 51.3663 25.8503 51.0363 25.777C50.7136 25.7037 50.3873 25.6193 50.0573 25.524C49.7346 25.4213 49.4376 25.293 49.1663 25.139C48.9023 24.9777 48.6859 24.765 48.5173 24.501C48.3486 24.237 48.2643 23.8997 48.2643 23.489C48.2643 23.071 48.3743 22.6897 48.5943 22.345C48.8216 21.993 49.1626 21.7143 49.6173 21.509C50.0793 21.2963 50.6623 21.19 51.3663 21.19C51.8283 21.19 52.2866 21.2487 52.7413 21.366C53.1959 21.4833 53.5919 21.652 53.9293 21.872L53.4783 22.983C53.1336 22.7777 52.7779 22.6273 52.4113 22.532C52.0446 22.4293 51.6926 22.378 51.3553 22.378C50.9593 22.378 50.6366 22.4257 50.3873 22.521C50.1453 22.6163 49.9656 22.741 49.8483 22.895C49.7383 23.049 49.6833 23.225 49.6833 23.423C49.6833 23.6577 49.7639 23.8483 49.9253 23.995C50.0939 24.1343 50.3103 24.2443 50.5743 24.325C50.8456 24.4057 51.1463 24.4863 51.4763 24.567C51.8063 24.6403 52.1326 24.7247 52.4553 24.82C52.7853 24.9153 53.0823 25.04 53.3463 25.194C53.6176 25.348 53.8339 25.557 53.9953 25.821C54.1639 26.085 54.2483 26.4187 54.2483 26.822C54.2483 27.2327 54.1346 27.614 53.9073 27.966C53.6873 28.3107 53.3463 28.5893 52.8843 28.802C52.4223 29.0073 51.8393 29.11 51.1353 29.11ZM59.4942 29.11C58.8929 29.11 58.3392 29.011 57.8332 28.813C57.3272 28.615 56.8872 28.34 56.5132 27.988C56.1392 27.6287 55.8496 27.2107 55.6442 26.734C55.4389 26.25 55.3362 25.722 55.3362 25.15C55.3362 24.578 55.4389 24.0537 55.6442 23.577C55.8496 23.093 56.1392 22.675 56.5132 22.323C56.8872 21.9637 57.3272 21.685 57.8332 21.487C58.3392 21.289 58.8892 21.19 59.4832 21.19C60.0846 21.19 60.6346 21.289 61.1332 21.487C61.6392 21.685 62.0792 21.9637 62.4532 22.323C62.8272 22.675 63.1169 23.093 63.3222 23.577C63.5276 24.0537 63.6302 24.578 63.6302 25.15C63.6302 25.722 63.5276 26.25 63.3222 26.734C63.1169 27.218 62.8272 27.636 62.4532 27.988C62.0792 28.34 61.6392 28.615 61.1332 28.813C60.6346 29.011 60.0882 29.11 59.4942 29.11ZM59.4832 27.856C59.8719 27.856 60.2312 27.79 60.5612 27.658C60.8912 27.526 61.1772 27.339 61.4192 27.097C61.6612 26.8477 61.8482 26.5617 61.9802 26.239C62.1196 25.909 62.1892 25.546 62.1892 25.15C62.1892 24.754 62.1196 24.3947 61.9802 24.072C61.8482 23.742 61.6612 23.456 61.4192 23.214C61.1772 22.9647 60.8912 22.774 60.5612 22.642C60.2312 22.51 59.8719 22.444 59.4832 22.444C59.0946 22.444 58.7352 22.51 58.4052 22.642C58.0826 22.774 57.7966 22.9647 57.5472 23.214C57.3052 23.456 57.1146 23.742 56.9752 24.072C56.8432 24.3947 56.7772 24.754 56.7772 25.15C56.7772 25.5387 56.8432 25.898 56.9752 26.228C57.1146 26.558 57.3052 26.8477 57.5472 27.097C57.7892 27.339 58.0752 27.526 58.4052 27.658C58.7352 27.79 59.0946 27.856 59.4832 27.856ZM65.366 29V21.3H66.543L71.372 27.229H70.789V21.3H72.208V29H71.031L66.202 23.071H66.785V29H65.366ZM83.1633 21.3H84.5933V29H83.1633V21.3ZM79.1813 29H77.7513V21.3H79.1813V29ZM83.2733 25.7H79.0603V24.479H83.2733V25.7ZM86.8766 29V21.3H88.3066V29H86.8766ZM90.1803 26.514V25.37H93.2053V26.514H90.1803ZM96.237 29V22.51H93.685V21.3H100.219V22.51H97.667V29H96.237ZM101.512 29V21.3H104.68C105.362 21.3 105.945 21.41 106.429 21.63C106.92 21.85 107.298 22.1653 107.562 22.576C107.826 22.9867 107.958 23.4743 107.958 24.039C107.958 24.6037 107.826 25.0913 107.562 25.502C107.298 25.9053 106.92 26.217 106.429 26.437C105.945 26.6497 105.362 26.756 104.68 26.756H102.304L102.942 26.107V29H101.512ZM106.55 29L104.603 26.206H106.132L108.09 29H106.55ZM102.942 26.261L102.304 25.579H104.614C105.245 25.579 105.718 25.4433 106.033 25.172C106.356 24.9007 106.517 24.523 106.517 24.039C106.517 23.5477 106.356 23.17 106.033 22.906C105.718 22.642 105.245 22.51 104.614 22.51H102.304L102.942 21.806V26.261ZM108.689 29L112.154 21.3H113.562L117.038 29H115.542L112.561 22.059H113.133L110.163 29H108.689ZM110.284 27.218L110.669 26.096H114.827L115.212 27.218H110.284ZM121.694 29.11C121.107 29.11 120.561 29.0147 120.055 28.824C119.556 28.626 119.12 28.351 118.746 27.999C118.379 27.6397 118.093 27.218 117.888 26.734C117.683 26.25 117.58 25.722 117.58 25.15C117.58 24.578 117.683 24.05 117.888 23.566C118.093 23.082 118.383 22.664 118.757 22.312C119.131 21.9527 119.567 21.6777 120.066 21.487C120.565 21.289 121.111 21.19 121.705 21.19C122.336 21.19 122.911 21.3 123.432 21.52C123.953 21.7327 124.393 22.0517 124.752 22.477L123.828 23.346C123.549 23.0453 123.238 22.8217 122.893 22.675C122.548 22.521 122.174 22.444 121.771 22.444C121.368 22.444 120.997 22.51 120.66 22.642C120.33 22.774 120.04 22.961 119.791 23.203C119.549 23.445 119.358 23.731 119.219 24.061C119.087 24.391 119.021 24.754 119.021 25.15C119.021 25.546 119.087 25.909 119.219 26.239C119.358 26.569 119.549 26.855 119.791 27.097C120.04 27.339 120.33 27.526 120.66 27.658C120.997 27.79 121.368 27.856 121.771 27.856C122.174 27.856 122.548 27.7827 122.893 27.636C123.238 27.482 123.549 27.251 123.828 26.943L124.752 27.823C124.393 28.241 123.953 28.56 123.432 28.78C122.911 29 122.332 29.11 121.694 29.11ZM127.818 29V22.51H125.266V21.3H131.8V22.51H129.248V29H127.818ZM133.093 29V21.3H134.523V29H133.093ZM140.434 29.11C139.833 29.11 139.279 29.011 138.773 28.813C138.267 28.615 137.827 28.34 137.453 27.988C137.079 27.6287 136.789 27.2107 136.584 26.734C136.379 26.25 136.276 25.722 136.276 25.15C136.276 24.578 136.379 24.0537 136.584 23.577C136.789 23.093 137.079 22.675 137.453 22.323C137.827 21.9637 138.267 21.685 138.773 21.487C139.279 21.289 139.829 21.19 140.423 21.19C141.024 21.19 141.574 21.289 142.073 21.487C142.579 21.685 143.019 21.9637 143.393 22.323C143.767 22.675 144.057 23.093 144.262 23.577C144.467 24.0537 144.57 24.578 144.57 25.15C144.57 25.722 144.467 26.25 144.262 26.734C144.057 27.218 143.767 27.636 143.393 27.988C143.019 28.34 142.579 28.615 142.073 28.813C141.574 29.011 141.028 29.11 140.434 29.11ZM140.423 27.856C140.812 27.856 141.171 27.79 141.501 27.658C141.831 27.526 142.117 27.339 142.359 27.097C142.601 26.8477 142.788 26.5617 142.92 26.239C143.059 25.909 143.129 25.546 143.129 25.15C143.129 24.754 143.059 24.3947 142.92 24.072C142.788 23.742 142.601 23.456 142.359 23.214C142.117 22.9647 141.831 22.774 141.501 22.642C141.171 22.51 140.812 22.444 140.423 22.444C140.034 22.444 139.675 22.51 139.345 22.642C139.022 22.774 138.736 22.9647 138.487 23.214C138.245 23.456 138.054 23.742 137.915 24.072C137.783 24.3947 137.717 24.754 137.717 25.15C137.717 25.5387 137.783 25.898 137.915 26.228C138.054 26.558 138.245 26.8477 138.487 27.097C138.729 27.339 139.015 27.526 139.345 27.658C139.675 27.79 140.034 27.856 140.423 27.856ZM146.306 29V21.3H147.483L152.312 27.229H151.729V21.3H153.148V29H151.971L147.142 23.071H147.725V29H146.306ZM160.253 29V22.51H157.701V21.3H164.235V22.51H161.683V29H160.253ZM165.528 29V21.3H166.958V29H165.528ZM169.261 29V21.3H172.429C173.111 21.3 173.694 21.41 174.178 21.63C174.669 21.85 175.047 22.1653 175.311 22.576C175.575 22.9867 175.707 23.4743 175.707 24.039C175.707 24.6037 175.575 25.0913 175.311 25.502C175.047 25.9053 174.669 26.217 174.178 26.437C173.694 26.6497 173.111 26.756 172.429 26.756H170.053L170.691 26.107V29H169.261ZM174.299 29L172.352 26.206H173.881L175.839 29H174.299ZM170.691 26.261L170.053 25.579H172.363C172.994 25.579 173.467 25.4433 173.782 25.172C174.105 24.9007 174.266 24.523 174.266 24.039C174.266 23.5477 174.105 23.17 173.782 22.906C173.467 22.642 172.994 22.51 172.363 22.51H170.053L170.691 21.806V26.261ZM178.847 24.501H182.675V25.678H178.847V24.501ZM178.957 27.801H183.302V29H177.527V21.3H183.148V22.499H178.957V27.801ZM187.503 29.11C186.902 29.11 186.326 29.0257 185.776 28.857C185.226 28.681 184.79 28.4573 184.467 28.186L184.962 27.075C185.27 27.317 185.651 27.5187 186.106 27.68C186.561 27.8413 187.026 27.922 187.503 27.922C187.906 27.922 188.233 27.878 188.482 27.79C188.731 27.702 188.915 27.5847 189.032 27.438C189.149 27.284 189.208 27.1117 189.208 26.921C189.208 26.6863 189.124 26.4993 188.955 26.36C188.786 26.2133 188.566 26.0997 188.295 26.019C188.031 25.931 187.734 25.8503 187.404 25.777C187.081 25.7037 186.755 25.6193 186.425 25.524C186.102 25.4213 185.805 25.293 185.534 25.139C185.27 24.9777 185.054 24.765 184.885 24.501C184.716 24.237 184.632 23.8997 184.632 23.489C184.632 23.071 184.742 22.6897 184.962 22.345C185.189 21.993 185.53 21.7143 185.985 21.509C186.447 21.2963 187.03 21.19 187.734 21.19C188.196 21.19 188.654 21.2487 189.109 21.366C189.564 21.4833 189.96 21.652 190.297 21.872L189.846 22.983C189.501 22.7777 189.146 22.6273 188.779 22.532C188.412 22.4293 188.06 22.378 187.723 22.378C187.327 22.378 187.004 22.4257 186.755 22.521C186.513 22.6163 186.333 22.741 186.216 22.895C186.106 23.049 186.051 23.225 186.051 23.423C186.051 23.6577 186.132 23.8483 186.293 23.995C186.462 24.1343 186.678 24.2443 186.942 24.325C187.213 24.4057 187.514 24.4863 187.844 24.567C188.174 24.6403 188.5 24.7247 188.823 24.82C189.153 24.9153 189.45 25.04 189.714 25.194C189.985 25.348 190.202 25.557 190.363 25.821C190.532 26.085 190.616 26.4187 190.616 26.822C190.616 27.2327 190.502 27.614 190.275 27.966C190.055 28.3107 189.714 28.5893 189.252 28.802C188.79 29.0073 188.207 29.11 187.503 29.11Z" fill="#161616"/>
<path opacity="0.9" d="M27.7804 45V40.1H29.6914C30.1207 40.1 30.4871 40.1677 30.7904 40.303C31.0937 40.4383 31.3271 40.6343 31.4904 40.891C31.6537 41.1477 31.7354 41.4533 31.7354 41.808C31.7354 42.1627 31.6537 42.4683 31.4904 42.725C31.3271 42.977 31.0937 43.1707 30.7904 43.306C30.4871 43.4413 30.1207 43.509 29.6914 43.509H28.1654L28.4804 43.187V45H27.7804ZM31.0564 45L29.8104 43.222H30.5594L31.8194 45H31.0564ZM28.4804 43.257L28.1654 42.914H29.6704C30.1184 42.914 30.4567 42.8183 30.6854 42.627C30.9187 42.431 31.0354 42.158 31.0354 41.808C31.0354 41.458 30.9187 41.1873 30.6854 40.996C30.4567 40.8047 30.1184 40.709 29.6704 40.709H28.1654L28.4804 40.359V43.257ZM35.0372 45V44.216L35.0022 44.069V42.732C35.0022 42.4473 34.9182 42.228 34.7502 42.074C34.5868 41.9153 34.3395 41.836 34.0082 41.836C33.7888 41.836 33.5742 41.8733 33.3642 41.948C33.1542 42.018 32.9768 42.1137 32.8322 42.235L32.5522 41.731C32.7435 41.577 32.9722 41.4603 33.2382 41.381C33.5088 41.297 33.7912 41.255 34.0852 41.255C34.5938 41.255 34.9858 41.3787 35.2612 41.626C35.5365 41.8733 35.6742 42.2513 35.6742 42.76V45H35.0372ZM33.8192 45.042C33.5438 45.042 33.3012 44.9953 33.0912 44.902C32.8858 44.8087 32.7272 44.6803 32.6152 44.517C32.5032 44.349 32.4472 44.16 32.4472 43.95C32.4472 43.7493 32.4938 43.5673 32.5872 43.404C32.6852 43.2407 32.8415 43.11 33.0562 43.012C33.2755 42.914 33.5695 42.865 33.9382 42.865H35.1142V43.348H33.9662C33.6302 43.348 33.4038 43.404 33.2872 43.516C33.1705 43.628 33.1122 43.7633 33.1122 43.922C33.1122 44.104 33.1845 44.251 33.3292 44.363C33.4738 44.4703 33.6745 44.524 33.9312 44.524C34.1832 44.524 34.4025 44.468 34.5892 44.356C34.7805 44.244 34.9182 44.0807 35.0022 43.866L35.1352 44.328C35.0465 44.5473 34.8902 44.7223 34.6662 44.853C34.4422 44.979 34.1598 45.042 33.8192 45.042ZM36.9178 45V39.806H37.5898V45H36.9178ZM39.9368 45.042C39.6288 45.042 39.3348 45 39.0548 44.916C38.7795 44.832 38.5625 44.7293 38.4038 44.608L38.6838 44.076C38.8425 44.1833 39.0385 44.2743 39.2718 44.349C39.5052 44.4237 39.7432 44.461 39.9858 44.461C40.2985 44.461 40.5225 44.4167 40.6578 44.328C40.7978 44.2393 40.8678 44.1157 40.8678 43.957C40.8678 43.8403 40.8258 43.7493 40.7418 43.684C40.6578 43.6187 40.5458 43.5697 40.4058 43.537C40.2705 43.5043 40.1188 43.4763 39.9508 43.453C39.7828 43.425 39.6148 43.3923 39.4468 43.355C39.2788 43.313 39.1248 43.257 38.9848 43.187C38.8448 43.1123 38.7328 43.012 38.6488 42.886C38.5648 42.7553 38.5228 42.5827 38.5228 42.368C38.5228 42.144 38.5858 41.948 38.7118 41.78C38.8378 41.612 39.0152 41.4837 39.2438 41.395C39.4772 41.3017 39.7525 41.255 40.0698 41.255C40.3125 41.255 40.5575 41.2853 40.8048 41.346C41.0568 41.402 41.2622 41.4837 41.4208 41.591L41.1338 42.123C40.9658 42.011 40.7908 41.934 40.6088 41.892C40.4268 41.85 40.2448 41.829 40.0628 41.829C39.7688 41.829 39.5495 41.878 39.4048 41.976C39.2602 42.0693 39.1878 42.1907 39.1878 42.34C39.1878 42.466 39.2298 42.564 39.3138 42.634C39.4025 42.6993 39.5145 42.7507 39.6498 42.788C39.7898 42.8253 39.9438 42.858 40.1118 42.886C40.2798 42.9093 40.4478 42.942 40.6158 42.984C40.7838 43.0213 40.9355 43.075 41.0708 43.145C41.2108 43.215 41.3228 43.313 41.4068 43.439C41.4955 43.565 41.5398 43.733 41.5398 43.943C41.5398 44.167 41.4745 44.3607 41.3438 44.524C41.2132 44.6873 41.0288 44.8157 40.7908 44.909C40.5528 44.9977 40.2682 45.042 39.9368 45.042ZM43.9687 45.042C43.5953 45.042 43.264 44.9603 42.9747 44.797C42.6853 44.6337 42.4567 44.4097 42.2887 44.125C42.1207 43.8357 42.0367 43.509 42.0367 43.145C42.0367 42.7763 42.1207 42.4497 42.2887 42.165C42.4567 41.8803 42.6853 41.6587 42.9747 41.5C43.264 41.3367 43.5953 41.255 43.9687 41.255C44.3373 41.255 44.6663 41.3367 44.9557 41.5C45.2497 41.6587 45.4783 41.8803 45.6417 42.165C45.8097 42.445 45.8937 42.7717 45.8937 43.145C45.8937 43.5137 45.8097 43.8403 45.6417 44.125C45.4783 44.4097 45.2497 44.6337 44.9557 44.797C44.6663 44.9603 44.3373 45.042 43.9687 45.042ZM43.9687 44.454C44.2067 44.454 44.419 44.4003 44.6057 44.293C44.797 44.1857 44.9463 44.034 45.0537 43.838C45.161 43.6373 45.2147 43.4063 45.2147 43.145C45.2147 42.879 45.161 42.6503 45.0537 42.459C44.9463 42.263 44.797 42.1113 44.6057 42.004C44.419 41.8967 44.2067 41.843 43.9687 41.843C43.7307 41.843 43.5183 41.8967 43.3317 42.004C43.145 42.1113 42.9957 42.263 42.8837 42.459C42.7717 42.6503 42.7157 42.879 42.7157 43.145C42.7157 43.4063 42.7717 43.6373 42.8837 43.838C42.9957 44.034 43.145 44.1857 43.3317 44.293C43.5183 44.4003 43.7307 44.454 43.9687 44.454ZM48.804 41.255C49.1074 41.255 49.3734 41.3133 49.602 41.43C49.8354 41.5467 50.0174 41.724 50.148 41.962C50.2787 42.2 50.344 42.501 50.344 42.865V45H49.672V42.942C49.672 42.5827 49.5834 42.312 49.406 42.13C49.2334 41.948 48.9884 41.857 48.671 41.857C48.433 41.857 48.2254 41.9037 48.048 41.997C47.8707 42.0903 47.733 42.228 47.635 42.41C47.5417 42.592 47.495 42.8183 47.495 43.089V45H46.823V41.29H47.467V42.291L47.362 42.025C47.4834 41.7823 47.67 41.5933 47.922 41.458C48.174 41.3227 48.468 41.255 48.804 41.255ZM54.5316 45.042C54.2236 45.042 53.9296 45 53.6496 44.916C53.3742 44.832 53.1572 44.7293 52.9986 44.608L53.2786 44.076C53.4372 44.1833 53.6332 44.2743 53.8666 44.349C54.0999 44.4237 54.3379 44.461 54.5806 44.461C54.8932 44.461 55.1172 44.4167 55.2526 44.328C55.3926 44.2393 55.4626 44.1157 55.4626 43.957C55.4626 43.8403 55.4206 43.7493 55.3366 43.684C55.2526 43.6187 55.1406 43.5697 55.0006 43.537C54.8652 43.5043 54.7136 43.4763 54.5456 43.453C54.3776 43.425 54.2096 43.3923 54.0416 43.355C53.8736 43.313 53.7196 43.257 53.5796 43.187C53.4396 43.1123 53.3276 43.012 53.2436 42.886C53.1596 42.7553 53.1176 42.5827 53.1176 42.368C53.1176 42.144 53.1806 41.948 53.3066 41.78C53.4326 41.612 53.6099 41.4837 53.8386 41.395C54.0719 41.3017 54.3472 41.255 54.6646 41.255C54.9072 41.255 55.1522 41.2853 55.3996 41.346C55.6516 41.402 55.8569 41.4837 56.0156 41.591L55.7286 42.123C55.5606 42.011 55.3856 41.934 55.2036 41.892C55.0216 41.85 54.8396 41.829 54.6576 41.829C54.3636 41.829 54.1442 41.878 53.9996 41.976C53.8549 42.0693 53.7826 42.1907 53.7826 42.34C53.7826 42.466 53.8246 42.564 53.9086 42.634C53.9972 42.6993 54.1092 42.7507 54.2446 42.788C54.3846 42.8253 54.5386 42.858 54.7066 42.886C54.8746 42.9093 55.0426 42.942 55.2106 42.984C55.3786 43.0213 55.5302 43.075 55.6656 43.145C55.8056 43.215 55.9176 43.313 56.0016 43.439C56.0902 43.565 56.1346 43.733 56.1346 43.943C56.1346 44.167 56.0692 44.3607 55.9386 44.524C55.8079 44.6873 55.6236 44.8157 55.3856 44.909C55.1476 44.9977 54.8629 45.042 54.5316 45.042ZM58.2484 45.042C57.8751 45.042 57.5857 44.9417 57.3804 44.741C57.1751 44.5403 57.0724 44.2533 57.0724 43.88V40.478H57.7444V43.852C57.7444 44.0527 57.7934 44.2067 57.8914 44.314C57.9941 44.4213 58.1387 44.475 58.3254 44.475C58.5354 44.475 58.7104 44.4167 58.8504 44.3L59.0604 44.783C58.9577 44.8717 58.8341 44.937 58.6894 44.979C58.5494 45.021 58.4024 45.042 58.2484 45.042ZM56.4424 41.843V41.29H58.8084V41.843H56.4424ZM59.8728 45V41.29H60.5168V42.298L60.4538 42.046C60.5565 41.7893 60.7292 41.5933 60.9718 41.458C61.2145 41.3227 61.5132 41.255 61.8678 41.255V41.906C61.8398 41.9013 61.8118 41.899 61.7838 41.899C61.7605 41.899 61.7372 41.899 61.7138 41.899C61.3545 41.899 61.0698 42.0063 60.8598 42.221C60.6498 42.4357 60.5448 42.746 60.5448 43.152V45H59.8728ZM64.2509 45.042C63.8776 45.042 63.5462 44.9603 63.2569 44.797C62.9676 44.6337 62.7389 44.4097 62.5709 44.125C62.4029 43.8357 62.3189 43.509 62.3189 43.145C62.3189 42.7763 62.4029 42.4497 62.5709 42.165C62.7389 41.8803 62.9676 41.6587 63.2569 41.5C63.5462 41.3367 63.8776 41.255 64.2509 41.255C64.6196 41.255 64.9486 41.3367 65.2379 41.5C65.5319 41.6587 65.7606 41.8803 65.9239 42.165C66.0919 42.445 66.1759 42.7717 66.1759 43.145C66.1759 43.5137 66.0919 43.8403 65.9239 44.125C65.7606 44.4097 65.5319 44.6337 65.2379 44.797C64.9486 44.9603 64.6196 45.042 64.2509 45.042ZM64.2509 44.454C64.4889 44.454 64.7012 44.4003 64.8879 44.293C65.0792 44.1857 65.2286 44.034 65.3359 43.838C65.4432 43.6373 65.4969 43.4063 65.4969 43.145C65.4969 42.879 65.4432 42.6503 65.3359 42.459C65.2286 42.263 65.0792 42.1113 64.8879 42.004C64.7012 41.8967 64.4889 41.843 64.2509 41.843C64.0129 41.843 63.8006 41.8967 63.6139 42.004C63.4272 42.1113 63.2779 42.263 63.1659 42.459C63.0539 42.6503 62.9979 42.879 62.9979 43.145C62.9979 43.4063 63.0539 43.6373 63.1659 43.838C63.2779 44.034 63.4272 44.1857 63.6139 44.293C63.8006 44.4003 64.0129 44.454 64.2509 44.454ZM69.0863 41.255C69.3896 41.255 69.6556 41.3133 69.8843 41.43C70.1176 41.5467 70.2996 41.724 70.4303 41.962C70.5609 42.2 70.6263 42.501 70.6263 42.865V45H69.9543V42.942C69.9543 42.5827 69.8656 42.312 69.6883 42.13C69.5156 41.948 69.2706 41.857 68.9533 41.857C68.7153 41.857 68.5076 41.9037 68.3303 41.997C68.1529 42.0903 68.0153 42.228 67.9173 42.41C67.8239 42.592 67.7773 42.8183 67.7773 43.089V45H67.1053V41.29H67.7493V42.291L67.6443 42.025C67.7656 41.7823 67.9523 41.5933 68.2043 41.458C68.4563 41.3227 68.7503 41.255 69.0863 41.255ZM73.4939 46.4C73.1532 46.4 72.8219 46.351 72.4999 46.253C72.1826 46.1597 71.9236 46.0243 71.7229 45.847L72.0449 45.329C72.2176 45.4783 72.4299 45.595 72.6819 45.679C72.9339 45.7677 73.1976 45.812 73.4729 45.812C73.9116 45.812 74.2336 45.7093 74.4389 45.504C74.6442 45.2987 74.7469 44.986 74.7469 44.566V43.782L74.8169 43.047L74.7819 42.305V41.29H75.4189V44.496C75.4189 45.1493 75.2556 45.63 74.9289 45.938C74.6022 46.246 74.1239 46.4 73.4939 46.4ZM73.4099 44.846C73.0506 44.846 72.7286 44.7713 72.4439 44.622C72.1639 44.468 71.9399 44.2557 71.7719 43.985C71.6086 43.7143 71.5269 43.4017 71.5269 43.047C71.5269 42.6877 71.6086 42.375 71.7719 42.109C71.9399 41.8383 72.1639 41.6283 72.4439 41.479C72.7286 41.3297 73.0506 41.255 73.4099 41.255C73.7272 41.255 74.0166 41.3203 74.2779 41.451C74.5392 41.577 74.7469 41.773 74.9009 42.039C75.0596 42.305 75.1389 42.641 75.1389 43.047C75.1389 43.4483 75.0596 43.782 74.9009 44.048C74.7469 44.314 74.5392 44.5147 74.2779 44.65C74.0166 44.7807 73.7272 44.846 73.4099 44.846ZM73.4869 44.258C73.7342 44.258 73.9536 44.2067 74.1449 44.104C74.3362 44.0013 74.4856 43.859 74.5929 43.677C74.7049 43.495 74.7609 43.285 74.7609 43.047C74.7609 42.809 74.7049 42.599 74.5929 42.417C74.4856 42.235 74.3362 42.095 74.1449 41.997C73.9536 41.8943 73.7342 41.843 73.4869 41.843C73.2396 41.843 73.0179 41.8943 72.8219 41.997C72.6306 42.095 72.4789 42.235 72.3669 42.417C72.2596 42.599 72.2059 42.809 72.2059 43.047C72.2059 43.285 72.2596 43.495 72.3669 43.677C72.4789 43.859 72.6306 44.0013 72.8219 44.104C73.0179 44.2067 73.2396 44.258 73.4869 44.258ZM80.5498 45.042C80.2325 45.042 79.9455 44.972 79.6888 44.832C79.4368 44.6873 79.2361 44.475 79.0868 44.195C78.9421 43.915 78.8698 43.565 78.8698 43.145C78.8698 42.725 78.9445 42.375 79.0938 42.095C79.2478 41.815 79.4508 41.605 79.7028 41.465C79.9595 41.325 80.2418 41.255 80.5498 41.255C80.9138 41.255 81.2358 41.3343 81.5158 41.493C81.7958 41.6517 82.0175 41.8733 82.1808 42.158C82.3441 42.438 82.4258 42.767 82.4258 43.145C82.4258 43.523 82.3441 43.8543 82.1808 44.139C82.0175 44.4237 81.7958 44.6453 81.5158 44.804C81.2358 44.9627 80.9138 45.042 80.5498 45.042ZM78.5828 45V39.806H79.2548V42.277L79.1848 43.138L79.2268 43.999V45H78.5828ZM80.4938 44.454C80.7318 44.454 80.9441 44.4003 81.1308 44.293C81.3221 44.1857 81.4715 44.034 81.5788 43.838C81.6908 43.6373 81.7468 43.4063 81.7468 43.145C81.7468 42.879 81.6908 42.6503 81.5788 42.459C81.4715 42.263 81.3221 42.1113 81.1308 42.004C80.9441 41.8967 80.7318 41.843 80.4938 41.843C80.2605 41.843 80.0481 41.8967 79.8568 42.004C79.6701 42.1113 79.5208 42.263 79.4088 42.459C79.3015 42.6503 79.2478 42.879 79.2478 43.145C79.2478 43.4063 79.3015 43.6373 79.4088 43.838C79.5208 44.034 79.6701 44.1857 79.8568 44.293C80.0481 44.4003 80.2605 44.454 80.4938 44.454ZM84.9433 45.042C84.57 45.042 84.2386 44.9603 83.9493 44.797C83.66 44.6337 83.4313 44.4097 83.2633 44.125C83.0953 43.8357 83.0113 43.509 83.0113 43.145C83.0113 42.7763 83.0953 42.4497 83.2633 42.165C83.4313 41.8803 83.66 41.6587 83.9493 41.5C84.2386 41.3367 84.57 41.255 84.9433 41.255C85.312 41.255 85.641 41.3367 85.9303 41.5C86.2243 41.6587 86.453 41.8803 86.6163 42.165C86.7843 42.445 86.8683 42.7717 86.8683 43.145C86.8683 43.5137 86.7843 43.8403 86.6163 44.125C86.453 44.4097 86.2243 44.6337 85.9303 44.797C85.641 44.9603 85.312 45.042 84.9433 45.042ZM84.9433 44.454C85.1813 44.454 85.3936 44.4003 85.5803 44.293C85.7716 44.1857 85.921 44.034 86.0283 43.838C86.1356 43.6373 86.1893 43.4063 86.1893 43.145C86.1893 42.879 86.1356 42.6503 86.0283 42.459C85.921 42.263 85.7716 42.1113 85.5803 42.004C85.3936 41.8967 85.1813 41.843 84.9433 41.843C84.7053 41.843 84.493 41.8967 84.3063 42.004C84.1196 42.1113 83.9703 42.263 83.8583 42.459C83.7463 42.6503 83.6903 42.879 83.6903 43.145C83.6903 43.4063 83.7463 43.6373 83.8583 43.838C83.9703 44.034 84.1196 44.1857 84.3063 44.293C84.493 44.4003 84.7053 44.454 84.9433 44.454ZM87.8561 46.4C87.6788 46.4 87.5061 46.3697 87.3381 46.309C87.1701 46.253 87.0254 46.169 86.9041 46.057L87.1911 45.553C87.2844 45.6417 87.3871 45.7093 87.4991 45.756C87.6111 45.8027 87.7301 45.826 87.8561 45.826C88.0194 45.826 88.1548 45.784 88.2621 45.7C88.3694 45.616 88.4698 45.4667 88.5631 45.252L88.7941 44.741L88.8641 44.657L90.3201 41.29H90.9781L89.1791 45.371C89.0718 45.6323 88.9504 45.8377 88.8151 45.987C88.6844 46.1363 88.5398 46.2413 88.3811 46.302C88.2224 46.3673 88.0474 46.4 87.8561 46.4ZM88.7381 45.119L87.0441 41.29H87.7441L89.1861 44.594L88.7381 45.119ZM94.7591 45.042C94.3858 45.042 94.0965 44.9417 93.8911 44.741C93.6858 44.5403 93.5831 44.2533 93.5831 43.88V40.478H94.2551V43.852C94.2551 44.0527 94.3041 44.2067 94.4021 44.314C94.5048 44.4213 94.6495 44.475 94.8361 44.475C95.0461 44.475 95.2211 44.4167 95.3611 44.3L95.5711 44.783C95.4685 44.8717 95.3448 44.937 95.2001 44.979C95.0601 45.021 94.9131 45.042 94.7591 45.042ZM92.9531 41.843V41.29H95.3191V41.843H92.9531ZM96.3836 45V41.29H97.0556V45H96.3836ZM96.7196 40.576C96.5889 40.576 96.4792 40.534 96.3906 40.45C96.3066 40.366 96.2646 40.2633 96.2646 40.142C96.2646 40.016 96.3066 39.911 96.3906 39.827C96.4792 39.743 96.5889 39.701 96.7196 39.701C96.8502 39.701 96.9576 39.743 97.0416 39.827C97.1302 39.9063 97.1746 40.0067 97.1746 40.128C97.1746 40.254 97.1326 40.3613 97.0486 40.45C96.9646 40.534 96.8549 40.576 96.7196 40.576ZM98.3387 45V41.29H98.9827V42.298L98.9197 42.046C99.0223 41.7893 99.195 41.5933 99.4377 41.458C99.6803 41.3227 99.979 41.255 100.334 41.255V41.906C100.306 41.9013 100.278 41.899 100.25 41.899C100.226 41.899 100.203 41.899 100.18 41.899C99.8203 41.899 99.5357 42.0063 99.3257 42.221C99.1157 42.4357 99.0107 42.746 99.0107 43.152V45H98.3387ZM102.78 45.042C102.383 45.042 102.033 44.9603 101.73 44.797C101.431 44.6337 101.198 44.4097 101.03 44.125C100.866 43.8403 100.785 43.5137 100.785 43.145C100.785 42.7763 100.864 42.4497 101.023 42.165C101.186 41.8803 101.408 41.6587 101.688 41.5C101.972 41.3367 102.292 41.255 102.647 41.255C103.006 41.255 103.323 41.3343 103.599 41.493C103.874 41.6517 104.089 41.8757 104.243 42.165C104.401 42.4497 104.481 42.7833 104.481 43.166C104.481 43.194 104.478 43.2267 104.474 43.264C104.474 43.3013 104.471 43.3363 104.467 43.369H101.31V42.886H104.117L103.844 43.054C103.848 42.816 103.799 42.6037 103.697 42.417C103.594 42.2303 103.452 42.0857 103.27 41.983C103.092 41.8757 102.885 41.822 102.647 41.822C102.413 41.822 102.206 41.8757 102.024 41.983C101.842 42.0857 101.699 42.2327 101.597 42.424C101.494 42.6107 101.443 42.8253 101.443 43.068V43.18C101.443 43.4273 101.499 43.649 101.611 43.845C101.727 44.0363 101.888 44.1857 102.094 44.293C102.299 44.4003 102.535 44.454 102.801 44.454C103.02 44.454 103.218 44.4167 103.396 44.342C103.578 44.2673 103.736 44.1553 103.872 44.006L104.243 44.44C104.075 44.636 103.865 44.7853 103.613 44.888C103.365 44.9907 103.088 45.042 102.78 45.042ZM106.478 45.042C106.17 45.042 105.876 45 105.596 44.916C105.321 44.832 105.104 44.7293 104.945 44.608L105.225 44.076C105.384 44.1833 105.58 44.2743 105.813 44.349C106.046 44.4237 106.284 44.461 106.527 44.461C106.84 44.461 107.064 44.4167 107.199 44.328C107.339 44.2393 107.409 44.1157 107.409 43.957C107.409 43.8403 107.367 43.7493 107.283 43.684C107.199 43.6187 107.087 43.5697 106.947 43.537C106.812 43.5043 106.66 43.4763 106.492 43.453C106.324 43.425 106.156 43.3923 105.988 43.355C105.82 43.313 105.666 43.257 105.526 43.187C105.386 43.1123 105.274 43.012 105.19 42.886C105.106 42.7553 105.064 42.5827 105.064 42.368C105.064 42.144 105.127 41.948 105.253 41.78C105.379 41.612 105.556 41.4837 105.785 41.395C106.018 41.3017 106.294 41.255 106.611 41.255C106.854 41.255 107.099 41.2853 107.346 41.346C107.598 41.402 107.803 41.4837 107.962 41.591L107.675 42.123C107.507 42.011 107.332 41.934 107.15 41.892C106.968 41.85 106.786 41.829 106.604 41.829C106.31 41.829 106.091 41.878 105.946 41.976C105.801 42.0693 105.729 42.1907 105.729 42.34C105.729 42.466 105.771 42.564 105.855 42.634C105.944 42.6993 106.056 42.7507 106.191 42.788C106.331 42.8253 106.485 42.858 106.653 42.886C106.821 42.9093 106.989 42.942 107.157 42.984C107.325 43.0213 107.477 43.075 107.612 43.145C107.752 43.215 107.864 43.313 107.948 43.439C108.037 43.565 108.081 43.733 108.081 43.943C108.081 44.167 108.016 44.3607 107.885 44.524C107.754 44.6873 107.57 44.8157 107.332 44.909C107.094 44.9977 106.809 45.042 106.478 45.042ZM111.585 45L110.206 41.29H110.843L112.068 44.65H111.767L113.041 41.29H113.608L114.854 44.65H114.56L115.813 41.29H116.415L115.029 45H114.385L113.216 41.934H113.412L112.229 45H111.585ZM119.077 41.255C119.381 41.255 119.647 41.3133 119.875 41.43C120.109 41.5467 120.291 41.724 120.421 41.962C120.552 42.2 120.617 42.501 120.617 42.865V45H119.945V42.942C119.945 42.5827 119.857 42.312 119.679 42.13C119.507 41.948 119.262 41.857 118.944 41.857C118.706 41.857 118.499 41.9037 118.321 41.997C118.144 42.0903 118.006 42.228 117.908 42.41C117.815 42.592 117.768 42.8183 117.768 43.089V45H117.096V39.806H117.768V42.291L117.635 42.025C117.757 41.7823 117.943 41.5933 118.195 41.458C118.447 41.3227 118.741 41.255 119.077 41.255ZM121.861 45V41.29H122.533V45H121.861ZM122.197 40.576C122.066 40.576 121.957 40.534 121.868 40.45C121.784 40.366 121.742 40.2633 121.742 40.142C121.742 40.016 121.784 39.911 121.868 39.827C121.957 39.743 122.066 39.701 122.197 39.701C122.328 39.701 122.435 39.743 122.519 39.827C122.608 39.9063 122.652 40.0067 122.652 40.128C122.652 40.254 122.61 40.3613 122.526 40.45C122.442 40.534 122.332 40.576 122.197 40.576ZM125.433 45.042C125.055 45.042 124.717 44.9603 124.418 44.797C124.124 44.6337 123.893 44.4097 123.725 44.125C123.557 43.8403 123.473 43.5137 123.473 43.145C123.473 42.7763 123.557 42.4497 123.725 42.165C123.893 41.8803 124.124 41.6587 124.418 41.5C124.717 41.3367 125.055 41.255 125.433 41.255C125.769 41.255 126.068 41.3227 126.329 41.458C126.595 41.5887 126.801 41.7847 126.945 42.046L126.434 42.375C126.313 42.193 126.164 42.06 125.986 41.976C125.814 41.8873 125.627 41.843 125.426 41.843C125.184 41.843 124.967 41.8967 124.775 42.004C124.584 42.1113 124.432 42.263 124.32 42.459C124.208 42.6503 124.152 42.879 124.152 43.145C124.152 43.411 124.208 43.642 124.32 43.838C124.432 44.034 124.584 44.1857 124.775 44.293C124.967 44.4003 125.184 44.454 125.426 44.454C125.627 44.454 125.814 44.412 125.986 44.328C126.164 44.2393 126.313 44.104 126.434 43.922L126.945 44.244C126.801 44.5007 126.595 44.699 126.329 44.839C126.068 44.9743 125.769 45.042 125.433 45.042ZM129.748 41.255C130.052 41.255 130.318 41.3133 130.546 41.43C130.78 41.5467 130.962 41.724 131.092 41.962C131.223 42.2 131.288 42.501 131.288 42.865V45H130.616V42.942C130.616 42.5827 130.528 42.312 130.35 42.13C130.178 41.948 129.933 41.857 129.615 41.857C129.377 41.857 129.17 41.9037 128.992 41.997C128.815 42.0903 128.677 42.228 128.579 42.41C128.486 42.592 128.439 42.8183 128.439 43.089V45H127.767V39.806H128.439V42.291L128.306 42.025C128.428 41.7823 128.614 41.5933 128.866 41.458C129.118 41.3227 129.412 41.255 129.748 41.255ZM136.715 45V44.216L136.68 44.069V42.732C136.68 42.4473 136.596 42.228 136.428 42.074C136.265 41.9153 136.017 41.836 135.686 41.836C135.467 41.836 135.252 41.8733 135.042 41.948C134.832 42.018 134.655 42.1137 134.51 42.235L134.23 41.731C134.421 41.577 134.65 41.4603 134.916 41.381C135.187 41.297 135.469 41.255 135.763 41.255C136.272 41.255 136.664 41.3787 136.939 41.626C137.214 41.8733 137.352 42.2513 137.352 42.76V45H136.715ZM135.497 45.042C135.222 45.042 134.979 44.9953 134.769 44.902C134.564 44.8087 134.405 44.6803 134.293 44.517C134.181 44.349 134.125 44.16 134.125 43.95C134.125 43.7493 134.172 43.5673 134.265 43.404C134.363 43.2407 134.519 43.11 134.734 43.012C134.953 42.914 135.247 42.865 135.616 42.865H136.792V43.348H135.644C135.308 43.348 135.082 43.404 134.965 43.516C134.848 43.628 134.79 43.7633 134.79 43.922C134.79 44.104 134.862 44.251 135.007 44.363C135.152 44.4703 135.352 44.524 135.609 44.524C135.861 44.524 136.08 44.468 136.267 44.356C136.458 44.244 136.596 44.0807 136.68 43.866L136.813 44.328C136.724 44.5473 136.568 44.7223 136.344 44.853C136.12 44.979 135.838 45.042 135.497 45.042ZM138.595 45V41.29H139.239V42.298L139.176 42.046C139.279 41.7893 139.452 41.5933 139.694 41.458C139.937 41.3227 140.236 41.255 140.59 41.255V41.906C140.562 41.9013 140.534 41.899 140.506 41.899C140.483 41.899 140.46 41.899 140.436 41.899C140.077 41.899 139.792 42.0063 139.582 42.221C139.372 42.4357 139.267 42.746 139.267 43.152V45H138.595ZM143.037 45.042C142.64 45.042 142.29 44.9603 141.987 44.797C141.688 44.6337 141.455 44.4097 141.287 44.125C141.123 43.8403 141.042 43.5137 141.042 43.145C141.042 42.7763 141.121 42.4497 141.28 42.165C141.443 41.8803 141.665 41.6587 141.945 41.5C142.229 41.3367 142.549 41.255 142.904 41.255C143.263 41.255 143.58 41.3343 143.856 41.493C144.131 41.6517 144.346 41.8757 144.5 42.165C144.658 42.4497 144.738 42.7833 144.738 43.166C144.738 43.194 144.735 43.2267 144.731 43.264C144.731 43.3013 144.728 43.3363 144.724 43.369H141.567V42.886H144.374L144.101 43.054C144.105 42.816 144.056 42.6037 143.954 42.417C143.851 42.2303 143.709 42.0857 143.527 41.983C143.349 41.8757 143.142 41.822 142.904 41.822C142.67 41.822 142.463 41.8757 142.281 41.983C142.099 42.0857 141.956 42.2327 141.854 42.424C141.751 42.6107 141.7 42.8253 141.7 43.068V43.18C141.7 43.4273 141.756 43.649 141.868 43.845C141.984 44.0363 142.145 44.1857 142.351 44.293C142.556 44.4003 142.792 44.454 143.058 44.454C143.277 44.454 143.475 44.4167 143.653 44.342C143.835 44.2673 143.993 44.1553 144.129 44.006L144.5 44.44C144.332 44.636 144.122 44.7853 143.87 44.888C143.622 44.9907 143.345 45.042 143.037 45.042ZM147.173 45V44.524L149.168 42.599C149.345 42.431 149.476 42.284 149.56 42.158C149.648 42.0273 149.707 41.9083 149.735 41.801C149.767 41.689 149.784 41.5817 149.784 41.479C149.784 41.227 149.695 41.0287 149.518 40.884C149.34 40.7393 149.081 40.667 148.741 40.667C148.479 40.667 148.244 40.7113 148.034 40.8C147.824 40.884 147.642 41.017 147.488 41.199L147.012 40.786C147.198 40.548 147.448 40.366 147.761 40.24C148.078 40.1093 148.426 40.044 148.804 40.044C149.144 40.044 149.441 40.1 149.693 40.212C149.945 40.3193 150.138 40.4757 150.274 40.681C150.414 40.8863 150.484 41.129 150.484 41.409C150.484 41.5677 150.463 41.724 150.421 41.878C150.379 42.032 150.299 42.1953 150.183 42.368C150.066 42.5407 149.898 42.7343 149.679 42.949L147.901 44.664L147.733 44.391H150.694V45H147.173ZM153.32 45.056C152.886 45.056 152.515 44.9603 152.207 44.769C151.899 44.5777 151.664 44.3023 151.5 43.943C151.342 43.579 151.262 43.1357 151.262 42.613C151.262 42.0577 151.36 41.5887 151.556 41.206C151.752 40.8233 152.025 40.534 152.375 40.338C152.725 40.142 153.127 40.044 153.579 40.044C153.813 40.044 154.034 40.0673 154.244 40.114C154.459 40.1607 154.643 40.233 154.797 40.331L154.531 40.877C154.405 40.7883 154.261 40.7277 154.097 40.695C153.939 40.6623 153.771 40.646 153.593 40.646C153.094 40.646 152.697 40.8023 152.403 41.115C152.109 41.423 151.962 41.8827 151.962 42.494C151.962 42.592 151.967 42.7087 151.976 42.844C151.986 42.9793 152.009 43.1123 152.046 43.243L151.808 43.005C151.878 42.7903 151.988 42.6107 152.137 42.466C152.291 42.3167 152.473 42.207 152.683 42.137C152.898 42.0623 153.129 42.025 153.376 42.025C153.703 42.025 153.992 42.0857 154.244 42.207C154.496 42.3283 154.695 42.501 154.839 42.725C154.984 42.9443 155.056 43.2057 155.056 43.509C155.056 43.8217 154.979 44.0947 154.825 44.328C154.671 44.5613 154.464 44.741 154.202 44.867C153.941 44.993 153.647 45.056 153.32 45.056ZM153.292 44.489C153.507 44.489 153.694 44.4493 153.852 44.37C154.016 44.2907 154.144 44.181 154.237 44.041C154.331 43.8963 154.377 43.7283 154.377 43.537C154.377 43.2477 154.277 43.019 154.076 42.851C153.876 42.6783 153.603 42.592 153.257 42.592C153.033 42.592 152.837 42.634 152.669 42.718C152.501 42.802 152.368 42.9163 152.27 43.061C152.177 43.201 152.13 43.362 152.13 43.544C152.13 43.712 152.175 43.8683 152.263 44.013C152.352 44.153 152.483 44.2673 152.655 44.356C152.828 44.4447 153.04 44.489 153.292 44.489ZM155.242 45L156.838 42.928L156.831 43.271L155.312 41.29H156.061L157.223 42.816H156.936L158.098 41.29H158.833L157.293 43.285L157.3 42.928L158.91 45H158.147L156.922 43.376L157.195 43.418L155.991 45H155.242ZM159.04 43.796V43.306L161.546 40.1H162.302L159.817 43.306L159.46 43.194H163.373V43.796H159.04ZM161.763 45V43.796L161.784 43.194V42.13H162.442V45H161.763ZM164.391 45.042C164.261 45.042 164.149 44.9977 164.055 44.909C163.962 44.8157 163.915 44.699 163.915 44.559C163.915 44.419 163.962 44.3047 164.055 44.216C164.149 44.1273 164.261 44.083 164.391 44.083C164.517 44.083 164.625 44.1273 164.713 44.216C164.807 44.3047 164.853 44.419 164.853 44.559C164.853 44.699 164.807 44.8157 164.713 44.909C164.625 44.9977 164.517 45.042 164.391 45.042ZM167.435 45.056C167.053 45.056 166.71 44.958 166.406 44.762C166.108 44.566 165.87 44.2813 165.692 43.908C165.52 43.5347 165.433 43.082 165.433 42.55C165.433 42.018 165.52 41.5653 165.692 41.192C165.87 40.8187 166.108 40.534 166.406 40.338C166.71 40.142 167.053 40.044 167.435 40.044C167.813 40.044 168.154 40.142 168.457 40.338C168.761 40.534 168.999 40.8187 169.171 41.192C169.344 41.5653 169.43 42.018 169.43 42.55C169.43 43.082 169.344 43.5347 169.171 43.908C168.999 44.2813 168.761 44.566 168.457 44.762C168.154 44.958 167.813 45.056 167.435 45.056ZM167.435 44.433C167.692 44.433 167.916 44.363 168.107 44.223C168.303 44.083 168.455 43.873 168.562 43.593C168.674 43.313 168.73 42.9653 168.73 42.55C168.73 42.1347 168.674 41.787 168.562 41.507C168.455 41.227 168.303 41.017 168.107 40.877C167.916 40.737 167.692 40.667 167.435 40.667C167.179 40.667 166.952 40.737 166.756 40.877C166.56 41.017 166.406 41.227 166.294 41.507C166.187 41.787 166.133 42.1347 166.133 42.55C166.133 42.9653 166.187 43.313 166.294 43.593C166.406 43.873 166.56 44.083 166.756 44.223C166.952 44.363 167.179 44.433 167.435 44.433ZM173.067 45L171.688 41.29H172.325L173.55 44.65H173.249L174.523 41.29H175.09L176.336 44.65H176.042L177.295 41.29H177.897L176.511 45H175.867L174.698 41.934H174.894L173.711 45H173.067ZM178.579 45V41.29H179.251V45H178.579ZM178.915 40.576C178.784 40.576 178.675 40.534 178.586 40.45C178.502 40.366 178.46 40.2633 178.46 40.142C178.46 40.016 178.502 39.911 178.586 39.827C178.675 39.743 178.784 39.701 178.915 39.701C179.046 39.701 179.153 39.743 179.237 39.827C179.326 39.9063 179.37 40.0067 179.37 40.128C179.37 40.254 179.328 40.3613 179.244 40.45C179.16 40.534 179.05 40.576 178.915 40.576ZM182.067 45.042C181.708 45.042 181.386 44.9627 181.101 44.804C180.821 44.6453 180.599 44.4237 180.436 44.139C180.273 43.8543 180.191 43.523 180.191 43.145C180.191 42.767 180.273 42.438 180.436 42.158C180.599 41.8733 180.821 41.6517 181.101 41.493C181.386 41.3343 181.708 41.255 182.067 41.255C182.38 41.255 182.662 41.325 182.914 41.465C183.166 41.605 183.367 41.815 183.516 42.095C183.67 42.375 183.747 42.725 183.747 43.145C183.747 43.565 183.672 43.915 183.523 44.195C183.378 44.475 183.18 44.6873 182.928 44.832C182.676 44.972 182.389 45.042 182.067 45.042ZM182.123 44.454C182.356 44.454 182.566 44.4003 182.753 44.293C182.944 44.1857 183.094 44.034 183.201 43.838C183.313 43.6373 183.369 43.4063 183.369 43.145C183.369 42.879 183.313 42.6503 183.201 42.459C183.094 42.263 182.944 42.1113 182.753 42.004C182.566 41.8967 182.356 41.843 182.123 41.843C181.885 41.843 181.673 41.8967 181.486 42.004C181.299 42.1113 181.15 42.263 181.038 42.459C180.926 42.6503 180.87 42.879 180.87 43.145C180.87 43.4063 180.926 43.6373 181.038 43.838C181.15 44.034 181.299 44.1857 181.486 44.293C181.673 44.4003 181.885 44.454 182.123 44.454ZM183.39 45V43.999L183.432 43.138L183.362 42.277V39.806H184.034V45H183.39ZM186.957 45.042C186.561 45.042 186.211 44.9603 185.907 44.797C185.609 44.6337 185.375 44.4097 185.207 44.125C185.044 43.8403 184.962 43.5137 184.962 43.145C184.962 42.7763 185.042 42.4497 185.2 42.165C185.364 41.8803 185.585 41.6587 185.865 41.5C186.15 41.3367 186.47 41.255 186.824 41.255C187.184 41.255 187.501 41.3343 187.776 41.493C188.052 41.6517 188.266 41.8757 188.42 42.165C188.579 42.4497 188.658 42.7833 188.658 43.166C188.658 43.194 188.656 43.2267 188.651 43.264C188.651 43.3013 188.649 43.3363 188.644 43.369H185.487V42.886H188.294L188.021 43.054C188.026 42.816 187.977 42.6037 187.874 42.417C187.772 42.2303 187.629 42.0857 187.447 41.983C187.27 41.8757 187.062 41.822 186.824 41.822C186.591 41.822 186.383 41.8757 186.201 41.983C186.019 42.0857 185.877 42.2327 185.774 42.424C185.672 42.6107 185.62 42.8253 185.62 43.068V43.18C185.62 43.4273 185.676 43.649 185.788 43.845C185.905 44.0363 186.066 44.1857 186.271 44.293C186.477 44.4003 186.712 44.454 186.978 44.454C187.198 44.454 187.396 44.4167 187.573 44.342C187.755 44.2673 187.914 44.1553 188.049 44.006L188.42 44.44C188.252 44.636 188.042 44.7853 187.79 44.888C187.543 44.9907 187.265 45.042 186.957 45.042ZM27.3146 57L25.9356 53.29H26.5726L27.7976 56.65H27.4966L28.7706 53.29H29.3376L30.5836 56.65H30.2896L31.5426 53.29H32.1446L30.7586 57H30.1146L28.9456 53.934H29.1416L27.9586 57H27.3146ZM34.8075 53.255C35.1108 53.255 35.3768 53.3133 35.6055 53.43C35.8388 53.5467 36.0208 53.724 36.1515 53.962C36.2821 54.2 36.3475 54.501 36.3475 54.865V57H35.6755V54.942C35.6755 54.5827 35.5868 54.312 35.4095 54.13C35.2368 53.948 34.9918 53.857 34.6745 53.857C34.4365 53.857 34.2288 53.9037 34.0515 53.997C33.8741 54.0903 33.7365 54.228 33.6385 54.41C33.5451 54.592 33.4985 54.8183 33.4985 55.089V57H32.8265V51.806H33.4985V54.291L33.3655 54.025C33.4868 53.7823 33.6735 53.5933 33.9255 53.458C34.1775 53.3227 34.4715 53.255 34.8075 53.255ZM37.5911 57V53.29H38.2631V57H37.5911ZM37.9271 52.576C37.7964 52.576 37.6868 52.534 37.5981 52.45C37.5141 52.366 37.4721 52.2633 37.4721 52.142C37.4721 52.016 37.5141 51.911 37.5981 51.827C37.6868 51.743 37.7964 51.701 37.9271 51.701C38.0578 51.701 38.1651 51.743 38.2491 51.827C38.3378 51.9063 38.3821 52.0067 38.3821 52.128C38.3821 52.254 38.3401 52.3613 38.2561 52.45C38.1721 52.534 38.0624 52.576 37.9271 52.576ZM41.1632 57.042C40.7852 57.042 40.4468 56.9603 40.1482 56.797C39.8542 56.6337 39.6232 56.4097 39.4552 56.125C39.2872 55.8403 39.2032 55.5137 39.2032 55.145C39.2032 54.7763 39.2872 54.4497 39.4552 54.165C39.6232 53.8803 39.8542 53.6587 40.1482 53.5C40.4468 53.3367 40.7852 53.255 41.1632 53.255C41.4992 53.255 41.7978 53.3227 42.0592 53.458C42.3252 53.5887 42.5305 53.7847 42.6752 54.046L42.1642 54.375C42.0428 54.193 41.8935 54.06 41.7162 53.976C41.5435 53.8873 41.3568 53.843 41.1562 53.843C40.9135 53.843 40.6965 53.8967 40.5052 54.004C40.3138 54.1113 40.1622 54.263 40.0502 54.459C39.9382 54.6503 39.8822 54.879 39.8822 55.145C39.8822 55.411 39.9382 55.642 40.0502 55.838C40.1622 56.034 40.3138 56.1857 40.5052 56.293C40.6965 56.4003 40.9135 56.454 41.1562 56.454C41.3568 56.454 41.5435 56.412 41.7162 56.328C41.8935 56.2393 42.0428 56.104 42.1642 55.922L42.6752 56.244C42.5305 56.5007 42.3252 56.699 42.0592 56.839C41.7978 56.9743 41.4992 57.042 41.1632 57.042ZM45.4784 53.255C45.7817 53.255 46.0477 53.3133 46.2764 53.43C46.5097 53.5467 46.6917 53.724 46.8224 53.962C46.953 54.2 47.0184 54.501 47.0184 54.865V57H46.3464V54.942C46.3464 54.5827 46.2577 54.312 46.0804 54.13C45.9077 53.948 45.6627 53.857 45.3454 53.857C45.1074 53.857 44.8997 53.9037 44.7224 53.997C44.545 54.0903 44.4074 54.228 44.3094 54.41C44.216 54.592 44.1694 54.8183 44.1694 55.089V57H43.4974V51.806H44.1694V54.291L44.0364 54.025C44.1577 53.7823 44.3444 53.5933 44.5964 53.458C44.8484 53.3227 45.1424 53.255 45.4784 53.255ZM51.7659 58.4C51.4252 58.4 51.0939 58.351 50.7719 58.253C50.4545 58.1597 50.1955 58.0243 49.9949 57.847L50.3169 57.329C50.4895 57.4783 50.7019 57.595 50.9539 57.679C51.2059 57.7677 51.4695 57.812 51.7449 57.812C52.1835 57.812 52.5055 57.7093 52.7109 57.504C52.9162 57.2987 53.0189 56.986 53.0189 56.566V55.782L53.0889 55.047L53.0539 54.305V53.29H53.6909V56.496C53.6909 57.1493 53.5275 57.63 53.2009 57.938C52.8742 58.246 52.3959 58.4 51.7659 58.4ZM51.6819 56.846C51.3225 56.846 51.0005 56.7713 50.7159 56.622C50.4359 56.468 50.2119 56.2557 50.0439 55.985C49.8805 55.7143 49.7989 55.4017 49.7989 55.047C49.7989 54.6877 49.8805 54.375 50.0439 54.109C50.2119 53.8383 50.4359 53.6283 50.7159 53.479C51.0005 53.3297 51.3225 53.255 51.6819 53.255C51.9992 53.255 52.2885 53.3203 52.5499 53.451C52.8112 53.577 53.0189 53.773 53.1729 54.039C53.3315 54.305 53.4109 54.641 53.4109 55.047C53.4109 55.4483 53.3315 55.782 53.1729 56.048C53.0189 56.314 52.8112 56.5147 52.5499 56.65C52.2885 56.7807 51.9992 56.846 51.6819 56.846ZM51.7589 56.258C52.0062 56.258 52.2255 56.2067 52.4169 56.104C52.6082 56.0013 52.7575 55.859 52.8649 55.677C52.9769 55.495 53.0329 55.285 53.0329 55.047C53.0329 54.809 52.9769 54.599 52.8649 54.417C52.7575 54.235 52.6082 54.095 52.4169 53.997C52.2255 53.8943 52.0062 53.843 51.7589 53.843C51.5115 53.843 51.2899 53.8943 51.0939 53.997C50.9025 54.095 50.7509 54.235 50.6389 54.417C50.5315 54.599 50.4779 54.809 50.4779 55.047C50.4779 55.285 50.5315 55.495 50.6389 55.677C50.7509 55.859 50.9025 56.0013 51.0939 56.104C51.2899 56.2067 51.5115 56.258 51.7589 56.258ZM54.9749 57V53.29H55.6469V57H54.9749ZM55.3109 52.576C55.1802 52.576 55.0706 52.534 54.9819 52.45C54.8979 52.366 54.8559 52.2633 54.8559 52.142C54.8559 52.016 54.8979 51.911 54.9819 51.827C55.0706 51.743 55.1802 51.701 55.3109 51.701C55.4416 51.701 55.5489 51.743 55.6329 51.827C55.7216 51.9063 55.7659 52.0067 55.7659 52.128C55.7659 52.254 55.7239 52.3613 55.6399 52.45C55.5559 52.534 55.4462 52.576 55.3109 52.576ZM57.903 57L56.279 53.29H56.979L58.421 56.65H58.085L59.555 53.29H60.213L58.589 57H57.903ZM62.3896 57.042C61.9929 57.042 61.6429 56.9603 61.3396 56.797C61.0409 56.6337 60.8076 56.4097 60.6396 56.125C60.4763 55.8403 60.3946 55.5137 60.3946 55.145C60.3946 54.7763 60.4739 54.4497 60.6326 54.165C60.7959 53.8803 61.0176 53.6587 61.2976 53.5C61.5823 53.3367 61.9019 53.255 62.2566 53.255C62.6159 53.255 62.9333 53.3343 63.2086 53.493C63.4839 53.6517 63.6986 53.8757 63.8526 54.165C64.0113 54.4497 64.0906 54.7833 64.0906 55.166C64.0906 55.194 64.0883 55.2267 64.0836 55.264C64.0836 55.3013 64.0813 55.3363 64.0766 55.369H60.9196V54.886H63.7266L63.4536 55.054C63.4583 54.816 63.4093 54.6037 63.3066 54.417C63.2039 54.2303 63.0616 54.0857 62.8796 53.983C62.7023 53.8757 62.4946 53.822 62.2566 53.822C62.0233 53.822 61.8156 53.8757 61.6336 53.983C61.4516 54.0857 61.3093 54.2327 61.2066 54.424C61.1039 54.6107 61.0526 54.8253 61.0526 55.068V55.18C61.0526 55.4273 61.1086 55.649 61.2206 55.845C61.3373 56.0363 61.4983 56.1857 61.7036 56.293C61.9089 56.4003 62.1446 56.454 62.4106 56.454C62.6299 56.454 62.8283 56.4167 63.0056 56.342C63.1876 56.2673 63.3463 56.1553 63.4816 56.006L63.8526 56.44C63.6846 56.636 63.4746 56.7853 63.2226 56.888C62.9753 56.9907 62.6976 57.042 62.3896 57.042ZM66.0877 57.042C65.7797 57.042 65.4857 57 65.2057 56.916C64.9304 56.832 64.7134 56.7293 64.5547 56.608L64.8347 56.076C64.9934 56.1833 65.1894 56.2743 65.4227 56.349C65.6561 56.4237 65.8941 56.461 66.1367 56.461C66.4494 56.461 66.6734 56.4167 66.8087 56.328C66.9487 56.2393 67.0187 56.1157 67.0187 55.957C67.0187 55.8403 66.9767 55.7493 66.8927 55.684C66.8087 55.6187 66.6967 55.5697 66.5567 55.537C66.4214 55.5043 66.2697 55.4763 66.1017 55.453C65.9337 55.425 65.7657 55.3923 65.5977 55.355C65.4297 55.313 65.2757 55.257 65.1357 55.187C64.9957 55.1123 64.8837 55.012 64.7997 54.886C64.7157 54.7553 64.6737 54.5827 64.6737 54.368C64.6737 54.144 64.7367 53.948 64.8627 53.78C64.9887 53.612 65.1661 53.4837 65.3947 53.395C65.6281 53.3017 65.9034 53.255 66.2207 53.255C66.4634 53.255 66.7084 53.2853 66.9557 53.346C67.2077 53.402 67.4131 53.4837 67.5717 53.591L67.2847 54.123C67.1167 54.011 66.9417 53.934 66.7597 53.892C66.5777 53.85 66.3957 53.829 66.2137 53.829C65.9197 53.829 65.7004 53.878 65.5557 53.976C65.4111 54.0693 65.3387 54.1907 65.3387 54.34C65.3387 54.466 65.3807 54.564 65.4647 54.634C65.5534 54.6993 65.6654 54.7507 65.8007 54.788C65.9407 54.8253 66.0947 54.858 66.2627 54.886C66.4307 54.9093 66.5987 54.942 66.7667 54.984C66.9347 55.0213 67.0864 55.075 67.2217 55.145C67.3617 55.215 67.4737 55.313 67.5577 55.439C67.6464 55.565 67.6907 55.733 67.6907 55.943C67.6907 56.167 67.6254 56.3607 67.4947 56.524C67.3641 56.6873 67.1797 56.8157 66.9417 56.909C66.7037 56.9977 66.4191 57.042 66.0877 57.042ZM71.6844 57.042C71.3111 57.042 71.0218 56.9417 70.8164 56.741C70.6111 56.5403 70.5084 56.2533 70.5084 55.88V52.478H71.1804V55.852C71.1804 56.0527 71.2294 56.2067 71.3274 56.314C71.4301 56.4213 71.5748 56.475 71.7614 56.475C71.9714 56.475 72.1464 56.4167 72.2864 56.3L72.4964 56.783C72.3938 56.8717 72.2701 56.937 72.1254 56.979C71.9854 57.021 71.8384 57.042 71.6844 57.042ZM69.8784 53.843V53.29H72.2444V53.843H69.8784ZM75.2899 53.255C75.5932 53.255 75.8592 53.3133 76.0879 53.43C76.3212 53.5467 76.5032 53.724 76.6339 53.962C76.7645 54.2 76.8299 54.501 76.8299 54.865V57H76.1579V54.942C76.1579 54.5827 76.0692 54.312 75.8919 54.13C75.7192 53.948 75.4742 53.857 75.1569 53.857C74.9189 53.857 74.7112 53.9037 74.5339 53.997C74.3565 54.0903 74.2189 54.228 74.1209 54.41C74.0275 54.592 73.9809 54.8183 73.9809 55.089V57H73.3089V51.806H73.9809V54.291L73.8479 54.025C73.9692 53.7823 74.1559 53.5933 74.4079 53.458C74.6599 53.3227 74.9539 53.255 75.2899 53.255ZM79.7255 57.042C79.3289 57.042 78.9789 56.9603 78.6755 56.797C78.3769 56.6337 78.1435 56.4097 77.9755 56.125C77.8122 55.8403 77.7305 55.5137 77.7305 55.145C77.7305 54.7763 77.8099 54.4497 77.9685 54.165C78.1319 53.8803 78.3535 53.6587 78.6335 53.5C78.9182 53.3367 79.2379 53.255 79.5925 53.255C79.9519 53.255 80.2692 53.3343 80.5445 53.493C80.8199 53.6517 81.0345 53.8757 81.1885 54.165C81.3472 54.4497 81.4265 54.7833 81.4265 55.166C81.4265 55.194 81.4242 55.2267 81.4195 55.264C81.4195 55.3013 81.4172 55.3363 81.4125 55.369H78.2555V54.886H81.0625L80.7895 55.054C80.7942 54.816 80.7452 54.6037 80.6425 54.417C80.5399 54.2303 80.3975 54.0857 80.2155 53.983C80.0382 53.8757 79.8305 53.822 79.5925 53.822C79.3592 53.822 79.1515 53.8757 78.9695 53.983C78.7875 54.0857 78.6452 54.2327 78.5425 54.424C78.4399 54.6107 78.3885 54.8253 78.3885 55.068V55.18C78.3885 55.4273 78.4445 55.649 78.5565 55.845C78.6732 56.0363 78.8342 56.1857 79.0395 56.293C79.2449 56.4003 79.4805 56.454 79.7465 56.454C79.9659 56.454 80.1642 56.4167 80.3415 56.342C80.5235 56.2673 80.6822 56.1553 80.8175 56.006L81.1885 56.44C81.0205 56.636 80.8105 56.7853 80.5585 56.888C80.3112 56.9907 80.0335 57.042 79.7255 57.042ZM84.2395 57V53.29H84.8835V54.298L84.8205 54.046C84.9232 53.7893 85.0959 53.5933 85.3385 53.458C85.5812 53.3227 85.8799 53.255 86.2345 53.255V53.906C86.2065 53.9013 86.1785 53.899 86.1505 53.899C86.1272 53.899 86.1039 53.899 86.0805 53.899C85.7212 53.899 85.4365 54.0063 85.2265 54.221C85.0165 54.4357 84.9115 54.746 84.9115 55.152V57H84.2395ZM87.0628 57V53.29H87.7348V57H87.0628ZM87.3988 52.576C87.2681 52.576 87.1584 52.534 87.0698 52.45C86.9858 52.366 86.9438 52.2633 86.9438 52.142C86.9438 52.016 86.9858 51.911 87.0698 51.827C87.1584 51.743 87.2681 51.701 87.3988 51.701C87.5294 51.701 87.6368 51.743 87.7208 51.827C87.8094 51.9063 87.8538 52.0067 87.8538 52.128C87.8538 52.254 87.8118 52.3613 87.7278 52.45C87.6438 52.534 87.5341 52.576 87.3988 52.576ZM90.5509 57.042C90.1915 57.042 89.8695 56.9627 89.5849 56.804C89.3049 56.6453 89.0832 56.4237 88.9199 56.139C88.7565 55.8543 88.6749 55.523 88.6749 55.145C88.6749 54.767 88.7565 54.438 88.9199 54.158C89.0832 53.8733 89.3049 53.6517 89.5849 53.493C89.8695 53.3343 90.1915 53.255 90.5509 53.255C90.8635 53.255 91.1459 53.325 91.3979 53.465C91.6499 53.605 91.8505 53.815 91.9999 54.095C92.1539 54.375 92.2309 54.725 92.2309 55.145C92.2309 55.565 92.1562 55.915 92.0069 56.195C91.8622 56.475 91.6639 56.6873 91.4119 56.832C91.1599 56.972 90.8729 57.042 90.5509 57.042ZM90.6069 56.454C90.8402 56.454 91.0502 56.4003 91.2369 56.293C91.4282 56.1857 91.5775 56.034 91.6849 55.838C91.7969 55.6373 91.8529 55.4063 91.8529 55.145C91.8529 54.879 91.7969 54.6503 91.6849 54.459C91.5775 54.263 91.4282 54.1113 91.2369 54.004C91.0502 53.8967 90.8402 53.843 90.6069 53.843C90.3689 53.843 90.1565 53.8967 89.9699 54.004C89.7832 54.1113 89.6339 54.263 89.5219 54.459C89.4099 54.6503 89.3539 54.879 89.3539 55.145C89.3539 55.4063 89.4099 55.6373 89.5219 55.838C89.6339 56.034 89.7832 56.1857 89.9699 56.293C90.1565 56.4003 90.3689 56.454 90.6069 56.454ZM91.8739 57V55.999L91.9159 55.138L91.8459 54.277V51.806H92.5179V57H91.8739ZM95.4413 57.042C95.0447 57.042 94.6947 56.9603 94.3913 56.797C94.0927 56.6337 93.8593 56.4097 93.6913 56.125C93.528 55.8403 93.4463 55.5137 93.4463 55.145C93.4463 54.7763 93.5257 54.4497 93.6843 54.165C93.8477 53.8803 94.0693 53.6587 94.3493 53.5C94.634 53.3367 94.9537 53.255 95.3083 53.255C95.6677 53.255 95.985 53.3343 96.2603 53.493C96.5357 53.6517 96.7503 53.8757 96.9043 54.165C97.063 54.4497 97.1423 54.7833 97.1423 55.166C97.1423 55.194 97.14 55.2267 97.1353 55.264C97.1353 55.3013 97.133 55.3363 97.1283 55.369H93.9713V54.886H96.7783L96.5053 55.054C96.51 54.816 96.461 54.6037 96.3583 54.417C96.2557 54.2303 96.1133 54.0857 95.9313 53.983C95.754 53.8757 95.5463 53.822 95.3083 53.822C95.075 53.822 94.8673 53.8757 94.6853 53.983C94.5033 54.0857 94.361 54.2327 94.2583 54.424C94.1557 54.6107 94.1043 54.8253 94.1043 55.068V55.18C94.1043 55.4273 94.1603 55.649 94.2723 55.845C94.389 56.0363 94.55 56.1857 94.7553 56.293C94.9607 56.4003 95.1963 56.454 95.4623 56.454C95.6817 56.454 95.88 56.4167 96.0573 56.342C96.2393 56.2673 96.398 56.1553 96.5333 56.006L96.9043 56.44C96.7363 56.636 96.5263 56.7853 96.2743 56.888C96.027 56.9907 95.7493 57.042 95.4413 57.042ZM98.0755 57V53.29H98.7195V54.298L98.6565 54.046C98.7591 53.7893 98.9318 53.5933 99.1745 53.458C99.4171 53.3227 99.7158 53.255 100.07 53.255V53.906C100.042 53.9013 100.014 53.899 99.9865 53.899C99.9631 53.899 99.9398 53.899 99.9165 53.899C99.5571 53.899 99.2725 54.0063 99.0625 54.221C98.8525 54.4357 98.7475 54.746 98.7475 55.152V57H98.0755ZM105.129 57V56.216L105.094 56.069V54.732C105.094 54.4473 105.01 54.228 104.842 54.074C104.679 53.9153 104.432 53.836 104.1 53.836C103.881 53.836 103.666 53.8733 103.456 53.948C103.246 54.018 103.069 54.1137 102.924 54.235L102.644 53.731C102.836 53.577 103.064 53.4603 103.33 53.381C103.601 53.297 103.883 53.255 104.177 53.255C104.686 53.255 105.078 53.3787 105.353 53.626C105.629 53.8733 105.766 54.2513 105.766 54.76V57H105.129ZM103.911 57.042C103.636 57.042 103.393 56.9953 103.183 56.902C102.978 56.8087 102.819 56.6803 102.707 56.517C102.595 56.349 102.539 56.16 102.539 55.95C102.539 55.7493 102.586 55.5673 102.679 55.404C102.777 55.2407 102.934 55.11 103.148 55.012C103.368 54.914 103.662 54.865 104.03 54.865H105.206V55.348H104.058C103.722 55.348 103.496 55.404 103.379 55.516C103.263 55.628 103.204 55.7633 103.204 55.922C103.204 56.104 103.277 56.251 103.421 56.363C103.566 56.4703 103.767 56.524 104.023 56.524C104.275 56.524 104.495 56.468 104.681 56.356C104.873 56.244 105.01 56.0807 105.094 55.866L105.227 56.328C105.139 56.5473 104.982 56.7223 104.758 56.853C104.534 56.979 104.252 57.042 103.911 57.042ZM110.857 57.042C110.54 57.042 110.253 56.972 109.996 56.832C109.744 56.6873 109.543 56.475 109.394 56.195C109.249 55.915 109.177 55.565 109.177 55.145C109.177 54.725 109.252 54.375 109.401 54.095C109.555 53.815 109.758 53.605 110.01 53.465C110.267 53.325 110.549 53.255 110.857 53.255C111.221 53.255 111.543 53.3343 111.823 53.493C112.103 53.6517 112.325 53.8733 112.488 54.158C112.651 54.438 112.733 54.767 112.733 55.145C112.733 55.523 112.651 55.8543 112.488 56.139C112.325 56.4237 112.103 56.6453 111.823 56.804C111.543 56.9627 111.221 57.042 110.857 57.042ZM108.89 57V51.806H109.562V54.277L109.492 55.138L109.534 55.999V57H108.89ZM110.801 56.454C111.039 56.454 111.251 56.4003 111.438 56.293C111.629 56.1857 111.779 56.034 111.886 55.838C111.998 55.6373 112.054 55.4063 112.054 55.145C112.054 54.879 111.998 54.6503 111.886 54.459C111.779 54.263 111.629 54.1113 111.438 54.004C111.251 53.8967 111.039 53.843 110.801 53.843C110.568 53.843 110.355 53.8967 110.164 54.004C109.977 54.1113 109.828 54.263 109.716 54.459C109.609 54.6503 109.555 54.879 109.555 55.145C109.555 55.4063 109.609 55.6373 109.716 55.838C109.828 56.034 109.977 56.1857 110.164 56.293C110.355 56.4003 110.568 56.454 110.801 56.454ZM115.313 57.042C114.917 57.042 114.567 56.9603 114.263 56.797C113.965 56.6337 113.731 56.4097 113.563 56.125C113.4 55.8403 113.318 55.5137 113.318 55.145C113.318 54.7763 113.398 54.4497 113.556 54.165C113.72 53.8803 113.941 53.6587 114.221 53.5C114.506 53.3367 114.826 53.255 115.18 53.255C115.54 53.255 115.857 53.3343 116.132 53.493C116.408 53.6517 116.622 53.8757 116.776 54.165C116.935 54.4497 117.014 54.7833 117.014 55.166C117.014 55.194 117.012 55.2267 117.007 55.264C117.007 55.3013 117.005 55.3363 117 55.369H113.843V54.886H116.65L116.377 55.054C116.382 54.816 116.333 54.6037 116.23 54.417C116.128 54.2303 115.985 54.0857 115.803 53.983C115.626 53.8757 115.418 53.822 115.18 53.822C114.947 53.822 114.739 53.8757 114.557 53.983C114.375 54.0857 114.233 54.2327 114.13 54.424C114.028 54.6107 113.976 54.8253 113.976 55.068V55.18C113.976 55.4273 114.032 55.649 114.144 55.845C114.261 56.0363 114.422 56.1857 114.627 56.293C114.833 56.4003 115.068 56.454 115.334 56.454C115.554 56.454 115.752 56.4167 115.929 56.342C116.111 56.2673 116.27 56.1553 116.405 56.006L116.776 56.44C116.608 56.636 116.398 56.7853 116.146 56.888C115.899 56.9907 115.621 57.042 115.313 57.042ZM119.222 57.042C118.848 57.042 118.559 56.9417 118.354 56.741C118.148 56.5403 118.046 56.2533 118.046 55.88V52.478H118.718V55.852C118.718 56.0527 118.767 56.2067 118.865 56.314C118.967 56.4213 119.112 56.475 119.299 56.475C119.509 56.475 119.684 56.4167 119.824 56.3L120.034 56.783C119.931 56.8717 119.807 56.937 119.663 56.979C119.523 57.021 119.376 57.042 119.222 57.042ZM117.416 53.843V53.29H119.782V53.843H117.416ZM122.031 57.042C121.658 57.042 121.368 56.9417 121.163 56.741C120.958 56.5403 120.855 56.2533 120.855 55.88V52.478H121.527V55.852C121.527 56.0527 121.576 56.2067 121.674 56.314C121.777 56.4213 121.921 56.475 122.108 56.475C122.318 56.475 122.493 56.4167 122.633 56.3L122.843 56.783C122.74 56.8717 122.617 56.937 122.472 56.979C122.332 57.021 122.185 57.042 122.031 57.042ZM120.225 53.843V53.29H122.591V53.843H120.225ZM125.185 57.042C124.788 57.042 124.438 56.9603 124.135 56.797C123.836 56.6337 123.603 56.4097 123.435 56.125C123.271 55.8403 123.19 55.5137 123.19 55.145C123.19 54.7763 123.269 54.4497 123.428 54.165C123.591 53.8803 123.813 53.6587 124.093 53.5C124.377 53.3367 124.697 53.255 125.052 53.255C125.411 53.255 125.728 53.3343 126.004 53.493C126.279 53.6517 126.494 53.8757 126.648 54.165C126.806 54.4497 126.886 54.7833 126.886 55.166C126.886 55.194 126.883 55.2267 126.879 55.264C126.879 55.3013 126.876 55.3363 126.872 55.369H123.715V54.886H126.522L126.249 55.054C126.253 54.816 126.204 54.6037 126.102 54.417C125.999 54.2303 125.857 54.0857 125.675 53.983C125.497 53.8757 125.29 53.822 125.052 53.822C124.818 53.822 124.611 53.8757 124.429 53.983C124.247 54.0857 124.104 54.2327 124.002 54.424C123.899 54.6107 123.848 54.8253 123.848 55.068V55.18C123.848 55.4273 123.904 55.649 124.016 55.845C124.132 56.0363 124.293 56.1857 124.499 56.293C124.704 56.4003 124.94 56.454 125.206 56.454C125.425 56.454 125.623 56.4167 125.801 56.342C125.983 56.2673 126.141 56.1553 126.277 56.006L126.648 56.44C126.48 56.636 126.27 56.7853 126.018 56.888C125.77 56.9907 125.493 57.042 125.185 57.042ZM127.819 57V53.29H128.463V54.298L128.4 54.046C128.502 53.7893 128.675 53.5933 128.918 53.458C129.16 53.3227 129.459 53.255 129.814 53.255V53.906C129.786 53.9013 129.758 53.899 129.73 53.899C129.706 53.899 129.683 53.899 129.66 53.899C129.3 53.899 129.016 54.0063 128.806 54.221C128.596 54.4357 128.491 54.746 128.491 55.152V57H127.819ZM134.194 58.4C133.853 58.4 133.522 58.351 133.2 58.253C132.882 58.1597 132.623 58.0243 132.423 57.847L132.745 57.329C132.917 57.4783 133.13 57.595 133.382 57.679C133.634 57.7677 133.897 57.812 134.173 57.812C134.611 57.812 134.933 57.7093 135.139 57.504C135.344 57.2987 135.447 56.986 135.447 56.566V55.782L135.517 55.047L135.482 54.305V53.29H136.119V56.496C136.119 57.1493 135.955 57.63 135.629 57.938C135.302 58.246 134.824 58.4 134.194 58.4ZM134.11 56.846C133.75 56.846 133.428 56.7713 133.144 56.622C132.864 56.468 132.64 56.2557 132.472 55.985C132.308 55.7143 132.227 55.4017 132.227 55.047C132.227 54.6877 132.308 54.375 132.472 54.109C132.64 53.8383 132.864 53.6283 133.144 53.479C133.428 53.3297 133.75 53.255 134.11 53.255C134.427 53.255 134.716 53.3203 134.978 53.451C135.239 53.577 135.447 53.773 135.601 54.039C135.759 54.305 135.839 54.641 135.839 55.047C135.839 55.4483 135.759 55.782 135.601 56.048C135.447 56.314 135.239 56.5147 134.978 56.65C134.716 56.7807 134.427 56.846 134.11 56.846ZM134.187 56.258C134.434 56.258 134.653 56.2067 134.845 56.104C135.036 56.0013 135.185 55.859 135.293 55.677C135.405 55.495 135.461 55.285 135.461 55.047C135.461 54.809 135.405 54.599 135.293 54.417C135.185 54.235 135.036 54.095 134.845 53.997C134.653 53.8943 134.434 53.843 134.187 53.843C133.939 53.843 133.718 53.8943 133.522 53.997C133.33 54.095 133.179 54.235 133.067 54.417C132.959 54.599 132.906 54.809 132.906 55.047C132.906 55.285 132.959 55.495 133.067 55.677C133.179 55.859 133.33 56.0013 133.522 56.104C133.718 56.2067 133.939 56.258 134.187 56.258ZM137.403 57V53.29H138.047V54.298L137.984 54.046C138.086 53.7893 138.259 53.5933 138.502 53.458C138.744 53.3227 139.043 53.255 139.398 53.255V53.906C139.37 53.9013 139.342 53.899 139.314 53.899C139.29 53.899 139.267 53.899 139.244 53.899C138.884 53.899 138.6 54.0063 138.39 54.221C138.18 54.4357 138.075 54.746 138.075 55.152V57H137.403ZM140.226 57V53.29H140.898V57H140.226ZM140.562 52.576C140.431 52.576 140.322 52.534 140.233 52.45C140.149 52.366 140.107 52.2633 140.107 52.142C140.107 52.016 140.149 51.911 140.233 51.827C140.322 51.743 140.431 51.701 140.562 51.701C140.693 51.701 140.8 51.743 140.884 51.827C140.973 51.9063 141.017 52.0067 141.017 52.128C141.017 52.254 140.975 52.3613 140.891 52.45C140.807 52.534 140.697 52.576 140.562 52.576ZM144.148 57.042C143.84 57.042 143.558 56.972 143.301 56.832C143.049 56.6873 142.846 56.475 142.692 56.195C142.543 55.915 142.468 55.565 142.468 55.145C142.468 54.725 142.54 54.375 142.685 54.095C142.834 53.815 143.035 53.605 143.287 53.465C143.544 53.325 143.831 53.255 144.148 53.255C144.512 53.255 144.834 53.3343 145.114 53.493C145.394 53.6517 145.616 53.8733 145.779 54.158C145.942 54.438 146.024 54.767 146.024 55.145C146.024 55.523 145.942 55.8543 145.779 56.139C145.616 56.4237 145.394 56.6453 145.114 56.804C144.834 56.9627 144.512 57.042 144.148 57.042ZM142.181 58.358V53.29H142.825V54.291L142.783 55.152L142.853 56.013V58.358H142.181ZM144.092 56.454C144.33 56.454 144.542 56.4003 144.729 56.293C144.92 56.1857 145.07 56.034 145.177 55.838C145.289 55.6373 145.345 55.4063 145.345 55.145C145.345 54.879 145.289 54.6503 145.177 54.459C145.07 54.263 144.92 54.1113 144.729 54.004C144.542 53.8967 144.33 53.843 144.092 53.843C143.859 53.843 143.646 53.8967 143.455 54.004C143.268 54.1113 143.119 54.263 143.007 54.459C142.9 54.6503 142.846 54.879 142.846 55.145C142.846 55.4063 142.9 55.6373 143.007 55.838C143.119 56.034 143.268 56.1857 143.455 56.293C143.646 56.4003 143.859 56.454 144.092 56.454ZM150.421 57.042C150.048 57.042 149.717 56.9603 149.427 56.797C149.138 56.6337 148.909 56.4097 148.741 56.125C148.573 55.8357 148.489 55.509 148.489 55.145C148.489 54.7763 148.573 54.4497 148.741 54.165C148.909 53.8803 149.138 53.6587 149.427 53.5C149.717 53.3367 150.048 53.255 150.421 53.255C150.79 53.255 151.119 53.3367 151.408 53.5C151.702 53.6587 151.931 53.8803 152.094 54.165C152.262 54.445 152.346 54.7717 152.346 55.145C152.346 55.5137 152.262 55.8403 152.094 56.125C151.931 56.4097 151.702 56.6337 151.408 56.797C151.119 56.9603 150.79 57.042 150.421 57.042ZM150.421 56.454C150.659 56.454 150.872 56.4003 151.058 56.293C151.25 56.1857 151.399 56.034 151.506 55.838C151.614 55.6373 151.667 55.4063 151.667 55.145C151.667 54.879 151.614 54.6503 151.506 54.459C151.399 54.263 151.25 54.1113 151.058 54.004C150.872 53.8967 150.659 53.843 150.421 53.843C150.183 53.843 149.971 53.8967 149.784 54.004C149.598 54.1113 149.448 54.263 149.336 54.459C149.224 54.6503 149.168 54.879 149.168 55.145C149.168 55.4063 149.224 55.6373 149.336 55.838C149.448 56.034 149.598 56.1857 149.784 56.293C149.971 56.4003 150.183 56.454 150.421 56.454ZM155.257 53.255C155.56 53.255 155.826 53.3133 156.055 53.43C156.288 53.5467 156.47 53.724 156.601 53.962C156.731 54.2 156.797 54.501 156.797 54.865V57H156.125V54.942C156.125 54.5827 156.036 54.312 155.859 54.13C155.686 53.948 155.441 53.857 155.124 53.857C154.886 53.857 154.678 53.9037 154.501 53.997C154.323 54.0903 154.186 54.228 154.088 54.41C153.994 54.592 153.948 54.8183 153.948 55.089V57H153.276V53.29H153.92V54.291L153.815 54.025C153.936 53.7823 154.123 53.5933 154.375 53.458C154.627 53.3227 154.921 53.255 155.257 53.255ZM162.223 57V56.216L162.188 56.069V54.732C162.188 54.4473 162.104 54.228 161.936 54.074C161.773 53.9153 161.526 53.836 161.194 53.836C160.975 53.836 160.76 53.8733 160.55 53.948C160.34 54.018 160.163 54.1137 160.018 54.235L159.738 53.731C159.93 53.577 160.158 53.4603 160.424 53.381C160.695 53.297 160.977 53.255 161.271 53.255C161.78 53.255 162.172 53.3787 162.447 53.626C162.723 53.8733 162.86 54.2513 162.86 54.76V57H162.223ZM161.005 57.042C160.73 57.042 160.487 56.9953 160.277 56.902C160.072 56.8087 159.913 56.6803 159.801 56.517C159.689 56.349 159.633 56.16 159.633 55.95C159.633 55.7493 159.68 55.5673 159.773 55.404C159.871 55.2407 160.028 55.11 160.242 55.012C160.462 54.914 160.756 54.865 161.124 54.865H162.3V55.348H161.152C160.816 55.348 160.59 55.404 160.473 55.516C160.357 55.628 160.298 55.7633 160.298 55.922C160.298 56.104 160.371 56.251 160.515 56.363C160.66 56.4703 160.861 56.524 161.117 56.524C161.369 56.524 161.589 56.468 161.775 56.356C161.967 56.244 162.104 56.0807 162.188 55.866L162.321 56.328C162.233 56.5473 162.076 56.7223 161.852 56.853C161.628 56.979 161.346 57.042 161.005 57.042ZM166.085 53.255C166.388 53.255 166.654 53.3133 166.883 53.43C167.116 53.5467 167.298 53.724 167.429 53.962C167.559 54.2 167.625 54.501 167.625 54.865V57H166.953V54.942C166.953 54.5827 166.864 54.312 166.687 54.13C166.514 53.948 166.269 53.857 165.952 53.857C165.714 53.857 165.506 53.9037 165.329 53.997C165.151 54.0903 165.014 54.228 164.916 54.41C164.822 54.592 164.776 54.8183 164.776 55.089V57H164.104V53.29H164.748V54.291L164.643 54.025C164.764 53.7823 164.951 53.5933 165.203 53.458C165.455 53.3227 165.749 53.255 166.085 53.255ZM168.961 58.4C168.784 58.4 168.611 58.3697 168.443 58.309C168.275 58.253 168.13 58.169 168.009 58.057L168.296 57.553C168.389 57.6417 168.492 57.7093 168.604 57.756C168.716 57.8027 168.835 57.826 168.961 57.826C169.124 57.826 169.26 57.784 169.367 57.7C169.474 57.616 169.575 57.4667 169.668 57.252L169.899 56.741L169.969 56.657L171.425 53.29H172.083L170.284 57.371C170.177 57.6323 170.055 57.8377 169.92 57.987C169.789 58.1363 169.645 58.2413 169.486 58.302C169.327 58.3673 169.152 58.4 168.961 58.4ZM169.843 57.119L168.149 53.29H168.849L170.291 56.594L169.843 57.119ZM174.59 57V53.29H175.234V54.298L175.171 54.046C175.274 53.7893 175.446 53.5933 175.689 53.458C175.932 53.3227 176.23 53.255 176.585 53.255V53.906C176.557 53.9013 176.529 53.899 176.501 53.899C176.478 53.899 176.454 53.899 176.431 53.899C176.072 53.899 175.787 54.0063 175.577 54.221C175.367 54.4357 175.262 54.746 175.262 55.152V57H174.59ZM178.968 57.042C178.595 57.042 178.264 56.9603 177.974 56.797C177.685 56.6337 177.456 56.4097 177.288 56.125C177.12 55.8357 177.036 55.509 177.036 55.145C177.036 54.7763 177.12 54.4497 177.288 54.165C177.456 53.8803 177.685 53.6587 177.974 53.5C178.264 53.3367 178.595 53.255 178.968 53.255C179.337 53.255 179.666 53.3367 179.955 53.5C180.249 53.6587 180.478 53.8803 180.641 54.165C180.809 54.445 180.893 54.7717 180.893 55.145C180.893 55.5137 180.809 55.8403 180.641 56.125C180.478 56.4097 180.249 56.6337 179.955 56.797C179.666 56.9603 179.337 57.042 178.968 57.042ZM178.968 56.454C179.206 56.454 179.419 56.4003 179.605 56.293C179.797 56.1857 179.946 56.034 180.053 55.838C180.161 55.6373 180.214 55.4063 180.214 55.145C180.214 54.879 180.161 54.6503 180.053 54.459C179.946 54.263 179.797 54.1113 179.605 54.004C179.419 53.8967 179.206 53.843 178.968 53.843C178.73 53.843 178.518 53.8967 178.331 54.004C178.145 54.1113 177.995 54.263 177.883 54.459C177.771 54.6503 177.715 54.879 177.715 55.145C177.715 55.4063 177.771 55.6373 177.883 55.838C177.995 56.034 178.145 56.1857 178.331 56.293C178.518 56.4003 178.73 56.454 178.968 56.454ZM184.091 57V56.216L184.056 56.069V54.732C184.056 54.4473 183.972 54.228 183.804 54.074C183.641 53.9153 183.394 53.836 183.062 53.836C182.843 53.836 182.628 53.8733 182.418 53.948C182.208 54.018 182.031 54.1137 181.886 54.235L181.606 53.731C181.798 53.577 182.026 53.4603 182.292 53.381C182.563 53.297 182.845 53.255 183.139 53.255C183.648 53.255 184.04 53.3787 184.315 53.626C184.591 53.8733 184.728 54.2513 184.728 54.76V57H184.091ZM182.873 57.042C182.598 57.042 182.355 56.9953 182.145 56.902C181.94 56.8087 181.781 56.6803 181.669 56.517C181.557 56.349 181.501 56.16 181.501 55.95C181.501 55.7493 181.548 55.5673 181.641 55.404C181.739 55.2407 181.896 55.11 182.11 55.012C182.33 54.914 182.624 54.865 182.992 54.865H184.168V55.348H183.02C182.684 55.348 182.458 55.404 182.341 55.516C182.225 55.628 182.166 55.7633 182.166 55.922C182.166 56.104 182.239 56.251 182.383 56.363C182.528 56.4703 182.729 56.524 182.985 56.524C183.237 56.524 183.457 56.468 183.643 56.356C183.835 56.244 183.972 56.0807 184.056 55.866L184.189 56.328C184.101 56.5473 183.944 56.7223 183.72 56.853C183.496 56.979 183.214 57.042 182.873 57.042ZM187.505 57.042C187.146 57.042 186.824 56.9627 186.539 56.804C186.259 56.6453 186.037 56.4237 185.874 56.139C185.711 55.8543 185.629 55.523 185.629 55.145C185.629 54.767 185.711 54.438 185.874 54.158C186.037 53.8733 186.259 53.6517 186.539 53.493C186.824 53.3343 187.146 53.255 187.505 53.255C187.818 53.255 188.1 53.325 188.352 53.465C188.604 53.605 188.805 53.815 188.954 54.095C189.108 54.375 189.185 54.725 189.185 55.145C189.185 55.565 189.11 55.915 188.961 56.195C188.816 56.475 188.618 56.6873 188.366 56.832C188.114 56.972 187.827 57.042 187.505 57.042ZM187.561 56.454C187.794 56.454 188.004 56.4003 188.191 56.293C188.382 56.1857 188.532 56.034 188.639 55.838C188.751 55.6373 188.807 55.4063 188.807 55.145C188.807 54.879 188.751 54.6503 188.639 54.459C188.532 54.263 188.382 54.1113 188.191 54.004C188.004 53.8967 187.794 53.843 187.561 53.843C187.323 53.843 187.111 53.8967 186.924 54.004C186.737 54.1113 186.588 54.263 186.476 54.459C186.364 54.6503 186.308 54.879 186.308 55.145C186.308 55.4063 186.364 55.6373 186.476 55.838C186.588 56.034 186.737 56.1857 186.924 56.293C187.111 56.4003 187.323 56.454 187.561 56.454ZM188.828 57V55.999L188.87 55.138L188.8 54.277V51.806H189.472V57H188.828ZM56.8663 69L55.4873 65.29H56.1243L57.3493 68.65H57.0483L58.3223 65.29H58.8893L60.1353 68.65H59.8413L61.0943 65.29H61.6963L60.3103 69H59.6663L58.4973 65.934H58.6933L57.5103 69H56.8663ZM62.3782 69V65.29H63.0502V69H62.3782ZM62.7142 64.576C62.5835 64.576 62.4739 64.534 62.3852 64.45C62.3012 64.366 62.2592 64.2633 62.2592 64.142C62.2592 64.016 62.3012 63.911 62.3852 63.827C62.4739 63.743 62.5835 63.701 62.7142 63.701C62.8449 63.701 62.9522 63.743 63.0362 63.827C63.1249 63.9063 63.1692 64.0067 63.1692 64.128C63.1692 64.254 63.1272 64.3613 63.0432 64.45C62.9592 64.534 62.8495 64.576 62.7142 64.576ZM65.6073 69.042C65.234 69.042 64.9446 68.9417 64.7393 68.741C64.534 68.5403 64.4313 68.2533 64.4313 67.88V64.478H65.1033V67.852C65.1033 68.0527 65.1523 68.2067 65.2503 68.314C65.353 68.4213 65.4976 68.475 65.6843 68.475C65.8943 68.475 66.0693 68.4167 66.2093 68.3L66.4193 68.783C66.3166 68.8717 66.193 68.937 66.0483 68.979C65.9083 69.021 65.7613 69.042 65.6073 69.042ZM63.8013 65.843V65.29H66.1673V65.843H63.8013ZM69.2127 65.255C69.5161 65.255 69.7821 65.3133 70.0107 65.43C70.2441 65.5467 70.4261 65.724 70.5567 65.962C70.6874 66.2 70.7527 66.501 70.7527 66.865V69H70.0807V66.942C70.0807 66.5827 69.9921 66.312 69.8147 66.13C69.6421 65.948 69.3971 65.857 69.0797 65.857C68.8417 65.857 68.6341 65.9037 68.4567 65.997C68.2794 66.0903 68.1417 66.228 68.0437 66.41C67.9504 66.592 67.9037 66.8183 67.9037 67.089V69H67.2317V63.806H67.9037V66.291L67.7707 66.025C67.8921 65.7823 68.0787 65.5933 68.3307 65.458C68.5827 65.3227 68.8767 65.255 69.2127 65.255ZM75.8433 69.042C75.5353 69.042 75.2529 68.972 74.9963 68.832C74.7443 68.6873 74.5413 68.475 74.3873 68.195C74.2379 67.915 74.1633 67.565 74.1633 67.145C74.1633 66.725 74.2356 66.375 74.3803 66.095C74.5296 65.815 74.7303 65.605 74.9823 65.465C75.2389 65.325 75.5259 65.255 75.8433 65.255C76.2073 65.255 76.5293 65.3343 76.8093 65.493C77.0893 65.6517 77.3109 65.8733 77.4743 66.158C77.6376 66.438 77.7193 66.767 77.7193 67.145C77.7193 67.523 77.6376 67.8543 77.4743 68.139C77.3109 68.4237 77.0893 68.6453 76.8093 68.804C76.5293 68.9627 76.2073 69.042 75.8433 69.042ZM73.8763 70.358V65.29H74.5203V66.291L74.4783 67.152L74.5483 68.013V70.358H73.8763ZM75.7873 68.454C76.0253 68.454 76.2376 68.4003 76.4243 68.293C76.6156 68.1857 76.7649 68.034 76.8723 67.838C76.9843 67.6373 77.0403 67.4063 77.0403 67.145C77.0403 66.879 76.9843 66.6503 76.8723 66.459C76.7649 66.263 76.6156 66.1113 76.4243 66.004C76.2376 65.8967 76.0253 65.843 75.7873 65.843C75.5539 65.843 75.3416 65.8967 75.1503 66.004C74.9636 66.1113 74.8143 66.263 74.7023 66.459C74.5949 66.6503 74.5413 66.879 74.5413 67.145C74.5413 67.4063 74.5949 67.6373 74.7023 67.838C74.8143 68.034 74.9636 68.1857 75.1503 68.293C75.3416 68.4003 75.5539 68.454 75.7873 68.454ZM80.2087 69.042C79.8914 69.042 79.6114 68.9837 79.3687 68.867C79.1307 68.7503 78.9441 68.573 78.8087 68.335C78.6781 68.0923 78.6127 67.789 78.6127 67.425V65.29H79.2847V67.348C79.2847 67.712 79.3711 67.985 79.5437 68.167C79.7211 68.349 79.9684 68.44 80.2857 68.44C80.5191 68.44 80.7221 68.3933 80.8947 68.3C81.0674 68.202 81.2004 68.062 81.2937 67.88C81.3871 67.6933 81.4337 67.4693 81.4337 67.208V65.29H82.1057V69H81.4687V67.999L81.5737 68.265C81.4524 68.5123 81.2704 68.7037 81.0277 68.839C80.7851 68.9743 80.5121 69.042 80.2087 69.042ZM85.366 65.255C85.6694 65.255 85.9354 65.3133 86.164 65.43C86.3974 65.5467 86.5794 65.724 86.71 65.962C86.8407 66.2 86.906 66.501 86.906 66.865V69H86.234V66.942C86.234 66.5827 86.1454 66.312 85.968 66.13C85.7954 65.948 85.5504 65.857 85.233 65.857C84.995 65.857 84.7874 65.9037 84.61 65.997C84.4327 66.0903 84.295 66.228 84.197 66.41C84.1037 66.592 84.057 66.8183 84.057 67.089V69H83.385V65.29H84.029V66.291L83.924 66.025C84.0454 65.7823 84.232 65.5933 84.484 65.458C84.736 65.3227 85.03 65.255 85.366 65.255ZM89.4237 69.042C89.0504 69.042 88.761 68.9417 88.5557 68.741C88.3504 68.5403 88.2477 68.2533 88.2477 67.88V64.478H88.9197V67.852C88.9197 68.0527 88.9687 68.2067 89.0667 68.314C89.1694 68.4213 89.314 68.475 89.5007 68.475C89.7107 68.475 89.8857 68.4167 90.0257 68.3L90.2357 68.783C90.133 68.8717 90.0094 68.937 89.8647 68.979C89.7247 69.021 89.5777 69.042 89.4237 69.042ZM87.6177 65.843V65.29H89.9837V65.843H87.6177ZM92.6091 69.042C92.2918 69.042 92.0118 68.9837 91.7691 68.867C91.5311 68.7503 91.3445 68.573 91.2091 68.335C91.0785 68.0923 91.0131 67.789 91.0131 67.425V65.29H91.6851V67.348C91.6851 67.712 91.7715 67.985 91.9441 68.167C92.1215 68.349 92.3688 68.44 92.6861 68.44C92.9195 68.44 93.1225 68.3933 93.2951 68.3C93.4678 68.202 93.6008 68.062 93.6941 67.88C93.7875 67.6933 93.8341 67.4693 93.8341 67.208V65.29H94.5061V69H93.8691V67.999L93.9741 68.265C93.8528 68.5123 93.6708 68.7037 93.4281 68.839C93.1855 68.9743 92.9125 69.042 92.6091 69.042ZM95.7854 69V65.29H96.4294V66.298L96.3664 66.046C96.4691 65.7893 96.6418 65.5933 96.8844 65.458C97.1271 65.3227 97.4258 65.255 97.7804 65.255V65.906C97.7524 65.9013 97.7244 65.899 97.6964 65.899C97.6731 65.899 97.6498 65.899 97.6264 65.899C97.2671 65.899 96.9824 66.0063 96.7724 66.221C96.5624 66.4357 96.4574 66.746 96.4574 67.152V69H95.7854ZM100.227 69.042C99.8298 69.042 99.4798 68.9603 99.1765 68.797C98.8778 68.6337 98.6445 68.4097 98.4765 68.125C98.3132 67.8403 98.2315 67.5137 98.2315 67.145C98.2315 66.7763 98.3108 66.4497 98.4695 66.165C98.6328 65.8803 98.8545 65.6587 99.1345 65.5C99.4192 65.3367 99.7388 65.255 100.094 65.255C100.453 65.255 100.77 65.3343 101.046 65.493C101.321 65.6517 101.536 65.8757 101.69 66.165C101.848 66.4497 101.928 66.7833 101.928 67.166C101.928 67.194 101.925 67.2267 101.921 67.264C101.921 67.3013 101.918 67.3363 101.914 67.369H98.7565V66.886H101.564L101.291 67.054C101.295 66.816 101.246 66.6037 101.144 66.417C101.041 66.2303 100.899 66.0857 100.717 65.983C100.539 65.8757 100.332 65.822 100.094 65.822C99.8602 65.822 99.6525 65.8757 99.4705 65.983C99.2885 66.0857 99.1462 66.2327 99.0435 66.424C98.9408 66.6107 98.8895 66.8253 98.8895 67.068V67.18C98.8895 67.4273 98.9455 67.649 99.0575 67.845C99.1742 68.0363 99.3352 68.1857 99.5405 68.293C99.7458 68.4003 99.9815 68.454 100.248 68.454C100.467 68.454 100.665 68.4167 100.843 68.342C101.025 68.2673 101.183 68.1553 101.319 68.006L101.69 68.44C101.522 68.636 101.312 68.7853 101.06 68.888C100.812 68.9907 100.535 69.042 100.227 69.042ZM102.691 67.369V66.788H104.574V67.369H102.691ZM105.609 69V65.29H106.253V66.298L106.19 66.046C106.292 65.7893 106.465 65.5933 106.708 65.458C106.95 65.3227 107.249 65.255 107.604 65.255V65.906C107.576 65.9013 107.548 65.899 107.52 65.899C107.496 65.899 107.473 65.899 107.45 65.899C107.09 65.899 106.806 66.0063 106.596 66.221C106.386 66.4357 106.281 66.746 106.281 67.152V69H105.609ZM110.05 69.042C109.653 69.042 109.303 68.9603 109 68.797C108.701 68.6337 108.468 68.4097 108.3 68.125C108.136 67.8403 108.055 67.5137 108.055 67.145C108.055 66.7763 108.134 66.4497 108.293 66.165C108.456 65.8803 108.678 65.6587 108.958 65.5C109.242 65.3367 109.562 65.255 109.917 65.255C110.276 65.255 110.593 65.3343 110.869 65.493C111.144 65.6517 111.359 65.8757 111.513 66.165C111.671 66.4497 111.751 66.7833 111.751 67.166C111.751 67.194 111.748 67.2267 111.744 67.264C111.744 67.3013 111.741 67.3363 111.737 67.369H108.58V66.886H111.387L111.114 67.054C111.118 66.816 111.069 66.6037 110.967 66.417C110.864 66.2303 110.722 66.0857 110.54 65.983C110.362 65.8757 110.155 65.822 109.917 65.822C109.683 65.822 109.476 65.8757 109.294 65.983C109.112 66.0857 108.969 66.2327 108.867 66.424C108.764 66.6107 108.713 66.8253 108.713 67.068V67.18C108.713 67.4273 108.769 67.649 108.881 67.845C108.997 68.0363 109.158 68.1857 109.364 68.293C109.569 68.4003 109.805 68.454 110.071 68.454C110.29 68.454 110.488 68.4167 110.666 68.342C110.848 68.2673 111.006 68.1553 111.142 68.006L111.513 68.44C111.345 68.636 111.135 68.7853 110.883 68.888C110.635 68.9907 110.358 69.042 110.05 69.042ZM113.748 69.042C113.44 69.042 113.146 69 112.866 68.916C112.591 68.832 112.374 68.7293 112.215 68.608L112.495 68.076C112.654 68.1833 112.85 68.2743 113.083 68.349C113.316 68.4237 113.554 68.461 113.797 68.461C114.11 68.461 114.334 68.4167 114.469 68.328C114.609 68.2393 114.679 68.1157 114.679 67.957C114.679 67.8403 114.637 67.7493 114.553 67.684C114.469 67.6187 114.357 67.5697 114.217 67.537C114.082 67.5043 113.93 67.4763 113.762 67.453C113.594 67.425 113.426 67.3923 113.258 67.355C113.09 67.313 112.936 67.257 112.796 67.187C112.656 67.1123 112.544 67.012 112.46 66.886C112.376 66.7553 112.334 66.5827 112.334 66.368C112.334 66.144 112.397 65.948 112.523 65.78C112.649 65.612 112.826 65.4837 113.055 65.395C113.288 65.3017 113.564 65.255 113.881 65.255C114.124 65.255 114.369 65.2853 114.616 65.346C114.868 65.402 115.073 65.4837 115.232 65.591L114.945 66.123C114.777 66.011 114.602 65.934 114.42 65.892C114.238 65.85 114.056 65.829 113.874 65.829C113.58 65.829 113.361 65.878 113.216 65.976C113.071 66.0693 112.999 66.1907 112.999 66.34C112.999 66.466 113.041 66.564 113.125 66.634C113.214 66.6993 113.326 66.7507 113.461 66.788C113.601 66.8253 113.755 66.858 113.923 66.886C114.091 66.9093 114.259 66.942 114.427 66.984C114.595 67.0213 114.747 67.075 114.882 67.145C115.022 67.215 115.134 67.313 115.218 67.439C115.307 67.565 115.351 67.733 115.351 67.943C115.351 68.167 115.286 68.3607 115.155 68.524C115.024 68.6873 114.84 68.8157 114.602 68.909C114.364 68.9977 114.079 69.042 113.748 69.042ZM116.191 69V65.29H116.863V69H116.191ZM116.527 64.576C116.396 64.576 116.286 64.534 116.198 64.45C116.114 64.366 116.072 64.2633 116.072 64.142C116.072 64.016 116.114 63.911 116.198 63.827C116.286 63.743 116.396 63.701 116.527 63.701C116.657 63.701 116.765 63.743 116.849 63.827C116.937 63.9063 116.982 64.0067 116.982 64.128C116.982 64.254 116.94 64.3613 116.856 64.45C116.772 64.534 116.662 64.576 116.527 64.576ZM119.21 69.042C118.902 69.042 118.608 69 118.328 68.916C118.052 68.832 117.835 68.7293 117.677 68.608L117.957 68.076C118.115 68.1833 118.311 68.2743 118.545 68.349C118.778 68.4237 119.016 68.461 119.259 68.461C119.571 68.461 119.795 68.4167 119.931 68.328C120.071 68.2393 120.141 68.1157 120.141 67.957C120.141 67.8403 120.099 67.7493 120.015 67.684C119.931 67.6187 119.819 67.5697 119.679 67.537C119.543 67.5043 119.392 67.4763 119.224 67.453C119.056 67.425 118.888 67.3923 118.72 67.355C118.552 67.313 118.398 67.257 118.258 67.187C118.118 67.1123 118.006 67.012 117.922 66.886C117.838 66.7553 117.796 66.5827 117.796 66.368C117.796 66.144 117.859 65.948 117.985 65.78C118.111 65.612 118.288 65.4837 118.517 65.395C118.75 65.3017 119.025 65.255 119.343 65.255C119.585 65.255 119.83 65.2853 120.078 65.346C120.33 65.402 120.535 65.4837 120.694 65.591L120.407 66.123C120.239 66.011 120.064 65.934 119.882 65.892C119.7 65.85 119.518 65.829 119.336 65.829C119.042 65.829 118.822 65.878 118.678 65.976C118.533 66.0693 118.461 66.1907 118.461 66.34C118.461 66.466 118.503 66.564 118.587 66.634C118.675 66.6993 118.787 66.7507 118.923 66.788C119.063 66.8253 119.217 66.858 119.385 66.886C119.553 66.9093 119.721 66.942 119.889 66.984C120.057 67.0213 120.208 67.075 120.344 67.145C120.484 67.215 120.596 67.313 120.68 67.439C120.768 67.565 120.813 67.733 120.813 67.943C120.813 68.167 120.747 68.3607 120.617 68.524C120.486 68.6873 120.302 68.8157 120.064 68.909C119.826 68.9977 119.541 69.042 119.21 69.042ZM122.927 69.042C122.553 69.042 122.264 68.9417 122.059 68.741C121.853 68.5403 121.751 68.2533 121.751 67.88V64.478H122.423V67.852C122.423 68.0527 122.472 68.2067 122.57 68.314C122.672 68.4213 122.817 68.475 123.004 68.475C123.214 68.475 123.389 68.4167 123.529 68.3L123.739 68.783C123.636 68.8717 123.512 68.937 123.368 68.979C123.228 69.021 123.081 69.042 122.927 69.042ZM121.121 65.843V65.29H123.487V65.843H121.121ZM126.854 69V68.216L126.819 68.069V66.732C126.819 66.4473 126.735 66.228 126.567 66.074C126.404 65.9153 126.156 65.836 125.825 65.836C125.606 65.836 125.391 65.8733 125.181 65.948C124.971 66.018 124.794 66.1137 124.649 66.235L124.369 65.731C124.56 65.577 124.789 65.4603 125.055 65.381C125.326 65.297 125.608 65.255 125.902 65.255C126.411 65.255 126.803 65.3787 127.078 65.626C127.353 65.8733 127.491 66.2513 127.491 66.76V69H126.854ZM125.636 69.042C125.361 69.042 125.118 68.9953 124.908 68.902C124.703 68.8087 124.544 68.6803 124.432 68.517C124.32 68.349 124.264 68.16 124.264 67.95C124.264 67.7493 124.311 67.5673 124.404 67.404C124.502 67.2407 124.658 67.11 124.873 67.012C125.092 66.914 125.386 66.865 125.755 66.865H126.931V67.348H125.783C125.447 67.348 125.221 67.404 125.104 67.516C124.987 67.628 124.929 67.7633 124.929 67.922C124.929 68.104 125.001 68.251 125.146 68.363C125.291 68.4703 125.491 68.524 125.748 68.524C126 68.524 126.219 68.468 126.406 68.356C126.597 68.244 126.735 68.0807 126.819 67.866L126.952 68.328C126.863 68.5473 126.707 68.7223 126.483 68.853C126.259 68.979 125.977 69.042 125.636 69.042ZM130.716 65.255C131.019 65.255 131.285 65.3133 131.514 65.43C131.747 65.5467 131.929 65.724 132.06 65.962C132.19 66.2 132.256 66.501 132.256 66.865V69H131.584V66.942C131.584 66.5827 131.495 66.312 131.318 66.13C131.145 65.948 130.9 65.857 130.583 65.857C130.345 65.857 130.137 65.9037 129.96 65.997C129.782 66.0903 129.645 66.228 129.547 66.41C129.453 66.592 129.407 66.8183 129.407 67.089V69H128.735V65.29H129.379V66.291L129.274 66.025C129.395 65.7823 129.582 65.5933 129.834 65.458C130.086 65.3227 130.38 65.255 130.716 65.255ZM134.773 69.042C134.4 69.042 134.111 68.9417 133.905 68.741C133.7 68.5403 133.597 68.2533 133.597 67.88V64.478H134.269V67.852C134.269 68.0527 134.318 68.2067 134.416 68.314C134.519 68.4213 134.664 68.475 134.85 68.475C135.06 68.475 135.235 68.4167 135.375 68.3L135.585 68.783C135.483 68.8717 135.359 68.937 135.214 68.979C135.074 69.021 134.927 69.042 134.773 69.042ZM132.967 65.843V65.29H135.333V65.843H132.967ZM140.581 69V68.216L140.546 68.069V66.732C140.546 66.4473 140.462 66.228 140.294 66.074C140.13 65.9153 139.883 65.836 139.552 65.836C139.332 65.836 139.118 65.8733 138.908 65.948C138.698 66.018 138.52 66.1137 138.376 66.235L138.096 65.731C138.287 65.577 138.516 65.4603 138.782 65.381C139.052 65.297 139.335 65.255 139.629 65.255C140.137 65.255 140.529 65.3787 140.805 65.626C141.08 65.8733 141.218 66.2513 141.218 66.76V69H140.581ZM139.363 69.042C139.087 69.042 138.845 68.9953 138.635 68.902C138.429 68.8087 138.271 68.6803 138.159 68.517C138.047 68.349 137.991 68.16 137.991 67.95C137.991 67.7493 138.037 67.5673 138.131 67.404C138.229 67.2407 138.385 67.11 138.6 67.012C138.819 66.914 139.113 66.865 139.482 66.865H140.658V67.348H139.51C139.174 67.348 138.947 67.404 138.831 67.516C138.714 67.628 138.656 67.7633 138.656 67.922C138.656 68.104 138.728 68.251 138.873 68.363C139.017 68.4703 139.218 68.524 139.475 68.524C139.727 68.524 139.946 68.468 140.133 68.356C140.324 68.244 140.462 68.0807 140.546 67.866L140.679 68.328C140.59 68.5473 140.434 68.7223 140.21 68.853C139.986 68.979 139.703 69.042 139.363 69.042ZM144.428 69.042C144.111 69.042 143.824 68.972 143.567 68.832C143.315 68.6873 143.115 68.475 142.965 68.195C142.821 67.915 142.748 67.565 142.748 67.145C142.748 66.725 142.823 66.375 142.972 66.095C143.126 65.815 143.329 65.605 143.581 65.465C143.838 65.325 144.12 65.255 144.428 65.255C144.792 65.255 145.114 65.3343 145.394 65.493C145.674 65.6517 145.896 65.8733 146.059 66.158C146.223 66.438 146.304 66.767 146.304 67.145C146.304 67.523 146.223 67.8543 146.059 68.139C145.896 68.4237 145.674 68.6453 145.394 68.804C145.114 68.9627 144.792 69.042 144.428 69.042ZM142.461 69V63.806H143.133V66.277L143.063 67.138L143.105 67.999V69H142.461ZM144.372 68.454C144.61 68.454 144.823 68.4003 145.009 68.293C145.201 68.1857 145.35 68.034 145.457 67.838C145.569 67.6373 145.625 67.4063 145.625 67.145C145.625 66.879 145.569 66.6503 145.457 66.459C145.35 66.263 145.201 66.1113 145.009 66.004C144.823 65.8967 144.61 65.843 144.372 65.843C144.139 65.843 143.927 65.8967 143.735 66.004C143.549 66.1113 143.399 66.263 143.287 66.459C143.18 66.6503 143.126 66.879 143.126 67.145C143.126 67.4063 143.18 67.6373 143.287 67.838C143.399 68.034 143.549 68.1857 143.735 68.293C143.927 68.4003 144.139 68.454 144.372 68.454ZM147.233 69V65.29H147.905V69H147.233ZM147.569 64.576C147.438 64.576 147.328 64.534 147.24 64.45C147.156 64.366 147.114 64.2633 147.114 64.142C147.114 64.016 147.156 63.911 147.24 63.827C147.328 63.743 147.438 63.701 147.569 63.701C147.699 63.701 147.807 63.743 147.891 63.827C147.979 63.9063 148.024 64.0067 148.024 64.128C148.024 64.254 147.982 64.3613 147.898 64.45C147.814 64.534 147.704 64.576 147.569 64.576ZM149.188 69V63.806H149.86V69H149.188ZM151.143 69V65.29H151.815V69H151.143ZM151.479 64.576C151.348 64.576 151.239 64.534 151.15 64.45C151.066 64.366 151.024 64.2633 151.024 64.142C151.024 64.016 151.066 63.911 151.15 63.827C151.239 63.743 151.348 63.701 151.479 63.701C151.61 63.701 151.717 63.743 151.801 63.827C151.89 63.9063 151.934 64.0067 151.934 64.128C151.934 64.254 151.892 64.3613 151.808 64.45C151.724 64.534 151.614 64.576 151.479 64.576ZM154.372 69.042C153.999 69.042 153.709 68.9417 153.504 68.741C153.299 68.5403 153.196 68.2533 153.196 67.88V64.478H153.868V67.852C153.868 68.0527 153.917 68.2067 154.015 68.314C154.118 68.4213 154.262 68.475 154.449 68.475C154.659 68.475 154.834 68.4167 154.974 68.3L155.184 68.783C155.081 68.8717 154.958 68.937 154.813 68.979C154.673 69.021 154.526 69.042 154.372 69.042ZM152.566 65.843V65.29H154.932V65.843H152.566ZM156.089 70.4C155.912 70.4 155.739 70.3697 155.571 70.309C155.403 70.253 155.258 70.169 155.137 70.057L155.424 69.553C155.517 69.6417 155.62 69.7093 155.732 69.756C155.844 69.8027 155.963 69.826 156.089 69.826C156.252 69.826 156.388 69.784 156.495 69.7C156.602 69.616 156.703 69.4667 156.796 69.252L157.027 68.741L157.097 68.657L158.553 65.29H159.211L157.412 69.371C157.305 69.6323 157.183 69.8377 157.048 69.987C156.917 70.1363 156.773 70.2413 156.614 70.302C156.455 70.3673 156.28 70.4 156.089 70.4ZM156.971 69.119L155.277 65.29H155.977L157.419 68.594L156.971 69.119ZM159.767 69.042C159.636 69.042 159.524 68.9977 159.431 68.909C159.337 68.8157 159.291 68.699 159.291 68.559C159.291 68.419 159.337 68.3047 159.431 68.216C159.524 68.1273 159.636 68.083 159.767 68.083C159.893 68.083 160 68.1273 160.089 68.216C160.182 68.3047 160.229 68.419 160.229 68.559C160.229 68.699 160.182 68.8157 160.089 68.909C160 68.9977 159.893 69.042 159.767 69.042Z" fill="#252525"/>
<circle cx="18.5" cy="25.5" r="2.5" fill="#1CBB3F"/>
</svg>
