<svg width="203" height="83" viewBox="0 0 203 83" fill="none" xmlns="http://www.w3.org/2000/svg">
<rect width="203" height="79" rx="12" fill="#D9D9D9"/>
<path d="M55.6931 30.132C55.0771 30.132 54.4867 30.0513 53.9221 29.89C53.3574 29.7213 52.9027 29.505 52.5581 29.241L53.1631 27.899C53.4931 28.1337 53.8817 28.328 54.3291 28.482C54.7837 28.6287 55.2421 28.702 55.7041 28.702C56.0561 28.702 56.3384 28.669 56.5511 28.603C56.7711 28.5297 56.9324 28.4307 57.0351 28.306C57.1377 28.1813 57.1891 28.0383 57.1891 27.877C57.1891 27.6717 57.1084 27.5103 56.9471 27.393C56.7857 27.2683 56.5731 27.1693 56.3091 27.096C56.0451 27.0153 55.7517 26.942 55.4291 26.876C55.1137 26.8027 54.7947 26.7147 54.4721 26.612C54.1567 26.5093 53.8671 26.3773 53.6031 26.216C53.3391 26.0547 53.1227 25.842 52.9541 25.578C52.7927 25.314 52.7121 24.9767 52.7121 24.566C52.7121 24.126 52.8294 23.7263 53.0641 23.367C53.3061 23.0003 53.6654 22.7107 54.1421 22.498C54.6261 22.278 55.2311 22.168 55.9571 22.168C56.4411 22.168 56.9177 22.2267 57.3871 22.344C57.8564 22.454 58.2707 22.6227 58.6301 22.85L58.0801 24.203C57.7207 23.9977 57.3614 23.8473 57.0021 23.752C56.6427 23.6493 56.2907 23.598 55.9461 23.598C55.6014 23.598 55.3191 23.6383 55.0991 23.719C54.8791 23.7997 54.7214 23.906 54.6261 24.038C54.5307 24.1627 54.4831 24.3093 54.4831 24.478C54.4831 24.676 54.5637 24.8373 54.7251 24.962C54.8864 25.0793 55.0991 25.1747 55.3631 25.248C55.6271 25.3213 55.9167 25.3947 56.2321 25.468C56.5547 25.5413 56.8737 25.6257 57.1891 25.721C57.5117 25.8163 57.8051 25.9447 58.0691 26.106C58.3331 26.2673 58.5457 26.48 58.7071 26.744C58.8757 27.008 58.9601 27.3417 58.9601 27.745C58.9601 28.1777 58.8391 28.5737 58.5971 28.933C58.3551 29.2923 57.9921 29.582 57.5081 29.802C57.0314 30.022 56.4264 30.132 55.6931 30.132ZM62.7737 30.088C62.2824 30.088 61.8424 29.9927 61.4537 29.802C61.0724 29.6113 60.7754 29.3217 60.5627 28.933C60.3501 28.537 60.2437 28.0347 60.2437 27.426V24.082H61.9597V27.173C61.9597 27.6643 62.0624 28.0273 62.2677 28.262C62.4804 28.4893 62.7774 28.603 63.1587 28.603C63.4227 28.603 63.6574 28.548 63.8627 28.438C64.0681 28.3207 64.2294 28.1447 64.3467 27.91C64.4641 27.668 64.5227 27.3673 64.5227 27.008V24.082H66.2387V30H64.6107V28.372L64.9077 28.845C64.7097 29.2557 64.4164 29.5673 64.0277 29.78C63.6464 29.9853 63.2284 30.088 62.7737 30.088ZM70.0395 30.088C69.5335 30.088 69.0458 30.0293 68.5765 29.912C68.1145 29.7873 67.7478 29.6333 67.4765 29.45L68.0485 28.218C68.3198 28.3867 68.6388 28.526 69.0055 28.636C69.3795 28.7387 69.7461 28.79 70.1055 28.79C70.5015 28.79 70.7801 28.7423 70.9415 28.647C71.1101 28.5517 71.1945 28.4197 71.1945 28.251C71.1945 28.1117 71.1285 28.009 70.9965 27.943C70.8718 27.8697 70.7031 27.8147 70.4905 27.778C70.2778 27.7413 70.0431 27.7047 69.7865 27.668C69.5371 27.6313 69.2841 27.5837 69.0275 27.525C68.7708 27.459 68.5361 27.3637 68.3235 27.239C68.1108 27.1143 67.9385 26.9457 67.8065 26.733C67.6818 26.5203 67.6195 26.2453 67.6195 25.908C67.6195 25.534 67.7258 25.204 67.9385 24.918C68.1585 24.632 68.4738 24.4083 68.8845 24.247C69.2951 24.0783 69.7865 23.994 70.3585 23.994C70.7618 23.994 71.1725 24.038 71.5905 24.126C72.0085 24.214 72.3568 24.3423 72.6355 24.511L72.0635 25.732C71.7775 25.5633 71.4878 25.4497 71.1945 25.391C70.9085 25.325 70.6298 25.292 70.3585 25.292C69.9771 25.292 69.6985 25.3433 69.5225 25.446C69.3465 25.5487 69.2585 25.6807 69.2585 25.842C69.2585 25.9887 69.3208 26.0987 69.4455 26.172C69.5775 26.2453 69.7498 26.304 69.9625 26.348C70.1751 26.392 70.4061 26.4323 70.6555 26.469C70.9121 26.4983 71.1688 26.546 71.4255 26.612C71.6821 26.678 71.9131 26.7733 72.1185 26.898C72.3311 27.0153 72.5035 27.1803 72.6355 27.393C72.7675 27.5983 72.8335 27.8697 72.8335 28.207C72.8335 28.5737 72.7235 28.9 72.5035 29.186C72.2835 29.4647 71.9645 29.6847 71.5465 29.846C71.1358 30.0073 70.6335 30.088 70.0395 30.088ZM77.6102 30.088C77.1116 30.088 76.6752 29.978 76.3012 29.758C75.9272 29.538 75.6339 29.2043 75.4212 28.757C75.2159 28.3023 75.1132 27.7303 75.1132 27.041C75.1132 26.3443 75.2122 25.7723 75.4102 25.325C75.6082 24.8777 75.8942 24.544 76.2682 24.324C76.6422 24.104 77.0896 23.994 77.6102 23.994C78.1676 23.994 78.6662 24.1223 79.1062 24.379C79.5536 24.6283 79.9056 24.9803 80.1622 25.435C80.4262 25.8897 80.5582 26.425 80.5582 27.041C80.5582 27.6643 80.4262 28.2033 80.1622 28.658C79.9056 29.1127 79.5536 29.4647 79.1062 29.714C78.6662 29.9633 78.1676 30.088 77.6102 30.088ZM74.1122 32.134V24.082H75.7512V25.292L75.7182 27.052L75.8282 28.801V32.134H74.1122ZM77.3132 28.68C77.5992 28.68 77.8522 28.614 78.0722 28.482C78.2996 28.35 78.4792 28.163 78.6112 27.921C78.7506 27.6717 78.8202 27.3783 78.8202 27.041C78.8202 26.6963 78.7506 26.403 78.6112 26.161C78.4792 25.919 78.2996 25.732 78.0722 25.6C77.8522 25.468 77.5992 25.402 77.3132 25.402C77.0272 25.402 76.7706 25.468 76.5432 25.6C76.3159 25.732 76.1362 25.919 76.0042 26.161C75.8722 26.403 75.8062 26.6963 75.8062 27.041C75.8062 27.3783 75.8722 27.6717 76.0042 27.921C76.1362 28.163 76.3159 28.35 76.5432 28.482C76.7706 28.614 77.0272 28.68 77.3132 28.68ZM84.864 30.088C84.1893 30.088 83.5953 29.956 83.082 29.692C82.576 29.428 82.1836 29.0687 81.905 28.614C81.6263 28.152 81.487 27.6277 81.487 27.041C81.487 26.447 81.6226 25.9227 81.894 25.468C82.1726 25.006 82.5503 24.6467 83.027 24.39C83.5036 24.126 84.0426 23.994 84.644 23.994C85.2233 23.994 85.744 24.1187 86.206 24.368C86.6753 24.61 87.0456 24.962 87.317 25.424C87.5883 25.8787 87.724 26.425 87.724 27.063C87.724 27.129 87.7203 27.206 87.713 27.294C87.7056 27.3747 87.6983 27.4517 87.691 27.525H82.884V26.524H86.789L86.129 26.821C86.129 26.513 86.0666 26.2453 85.942 26.018C85.8173 25.7907 85.645 25.6147 85.425 25.49C85.205 25.358 84.9483 25.292 84.655 25.292C84.3616 25.292 84.1013 25.358 83.874 25.49C83.654 25.6147 83.4816 25.7943 83.357 26.029C83.2323 26.2563 83.17 26.5277 83.17 26.843V27.107C83.17 27.4297 83.2396 27.7157 83.379 27.965C83.5256 28.207 83.7273 28.394 83.984 28.526C84.248 28.6507 84.556 28.713 84.908 28.713C85.2233 28.713 85.4983 28.6653 85.733 28.57C85.975 28.4747 86.195 28.3317 86.393 28.141L87.306 29.131C87.0346 29.439 86.6936 29.6773 86.283 29.846C85.8723 30.0073 85.3993 30.088 84.864 30.088ZM92.6834 23.994C93.1527 23.994 93.5707 24.0893 93.9374 24.28C94.3114 24.4633 94.6047 24.7493 94.8174 25.138C95.0301 25.5193 95.1364 26.0107 95.1364 26.612V30H93.4204V26.876C93.4204 26.3993 93.3141 26.0473 93.1014 25.82C92.8961 25.5927 92.6027 25.479 92.2214 25.479C91.9501 25.479 91.7044 25.5377 91.4844 25.655C91.2717 25.765 91.1031 25.9373 90.9784 26.172C90.8611 26.4067 90.8024 26.7073 90.8024 27.074V30H89.0864V24.082H90.7254V25.721L90.4174 25.226C90.6301 24.83 90.9344 24.5257 91.3304 24.313C91.7264 24.1003 92.1774 23.994 92.6834 23.994ZM98.9029 30.088C98.3969 30.088 97.9092 30.0293 97.4399 29.912C96.9779 29.7873 96.6112 29.6333 96.3399 29.45L96.9119 28.218C97.1832 28.3867 97.5022 28.526 97.8689 28.636C98.2429 28.7387 98.6095 28.79 98.9689 28.79C99.3649 28.79 99.6435 28.7423 99.8049 28.647C99.9735 28.5517 100.058 28.4197 100.058 28.251C100.058 28.1117 99.9919 28.009 99.8599 27.943C99.7352 27.8697 99.5665 27.8147 99.3539 27.778C99.1412 27.7413 98.9065 27.7047 98.6499 27.668C98.4005 27.6313 98.1475 27.5837 97.8909 27.525C97.6342 27.459 97.3995 27.3637 97.1869 27.239C96.9742 27.1143 96.8019 26.9457 96.6699 26.733C96.5452 26.5203 96.4829 26.2453 96.4829 25.908C96.4829 25.534 96.5892 25.204 96.8019 24.918C97.0219 24.632 97.3372 24.4083 97.7479 24.247C98.1585 24.0783 98.6499 23.994 99.2219 23.994C99.6252 23.994 100.036 24.038 100.454 24.126C100.872 24.214 101.22 24.3423 101.499 24.511L100.927 25.732C100.641 25.5633 100.351 25.4497 100.058 25.391C99.7719 25.325 99.4932 25.292 99.2219 25.292C98.8405 25.292 98.5619 25.3433 98.3859 25.446C98.2099 25.5487 98.1219 25.6807 98.1219 25.842C98.1219 25.9887 98.1842 26.0987 98.3089 26.172C98.4409 26.2453 98.6132 26.304 98.8259 26.348C99.0385 26.392 99.2695 26.4323 99.5189 26.469C99.7755 26.4983 100.032 26.546 100.289 26.612C100.546 26.678 100.777 26.7733 100.982 26.898C101.195 27.0153 101.367 27.1803 101.499 27.393C101.631 27.5983 101.697 27.8697 101.697 28.207C101.697 28.5737 101.587 28.9 101.367 29.186C101.147 29.4647 100.828 29.6847 100.41 29.846C99.9992 30.0073 99.4969 30.088 98.9029 30.088ZM102.976 30V24.082H104.692V30H102.976ZM103.834 23.257C103.518 23.257 103.262 23.1653 103.064 22.982C102.866 22.7987 102.767 22.5713 102.767 22.3C102.767 22.0287 102.866 21.8013 103.064 21.618C103.262 21.4347 103.518 21.343 103.834 21.343C104.149 21.343 104.406 21.431 104.604 21.607C104.802 21.7757 104.901 21.9957 104.901 22.267C104.901 22.553 104.802 22.7913 104.604 22.982C104.413 23.1653 104.156 23.257 103.834 23.257ZM109.32 30.088C108.69 30.088 108.129 29.956 107.637 29.692C107.153 29.428 106.768 29.0687 106.482 28.614C106.204 28.152 106.064 27.6277 106.064 27.041C106.064 26.447 106.204 25.9227 106.482 25.468C106.768 25.006 107.153 24.6467 107.637 24.39C108.129 24.126 108.69 23.994 109.32 23.994C109.944 23.994 110.501 24.126 110.992 24.39C111.484 24.6467 111.869 25.0023 112.147 25.457C112.426 25.9117 112.565 26.4397 112.565 27.041C112.565 27.6277 112.426 28.152 112.147 28.614C111.869 29.0687 111.484 29.428 110.992 29.692C110.501 29.956 109.944 30.088 109.32 30.088ZM109.32 28.68C109.606 28.68 109.863 28.614 110.09 28.482C110.318 28.35 110.497 28.163 110.629 27.921C110.761 27.6717 110.827 27.3783 110.827 27.041C110.827 26.6963 110.761 26.403 110.629 26.161C110.497 25.919 110.318 25.732 110.09 25.6C109.863 25.468 109.606 25.402 109.32 25.402C109.034 25.402 108.778 25.468 108.55 25.6C108.323 25.732 108.14 25.919 108 26.161C107.868 26.403 107.802 26.6963 107.802 27.041C107.802 27.3783 107.868 27.6717 108 27.921C108.14 28.163 108.323 28.35 108.55 28.482C108.778 28.614 109.034 28.68 109.32 28.68ZM117.529 23.994C117.999 23.994 118.417 24.0893 118.783 24.28C119.157 24.4633 119.451 24.7493 119.663 25.138C119.876 25.5193 119.982 26.0107 119.982 26.612V30H118.266V26.876C118.266 26.3993 118.16 26.0473 117.947 25.82C117.742 25.5927 117.449 25.479 117.067 25.479C116.796 25.479 116.55 25.5377 116.33 25.655C116.118 25.765 115.949 25.9373 115.824 26.172C115.707 26.4067 115.648 26.7073 115.648 27.074V30H113.932V24.082H115.571V25.721L115.263 25.226C115.476 24.83 115.78 24.5257 116.176 24.313C116.572 24.1003 117.023 23.994 117.529 23.994ZM126.864 25.765H130.56V27.195H126.864V25.765ZM126.996 30H125.214V22.3H131.033V23.73H126.996V30ZM135.004 30.088C134.373 30.088 133.812 29.956 133.321 29.692C132.837 29.428 132.452 29.0687 132.166 28.614C131.887 28.152 131.748 27.6277 131.748 27.041C131.748 26.447 131.887 25.9227 132.166 25.468C132.452 25.006 132.837 24.6467 133.321 24.39C133.812 24.126 134.373 23.994 135.004 23.994C135.627 23.994 136.185 24.126 136.676 24.39C137.167 24.6467 137.552 25.0023 137.831 25.457C138.11 25.9117 138.249 26.4397 138.249 27.041C138.249 27.6277 138.11 28.152 137.831 28.614C137.552 29.0687 137.167 29.428 136.676 29.692C136.185 29.956 135.627 30.088 135.004 30.088ZM135.004 28.68C135.29 28.68 135.547 28.614 135.774 28.482C136.001 28.35 136.181 28.163 136.313 27.921C136.445 27.6717 136.511 27.3783 136.511 27.041C136.511 26.6963 136.445 26.403 136.313 26.161C136.181 25.919 136.001 25.732 135.774 25.6C135.547 25.468 135.29 25.402 135.004 25.402C134.718 25.402 134.461 25.468 134.234 25.6C134.007 25.732 133.823 25.919 133.684 26.161C133.552 26.403 133.486 26.6963 133.486 27.041C133.486 27.3783 133.552 27.6717 133.684 27.921C133.823 28.163 134.007 28.35 134.234 28.482C134.461 28.614 134.718 28.68 135.004 28.68ZM139.616 30V24.082H141.255V25.754L141.024 25.27C141.2 24.852 141.482 24.5367 141.871 24.324C142.26 24.104 142.733 23.994 143.29 23.994V25.578C143.217 25.5707 143.151 25.567 143.092 25.567C143.033 25.5597 142.971 25.556 142.905 25.556C142.436 25.556 142.054 25.6917 141.761 25.963C141.475 26.227 141.332 26.6413 141.332 27.206V30H139.616ZM145.949 28.79L145.993 26.7L148.754 24.082H150.8L148.149 26.777L147.258 27.503L145.949 28.79ZM144.53 30V21.838H146.246V30H144.53ZM148.941 30L146.939 27.514L148.017 26.183L151.02 30H148.941Z" fill="#161616"/>
<path opacity="0.9" d="M22.8595 45V40.1H23.5595V45H22.8595ZM26.2025 45.042C25.8292 45.042 25.5398 44.9417 25.3345 44.741C25.1292 44.5403 25.0265 44.2533 25.0265 43.88V40.478H25.6985V43.852C25.6985 44.0527 25.7475 44.2067 25.8455 44.314C25.9482 44.4213 26.0928 44.475 26.2795 44.475C26.4895 44.475 26.6645 44.4167 26.8045 44.3L27.0145 44.783C26.9118 44.8717 26.7882 44.937 26.6435 44.979C26.5035 45.021 26.3565 45.042 26.2025 45.042ZM24.3965 41.843V41.29H26.7625V41.843H24.3965ZM30.4908 45L29.1118 41.29H29.7488L30.9738 44.65H30.6728L31.9468 41.29H32.5138L33.7598 44.65H33.4658L34.7188 41.29H35.3208L33.9348 45H33.2908L32.1218 41.934H32.3178L31.1348 45H30.4908ZM37.4892 45.042C37.1159 45.042 36.7845 44.9603 36.4952 44.797C36.2059 44.6337 35.9772 44.4097 35.8092 44.125C35.6412 43.8357 35.5572 43.509 35.5572 43.145C35.5572 42.7763 35.6412 42.4497 35.8092 42.165C35.9772 41.8803 36.2059 41.6587 36.4952 41.5C36.7845 41.3367 37.1159 41.255 37.4892 41.255C37.8579 41.255 38.1869 41.3367 38.4762 41.5C38.7702 41.6587 38.9989 41.8803 39.1622 42.165C39.3302 42.445 39.4142 42.7717 39.4142 43.145C39.4142 43.5137 39.3302 43.8403 39.1622 44.125C38.9989 44.4097 38.7702 44.6337 38.4762 44.797C38.1869 44.9603 37.8579 45.042 37.4892 45.042ZM37.4892 44.454C37.7272 44.454 37.9395 44.4003 38.1262 44.293C38.3175 44.1857 38.4669 44.034 38.5742 43.838C38.6815 43.6373 38.7352 43.4063 38.7352 43.145C38.7352 42.879 38.6815 42.6503 38.5742 42.459C38.4669 42.263 38.3175 42.1113 38.1262 42.004C37.9395 41.8967 37.7272 41.843 37.4892 41.843C37.2512 41.843 37.0389 41.8967 36.8522 42.004C36.6655 42.1113 36.5162 42.263 36.4042 42.459C36.2922 42.6503 36.2362 42.879 36.2362 43.145C36.2362 43.4063 36.2922 43.6373 36.4042 43.838C36.5162 44.034 36.6655 44.1857 36.8522 44.293C37.0389 44.4003 37.2512 44.454 37.4892 44.454ZM40.3435 45V41.29H40.9875V42.298L40.9245 42.046C41.0272 41.7893 41.1999 41.5933 41.4425 41.458C41.6852 41.3227 41.9839 41.255 42.3385 41.255V41.906C42.3105 41.9013 42.2825 41.899 42.2545 41.899C42.2312 41.899 42.2079 41.899 42.1845 41.899C41.8252 41.899 41.5405 42.0063 41.3305 42.221C41.1205 42.4357 41.0155 42.746 41.0155 43.152V45H40.3435ZM43.7128 44.104L43.7268 43.243L45.8618 41.29H46.6738L45.0358 42.9L44.6718 43.208L43.7128 44.104ZM43.1668 45V39.806H43.8388V45H43.1668ZM46.0018 45L44.5458 43.194L44.9798 42.655L46.8278 45H46.0018ZM48.4281 45.042C48.1201 45.042 47.8261 45 47.5461 44.916C47.2707 44.832 47.0537 44.7293 46.8951 44.608L47.1751 44.076C47.3337 44.1833 47.5297 44.2743 47.7631 44.349C47.9964 44.4237 48.2344 44.461 48.4771 44.461C48.7897 44.461 49.0137 44.4167 49.1491 44.328C49.2891 44.2393 49.3591 44.1157 49.3591 43.957C49.3591 43.8403 49.3171 43.7493 49.2331 43.684C49.1491 43.6187 49.0371 43.5697 48.8971 43.537C48.7617 43.5043 48.6101 43.4763 48.4421 43.453C48.2741 43.425 48.1061 43.3923 47.9381 43.355C47.7701 43.313 47.6161 43.257 47.4761 43.187C47.3361 43.1123 47.2241 43.012 47.1401 42.886C47.0561 42.7553 47.0141 42.5827 47.0141 42.368C47.0141 42.144 47.0771 41.948 47.2031 41.78C47.3291 41.612 47.5064 41.4837 47.7351 41.395C47.9684 41.3017 48.2437 41.255 48.5611 41.255C48.8037 41.255 49.0487 41.2853 49.2961 41.346C49.5481 41.402 49.7534 41.4837 49.9121 41.591L49.6251 42.123C49.4571 42.011 49.2821 41.934 49.1001 41.892C48.9181 41.85 48.7361 41.829 48.5541 41.829C48.2601 41.829 48.0407 41.878 47.8961 41.976C47.7514 42.0693 47.6791 42.1907 47.6791 42.34C47.6791 42.466 47.7211 42.564 47.8051 42.634C47.8937 42.6993 48.0057 42.7507 48.1411 42.788C48.2811 42.8253 48.4351 42.858 48.6031 42.886C48.7711 42.9093 48.9391 42.942 49.1071 42.984C49.2751 43.0213 49.4267 43.075 49.5621 43.145C49.7021 43.215 49.8141 43.313 49.8981 43.439C49.9867 43.565 50.0311 43.733 50.0311 43.943C50.0311 44.167 49.9657 44.3607 49.8351 44.524C49.7044 44.6873 49.5201 44.8157 49.2821 44.909C49.0441 44.9977 48.7594 45.042 48.4281 45.042ZM54.4028 45.042C54.0061 45.042 53.6561 44.9603 53.3528 44.797C53.0541 44.6337 52.8208 44.4097 52.6528 44.125C52.4894 43.8403 52.4078 43.5137 52.4078 43.145C52.4078 42.7763 52.4871 42.4497 52.6458 42.165C52.8091 41.8803 53.0308 41.6587 53.3108 41.5C53.5954 41.3367 53.9151 41.255 54.2698 41.255C54.6291 41.255 54.9464 41.3343 55.2218 41.493C55.4971 41.6517 55.7118 41.8757 55.8658 42.165C56.0244 42.4497 56.1038 42.7833 56.1038 43.166C56.1038 43.194 56.1014 43.2267 56.0968 43.264C56.0968 43.3013 56.0944 43.3363 56.0898 43.369H52.9328V42.886H55.7398L55.4668 43.054C55.4714 42.816 55.4224 42.6037 55.3198 42.417C55.2171 42.2303 55.0748 42.0857 54.8928 41.983C54.7154 41.8757 54.5078 41.822 54.2698 41.822C54.0364 41.822 53.8288 41.8757 53.6468 41.983C53.4648 42.0857 53.3224 42.2327 53.2198 42.424C53.1171 42.6107 53.0658 42.8253 53.0658 43.068V43.18C53.0658 43.4273 53.1218 43.649 53.2338 43.845C53.3504 44.0363 53.5114 44.1857 53.7168 44.293C53.9221 44.4003 54.1578 44.454 54.4238 44.454C54.6431 44.454 54.8414 44.4167 55.0188 44.342C55.2008 44.2673 55.3594 44.1553 55.4948 44.006L55.8658 44.44C55.6978 44.636 55.4878 44.7853 55.2358 44.888C54.9884 44.9907 54.7108 45.042 54.4028 45.042ZM56.3954 45L57.9914 42.928L57.9844 43.271L56.4654 41.29H57.2144L58.3764 42.816H58.0894L59.2514 41.29H59.9864L58.4464 43.285L58.4534 42.928L60.0634 45H59.3004L58.0754 43.376L58.3484 43.418L57.1444 45H56.3954ZM62.2906 45.042C61.9126 45.042 61.5743 44.9603 61.2756 44.797C60.9816 44.6337 60.7506 44.4097 60.5826 44.125C60.4146 43.8403 60.3306 43.5137 60.3306 43.145C60.3306 42.7763 60.4146 42.4497 60.5826 42.165C60.7506 41.8803 60.9816 41.6587 61.2756 41.5C61.5743 41.3367 61.9126 41.255 62.2906 41.255C62.6266 41.255 62.9253 41.3227 63.1866 41.458C63.4526 41.5887 63.658 41.7847 63.8026 42.046L63.2916 42.375C63.1703 42.193 63.021 42.06 62.8436 41.976C62.671 41.8873 62.4843 41.843 62.2836 41.843C62.041 41.843 61.824 41.8967 61.6326 42.004C61.4413 42.1113 61.2896 42.263 61.1776 42.459C61.0656 42.6503 61.0096 42.879 61.0096 43.145C61.0096 43.411 61.0656 43.642 61.1776 43.838C61.2896 44.034 61.4413 44.1857 61.6326 44.293C61.824 44.4003 62.041 44.454 62.2836 44.454C62.4843 44.454 62.671 44.412 62.8436 44.328C63.021 44.2393 63.1703 44.104 63.2916 43.922L63.8026 44.244C63.658 44.5007 63.4526 44.699 63.1866 44.839C62.9253 44.9743 62.6266 45.042 62.2906 45.042ZM66.27 45.042C65.8733 45.042 65.5233 44.9603 65.22 44.797C64.9213 44.6337 64.688 44.4097 64.52 44.125C64.3566 43.8403 64.275 43.5137 64.275 43.145C64.275 42.7763 64.3543 42.4497 64.513 42.165C64.6763 41.8803 64.898 41.6587 65.178 41.5C65.4626 41.3367 65.7823 41.255 66.137 41.255C66.4963 41.255 66.8136 41.3343 67.089 41.493C67.3643 41.6517 67.579 41.8757 67.733 42.165C67.8916 42.4497 67.971 42.7833 67.971 43.166C67.971 43.194 67.9686 43.2267 67.964 43.264C67.964 43.3013 67.9616 43.3363 67.957 43.369H64.8V42.886H67.607L67.334 43.054C67.3386 42.816 67.2896 42.6037 67.187 42.417C67.0843 42.2303 66.942 42.0857 66.76 41.983C66.5826 41.8757 66.375 41.822 66.137 41.822C65.9036 41.822 65.696 41.8757 65.514 41.983C65.332 42.0857 65.1896 42.2327 65.087 42.424C64.9843 42.6107 64.933 42.8253 64.933 43.068V43.18C64.933 43.4273 64.989 43.649 65.101 43.845C65.2176 44.0363 65.3786 44.1857 65.584 44.293C65.7893 44.4003 66.025 44.454 66.291 44.454C66.5103 44.454 66.7086 44.4167 66.886 44.342C67.068 44.2673 67.2266 44.1553 67.362 44.006L67.733 44.44C67.565 44.636 67.355 44.7853 67.103 44.888C66.8556 44.9907 66.578 45.042 66.27 45.042ZM68.9041 45V39.806H69.5761V45H68.9041ZM70.8592 45V39.806H71.5312V45H70.8592ZM74.4662 45.042C74.0696 45.042 73.7196 44.9603 73.4162 44.797C73.1176 44.6337 72.8842 44.4097 72.7162 44.125C72.5529 43.8403 72.4712 43.5137 72.4712 43.145C72.4712 42.7763 72.5506 42.4497 72.7092 42.165C72.8726 41.8803 73.0942 41.6587 73.3742 41.5C73.6589 41.3367 73.9786 41.255 74.3332 41.255C74.6926 41.255 75.0099 41.3343 75.2852 41.493C75.5606 41.6517 75.7752 41.8757 75.9292 42.165C76.0879 42.4497 76.1672 42.7833 76.1672 43.166C76.1672 43.194 76.1649 43.2267 76.1602 43.264C76.1602 43.3013 76.1579 43.3363 76.1532 43.369H72.9962V42.886H75.8032L75.5302 43.054C75.5349 42.816 75.4859 42.6037 75.3832 42.417C75.2806 42.2303 75.1382 42.0857 74.9562 41.983C74.7789 41.8757 74.5712 41.822 74.3332 41.822C74.0999 41.822 73.8922 41.8757 73.7102 41.983C73.5282 42.0857 73.3859 42.2327 73.2832 42.424C73.1806 42.6107 73.1292 42.8253 73.1292 43.068V43.18C73.1292 43.4273 73.1852 43.649 73.2972 43.845C73.4139 44.0363 73.5749 44.1857 73.7802 44.293C73.9856 44.4003 74.2212 44.454 74.4872 44.454C74.7066 44.454 74.9049 44.4167 75.0822 44.342C75.2642 44.2673 75.4229 44.1553 75.5582 44.006L75.9292 44.44C75.7612 44.636 75.5512 44.7853 75.2992 44.888C75.0519 44.9907 74.7742 45.042 74.4662 45.042ZM79.0814 41.255C79.3847 41.255 79.6507 41.3133 79.8794 41.43C80.1127 41.5467 80.2947 41.724 80.4254 41.962C80.556 42.2 80.6214 42.501 80.6214 42.865V45H79.9494V42.942C79.9494 42.5827 79.8607 42.312 79.6834 42.13C79.5107 41.948 79.2657 41.857 78.9484 41.857C78.7104 41.857 78.5027 41.9037 78.3254 41.997C78.148 42.0903 78.0104 42.228 77.9124 42.41C77.819 42.592 77.7724 42.8183 77.7724 43.089V45H77.1004V41.29H77.7444V42.291L77.6394 42.025C77.7607 41.7823 77.9474 41.5933 78.1994 41.458C78.4514 41.3227 78.7454 41.255 79.0814 41.255ZM83.139 45.042C82.7657 45.042 82.4764 44.9417 82.271 44.741C82.0657 44.5403 81.963 44.2533 81.963 43.88V40.478H82.635V43.852C82.635 44.0527 82.684 44.2067 82.782 44.314C82.8847 44.4213 83.0294 44.475 83.216 44.475C83.426 44.475 83.601 44.4167 83.741 44.3L83.951 44.783C83.8484 44.8717 83.7247 44.937 83.58 44.979C83.44 45.021 83.293 45.042 83.139 45.042ZM81.333 41.843V41.29H83.699V41.843H81.333ZM86.7413 45V40.961C86.7413 40.597 86.8463 40.3077 87.0563 40.093C87.271 39.8737 87.5743 39.764 87.9663 39.764C88.111 39.764 88.2487 39.7827 88.3793 39.82C88.5147 39.8527 88.629 39.9063 88.7223 39.981L88.5193 40.492C88.4493 40.436 88.37 40.394 88.2813 40.366C88.1927 40.3333 88.0993 40.317 88.0013 40.317C87.8053 40.317 87.656 40.373 87.5533 40.485C87.4507 40.5923 87.3993 40.7533 87.3993 40.968V41.465L87.4133 41.773V45H86.7413ZM86.1113 41.843V41.29H88.4773V41.843H86.1113ZM90.6454 45.042C90.2721 45.042 89.9408 44.9603 89.6514 44.797C89.3621 44.6337 89.1334 44.4097 88.9654 44.125C88.7974 43.8357 88.7134 43.509 88.7134 43.145C88.7134 42.7763 88.7974 42.4497 88.9654 42.165C89.1334 41.8803 89.3621 41.6587 89.6514 41.5C89.9408 41.3367 90.2721 41.255 90.6454 41.255C91.0141 41.255 91.3431 41.3367 91.6324 41.5C91.9264 41.6587 92.1551 41.8803 92.3184 42.165C92.4864 42.445 92.5704 42.7717 92.5704 43.145C92.5704 43.5137 92.4864 43.8403 92.3184 44.125C92.1551 44.4097 91.9264 44.6337 91.6324 44.797C91.3431 44.9603 91.0141 45.042 90.6454 45.042ZM90.6454 44.454C90.8834 44.454 91.0958 44.4003 91.2824 44.293C91.4738 44.1857 91.6231 44.034 91.7304 43.838C91.8378 43.6373 91.8914 43.4063 91.8914 43.145C91.8914 42.879 91.8378 42.6503 91.7304 42.459C91.6231 42.263 91.4738 42.1113 91.2824 42.004C91.0958 41.8967 90.8834 41.843 90.6454 41.843C90.4074 41.843 90.1951 41.8967 90.0084 42.004C89.8218 42.1113 89.6724 42.263 89.5604 42.459C89.4484 42.6503 89.3924 42.879 89.3924 43.145C89.3924 43.4063 89.4484 43.6373 89.5604 43.838C89.6724 44.034 89.8218 44.1857 90.0084 44.293C90.1951 44.4003 90.4074 44.454 90.6454 44.454ZM93.4998 45V41.29H94.1438V42.298L94.0808 42.046C94.1835 41.7893 94.3561 41.5933 94.5988 41.458C94.8415 41.3227 95.1401 41.255 95.4948 41.255V41.906C95.4668 41.9013 95.4388 41.899 95.4108 41.899C95.3875 41.899 95.3641 41.899 95.3408 41.899C94.9815 41.899 94.6968 42.0063 94.4868 42.221C94.2768 42.4357 94.1718 42.746 94.1718 43.152V45H93.4998ZM100.218 45.042C99.9004 45.042 99.6134 44.972 99.3568 44.832C99.1048 44.6873 98.9041 44.475 98.7548 44.195C98.6101 43.915 98.5378 43.565 98.5378 43.145C98.5378 42.725 98.6124 42.375 98.7618 42.095C98.9158 41.815 99.1188 41.605 99.3708 41.465C99.6274 41.325 99.9098 41.255 100.218 41.255C100.582 41.255 100.904 41.3343 101.184 41.493C101.464 41.6517 101.685 41.8733 101.849 42.158C102.012 42.438 102.094 42.767 102.094 43.145C102.094 43.523 102.012 43.8543 101.849 44.139C101.685 44.4237 101.464 44.6453 101.184 44.804C100.904 44.9627 100.582 45.042 100.218 45.042ZM98.2508 45V39.806H98.9228V42.277L98.8528 43.138L98.8948 43.999V45H98.2508ZM100.162 44.454C100.4 44.454 100.612 44.4003 100.799 44.293C100.99 44.1857 101.139 44.034 101.247 43.838C101.359 43.6373 101.415 43.4063 101.415 43.145C101.415 42.879 101.359 42.6503 101.247 42.459C101.139 42.263 100.99 42.1113 100.799 42.004C100.612 41.8967 100.4 41.843 100.162 41.843C99.9284 41.843 99.7161 41.8967 99.5248 42.004C99.3381 42.1113 99.1888 42.263 99.0768 42.459C98.9694 42.6503 98.9158 42.879 98.9158 43.145C98.9158 43.4063 98.9694 43.6373 99.0768 43.838C99.1888 44.034 99.3381 44.1857 99.5248 44.293C99.7161 44.4003 99.9284 44.454 100.162 44.454ZM104.583 45.042C104.266 45.042 103.986 44.9837 103.743 44.867C103.505 44.7503 103.319 44.573 103.183 44.335C103.053 44.0923 102.987 43.789 102.987 43.425V41.29H103.659V43.348C103.659 43.712 103.746 43.985 103.918 44.167C104.096 44.349 104.343 44.44 104.66 44.44C104.894 44.44 105.097 44.3933 105.269 44.3C105.442 44.202 105.575 44.062 105.668 43.88C105.762 43.6933 105.808 43.4693 105.808 43.208V41.29H106.48V45H105.843V43.999L105.948 44.265C105.827 44.5123 105.645 44.7037 105.402 44.839C105.16 44.9743 104.887 45.042 104.583 45.042ZM112.401 41.255C112.699 41.255 112.963 41.3133 113.192 41.43C113.42 41.5467 113.598 41.724 113.724 41.962C113.854 42.2 113.92 42.501 113.92 42.865V45H113.248V42.942C113.248 42.5827 113.164 42.312 112.996 42.13C112.828 41.948 112.592 41.857 112.289 41.857C112.065 41.857 111.869 41.9037 111.701 41.997C111.533 42.0903 111.402 42.228 111.309 42.41C111.22 42.592 111.176 42.8183 111.176 43.089V45H110.504V42.942C110.504 42.5827 110.42 42.312 110.252 42.13C110.088 41.948 109.853 41.857 109.545 41.857C109.325 41.857 109.132 41.9037 108.964 41.997C108.796 42.0903 108.665 42.228 108.572 42.41C108.478 42.592 108.432 42.8183 108.432 43.089V45H107.76V41.29H108.404V42.277L108.299 42.025C108.415 41.7823 108.595 41.5933 108.838 41.458C109.08 41.3227 109.363 41.255 109.685 41.255C110.039 41.255 110.345 41.3437 110.602 41.521C110.858 41.6937 111.026 41.9573 111.106 42.312L110.833 42.2C110.945 41.9153 111.141 41.6867 111.421 41.514C111.701 41.3413 112.027 41.255 112.401 41.255ZM117.123 45.042C116.815 45.042 116.533 44.972 116.276 44.832C116.024 44.6873 115.821 44.475 115.667 44.195C115.518 43.915 115.443 43.565 115.443 43.145C115.443 42.725 115.515 42.375 115.66 42.095C115.809 41.815 116.01 41.605 116.262 41.465C116.519 41.325 116.806 41.255 117.123 41.255C117.487 41.255 117.809 41.3343 118.089 41.493C118.369 41.6517 118.591 41.8733 118.754 42.158C118.917 42.438 118.999 42.767 118.999 43.145C118.999 43.523 118.917 43.8543 118.754 44.139C118.591 44.4237 118.369 44.6453 118.089 44.804C117.809 44.9627 117.487 45.042 117.123 45.042ZM115.156 46.358V41.29H115.8V42.291L115.758 43.152L115.828 44.013V46.358H115.156ZM117.067 44.454C117.305 44.454 117.517 44.4003 117.704 44.293C117.895 44.1857 118.045 44.034 118.152 43.838C118.264 43.6373 118.32 43.4063 118.32 43.145C118.32 42.879 118.264 42.6503 118.152 42.459C118.045 42.263 117.895 42.1113 117.704 42.004C117.517 41.8967 117.305 41.843 117.067 41.843C116.834 41.843 116.621 41.8967 116.43 42.004C116.243 42.1113 116.094 42.263 115.982 42.459C115.875 42.6503 115.821 42.879 115.821 43.145C115.821 43.4063 115.875 43.6373 115.982 43.838C116.094 44.034 116.243 44.1857 116.43 44.293C116.621 44.4003 116.834 44.454 117.067 44.454ZM119.986 46.4C119.809 46.4 119.636 46.3697 119.468 46.309C119.3 46.253 119.155 46.169 119.034 46.057L119.321 45.553C119.414 45.6417 119.517 45.7093 119.629 45.756C119.741 45.8027 119.86 45.826 119.986 45.826C120.149 45.826 120.285 45.784 120.392 45.7C120.499 45.616 120.6 45.4667 120.693 45.252L120.924 44.741L120.994 44.657L122.45 41.29H123.108L121.309 45.371C121.202 45.6323 121.08 45.8377 120.945 45.987C120.814 46.1363 120.67 46.2413 120.511 46.302C120.352 46.3673 120.177 46.4 119.986 46.4ZM120.868 45.119L119.174 41.29H119.874L121.316 44.594L120.868 45.119ZM125.615 45V41.29H126.259V42.298L126.196 42.046C126.299 41.7893 126.471 41.5933 126.714 41.458C126.957 41.3227 127.255 41.255 127.61 41.255V41.906C127.582 41.9013 127.554 41.899 127.526 41.899C127.503 41.899 127.479 41.899 127.456 41.899C127.097 41.899 126.812 42.0063 126.602 42.221C126.392 42.4357 126.287 42.746 126.287 43.152V45H125.615ZM129.993 45.042C129.62 45.042 129.288 44.9603 128.999 44.797C128.71 44.6337 128.481 44.4097 128.313 44.125C128.145 43.8357 128.061 43.509 128.061 43.145C128.061 42.7763 128.145 42.4497 128.313 42.165C128.481 41.8803 128.71 41.6587 128.999 41.5C129.288 41.3367 129.62 41.255 129.993 41.255C130.362 41.255 130.691 41.3367 130.98 41.5C131.274 41.6587 131.503 41.8803 131.666 42.165C131.834 42.445 131.918 42.7717 131.918 43.145C131.918 43.5137 131.834 43.8403 131.666 44.125C131.503 44.4097 131.274 44.6337 130.98 44.797C130.691 44.9603 130.362 45.042 129.993 45.042ZM129.993 44.454C130.231 44.454 130.443 44.4003 130.63 44.293C130.821 44.1857 130.971 44.034 131.078 43.838C131.185 43.6373 131.239 43.4063 131.239 43.145C131.239 42.879 131.185 42.6503 131.078 42.459C130.971 42.263 130.821 42.1113 130.63 42.004C130.443 41.8967 130.231 41.843 129.993 41.843C129.755 41.843 129.543 41.8967 129.356 42.004C129.169 42.1113 129.02 42.263 128.908 42.459C128.796 42.6503 128.74 42.879 128.74 43.145C128.74 43.4063 128.796 43.6373 128.908 43.838C129.02 44.034 129.169 44.1857 129.356 44.293C129.543 44.4003 129.755 44.454 129.993 44.454ZM135.116 45V44.216L135.081 44.069V42.732C135.081 42.4473 134.997 42.228 134.829 42.074C134.666 41.9153 134.419 41.836 134.087 41.836C133.868 41.836 133.653 41.8733 133.443 41.948C133.233 42.018 133.056 42.1137 132.911 42.235L132.631 41.731C132.823 41.577 133.051 41.4603 133.317 41.381C133.588 41.297 133.87 41.255 134.164 41.255C134.673 41.255 135.065 41.3787 135.34 41.626C135.616 41.8733 135.753 42.2513 135.753 42.76V45H135.116ZM133.898 45.042C133.623 45.042 133.38 44.9953 133.17 44.902C132.965 44.8087 132.806 44.6803 132.694 44.517C132.582 44.349 132.526 44.16 132.526 43.95C132.526 43.7493 132.573 43.5673 132.666 43.404C132.764 43.2407 132.921 43.11 133.135 43.012C133.355 42.914 133.649 42.865 134.017 42.865H135.193V43.348H134.045C133.709 43.348 133.483 43.404 133.366 43.516C133.25 43.628 133.191 43.7633 133.191 43.922C133.191 44.104 133.264 44.251 133.408 44.363C133.553 44.4703 133.754 44.524 134.01 44.524C134.262 44.524 134.482 44.468 134.668 44.356C134.86 44.244 134.997 44.0807 135.081 43.866L135.214 44.328C135.126 44.5473 134.969 44.7223 134.745 44.853C134.521 44.979 134.239 45.042 133.898 45.042ZM138.53 45.042C138.171 45.042 137.849 44.9627 137.564 44.804C137.284 44.6453 137.062 44.4237 136.899 44.139C136.736 43.8543 136.654 43.523 136.654 43.145C136.654 42.767 136.736 42.438 136.899 42.158C137.062 41.8733 137.284 41.6517 137.564 41.493C137.849 41.3343 138.171 41.255 138.53 41.255C138.843 41.255 139.125 41.325 139.377 41.465C139.629 41.605 139.83 41.815 139.979 42.095C140.133 42.375 140.21 42.725 140.21 43.145C140.21 43.565 140.135 43.915 139.986 44.195C139.841 44.475 139.643 44.6873 139.391 44.832C139.139 44.972 138.852 45.042 138.53 45.042ZM138.586 44.454C138.819 44.454 139.029 44.4003 139.216 44.293C139.407 44.1857 139.557 44.034 139.664 43.838C139.776 43.6373 139.832 43.4063 139.832 43.145C139.832 42.879 139.776 42.6503 139.664 42.459C139.557 42.263 139.407 42.1113 139.216 42.004C139.029 41.8967 138.819 41.843 138.586 41.843C138.348 41.843 138.136 41.8967 137.949 42.004C137.762 42.1113 137.613 42.263 137.501 42.459C137.389 42.6503 137.333 42.879 137.333 43.145C137.333 43.4063 137.389 43.6373 137.501 43.838C137.613 44.034 137.762 44.1857 137.949 44.293C138.136 44.4003 138.348 44.454 138.586 44.454ZM139.853 45V43.999L139.895 43.138L139.825 42.277V39.806H140.497V45H139.853ZM142.832 45.042C142.524 45.042 142.23 45 141.95 44.916C141.675 44.832 141.458 44.7293 141.299 44.608L141.579 44.076C141.738 44.1833 141.934 44.2743 142.167 44.349C142.401 44.4237 142.639 44.461 142.881 44.461C143.194 44.461 143.418 44.4167 143.553 44.328C143.693 44.2393 143.763 44.1157 143.763 43.957C143.763 43.8403 143.721 43.7493 143.637 43.684C143.553 43.6187 143.441 43.5697 143.301 43.537C143.166 43.5043 143.014 43.4763 142.846 43.453C142.678 43.425 142.51 43.3923 142.342 43.355C142.174 43.313 142.02 43.257 141.88 43.187C141.74 43.1123 141.628 43.012 141.544 42.886C141.46 42.7553 141.418 42.5827 141.418 42.368C141.418 42.144 141.481 41.948 141.607 41.78C141.733 41.612 141.911 41.4837 142.139 41.395C142.373 41.3017 142.648 41.255 142.965 41.255C143.208 41.255 143.453 41.2853 143.7 41.346C143.952 41.402 144.158 41.4837 144.316 41.591L144.029 42.123C143.861 42.011 143.686 41.934 143.504 41.892C143.322 41.85 143.14 41.829 142.958 41.829C142.664 41.829 142.445 41.878 142.3 41.976C142.156 42.0693 142.083 42.1907 142.083 42.34C142.083 42.466 142.125 42.564 142.209 42.634C142.298 42.6993 142.41 42.7507 142.545 42.788C142.685 42.8253 142.839 42.858 143.007 42.886C143.175 42.9093 143.343 42.942 143.511 42.984C143.679 43.0213 143.831 43.075 143.966 43.145C144.106 43.215 144.218 43.313 144.302 43.439C144.391 43.565 144.435 43.733 144.435 43.943C144.435 44.167 144.37 44.3607 144.239 44.524C144.109 44.6873 143.924 44.8157 143.686 44.909C143.448 44.9977 143.164 45.042 142.832 45.042ZM149.458 45V44.216L149.423 44.069V42.732C149.423 42.4473 149.339 42.228 149.171 42.074C149.008 41.9153 148.76 41.836 148.429 41.836C148.21 41.836 147.995 41.8733 147.785 41.948C147.575 42.018 147.398 42.1137 147.253 42.235L146.973 41.731C147.164 41.577 147.393 41.4603 147.659 41.381C147.93 41.297 148.212 41.255 148.506 41.255C149.015 41.255 149.407 41.3787 149.682 41.626C149.957 41.8733 150.095 42.2513 150.095 42.76V45H149.458ZM148.24 45.042C147.965 45.042 147.722 44.9953 147.512 44.902C147.307 44.8087 147.148 44.6803 147.036 44.517C146.924 44.349 146.868 44.16 146.868 43.95C146.868 43.7493 146.915 43.5673 147.008 43.404C147.106 43.2407 147.262 43.11 147.477 43.012C147.696 42.914 147.99 42.865 148.359 42.865H149.535V43.348H148.387C148.051 43.348 147.825 43.404 147.708 43.516C147.591 43.628 147.533 43.7633 147.533 43.922C147.533 44.104 147.605 44.251 147.75 44.363C147.895 44.4703 148.095 44.524 148.352 44.524C148.604 44.524 148.823 44.468 149.01 44.356C149.201 44.244 149.339 44.0807 149.423 43.866L149.556 44.328C149.467 44.5473 149.311 44.7223 149.087 44.853C148.863 44.979 148.581 45.042 148.24 45.042ZM153.32 41.255C153.623 41.255 153.889 41.3133 154.118 41.43C154.351 41.5467 154.533 41.724 154.664 41.962C154.794 42.2 154.86 42.501 154.86 42.865V45H154.188V42.942C154.188 42.5827 154.099 42.312 153.922 42.13C153.749 41.948 153.504 41.857 153.187 41.857C152.949 41.857 152.741 41.9037 152.564 41.997C152.386 42.0903 152.249 42.228 152.151 42.41C152.057 42.592 152.011 42.8183 152.011 43.089V45H151.339V41.29H151.983V42.291L151.878 42.025C151.999 41.7823 152.186 41.5933 152.438 41.458C152.69 41.3227 152.984 41.255 153.32 41.255ZM157.636 45.042C157.277 45.042 156.955 44.9627 156.67 44.804C156.39 44.6453 156.169 44.4237 156.005 44.139C155.842 43.8543 155.76 43.523 155.76 43.145C155.76 42.767 155.842 42.438 156.005 42.158C156.169 41.8733 156.39 41.6517 156.67 41.493C156.955 41.3343 157.277 41.255 157.636 41.255C157.949 41.255 158.231 41.325 158.483 41.465C158.735 41.605 158.936 41.815 159.085 42.095C159.239 42.375 159.316 42.725 159.316 43.145C159.316 43.565 159.242 43.915 159.092 44.195C158.948 44.475 158.749 44.6873 158.497 44.832C158.245 44.972 157.958 45.042 157.636 45.042ZM157.692 44.454C157.926 44.454 158.136 44.4003 158.322 44.293C158.514 44.1857 158.663 44.034 158.77 43.838C158.882 43.6373 158.938 43.4063 158.938 43.145C158.938 42.879 158.882 42.6503 158.77 42.459C158.663 42.263 158.514 42.1113 158.322 42.004C158.136 41.8967 157.926 41.843 157.692 41.843C157.454 41.843 157.242 41.8967 157.055 42.004C156.869 42.1113 156.719 42.263 156.607 42.459C156.495 42.6503 156.439 42.879 156.439 43.145C156.439 43.4063 156.495 43.6373 156.607 43.838C156.719 44.034 156.869 44.1857 157.055 44.293C157.242 44.4003 157.454 44.454 157.692 44.454ZM158.959 45V43.999L159.001 43.138L158.931 42.277V39.806H159.603V45H158.959ZM167.396 41.255C167.694 41.255 167.958 41.3133 168.187 41.43C168.415 41.5467 168.593 41.724 168.719 41.962C168.849 42.2 168.915 42.501 168.915 42.865V45H168.243V42.942C168.243 42.5827 168.159 42.312 167.991 42.13C167.823 41.948 167.587 41.857 167.284 41.857C167.06 41.857 166.864 41.9037 166.696 41.997C166.528 42.0903 166.397 42.228 166.304 42.41C166.215 42.592 166.171 42.8183 166.171 43.089V45H165.499V42.942C165.499 42.5827 165.415 42.312 165.247 42.13C165.083 41.948 164.848 41.857 164.54 41.857C164.32 41.857 164.127 41.9037 163.959 41.997C163.791 42.0903 163.66 42.228 163.567 42.41C163.473 42.592 163.427 42.8183 163.427 43.089V45H162.755V41.29H163.399V42.277L163.294 42.025C163.41 41.7823 163.59 41.5933 163.833 41.458C164.075 41.3227 164.358 41.255 164.68 41.255C165.034 41.255 165.34 41.3437 165.597 41.521C165.853 41.6937 166.021 41.9573 166.101 42.312L165.828 42.2C165.94 41.9153 166.136 41.6867 166.416 41.514C166.696 41.3413 167.022 41.255 167.396 41.255ZM170.151 45V41.29H170.823V45H170.151ZM170.487 40.576C170.356 40.576 170.247 40.534 170.158 40.45C170.074 40.366 170.032 40.2633 170.032 40.142C170.032 40.016 170.074 39.911 170.158 39.827C170.247 39.743 170.356 39.701 170.487 39.701C170.618 39.701 170.725 39.743 170.809 39.827C170.898 39.9063 170.942 40.0067 170.942 40.128C170.942 40.254 170.9 40.3613 170.816 40.45C170.732 40.534 170.622 40.576 170.487 40.576ZM172.106 45V39.806H172.778V45H172.106ZM175.594 45.042C175.235 45.042 174.913 44.9627 174.628 44.804C174.348 44.6453 174.127 44.4237 173.963 44.139C173.8 43.8543 173.718 43.523 173.718 43.145C173.718 42.767 173.8 42.438 173.963 42.158C174.127 41.8733 174.348 41.6517 174.628 41.493C174.913 41.3343 175.235 41.255 175.594 41.255C175.907 41.255 176.189 41.325 176.441 41.465C176.693 41.605 176.894 41.815 177.043 42.095C177.197 42.375 177.274 42.725 177.274 43.145C177.274 43.565 177.2 43.915 177.05 44.195C176.906 44.475 176.707 44.6873 176.455 44.832C176.203 44.972 175.916 45.042 175.594 45.042ZM175.65 44.454C175.884 44.454 176.094 44.4003 176.28 44.293C176.472 44.1857 176.621 44.034 176.728 43.838C176.84 43.6373 176.896 43.4063 176.896 43.145C176.896 42.879 176.84 42.6503 176.728 42.459C176.621 42.263 176.472 42.1113 176.28 42.004C176.094 41.8967 175.884 41.843 175.65 41.843C175.412 41.843 175.2 41.8967 175.013 42.004C174.827 42.1113 174.677 42.263 174.565 42.459C174.453 42.6503 174.397 42.879 174.397 43.145C174.397 43.4063 174.453 43.6373 174.565 43.838C174.677 44.034 174.827 44.1857 175.013 44.293C175.2 44.4003 175.412 44.454 175.65 44.454ZM176.917 45V43.999L176.959 43.138L176.889 42.277V39.806H177.561V45H176.917ZM178.595 43.369V42.788H180.478V43.369H178.595ZM19.726 57.042C19.3527 57.042 19.0213 56.9603 18.732 56.797C18.4427 56.6337 18.214 56.4097 18.046 56.125C17.878 55.8357 17.794 55.509 17.794 55.145C17.794 54.7763 17.878 54.4497 18.046 54.165C18.214 53.8803 18.4427 53.6587 18.732 53.5C19.0213 53.3367 19.3527 53.255 19.726 53.255C20.0947 53.255 20.4237 53.3367 20.713 53.5C21.007 53.6587 21.2357 53.8803 21.399 54.165C21.567 54.445 21.651 54.7717 21.651 55.145C21.651 55.5137 21.567 55.8403 21.399 56.125C21.2357 56.4097 21.007 56.6337 20.713 56.797C20.4237 56.9603 20.0947 57.042 19.726 57.042ZM19.726 56.454C19.964 56.454 20.1763 56.4003 20.363 56.293C20.5543 56.1857 20.7037 56.034 20.811 55.838C20.9183 55.6373 20.972 55.4063 20.972 55.145C20.972 54.879 20.9183 54.6503 20.811 54.459C20.7037 54.263 20.5543 54.1113 20.363 54.004C20.1763 53.8967 19.964 53.843 19.726 53.843C19.488 53.843 19.2757 53.8967 19.089 54.004C18.9023 54.1113 18.753 54.263 18.641 54.459C18.529 54.6503 18.473 54.879 18.473 55.145C18.473 55.4063 18.529 55.6373 18.641 55.838C18.753 56.034 18.9023 56.1857 19.089 56.293C19.2757 56.4003 19.488 56.454 19.726 56.454ZM22.6784 57V52.961C22.6784 52.597 22.7834 52.3077 22.9934 52.093C23.208 51.8737 23.5114 51.764 23.9034 51.764C24.048 51.764 24.1857 51.7827 24.3164 51.82C24.4517 51.8527 24.566 51.9063 24.6594 51.981L24.4564 52.492C24.3864 52.436 24.307 52.394 24.2184 52.366C24.1297 52.3333 24.0364 52.317 23.9384 52.317C23.7424 52.317 23.593 52.373 23.4904 52.485C23.3877 52.5923 23.3364 52.7533 23.3364 52.968V53.465L23.3504 53.773V57H22.6784ZM22.0484 53.843V53.29H24.4144V53.843H22.0484ZM25.153 57V52.961C25.153 52.597 25.258 52.3077 25.468 52.093C25.6826 51.8737 25.986 51.764 26.378 51.764C26.5226 51.764 26.6603 51.7827 26.791 51.82C26.9263 51.8527 27.0406 51.9063 27.134 51.981L26.931 52.492C26.861 52.436 26.7816 52.394 26.693 52.366C26.6043 52.3333 26.511 52.317 26.413 52.317C26.217 52.317 26.0676 52.373 25.965 52.485C25.8623 52.5923 25.811 52.7533 25.811 52.968V53.465L25.825 53.773V57H25.153ZM24.523 53.843V53.29H26.889V53.843H24.523ZM29.4026 57V53.29H30.0466V54.298L29.9836 54.046C30.0863 53.7893 30.259 53.5933 30.5016 53.458C30.7443 53.3227 31.043 53.255 31.3976 53.255V53.906C31.3696 53.9013 31.3416 53.899 31.3136 53.899C31.2903 53.899 31.267 53.899 31.2436 53.899C30.8843 53.899 30.5996 54.0063 30.3896 54.221C30.1796 54.4357 30.0746 54.746 30.0746 55.152V57H29.4026ZM33.7807 57.042C33.4074 57.042 33.076 56.9603 32.7867 56.797C32.4974 56.6337 32.2687 56.4097 32.1007 56.125C31.9327 55.8357 31.8487 55.509 31.8487 55.145C31.8487 54.7763 31.9327 54.4497 32.1007 54.165C32.2687 53.8803 32.4974 53.6587 32.7867 53.5C33.076 53.3367 33.4074 53.255 33.7807 53.255C34.1494 53.255 34.4784 53.3367 34.7677 53.5C35.0617 53.6587 35.2904 53.8803 35.4537 54.165C35.6217 54.445 35.7057 54.7717 35.7057 55.145C35.7057 55.5137 35.6217 55.8403 35.4537 56.125C35.2904 56.4097 35.0617 56.6337 34.7677 56.797C34.4784 56.9603 34.1494 57.042 33.7807 57.042ZM33.7807 56.454C34.0187 56.454 34.231 56.4003 34.4177 56.293C34.609 56.1857 34.7584 56.034 34.8657 55.838C34.973 55.6373 35.0267 55.4063 35.0267 55.145C35.0267 54.879 34.973 54.6503 34.8657 54.459C34.7584 54.263 34.609 54.1113 34.4177 54.004C34.231 53.8967 34.0187 53.843 33.7807 53.843C33.5427 53.843 33.3304 53.8967 33.1437 54.004C32.957 54.1113 32.8077 54.263 32.6957 54.459C32.5837 54.6503 32.5277 54.879 32.5277 55.145C32.5277 55.4063 32.5837 55.6373 32.6957 55.838C32.8077 56.034 32.957 56.1857 33.1437 56.293C33.3304 56.4003 33.5427 56.454 33.7807 56.454ZM38.9039 57V56.216L38.8689 56.069V54.732C38.8689 54.4473 38.7849 54.228 38.6169 54.074C38.4535 53.9153 38.2062 53.836 37.8749 53.836C37.6555 53.836 37.4409 53.8733 37.2309 53.948C37.0209 54.018 36.8435 54.1137 36.6989 54.235L36.4189 53.731C36.6102 53.577 36.8389 53.4603 37.1049 53.381C37.3755 53.297 37.6579 53.255 37.9519 53.255C38.4605 53.255 38.8525 53.3787 39.1279 53.626C39.4032 53.8733 39.5409 54.2513 39.5409 54.76V57H38.9039ZM37.6859 57.042C37.4105 57.042 37.1679 56.9953 36.9579 56.902C36.7525 56.8087 36.5939 56.6803 36.4819 56.517C36.3699 56.349 36.3139 56.16 36.3139 55.95C36.3139 55.7493 36.3605 55.5673 36.4539 55.404C36.5519 55.2407 36.7082 55.11 36.9229 55.012C37.1422 54.914 37.4362 54.865 37.8049 54.865H38.9809V55.348H37.8329C37.4969 55.348 37.2705 55.404 37.1539 55.516C37.0372 55.628 36.9789 55.7633 36.9789 55.922C36.9789 56.104 37.0512 56.251 37.1959 56.363C37.3405 56.4703 37.5412 56.524 37.7979 56.524C38.0499 56.524 38.2692 56.468 38.4559 56.356C38.6472 56.244 38.7849 56.0807 38.8689 55.866L39.0019 56.328C38.9132 56.5473 38.7569 56.7223 38.5329 56.853C38.3089 56.979 38.0265 57.042 37.6859 57.042ZM42.3175 57.042C41.9581 57.042 41.6361 56.9627 41.3515 56.804C41.0715 56.6453 40.8498 56.4237 40.6865 56.139C40.5231 55.8543 40.4415 55.523 40.4415 55.145C40.4415 54.767 40.5231 54.438 40.6865 54.158C40.8498 53.8733 41.0715 53.6517 41.3515 53.493C41.6361 53.3343 41.9581 53.255 42.3175 53.255C42.6301 53.255 42.9125 53.325 43.1645 53.465C43.4165 53.605 43.6171 53.815 43.7665 54.095C43.9205 54.375 43.9975 54.725 43.9975 55.145C43.9975 55.565 43.9228 55.915 43.7735 56.195C43.6288 56.475 43.4305 56.6873 43.1785 56.832C42.9265 56.972 42.6395 57.042 42.3175 57.042ZM42.3735 56.454C42.6068 56.454 42.8168 56.4003 43.0035 56.293C43.1948 56.1857 43.3441 56.034 43.4515 55.838C43.5635 55.6373 43.6195 55.4063 43.6195 55.145C43.6195 54.879 43.5635 54.6503 43.4515 54.459C43.3441 54.263 43.1948 54.1113 43.0035 54.004C42.8168 53.8967 42.6068 53.843 42.3735 53.843C42.1355 53.843 41.9231 53.8967 41.7365 54.004C41.5498 54.1113 41.4005 54.263 41.2885 54.459C41.1765 54.6503 41.1205 54.879 41.1205 55.145C41.1205 55.4063 41.1765 55.6373 41.2885 55.838C41.4005 56.034 41.5498 56.1857 41.7365 56.293C41.9231 56.4003 42.1355 56.454 42.3735 56.454ZM43.6405 57V55.999L43.6825 55.138L43.6125 54.277V51.806H44.2845V57H43.6405ZM45.5559 57V53.29H46.2279V57H45.5559ZM45.8919 52.576C45.7613 52.576 45.6516 52.534 45.5629 52.45C45.4789 52.366 45.4369 52.2633 45.4369 52.142C45.4369 52.016 45.4789 51.911 45.5629 51.827C45.6516 51.743 45.7613 51.701 45.8919 51.701C46.0226 51.701 46.1299 51.743 46.2139 51.827C46.3026 51.9063 46.3469 52.0067 46.3469 52.128C46.3469 52.254 46.3049 52.3613 46.2209 52.45C46.1369 52.534 46.0273 52.576 45.8919 52.576ZM49.492 53.255C49.7954 53.255 50.0614 53.3133 50.29 53.43C50.5234 53.5467 50.7054 53.724 50.836 53.962C50.9667 54.2 51.032 54.501 51.032 54.865V57H50.36V54.942C50.36 54.5827 50.2714 54.312 50.094 54.13C49.9214 53.948 49.6764 53.857 49.359 53.857C49.121 53.857 48.9134 53.9037 48.736 53.997C48.5587 54.0903 48.421 54.228 48.323 54.41C48.2297 54.592 48.183 54.8183 48.183 55.089V57H47.511V53.29H48.155V54.291L48.05 54.025C48.1714 53.7823 48.358 53.5933 48.61 53.458C48.862 53.3227 49.156 53.255 49.492 53.255ZM53.8997 58.4C53.559 58.4 53.2277 58.351 52.9057 58.253C52.5883 58.1597 52.3293 58.0243 52.1287 57.847L52.4507 57.329C52.6233 57.4783 52.8357 57.595 53.0877 57.679C53.3397 57.7677 53.6033 57.812 53.8787 57.812C54.3173 57.812 54.6393 57.7093 54.8447 57.504C55.05 57.2987 55.1527 56.986 55.1527 56.566V55.782L55.2227 55.047L55.1877 54.305V53.29H55.8247V56.496C55.8247 57.1493 55.6613 57.63 55.3347 57.938C55.008 58.246 54.5297 58.4 53.8997 58.4ZM53.8157 56.846C53.4563 56.846 53.1343 56.7713 52.8497 56.622C52.5697 56.468 52.3457 56.2557 52.1777 55.985C52.0143 55.7143 51.9327 55.4017 51.9327 55.047C51.9327 54.6877 52.0143 54.375 52.1777 54.109C52.3457 53.8383 52.5697 53.6283 52.8497 53.479C53.1343 53.3297 53.4563 53.255 53.8157 53.255C54.133 53.255 54.4223 53.3203 54.6837 53.451C54.945 53.577 55.1527 53.773 55.3067 54.039C55.4653 54.305 55.5447 54.641 55.5447 55.047C55.5447 55.4483 55.4653 55.782 55.3067 56.048C55.1527 56.314 54.945 56.5147 54.6837 56.65C54.4223 56.7807 54.133 56.846 53.8157 56.846ZM53.8927 56.258C54.14 56.258 54.3593 56.2067 54.5507 56.104C54.742 56.0013 54.8913 55.859 54.9987 55.677C55.1107 55.495 55.1667 55.285 55.1667 55.047C55.1667 54.809 55.1107 54.599 54.9987 54.417C54.8913 54.235 54.742 54.095 54.5507 53.997C54.3593 53.8943 54.14 53.843 53.8927 53.843C53.6453 53.843 53.4237 53.8943 53.2277 53.997C53.0363 54.095 52.8847 54.235 52.7727 54.417C52.6653 54.599 52.6117 54.809 52.6117 55.047C52.6117 55.285 52.6653 55.495 52.7727 55.677C52.8847 55.859 53.0363 56.0013 53.2277 56.104C53.4237 56.2067 53.6453 56.258 53.8927 56.258ZM56.8427 58.036L57.1927 56.622L57.2837 57.028C57.1483 57.028 57.034 56.986 56.9407 56.902C56.852 56.818 56.8077 56.7037 56.8077 56.559C56.8077 56.419 56.852 56.3047 56.9407 56.216C57.034 56.1273 57.146 56.083 57.2767 56.083C57.412 56.083 57.5217 56.1297 57.6057 56.223C57.6897 56.3117 57.7317 56.4237 57.7317 56.559C57.7317 56.6057 57.727 56.6523 57.7177 56.699C57.713 56.741 57.7013 56.7923 57.6827 56.853C57.6687 56.909 57.6453 56.979 57.6127 57.063L57.2837 58.036H56.8427ZM62.1985 58.4C61.8578 58.4 61.5265 58.351 61.2045 58.253C60.8872 58.1597 60.6282 58.0243 60.4275 57.847L60.7495 57.329C60.9222 57.4783 61.1345 57.595 61.3865 57.679C61.6385 57.7677 61.9022 57.812 62.1775 57.812C62.6162 57.812 62.9382 57.7093 63.1435 57.504C63.3488 57.2987 63.4515 56.986 63.4515 56.566V55.782L63.5215 55.047L63.4865 54.305V53.29H64.1235V56.496C64.1235 57.1493 63.9602 57.63 63.6335 57.938C63.3068 58.246 62.8285 58.4 62.1985 58.4ZM62.1145 56.846C61.7552 56.846 61.4332 56.7713 61.1485 56.622C60.8685 56.468 60.6445 56.2557 60.4765 55.985C60.3132 55.7143 60.2315 55.4017 60.2315 55.047C60.2315 54.6877 60.3132 54.375 60.4765 54.109C60.6445 53.8383 60.8685 53.6283 61.1485 53.479C61.4332 53.3297 61.7552 53.255 62.1145 53.255C62.4318 53.255 62.7212 53.3203 62.9825 53.451C63.2438 53.577 63.4515 53.773 63.6055 54.039C63.7642 54.305 63.8435 54.641 63.8435 55.047C63.8435 55.4483 63.7642 55.782 63.6055 56.048C63.4515 56.314 63.2438 56.5147 62.9825 56.65C62.7212 56.7807 62.4318 56.846 62.1145 56.846ZM62.1915 56.258C62.4388 56.258 62.6582 56.2067 62.8495 56.104C63.0408 56.0013 63.1902 55.859 63.2975 55.677C63.4095 55.495 63.4655 55.285 63.4655 55.047C63.4655 54.809 63.4095 54.599 63.2975 54.417C63.1902 54.235 63.0408 54.095 62.8495 53.997C62.6582 53.8943 62.4388 53.843 62.1915 53.843C61.9442 53.843 61.7225 53.8943 61.5265 53.997C61.3352 54.095 61.1835 54.235 61.0715 54.417C60.9642 54.599 60.9105 54.809 60.9105 55.047C60.9105 55.285 60.9642 55.495 61.0715 55.677C61.1835 55.859 61.3352 56.0013 61.5265 56.104C61.7225 56.2067 61.9442 56.258 62.1915 56.258ZM65.4075 57V53.29H66.0795V57H65.4075ZM65.7435 52.576C65.6128 52.576 65.5032 52.534 65.4145 52.45C65.3305 52.366 65.2885 52.2633 65.2885 52.142C65.2885 52.016 65.3305 51.911 65.4145 51.827C65.5032 51.743 65.6128 51.701 65.7435 51.701C65.8742 51.701 65.9815 51.743 66.0655 51.827C66.1542 51.9063 66.1985 52.0067 66.1985 52.128C66.1985 52.254 66.1565 52.3613 66.0725 52.45C65.9885 52.534 65.8788 52.576 65.7435 52.576ZM68.3356 57L66.7116 53.29H67.4116L68.8536 56.65H68.5176L69.9876 53.29H70.6456L69.0216 57H68.3356ZM71.2727 57V53.29H71.9447V57H71.2727ZM71.6087 52.576C71.4781 52.576 71.3684 52.534 71.2797 52.45C71.1957 52.366 71.1537 52.2633 71.1537 52.142C71.1537 52.016 71.1957 51.911 71.2797 51.827C71.3684 51.743 71.4781 51.701 71.6087 51.701C71.7394 51.701 71.8467 51.743 71.9307 51.827C72.0194 51.9063 72.0637 52.0067 72.0637 52.128C72.0637 52.254 72.0217 52.3613 71.9377 52.45C71.8537 52.534 71.7441 52.576 71.6087 52.576ZM75.2088 53.255C75.5122 53.255 75.7782 53.3133 76.0068 53.43C76.2402 53.5467 76.4222 53.724 76.5528 53.962C76.6835 54.2 76.7488 54.501 76.7488 54.865V57H76.0768V54.942C76.0768 54.5827 75.9882 54.312 75.8108 54.13C75.6382 53.948 75.3932 53.857 75.0758 53.857C74.8378 53.857 74.6302 53.9037 74.4528 53.997C74.2755 54.0903 74.1378 54.228 74.0398 54.41C73.9465 54.592 73.8998 54.8183 73.8998 55.089V57H73.2278V53.29H73.8718V54.291L73.7668 54.025C73.8882 53.7823 74.0748 53.5933 74.3268 53.458C74.5788 53.3227 74.8728 53.255 75.2088 53.255ZM79.6165 58.4C79.2758 58.4 78.9445 58.351 78.6225 58.253C78.3051 58.1597 78.0461 58.0243 77.8455 57.847L78.1675 57.329C78.3401 57.4783 78.5525 57.595 78.8045 57.679C79.0565 57.7677 79.3201 57.812 79.5955 57.812C80.0341 57.812 80.3561 57.7093 80.5615 57.504C80.7668 57.2987 80.8695 56.986 80.8695 56.566V55.782L80.9395 55.047L80.9045 54.305V53.29H81.5415V56.496C81.5415 57.1493 81.3781 57.63 81.0515 57.938C80.7248 58.246 80.2465 58.4 79.6165 58.4ZM79.5325 56.846C79.1731 56.846 78.8511 56.7713 78.5665 56.622C78.2865 56.468 78.0625 56.2557 77.8945 55.985C77.7311 55.7143 77.6495 55.4017 77.6495 55.047C77.6495 54.6877 77.7311 54.375 77.8945 54.109C78.0625 53.8383 78.2865 53.6283 78.5665 53.479C78.8511 53.3297 79.1731 53.255 79.5325 53.255C79.8498 53.255 80.1391 53.3203 80.4005 53.451C80.6618 53.577 80.8695 53.773 81.0235 54.039C81.1821 54.305 81.2615 54.641 81.2615 55.047C81.2615 55.4483 81.1821 55.782 81.0235 56.048C80.8695 56.314 80.6618 56.5147 80.4005 56.65C80.1391 56.7807 79.8498 56.846 79.5325 56.846ZM79.6095 56.258C79.8568 56.258 80.0761 56.2067 80.2675 56.104C80.4588 56.0013 80.6081 55.859 80.7155 55.677C80.8275 55.495 80.8835 55.285 80.8835 55.047C80.8835 54.809 80.8275 54.599 80.7155 54.417C80.6081 54.235 80.4588 54.095 80.2675 53.997C80.0761 53.8943 79.8568 53.843 79.6095 53.843C79.3621 53.843 79.1405 53.8943 78.9445 53.997C78.7531 54.095 78.6015 54.235 78.4895 54.417C78.3821 54.599 78.3285 54.809 78.3285 55.047C78.3285 55.285 78.3821 55.495 78.4895 55.677C78.6015 55.859 78.7531 56.0013 78.9445 56.104C79.1405 56.2067 79.3621 56.258 79.6095 56.258ZM87.0084 57V56.216L86.9734 56.069V54.732C86.9734 54.4473 86.8894 54.228 86.7214 54.074C86.558 53.9153 86.3107 53.836 85.9794 53.836C85.76 53.836 85.5454 53.8733 85.3354 53.948C85.1254 54.018 84.948 54.1137 84.8034 54.235L84.5234 53.731C84.7147 53.577 84.9434 53.4603 85.2094 53.381C85.48 53.297 85.7624 53.255 86.0564 53.255C86.565 53.255 86.957 53.3787 87.2324 53.626C87.5077 53.8733 87.6454 54.2513 87.6454 54.76V57H87.0084ZM85.7904 57.042C85.515 57.042 85.2724 56.9953 85.0624 56.902C84.857 56.8087 84.6984 56.6803 84.5864 56.517C84.4744 56.349 84.4184 56.16 84.4184 55.95C84.4184 55.7493 84.465 55.5673 84.5584 55.404C84.6564 55.2407 84.8127 55.11 85.0274 55.012C85.2467 54.914 85.5407 54.865 85.9094 54.865H87.0854V55.348H85.9374C85.6014 55.348 85.375 55.404 85.2584 55.516C85.1417 55.628 85.0834 55.7633 85.0834 55.922C85.0834 56.104 85.1557 56.251 85.3004 56.363C85.445 56.4703 85.6457 56.524 85.9024 56.524C86.1544 56.524 86.3737 56.468 86.5604 56.356C86.7517 56.244 86.8894 56.0807 86.9734 55.866L87.1064 56.328C87.0177 56.5473 86.8614 56.7223 86.6374 56.853C86.4134 56.979 86.131 57.042 85.7904 57.042ZM90.2928 58.4C90.1388 58.4 89.9918 58.3813 89.8518 58.344C89.7072 58.3067 89.5858 58.2507 89.4878 58.176L89.7048 57.658C89.8448 57.7747 90.0268 57.833 90.2508 57.833C90.4282 57.833 90.5635 57.777 90.6568 57.665C90.7548 57.5577 90.8038 57.3967 90.8038 57.182V53.29H91.4758V57.168C91.4758 57.546 91.3732 57.8447 91.1678 58.064C90.9672 58.288 90.6755 58.4 90.2928 58.4ZM91.1398 52.576C91.0092 52.576 90.8995 52.534 90.8108 52.45C90.7268 52.366 90.6848 52.2633 90.6848 52.142C90.6848 52.016 90.7268 51.911 90.8108 51.827C90.8995 51.743 91.0092 51.701 91.1398 51.701C91.2705 51.701 91.3778 51.743 91.4618 51.827C91.5505 51.9063 91.5948 52.0067 91.5948 52.128C91.5948 52.254 91.5528 52.3613 91.4688 52.45C91.3848 52.534 91.2752 52.576 91.1398 52.576ZM94.4101 57.042C94.0134 57.042 93.6634 56.9603 93.3601 56.797C93.0614 56.6337 92.8281 56.4097 92.6601 56.125C92.4968 55.8403 92.4151 55.5137 92.4151 55.145C92.4151 54.7763 92.4944 54.4497 92.6531 54.165C92.8164 53.8803 93.0381 53.6587 93.3181 53.5C93.6028 53.3367 93.9224 53.255 94.2771 53.255C94.6364 53.255 94.9538 53.3343 95.2291 53.493C95.5044 53.6517 95.7191 53.8757 95.8731 54.165C96.0318 54.4497 96.1111 54.7833 96.1111 55.166C96.1111 55.194 96.1088 55.2267 96.1041 55.264C96.1041 55.3013 96.1018 55.3363 96.0971 55.369H92.9401V54.886H95.7471L95.4741 55.054C95.4788 54.816 95.4298 54.6037 95.3271 54.417C95.2244 54.2303 95.0821 54.0857 94.9001 53.983C94.7228 53.8757 94.5151 53.822 94.2771 53.822C94.0438 53.822 93.8361 53.8757 93.6541 53.983C93.4721 54.0857 93.3298 54.2327 93.2271 54.424C93.1244 54.6107 93.0731 54.8253 93.0731 55.068V55.18C93.0731 55.4273 93.1291 55.649 93.2411 55.845C93.3578 56.0363 93.5188 56.1857 93.7241 56.293C93.9294 56.4003 94.1651 56.454 94.4311 56.454C94.6504 56.454 94.8488 56.4167 95.0261 56.342C95.2081 56.2673 95.3668 56.1553 95.5021 56.006L95.8731 56.44C95.7051 56.636 95.4951 56.7853 95.2431 56.888C94.9958 56.9907 94.7181 57.042 94.4101 57.042ZM97.0442 57V53.29H97.6882V54.298L97.6252 54.046C97.7279 53.7893 97.9006 53.5933 98.1432 53.458C98.3859 53.3227 98.6846 53.255 99.0392 53.255V53.906C99.0112 53.9013 98.9832 53.899 98.9552 53.899C98.9319 53.899 98.9086 53.899 98.8852 53.899C98.5259 53.899 98.2412 54.0063 98.0312 54.221C97.8212 54.4357 97.7162 54.746 97.7162 55.152V57H97.0442ZM100.413 56.104L100.427 55.243L102.562 53.29H103.374L101.736 54.9L101.372 55.208L100.413 56.104ZM99.8675 57V51.806H100.539V57H99.8675ZM102.702 57L101.246 55.194L101.68 54.655L103.528 57H102.702ZM103.779 55.369V54.788H105.662V55.369H103.779ZM106.795 57V52.961C106.795 52.597 106.9 52.3077 107.11 52.093C107.324 51.8737 107.628 51.764 108.02 51.764C108.164 51.764 108.302 51.7827 108.433 51.82C108.568 51.8527 108.682 51.9063 108.776 51.981L108.573 52.492C108.503 52.436 108.423 52.394 108.335 52.366C108.246 52.3333 108.153 52.317 108.055 52.317C107.859 52.317 107.709 52.373 107.607 52.485C107.504 52.5923 107.453 52.7533 107.453 52.968V53.465L107.467 53.773V57H106.795ZM106.165 53.843V53.29H108.531V53.843H106.165ZM109.164 57V53.29H109.808V54.298L109.745 54.046C109.848 53.7893 110.021 53.5933 110.263 53.458C110.506 53.3227 110.805 53.255 111.159 53.255V53.906C111.131 53.9013 111.103 53.899 111.075 53.899C111.052 53.899 111.029 53.899 111.005 53.899C110.646 53.899 110.361 54.0063 110.151 54.221C109.941 54.4357 109.836 54.746 109.836 55.152V57H109.164ZM113.605 57.042C113.209 57.042 112.859 56.9603 112.555 56.797C112.257 56.6337 112.023 56.4097 111.855 56.125C111.692 55.8403 111.61 55.5137 111.61 55.145C111.61 54.7763 111.69 54.4497 111.848 54.165C112.012 53.8803 112.233 53.6587 112.513 53.5C112.798 53.3367 113.118 53.255 113.472 53.255C113.832 53.255 114.149 53.3343 114.424 53.493C114.7 53.6517 114.914 53.8757 115.068 54.165C115.227 54.4497 115.306 54.7833 115.306 55.166C115.306 55.194 115.304 55.2267 115.299 55.264C115.299 55.3013 115.297 55.3363 115.292 55.369H112.135V54.886H114.942L114.669 55.054C114.674 54.816 114.625 54.6037 114.522 54.417C114.42 54.2303 114.277 54.0857 114.095 53.983C113.918 53.8757 113.71 53.822 113.472 53.822C113.239 53.822 113.031 53.8757 112.849 53.983C112.667 54.0857 112.525 54.2327 112.422 54.424C112.32 54.6107 112.268 54.8253 112.268 55.068V55.18C112.268 55.4273 112.324 55.649 112.436 55.845C112.553 56.0363 112.714 56.1857 112.919 56.293C113.125 56.4003 113.36 56.454 113.626 56.454C113.846 56.454 114.044 56.4167 114.221 56.342C114.403 56.2673 114.562 56.1553 114.697 56.006L115.068 56.44C114.9 56.636 114.69 56.7853 114.438 56.888C114.191 56.9907 113.913 57.042 113.605 57.042ZM117.892 57.042C117.495 57.042 117.145 56.9603 116.842 56.797C116.543 56.6337 116.31 56.4097 116.142 56.125C115.978 55.8403 115.897 55.5137 115.897 55.145C115.897 54.7763 115.976 54.4497 116.135 54.165C116.298 53.8803 116.52 53.6587 116.8 53.5C117.084 53.3367 117.404 53.255 117.759 53.255C118.118 53.255 118.435 53.3343 118.711 53.493C118.986 53.6517 119.201 53.8757 119.355 54.165C119.513 54.4497 119.593 54.7833 119.593 55.166C119.593 55.194 119.59 55.2267 119.586 55.264C119.586 55.3013 119.583 55.3363 119.579 55.369H116.422V54.886H119.229L118.956 55.054C118.96 54.816 118.911 54.6037 118.809 54.417C118.706 54.2303 118.564 54.0857 118.382 53.983C118.204 53.8757 117.997 53.822 117.759 53.822C117.525 53.822 117.318 53.8757 117.136 53.983C116.954 54.0857 116.811 54.2327 116.709 54.424C116.606 54.6107 116.555 54.8253 116.555 55.068V55.18C116.555 55.4273 116.611 55.649 116.723 55.845C116.839 56.0363 117 56.1857 117.206 56.293C117.411 56.4003 117.647 56.454 117.913 56.454C118.132 56.454 118.33 56.4167 118.508 56.342C118.69 56.2673 118.848 56.1553 118.984 56.006L119.355 56.44C119.187 56.636 118.977 56.7853 118.725 56.888C118.477 56.9907 118.2 57.042 117.892 57.042ZM122.406 57V53.29H123.05V54.298L122.987 54.046C123.089 53.7893 123.262 53.5933 123.505 53.458C123.747 53.3227 124.046 53.255 124.401 53.255V53.906C124.373 53.9013 124.345 53.899 124.317 53.899C124.293 53.899 124.27 53.899 124.247 53.899C123.887 53.899 123.603 54.0063 123.393 54.221C123.183 54.4357 123.078 54.746 123.078 55.152V57H122.406ZM125.229 57V53.29H125.901V57H125.229ZM125.565 52.576C125.434 52.576 125.324 52.534 125.236 52.45C125.152 52.366 125.11 52.2633 125.11 52.142C125.11 52.016 125.152 51.911 125.236 51.827C125.324 51.743 125.434 51.701 125.565 51.701C125.695 51.701 125.803 51.743 125.887 51.827C125.975 51.9063 126.02 52.0067 126.02 52.128C126.02 52.254 125.978 52.3613 125.894 52.45C125.81 52.534 125.7 52.576 125.565 52.576ZM128.717 57.042C128.358 57.042 128.036 56.9627 127.751 56.804C127.471 56.6453 127.249 56.4237 127.086 56.139C126.923 55.8543 126.841 55.523 126.841 55.145C126.841 54.767 126.923 54.438 127.086 54.158C127.249 53.8733 127.471 53.6517 127.751 53.493C128.036 53.3343 128.358 53.255 128.717 53.255C129.03 53.255 129.312 53.325 129.564 53.465C129.816 53.605 130.017 53.815 130.166 54.095C130.32 54.375 130.397 54.725 130.397 55.145C130.397 55.565 130.322 55.915 130.173 56.195C130.028 56.475 129.83 56.6873 129.578 56.832C129.326 56.972 129.039 57.042 128.717 57.042ZM128.773 56.454C129.006 56.454 129.216 56.4003 129.403 56.293C129.594 56.1857 129.744 56.034 129.851 55.838C129.963 55.6373 130.019 55.4063 130.019 55.145C130.019 54.879 129.963 54.6503 129.851 54.459C129.744 54.263 129.594 54.1113 129.403 54.004C129.216 53.8967 129.006 53.843 128.773 53.843C128.535 53.843 128.323 53.8967 128.136 54.004C127.949 54.1113 127.8 54.263 127.688 54.459C127.576 54.6503 127.52 54.879 127.52 55.145C127.52 55.4063 127.576 55.6373 127.688 55.838C127.8 56.034 127.949 56.1857 128.136 56.293C128.323 56.4003 128.535 56.454 128.773 56.454ZM130.04 57V55.999L130.082 55.138L130.012 54.277V51.806H130.684V57H130.04ZM131.955 57V53.29H132.627V57H131.955ZM132.291 52.576C132.161 52.576 132.051 52.534 131.962 52.45C131.878 52.366 131.836 52.2633 131.836 52.142C131.836 52.016 131.878 51.911 131.962 51.827C132.051 51.743 132.161 51.701 132.291 51.701C132.422 51.701 132.529 51.743 132.613 51.827C132.702 51.9063 132.746 52.0067 132.746 52.128C132.746 52.254 132.704 52.3613 132.62 52.45C132.536 52.534 132.427 52.576 132.291 52.576ZM135.891 53.255C136.195 53.255 136.461 53.3133 136.689 53.43C136.923 53.5467 137.105 53.724 137.235 53.962C137.366 54.2 137.431 54.501 137.431 54.865V57H136.759V54.942C136.759 54.5827 136.671 54.312 136.493 54.13C136.321 53.948 136.076 53.857 135.758 53.857C135.52 53.857 135.313 53.9037 135.135 53.997C134.958 54.0903 134.82 54.228 134.722 54.41C134.629 54.592 134.582 54.8183 134.582 55.089V57H133.91V53.29H134.554V54.291L134.449 54.025C134.571 53.7823 134.757 53.5933 135.009 53.458C135.261 53.3227 135.555 53.255 135.891 53.255ZM140.299 58.4C139.958 58.4 139.627 58.351 139.305 58.253C138.988 58.1597 138.729 58.0243 138.528 57.847L138.85 57.329C139.023 57.4783 139.235 57.595 139.487 57.679C139.739 57.7677 140.003 57.812 140.278 57.812C140.717 57.812 141.039 57.7093 141.244 57.504C141.449 57.2987 141.552 56.986 141.552 56.566V55.782L141.622 55.047L141.587 54.305V53.29H142.224V56.496C142.224 57.1493 142.061 57.63 141.734 57.938C141.407 58.246 140.929 58.4 140.299 58.4ZM140.215 56.846C139.856 56.846 139.534 56.7713 139.249 56.622C138.969 56.468 138.745 56.2557 138.577 55.985C138.414 55.7143 138.332 55.4017 138.332 55.047C138.332 54.6877 138.414 54.375 138.577 54.109C138.745 53.8383 138.969 53.6283 139.249 53.479C139.534 53.3297 139.856 53.255 140.215 53.255C140.532 53.255 140.822 53.3203 141.083 53.451C141.344 53.577 141.552 53.773 141.706 54.039C141.865 54.305 141.944 54.641 141.944 55.047C141.944 55.4483 141.865 55.782 141.706 56.048C141.552 56.314 141.344 56.5147 141.083 56.65C140.822 56.7807 140.532 56.846 140.215 56.846ZM140.292 56.258C140.539 56.258 140.759 56.2067 140.95 56.104C141.141 56.0013 141.291 55.859 141.398 55.677C141.51 55.495 141.566 55.285 141.566 55.047C141.566 54.809 141.51 54.599 141.398 54.417C141.291 54.235 141.141 54.095 140.95 53.997C140.759 53.8943 140.539 53.843 140.292 53.843C140.045 53.843 139.823 53.8943 139.627 53.997C139.436 54.095 139.284 54.235 139.172 54.417C139.065 54.599 139.011 54.809 139.011 55.047C139.011 55.285 139.065 55.495 139.172 55.677C139.284 55.859 139.436 56.0013 139.627 56.104C139.823 56.2067 140.045 56.258 140.292 56.258ZM147.04 57.042C146.643 57.042 146.293 56.9603 145.99 56.797C145.691 56.6337 145.458 56.4097 145.29 56.125C145.127 55.8403 145.045 55.5137 145.045 55.145C145.045 54.7763 145.124 54.4497 145.283 54.165C145.446 53.8803 145.668 53.6587 145.948 53.5C146.233 53.3367 146.552 53.255 146.907 53.255C147.266 53.255 147.584 53.3343 147.859 53.493C148.134 53.6517 148.349 53.8757 148.503 54.165C148.662 54.4497 148.741 54.7833 148.741 55.166C148.741 55.194 148.739 55.2267 148.734 55.264C148.734 55.3013 148.732 55.3363 148.727 55.369H145.57V54.886H148.377L148.104 55.054C148.109 54.816 148.06 54.6037 147.957 54.417C147.854 54.2303 147.712 54.0857 147.53 53.983C147.353 53.8757 147.145 53.822 146.907 53.822C146.674 53.822 146.466 53.8757 146.284 53.983C146.102 54.0857 145.96 54.2327 145.857 54.424C145.754 54.6107 145.703 54.8253 145.703 55.068V55.18C145.703 55.4273 145.759 55.649 145.871 55.845C145.988 56.0363 146.149 56.1857 146.354 56.293C146.559 56.4003 146.795 56.454 147.061 56.454C147.28 56.454 147.479 56.4167 147.656 56.342C147.838 56.2673 147.997 56.1553 148.132 56.006L148.503 56.44C148.335 56.636 148.125 56.7853 147.873 56.888C147.626 56.9907 147.348 57.042 147.04 57.042ZM149.033 57L150.629 54.928L150.622 55.271L149.103 53.29H149.852L151.014 54.816H150.727L151.889 53.29H152.624L151.084 55.285L151.091 54.928L152.701 57H151.938L150.713 55.376L150.986 55.418L149.782 57H149.033ZM155.401 57.042C155.093 57.042 154.811 56.972 154.554 56.832C154.302 56.6873 154.099 56.475 153.945 56.195C153.796 55.915 153.721 55.565 153.721 55.145C153.721 54.725 153.793 54.375 153.938 54.095C154.087 53.815 154.288 53.605 154.54 53.465C154.797 53.325 155.084 53.255 155.401 53.255C155.765 53.255 156.087 53.3343 156.367 53.493C156.647 53.6517 156.869 53.8733 157.032 54.158C157.195 54.438 157.277 54.767 157.277 55.145C157.277 55.523 157.195 55.8543 157.032 56.139C156.869 56.4237 156.647 56.6453 156.367 56.804C156.087 56.9627 155.765 57.042 155.401 57.042ZM153.434 58.358V53.29H154.078V54.291L154.036 55.152L154.106 56.013V58.358H153.434ZM155.345 56.454C155.583 56.454 155.795 56.4003 155.982 56.293C156.173 56.1857 156.323 56.034 156.43 55.838C156.542 55.6373 156.598 55.4063 156.598 55.145C156.598 54.879 156.542 54.6503 156.43 54.459C156.323 54.263 156.173 54.1113 155.982 54.004C155.795 53.8967 155.583 53.843 155.345 53.843C155.112 53.843 154.899 53.8967 154.708 54.004C154.521 54.1113 154.372 54.263 154.26 54.459C154.153 54.6503 154.099 54.879 154.099 55.145C154.099 55.4063 154.153 55.6373 154.26 55.838C154.372 56.034 154.521 56.1857 154.708 56.293C154.899 56.4003 155.112 56.454 155.345 56.454ZM159.857 57.042C159.461 57.042 159.111 56.9603 158.807 56.797C158.509 56.6337 158.275 56.4097 158.107 56.125C157.944 55.8403 157.862 55.5137 157.862 55.145C157.862 54.7763 157.942 54.4497 158.1 54.165C158.264 53.8803 158.485 53.6587 158.765 53.5C159.05 53.3367 159.37 53.255 159.724 53.255C160.084 53.255 160.401 53.3343 160.676 53.493C160.952 53.6517 161.166 53.8757 161.32 54.165C161.479 54.4497 161.558 54.7833 161.558 55.166C161.558 55.194 161.556 55.2267 161.551 55.264C161.551 55.3013 161.549 55.3363 161.544 55.369H158.387V54.886H161.194L160.921 55.054C160.926 54.816 160.877 54.6037 160.774 54.417C160.672 54.2303 160.529 54.0857 160.347 53.983C160.17 53.8757 159.962 53.822 159.724 53.822C159.491 53.822 159.283 53.8757 159.101 53.983C158.919 54.0857 158.777 54.2327 158.674 54.424C158.572 54.6107 158.52 54.8253 158.52 55.068V55.18C158.52 55.4273 158.576 55.649 158.688 55.845C158.805 56.0363 158.966 56.1857 159.171 56.293C159.377 56.4003 159.612 56.454 159.878 56.454C160.098 56.454 160.296 56.4167 160.473 56.342C160.655 56.2673 160.814 56.1553 160.949 56.006L161.32 56.44C161.152 56.636 160.942 56.7853 160.69 56.888C160.443 56.9907 160.165 57.042 159.857 57.042ZM162.491 57V53.29H163.135V54.298L163.072 54.046C163.175 53.7893 163.348 53.5933 163.59 53.458C163.833 53.3227 164.132 53.255 164.486 53.255V53.906C164.458 53.9013 164.43 53.899 164.402 53.899C164.379 53.899 164.356 53.899 164.332 53.899C163.973 53.899 163.688 54.0063 163.478 54.221C163.268 54.4357 163.163 54.746 163.163 55.152V57H162.491ZM165.315 57V53.29H165.987V57H165.315ZM165.651 52.576C165.52 52.576 165.41 52.534 165.322 52.45C165.238 52.366 165.196 52.2633 165.196 52.142C165.196 52.016 165.238 51.911 165.322 51.827C165.41 51.743 165.52 51.701 165.651 51.701C165.781 51.701 165.889 51.743 165.973 51.827C166.061 51.9063 166.106 52.0067 166.106 52.128C166.106 52.254 166.064 52.3613 165.98 52.45C165.896 52.534 165.786 52.576 165.651 52.576ZM168.922 57.042C168.525 57.042 168.175 56.9603 167.872 56.797C167.573 56.6337 167.34 56.4097 167.172 56.125C167.008 55.8403 166.927 55.5137 166.927 55.145C166.927 54.7763 167.006 54.4497 167.165 54.165C167.328 53.8803 167.55 53.6587 167.83 53.5C168.114 53.3367 168.434 53.255 168.789 53.255C169.148 53.255 169.465 53.3343 169.741 53.493C170.016 53.6517 170.231 53.8757 170.385 54.165C170.543 54.4497 170.623 54.7833 170.623 55.166C170.623 55.194 170.62 55.2267 170.616 55.264C170.616 55.3013 170.613 55.3363 170.609 55.369H167.452V54.886H170.259L169.986 55.054C169.99 54.816 169.941 54.6037 169.839 54.417C169.736 54.2303 169.594 54.0857 169.412 53.983C169.234 53.8757 169.027 53.822 168.789 53.822C168.555 53.822 168.348 53.8757 168.166 53.983C167.984 54.0857 167.841 54.2327 167.739 54.424C167.636 54.6107 167.585 54.8253 167.585 55.068V55.18C167.585 55.4273 167.641 55.649 167.753 55.845C167.869 56.0363 168.03 56.1857 168.236 56.293C168.441 56.4003 168.677 56.454 168.943 56.454C169.162 56.454 169.36 56.4167 169.538 56.342C169.72 56.2673 169.878 56.1553 170.014 56.006L170.385 56.44C170.217 56.636 170.007 56.7853 169.755 56.888C169.507 56.9907 169.23 57.042 168.922 57.042ZM173.537 53.255C173.84 53.255 174.106 53.3133 174.335 53.43C174.568 53.5467 174.75 53.724 174.881 53.962C175.012 54.2 175.077 54.501 175.077 54.865V57H174.405V54.942C174.405 54.5827 174.316 54.312 174.139 54.13C173.966 53.948 173.721 53.857 173.404 53.857C173.166 53.857 172.958 53.9037 172.781 53.997C172.604 54.0903 172.466 54.228 172.368 54.41C172.275 54.592 172.228 54.8183 172.228 55.089V57H171.556V53.29H172.2V54.291L172.095 54.025C172.216 53.7823 172.403 53.5933 172.655 53.458C172.907 53.3227 173.201 53.255 173.537 53.255ZM177.938 57.042C177.56 57.042 177.221 56.9603 176.923 56.797C176.629 56.6337 176.398 56.4097 176.23 56.125C176.062 55.8403 175.978 55.5137 175.978 55.145C175.978 54.7763 176.062 54.4497 176.23 54.165C176.398 53.8803 176.629 53.6587 176.923 53.5C177.221 53.3367 177.56 53.255 177.938 53.255C178.274 53.255 178.572 53.3227 178.834 53.458C179.1 53.5887 179.305 53.7847 179.45 54.046L178.939 54.375C178.817 54.193 178.668 54.06 178.491 53.976C178.318 53.8873 178.131 53.843 177.931 53.843C177.688 53.843 177.471 53.8967 177.28 54.004C177.088 54.1113 176.937 54.263 176.825 54.459C176.713 54.6503 176.657 54.879 176.657 55.145C176.657 55.411 176.713 55.642 176.825 55.838C176.937 56.034 177.088 56.1857 177.28 56.293C177.471 56.4003 177.688 56.454 177.931 56.454C178.131 56.454 178.318 56.412 178.491 56.328C178.668 56.2393 178.817 56.104 178.939 55.922L179.45 56.244C179.305 56.5007 179.1 56.699 178.834 56.839C178.572 56.9743 178.274 57.042 177.938 57.042ZM181.917 57.042C181.52 57.042 181.17 56.9603 180.867 56.797C180.568 56.6337 180.335 56.4097 180.167 56.125C180.004 55.8403 179.922 55.5137 179.922 55.145C179.922 54.7763 180.001 54.4497 180.16 54.165C180.323 53.8803 180.545 53.6587 180.825 53.5C181.11 53.3367 181.429 53.255 181.784 53.255C182.143 53.255 182.461 53.3343 182.736 53.493C183.011 53.6517 183.226 53.8757 183.38 54.165C183.539 54.4497 183.618 54.7833 183.618 55.166C183.618 55.194 183.616 55.2267 183.611 55.264C183.611 55.3013 183.609 55.3363 183.604 55.369H180.447V54.886H183.254L182.981 55.054C182.986 54.816 182.937 54.6037 182.834 54.417C182.731 54.2303 182.589 54.0857 182.407 53.983C182.23 53.8757 182.022 53.822 181.784 53.822C181.551 53.822 181.343 53.8757 181.161 53.983C180.979 54.0857 180.837 54.2327 180.734 54.424C180.631 54.6107 180.58 54.8253 180.58 55.068V55.18C180.58 55.4273 180.636 55.649 180.748 55.845C180.865 56.0363 181.026 56.1857 181.231 56.293C181.436 56.4003 181.672 56.454 181.938 56.454C182.157 56.454 182.356 56.4167 182.533 56.342C182.715 56.2673 182.874 56.1553 183.009 56.006L183.38 56.44C183.212 56.636 183.002 56.7853 182.75 56.888C182.503 56.9907 182.225 57.042 181.917 57.042ZM184.712 57.042C184.581 57.042 184.469 56.9977 184.376 56.909C184.283 56.8157 184.236 56.699 184.236 56.559C184.236 56.419 184.283 56.3047 184.376 56.216C184.469 56.1273 184.581 56.083 184.712 56.083C184.838 56.083 184.945 56.1273 185.034 56.216C185.127 56.3047 185.174 56.419 185.174 56.559C185.174 56.699 185.127 56.8157 185.034 56.909C184.945 56.9977 184.838 57.042 184.712 57.042Z" fill="#252525"/>
<circle cx="45.5" cy="26.5" r="2.5" fill="#1CBB3F"/>
</svg>
