<svg width="108" height="493" viewBox="0 0 108 493" fill="none" xmlns="http://www.w3.org/2000/svg">
<path opacity="0.7" d="M46.1157 469.412C46.1157 473.288 45.4306 476.655 44.0605 479.512C42.6903 482.331 40.9092 484.68 38.7169 486.559C36.4856 488.399 34.0976 489.788 31.5531 490.728C28.9694 491.628 26.4836 492.078 24.0956 492.078L22.8038 492.078C20.1809 492.078 17.5777 491.609 14.994 490.669C12.3712 489.73 10.0028 488.32 7.88885 486.441C5.77492 484.523 4.09161 482.155 2.83891 479.336C1.54706 476.518 0.901143 473.21 0.901143 469.412C0.901142 465.654 1.54706 462.366 2.83891 459.547C4.0916 456.729 5.77492 454.38 7.88884 452.501C10.0028 450.583 12.3712 449.154 14.994 448.214C17.5777 447.275 20.1809 446.805 22.8038 446.805L24.0956 446.805C26.4836 446.805 28.9694 447.275 31.5531 448.214C34.0976 449.115 36.4856 450.505 38.7169 452.384C40.9092 454.223 42.6903 456.572 44.0605 459.43C45.4306 462.249 46.1157 465.576 46.1157 469.412ZM38.3646 469.412C38.3646 467.22 37.9731 465.263 37.1902 463.54C36.4073 461.779 35.3307 460.291 33.9606 459.078C32.5513 457.825 30.9659 456.885 29.2043 456.259C27.4035 455.594 25.5049 455.261 23.5084 455.261C21.3553 455.261 19.3784 455.594 17.5777 456.259C15.7769 456.885 14.2111 457.825 12.8801 459.078C11.5491 460.291 10.5117 461.779 9.76789 463.54C9.0241 465.302 8.65221 467.259 8.65221 469.412C8.65221 471.605 9.0241 473.582 9.76789 475.343C10.5117 477.105 11.5491 478.612 12.8801 479.865C14.2111 481.078 15.7769 482.018 17.5777 482.683C19.3784 483.31 21.3553 483.623 23.5084 483.623C25.5049 483.623 27.4035 483.31 29.2043 482.683C30.9659 482.018 32.5513 481.078 33.9606 479.865C35.3307 478.612 36.4073 477.105 37.1902 475.343C37.9732 473.582 38.3646 471.605 38.3646 469.412ZM45 437.572L2.13427 437.572L2.13427 423.891L38.071 405.863L38.071 403.926L39.128 405.1L2.13427 405.1L2.13426 397.232L45 397.232L45 410.972L9.06325 428.999L9.06325 430.996L8.00628 429.821L45 429.821L45 437.572ZM45 363.173L8.29988 363.173L8.29988 354.835L45 354.835L45 363.173ZM9.47429 375.563L2.13426 375.563L2.13426 342.445L9.47428 342.445L9.47429 375.563ZM45 306.488L2.13426 306.488L2.13426 298.15L45 298.15L45 306.488ZM45 334.615L2.13426 334.615L2.13426 326.276L45 326.276L45 334.615ZM27.2078 327.803L19.8678 327.803L19.8678 304.961L27.2078 304.961L27.2078 327.803ZM45 286.418L2.13426 286.418L2.13426 278.256L45 278.256L45 286.418ZM45 279.431L37.9536 279.431L37.9536 259.994L45 259.994L45 279.431ZM26.738 279.431L19.6916 279.431L19.6916 261.521L26.738 261.521L26.738 279.431ZM9.18068 279.431L2.13426 279.431L2.13426 260.464L9.18068 260.464L9.18068 279.431ZM45 229.37L2.13426 240.292L2.13426 231.66L39.4216 222.794L38.071 225.084L38.071 219.212L39.4216 221.795L3.77842 214.808L3.77842 207.644L45 216.334L45 229.37ZM45 203.768L3.77842 213.222L3.77842 205.765L39.4216 197.72L38.071 200.245L38.071 194.491L39.4216 196.722L2.13426 188.912L2.13426 180.75L45 190.498L45 203.768ZM45 179.144L2.13425 164.523L2.13425 150.9L45 135.868L45 144.441L7.83011 157.183L9.12196 154.188L9.12196 161.528L7.83011 158.475L45 170.806L45 179.144ZM33.6083 168.927L26.5618 166.285L26.5618 148.903L33.6083 146.32L33.6083 168.927ZM28.6171 123.89L2.13425 136.808L2.13425 128.235L22.8625 118.37L22.2753 120.249L22.2753 114.671L22.8625 116.667L2.13425 107.683L2.13425 99.5794L28.6171 111.5L28.6171 123.89ZM45 121.776L27.3252 121.776L27.3252 113.614L45 113.614L45 121.776ZM45 70.1551L8.29987 70.1551L8.29987 61.8169L45 61.8169L45 70.1551ZM9.47427 82.5451L2.13425 82.5451L2.13425 49.4269L9.47427 49.4269L9.47427 82.5451ZM46.1157 22.717C46.1157 26.5925 45.4306 29.9592 44.0605 32.8169C42.6903 35.6355 40.9091 37.9843 38.7169 39.8633C36.4856 41.7032 34.0976 43.0929 31.5531 44.0324C28.9694 44.9328 26.4835 45.383 24.0956 45.383L22.8038 45.383C20.1809 45.383 17.5777 44.9132 14.994 43.9737C12.3711 43.0342 10.0028 41.6249 7.88883 39.7459C5.7749 37.8277 4.09159 35.4593 2.83889 32.6407C1.54705 29.8222 0.901123 26.5143 0.901123 22.717C0.901123 18.9589 1.54704 15.6706 2.83889 12.852C4.09159 10.0335 5.7749 7.68465 7.88882 5.8056C10.0028 3.88741 12.3711 2.45855 14.994 1.51903C17.5777 0.579507 20.1809 0.109746 22.8037 0.109746L24.0956 0.109746C26.4835 0.109746 28.9694 0.579507 31.5531 1.51903C34.0976 2.41941 36.4856 3.80912 38.7169 5.68816C40.9091 7.52806 42.6903 9.87687 44.0605 12.7346C45.4306 15.5532 46.1157 18.8806 46.1157 22.717ZM38.3646 22.717C38.3646 20.5248 37.9731 18.5675 37.1902 16.845C36.4073 15.0834 35.3307 13.5958 33.9606 12.3823C32.5513 11.1296 30.9659 10.19 29.2042 9.56369C27.4035 8.8982 25.5049 8.56545 23.5084 8.56545C21.3553 8.56545 19.3784 8.8982 17.5777 9.5637C15.7769 10.19 14.211 11.1296 12.88 12.3823C11.549 13.5958 10.5117 15.0834 9.76787 16.845C9.02408 18.6066 8.65219 20.5639 8.65219 22.717C8.65219 24.9092 9.02408 26.8861 9.76787 28.6478C10.5117 30.4094 11.549 31.9165 12.88 33.1692C14.211 34.3828 15.7769 35.3223 17.5777 35.9878C19.3784 36.6141 21.3553 36.9273 23.5084 36.9273C25.5049 36.9273 27.4035 36.6141 29.2043 35.9878C30.9659 35.3223 32.5513 34.3828 33.9606 33.1692C35.3307 31.9165 36.4073 30.4094 37.1902 28.6478C37.9731 26.8861 38.3646 24.9092 38.3646 22.717ZM89.6171 425.353L63.1343 438.272L63.1343 429.699L83.8625 419.834L83.2753 421.713L83.2753 416.134L83.8625 418.131L63.1343 409.147L63.1343 401.043L89.6171 412.964L89.6171 425.353ZM106 423.24L88.3252 423.24L88.3252 415.077L106 415.077L106 423.24ZM107.116 375.329C107.116 379.205 106.431 382.572 105.06 385.429C103.69 388.248 101.909 390.597 99.7169 392.476C97.4856 394.316 95.0976 395.705 92.5531 396.645C89.9694 397.545 87.4836 397.995 85.0956 397.995L83.8038 397.995C81.1809 397.995 78.5777 397.526 75.994 396.586C73.3711 395.647 71.0028 394.237 68.8888 392.358C66.7749 390.44 65.0916 388.072 63.8389 385.253C62.5471 382.435 61.9011 379.127 61.9011 375.329C61.9011 371.571 62.5471 368.283 63.8389 365.464C65.0916 362.646 66.7749 360.297 68.8888 358.418C71.0028 356.5 73.3711 355.071 75.994 354.131C78.5777 353.192 81.1809 352.722 83.8038 352.722L85.0956 352.722C87.4836 352.722 89.9694 353.192 92.5531 354.131C95.0976 355.032 97.4856 356.421 99.7169 358.301C101.909 360.14 103.69 362.489 105.06 365.347C106.431 368.166 107.116 371.493 107.116 375.329ZM99.3646 375.329C99.3646 373.137 98.9731 371.18 98.1902 369.457C97.4073 367.696 96.3307 366.208 94.9606 364.995C93.5513 363.742 91.9659 362.802 90.2043 362.176C88.4035 361.511 86.5049 361.178 84.5084 361.178C82.3553 361.178 80.3784 361.511 78.5777 362.176C76.7769 362.802 75.211 363.742 73.8801 364.995C72.5491 366.208 71.5117 367.696 70.7679 369.457C70.0241 371.219 69.6522 373.176 69.6522 375.329C69.6522 377.522 70.0241 379.499 70.7679 381.26C71.5117 383.022 72.5491 384.529 73.8801 385.782C75.211 386.995 76.7769 387.935 78.5777 388.6C80.3784 389.226 82.3553 389.54 84.5084 389.54C86.5049 389.54 88.4035 389.226 90.2043 388.6C91.9659 387.935 93.5513 386.995 94.9606 385.782C96.3307 384.529 97.4073 383.022 98.1902 381.26C98.9731 379.499 99.3646 377.522 99.3646 375.329ZM107.116 325.815C107.116 329.807 106.352 333.174 104.826 335.914C103.299 338.655 101.165 340.749 98.4251 342.197C95.6457 343.607 92.3965 344.311 88.6775 344.311L63.1343 344.311L63.1343 335.973L89.1473 335.973C91.1829 335.973 92.9837 335.582 94.5496 334.799C96.0763 334.016 97.2703 332.881 98.1315 331.393C98.9536 329.866 99.3646 328.007 99.3646 325.815C99.3646 323.661 98.9536 321.841 98.1315 320.354C97.2703 318.827 96.0763 317.692 94.5496 316.948C93.0228 316.165 91.2221 315.773 89.1473 315.773L63.1343 315.773L63.1343 307.435L88.6775 307.435C92.3965 307.435 95.6457 308.14 98.4251 309.549C101.165 310.919 103.299 312.974 104.826 315.715C106.352 318.455 107.116 321.822 107.116 325.815ZM106 296.497L62.8407 296.497L62.8407 288.159L106 288.159L106 296.497ZM106 270.308L87.327 283.461L87.327 274.125L106 260.56L106 270.308ZM91.6723 290.625L84.9194 290.625L84.9194 279.703C84.9194 278.176 84.6063 276.865 83.9799 275.769C83.3536 274.634 82.4728 273.753 81.3375 273.126C80.2023 272.5 78.9104 272.187 77.462 272.187C75.9744 272.187 74.663 272.5 73.5277 273.126C72.3925 273.753 71.5117 274.634 70.8853 275.769C70.259 276.865 69.9458 278.176 69.9458 279.703L69.9458 290.625L62.8407 290.625L62.8407 280.584C62.8407 277.139 63.3496 274.164 64.3674 271.658C65.3852 269.114 66.9315 267.157 69.0063 265.786C71.0811 264.416 73.6843 263.731 76.8161 263.731L77.7556 263.731C80.9265 263.731 83.5297 264.436 85.5654 265.845C87.601 267.215 89.1277 269.153 90.1455 271.658C91.1634 274.164 91.6723 277.139 91.6723 280.584L91.6723 290.625ZM106 211.086L63.1343 211.086L63.1343 202.748L106 202.748L106 211.086ZM106 239.213L63.1343 239.213L63.1343 230.875L106 230.875L106 239.213ZM88.2078 232.401L80.8678 232.401L80.8677 209.559L88.2078 209.559L88.2078 232.401ZM107.116 170.875C107.116 174.751 106.431 178.118 105.06 180.975C103.69 183.794 101.909 186.143 99.7169 188.022C97.4856 189.862 95.0976 191.251 92.5531 192.191C89.9694 193.091 87.4836 193.541 85.0956 193.541L83.8038 193.541C81.1809 193.541 78.5777 193.072 75.994 192.132C73.3711 191.193 71.0028 189.783 68.8888 187.904C66.7749 185.986 65.0916 183.618 63.8389 180.799C62.5471 177.981 61.9011 174.673 61.9011 170.875C61.9011 167.117 62.5471 163.829 63.8389 161.01C65.0916 158.192 66.7749 155.843 68.8888 153.964C71.0028 152.046 73.3711 150.617 75.994 149.677C78.5777 148.738 81.1809 148.268 83.8038 148.268L85.0956 148.268C87.4836 148.268 89.9694 148.738 92.5531 149.677C95.0976 150.578 97.4856 151.967 99.7169 153.847C101.909 155.686 103.69 158.035 105.06 160.893C106.431 163.712 107.116 167.039 107.116 170.875ZM99.3646 170.875C99.3646 168.683 98.9731 166.726 98.1902 165.003C97.4073 163.242 96.3307 161.754 94.9606 160.541C93.5513 159.288 91.9659 158.348 90.2043 157.722C88.4035 157.057 86.5049 156.724 84.5084 156.724C82.3553 156.724 80.3784 157.057 78.5777 157.722C76.7769 158.348 75.211 159.288 73.88 160.541C72.5491 161.754 71.5117 163.242 70.7679 165.003C70.0241 166.765 69.6522 168.722 69.6522 170.875C69.6522 173.068 70.0241 175.045 70.7679 176.806C71.5117 178.568 72.5491 180.075 73.88 181.328C75.211 182.541 76.7769 183.481 78.5777 184.146C80.3784 184.772 82.3553 185.086 84.5084 185.086C86.5049 185.086 88.4035 184.772 90.2043 184.146C91.9659 183.481 93.5513 182.541 94.9606 181.328C96.3307 180.075 97.4073 178.568 98.1902 176.806C98.9731 175.044 99.3646 173.068 99.3646 170.875ZM106 139.035L63.1343 139.035L63.1343 127.644L88.7363 116.898L88.7363 115.841L63.1343 105.154L63.1343 93.5858L106 93.5858L106 101.865L69.4173 101.865L69.5347 100.808L97.2507 112.376L97.2507 120.891L69.5348 132.517L69.4173 131.402L106 131.402L106 139.035ZM106 81.8358L63.1343 81.8358L63.1343 73.6737L106 73.6737L106 81.8358ZM106 74.8481L98.9536 74.8481L98.9536 55.4118L106 55.4118L106 74.8481ZM87.738 74.8481L80.6916 74.8481L80.6916 56.9385L87.738 56.9385L87.738 74.8481ZM70.1807 74.8481L63.1343 74.8481L63.1342 55.8815L70.1807 55.8815L70.1807 74.8481Z" fill="#444444"/>
</svg>
