<svg width="1148" height="366" viewBox="0 0 1148 366" fill="none" xmlns="http://www.w3.org/2000/svg">
<path d="M0.170303 102V0.925582H44.4286C56.6801 0.925582 65.7155 3.32482 71.535 8.1233C77.3544 12.9218 80.2641 19.7111 80.2641 28.4913C80.2641 33.9024 78.6306 38.7009 75.3635 42.8868C72.0965 47.0727 67.298 49.7272 60.9681 50.8502V51.0034C68.0127 52.0243 73.4237 54.6788 77.2013 58.9668C80.9788 63.2548 82.8676 68.3596 82.8676 74.2811C82.8676 82.9592 79.7026 89.7486 73.3727 94.6491C67.1449 99.5497 58.0073 102 45.9601 102H0.170303ZM20.6915 86.0731H44.1224C49.8397 86.0731 54.0767 84.899 56.8332 82.5508C59.5898 80.2026 60.9681 76.9356 60.9681 72.7497C60.9681 68.4617 59.5898 65.1946 56.8332 62.9485C54.0767 60.7024 49.8397 59.5794 44.1224 59.5794H20.6915V86.0731ZM20.6915 43.3462H41.6721C52.8005 43.3462 58.3647 39.0072 58.3647 30.329C58.3647 21.6509 52.8005 17.3119 41.6721 17.3119H20.6915V43.3462ZM194.511 102H172.612L164.189 77.344H125.444L117.021 102H95.4277L132.335 0.925582H157.604L194.511 102ZM130.191 61.7234H159.441L144.74 17.6182L130.191 61.7234ZM281.027 0.925582V17.9245H247.183V102H226.049V17.9245H192.051V0.925582H281.027ZM382.832 0.925582V17.9245H348.987V102H327.853V17.9245H293.856V0.925582H382.832ZM404.695 102V0.925582H480.501V17.9245H425.829V43.0399H468.862V59.2731H425.829V85.0011H482.645V102H404.695ZM550.765 0.925582C562.2 0.925582 571.184 3.68216 577.718 9.19531C584.252 14.7085 587.519 22.1104 587.519 31.401C587.519 41.3043 584.252 48.9104 577.718 54.2194C571.184 59.4262 562.251 62.0297 550.918 62.0297L548.774 63.2548H527.028V102H506.2V0.925582H550.765ZM548.315 47.1748C554.236 47.1748 558.626 46.0007 561.485 43.6525C564.446 41.2022 565.926 37.4757 565.926 32.4731C565.926 27.4704 564.446 23.7949 561.485 21.4468C558.626 18.9965 554.236 17.7713 548.315 17.7713H527.028V47.1748H548.315ZM560.719 51.6159L593.492 102H569.755L542.648 57.7417L560.719 51.6159ZM690.816 0.925582L654.98 64.1737V102H633.846V64.1737L598.011 0.925582H620.523L636.756 31.2479L644.413 47.0216L652.224 31.2479L668.457 0.925582H690.816ZM833.228 0.925582V17.9245H799.383V102H778.249V17.9245H744.252V0.925582H833.228ZM941.924 0.925582V102H920.79V0.925582H941.924ZM876.225 0.925582V102H855.091V0.925582H876.225ZM931.816 42.4273V59.4262H865.658V42.4273H931.816ZM1060.65 102H1038.75L1030.33 77.344H991.581L983.158 102H961.565L998.473 0.925582H1023.74L1060.65 102ZM996.329 61.7234H1025.58L1010.88 17.6182L996.329 61.7234ZM1147.17 0.925582V17.9245H1113.32V102H1092.19V17.9245H1058.19V0.925582H1147.17ZM87.0024 131.926V233H62.8058L27.4298 173.58L18.7006 157.041H18.5475L19.16 174.499V233H0.170303V131.926H24.2138L59.5898 191.192L68.319 207.885H68.6253L68.0127 190.426V131.926H87.0024ZM117.977 233V131.926H193.783V148.924H139.111V174.04H182.144V190.273H139.111V216.001H195.927V233H117.977ZM306.773 131.926L270.019 233H245.363L208.456 131.926H230.815L252.101 196.246L257.921 216.154L263.587 196.399L285.027 131.926H306.773ZM326.67 233V131.926H402.476V148.924H347.804V174.04H390.837V190.273H347.804V216.001H404.62V233H326.67ZM472.74 131.926C484.175 131.926 493.159 134.682 499.693 140.195C506.227 145.708 509.494 153.11 509.494 162.401C509.494 172.304 506.227 179.91 499.693 185.219C493.159 190.426 484.226 193.03 472.893 193.03L470.749 194.255H449.003V233H428.175V131.926H472.74ZM470.29 178.175C476.211 178.175 480.601 177.001 483.46 174.652C486.421 172.202 487.901 168.476 487.901 163.473C487.901 158.47 486.421 154.795 483.46 152.447C480.601 149.996 476.211 148.771 470.29 148.771H449.003V178.175H470.29ZM482.694 182.616L515.467 233H491.73L464.623 188.742L482.694 182.616ZM629.765 234.531C620.475 234.531 612.307 232.49 605.262 228.406C598.32 224.322 592.909 218.4 589.029 210.641C585.15 202.882 583.21 193.54 583.21 182.616C583.21 171.794 585.252 162.503 589.336 154.744C593.419 146.883 599.188 140.859 606.641 136.673C614.196 132.487 622.925 130.394 632.828 130.394C643.752 130.394 652.584 132.436 659.322 136.52C666.06 140.502 671.42 146.729 675.402 155.203L655.8 163.626C654.166 158.215 651.359 154.233 647.377 151.681C643.497 149.027 638.699 147.699 632.981 147.699C627.264 147.699 622.312 149.078 618.126 151.834C613.941 154.489 610.725 158.419 608.478 163.626C606.232 168.731 605.109 175.01 605.109 182.463C605.109 190.12 606.181 196.603 608.325 201.912C610.469 207.119 613.634 211.049 617.82 213.704C622.108 216.256 627.366 217.533 633.594 217.533C636.963 217.533 640.077 217.124 642.936 216.307C645.896 215.491 648.449 214.265 650.593 212.632C652.737 210.998 654.421 208.905 655.647 206.353C656.872 203.801 657.484 200.84 657.484 197.471V195.174H630.99V179.706H675.708V233H660.853L659.322 210.947L662.997 213.551C660.751 220.289 656.77 225.496 651.052 229.171C645.437 232.745 638.341 234.531 629.765 234.531ZM747.173 130.394C757.179 130.394 765.806 132.487 773.055 136.673C780.303 140.859 785.868 146.832 789.747 154.591C793.729 162.35 795.72 171.641 795.72 182.463C795.72 193.285 793.729 202.576 789.747 210.335C785.868 218.094 780.303 224.067 773.055 228.253C765.806 232.438 757.179 234.531 747.173 234.531C737.168 234.531 728.49 232.438 721.139 228.253C713.89 224.067 708.275 218.094 704.293 210.335C700.414 202.576 698.474 193.285 698.474 182.463C698.474 171.641 700.414 162.35 704.293 154.591C708.275 146.832 713.89 140.859 721.139 136.673C728.49 132.487 737.168 130.394 747.173 130.394ZM747.173 147.699C741.456 147.699 736.607 149.027 732.625 151.681C728.643 154.336 725.58 158.266 723.436 163.473C721.394 168.578 720.373 174.908 720.373 182.463C720.373 189.916 721.394 196.246 723.436 201.453C725.58 206.659 728.643 210.59 732.625 213.245C736.607 215.899 741.456 217.226 747.173 217.226C752.789 217.226 757.587 215.899 761.569 213.245C765.551 210.59 768.562 206.659 770.604 201.453C772.748 196.246 773.82 189.916 773.82 182.463C773.82 174.908 772.748 168.578 770.604 163.473C768.562 158.266 765.551 154.336 761.569 151.681C757.587 149.027 752.789 147.699 747.173 147.699ZM821.633 233V131.926H897.439V148.924H842.767V174.04H885.8V190.273H842.767V216.001H899.583V233H821.633ZM960.046 130.394C969.234 130.394 977.3 131.977 984.242 135.142C991.185 138.307 997.106 143.003 1002.01 149.231L990.215 162.86C986.029 157.552 981.435 153.672 976.432 151.222C971.532 148.669 965.814 147.393 959.28 147.393C954.992 147.393 951.419 147.955 948.56 149.078C945.803 150.201 943.762 151.681 942.434 153.519C941.209 155.356 940.597 157.398 940.597 159.644C940.597 162.401 941.669 164.749 943.813 166.689C945.957 168.527 949.632 170.058 954.839 171.283L973.676 175.571C983.681 177.817 990.828 181.187 995.116 185.679C999.506 190.069 1001.7 195.786 1001.7 202.831C1001.7 209.467 999.965 215.184 996.494 219.983C993.023 224.679 988.173 228.304 981.945 230.856C975.717 233.306 968.571 234.531 960.505 234.531C953.461 234.531 946.978 233.715 941.056 232.081C935.237 230.346 930.03 227.997 925.435 225.037C920.841 222.076 917.013 218.656 913.95 214.776L925.895 200.534C928.243 203.801 931.153 206.71 934.624 209.263C938.095 211.815 942.026 213.857 946.416 215.389C950.908 216.818 955.605 217.533 960.505 217.533C964.691 217.533 968.213 217.073 971.072 216.154C974.033 215.133 976.228 213.755 977.657 212.019C979.189 210.182 979.954 207.987 979.954 205.434C979.954 202.78 979.036 200.534 977.198 198.696C975.462 196.756 972.195 195.276 967.397 194.255L946.875 189.661C940.954 188.231 935.849 186.393 931.561 184.147C927.375 181.799 924.159 178.838 921.913 175.265C919.769 171.59 918.697 167.251 918.697 162.248C918.697 156.224 920.331 150.813 923.598 146.015C926.865 141.216 931.561 137.439 937.687 134.682C943.915 131.823 951.368 130.394 960.046 130.394ZM39.2218 262.926C55.0466 262.926 67.298 267.316 75.9761 276.096C84.6542 284.774 88.9933 297.23 88.9933 313.463C88.9933 329.594 84.6542 342.049 75.9761 350.83C67.298 359.61 55.0466 364 39.2218 364H0.170303V262.926H39.2218ZM38.1498 347.154C47.7467 347.154 54.9445 344.296 59.743 338.578C64.6435 332.759 67.0938 324.387 67.0938 313.463C67.0938 302.539 64.6435 294.218 59.743 288.5C54.9445 282.681 47.7467 279.771 38.1498 279.771H21.304V347.154H38.1498ZM158.482 261.394C168.487 261.394 177.114 263.487 184.363 267.673C191.612 271.859 197.176 277.832 201.056 285.591C205.037 293.35 207.028 302.641 207.028 313.463C207.028 324.285 205.037 333.576 201.056 341.335C197.176 349.094 191.612 355.067 184.363 359.253C177.114 363.438 168.487 365.531 158.482 365.531C148.477 365.531 139.798 363.438 132.448 359.253C125.199 355.067 119.584 349.094 115.602 341.335C111.722 333.576 109.782 324.285 109.782 313.463C109.782 302.641 111.722 293.35 115.602 285.591C119.584 277.832 125.199 271.859 132.448 267.673C139.798 263.487 148.477 261.394 158.482 261.394ZM158.482 278.699C152.765 278.699 147.915 280.027 143.933 282.681C139.952 285.336 136.889 289.266 134.745 294.473C132.703 299.578 131.682 305.908 131.682 313.463C131.682 320.916 132.703 327.246 134.745 332.453C136.889 337.659 139.952 341.59 143.933 344.245C147.915 346.899 152.765 348.226 158.482 348.226C164.097 348.226 168.896 346.899 172.877 344.245C176.859 341.59 179.871 337.659 181.913 332.453C184.057 327.246 185.129 320.916 185.129 313.463C185.129 305.908 184.057 299.578 181.913 294.473C179.871 289.266 176.859 285.336 172.877 282.681C168.896 280.027 164.097 278.699 158.482 278.699ZM250.14 364L220.737 262.926H243.249L263.158 346.389L283.373 262.926H303.587L324.109 346.389L343.864 262.926H365.457L336.054 364H312.317L298.227 308.868L293.48 284.978H293.174L288.426 308.868L274.49 364H250.14ZM473.174 262.926V364H448.978L413.602 304.58L404.872 288.041H404.719L405.332 305.499V364H386.342V262.926H410.386L445.762 322.192L454.491 338.885H454.797L454.184 321.426V262.926H473.174ZM524.21 262.926V299.68L521.607 331.381H504.761L502.158 299.68V262.926H524.21ZM513.184 341.794C517.166 341.794 520.331 342.866 522.679 345.01C525.027 347.154 526.201 350.013 526.201 353.586C526.201 357.262 525.027 360.171 522.679 362.315C520.331 364.357 517.166 365.378 513.184 365.378C509.202 365.378 506.037 364.357 503.689 362.315C501.341 360.171 500.167 357.262 500.167 353.586C500.167 350.013 501.341 347.154 503.689 345.01C506.037 342.866 509.202 341.794 513.184 341.794Z" fill="white"/>
</svg>
